<svg xmlns="http://www.w3.org/2000/svg" viewBox="0 0 512 512">
  <rect width="448" height="448" x="32.015" y="32" fill="var(--ci-secondary-color, currentColor)" class="ci-secondary" opacity="var(--ci-secondary-opacity, 0.25)" rx="24"/>
  <path fill="var(--ci-primary-color, currentColor)" d="M294.235,165.825l26.89,26.85,32.109-32.155V347.233a39.117,39.117,0,1,1-78.234,0V172.767a77.14,77.14,0,0,0-154.28,0V352.644L88.476,320.776,61.764,347.8l78.47,77.552,77.531-77.641-26.89-26.85-32.155,32.2v-180.3a39.14,39.14,0,0,1,78.28,0V347.233a77.117,77.117,0,1,0,154.234,0V160.851l32.29,31.913,26.712-27.028-78.47-77.552Z" class="ci-primary"/>
</svg>
