<svg xmlns="http://www.w3.org/2000/svg" viewBox="0 0 512 512">
  <path fill="var(--ci-secondary-color, currentColor)" d="M256,80a207.375,207.375,0,0,0-79.345,15.684L316.568,235.6h0L448.316,367.345A207.375,207.375,0,0,0,464,288C464,173.125,370.875,80,256,80Z" class="ci-secondary" opacity="var(--ci-secondary-opacity, 0.25)"/>
  <path fill="var(--ci-secondary-color, currentColor)" d="M48,288c0,114.875,93.125,208,208,208a207.356,207.356,0,0,0,148.352-62.226L110.226,139.648A207.355,207.355,0,0,0,48,288Z" class="ci-secondary" opacity="var(--ci-secondary-opacity, 0.25)"/>
  <polygon fill="var(--ci-primary-color, currentColor)" points="181.84 51.607 154.16 12.393 118.521 37.55 152.963 71.992 181.84 51.607" class="ci-primary"/>
  <rect width="48" height="166.469" x="388" y="-3.235" fill="var(--ci-primary-color, currentColor)" class="ci-primary" transform="rotate(-54.782 412.003 80)"/>
  <polygon fill="var(--ci-primary-color, currentColor)" points="143.198 113.224 123.068 93.094 88.626 58.651 45.975 16 16 16 16 45.422 53.808 83.229 18.16 108.393 45.84 147.607 88.25 117.671 110.226 139.648 404.352 433.774 466.579 496 496 496 496 466.025 430.776 400.801 143.198 113.224" class="ci-primary"/>
</svg>
