<svg xmlns="http://www.w3.org/2000/svg" viewBox="0 0 512 512">
  <rect width="480" height="480" x="16" y="16" fill="var(--ci-secondary-color, currentColor)" class="ci-secondary" opacity="var(--ci-secondary-opacity, 0.25)" rx="32"/>
  <polygon fill="var(--ci-primary-color, currentColor)" points="192 232 128 232 128 136 80 136 80 376 128 376 128 280 192 280 192 376 240 376 240 136 192 136 192 232" class="ci-primary"/>
  <path fill="var(--ci-primary-color, currentColor)" d="M431.106,355.393A59.626,59.626,0,0,0,440,324V188a60.068,60.068,0,0,0-60-60H336a56.063,56.063,0,0,0-56,56V328a56.063,56.063,0,0,0,56,56h44a60.024,60.024,0,0,0,11.718-1.157l20.313,30.47,39.938-26.626ZM392,324a12.013,12.013,0,0,1-12,12H336a8.009,8.009,0,0,1-8-8V184a8.009,8.009,0,0,1,8-8h44a12.013,12.013,0,0,1,12,12Z" class="ci-primary"/>
</svg>
