<svg xmlns="http://www.w3.org/2000/svg" viewBox="0 0 512 512">
  <path fill="var(--ci-secondary-color, currentColor)" d="M480,216C480,114.38,379.712,32,256,32S32,114.38,32,216,132.288,400,256,400a274.016,274.016,0,0,0,33.348-2.032l22.106,19.159A257.353,257.353,0,0,0,480,480V464h0a299.274,299.274,0,0,1-70.593-112.012l-.534-1.516C452.634,316.89,480,269.074,480,216Z" class="ci-secondary" opacity="var(--ci-secondary-opacity, 0.25)"/>
  <path fill="var(--ci-primary-color, currentColor)" d="M327.28,171.854a72.931,72.931,0,0,0-69.8-69.8A72.666,72.666,0,0,0,182,174.667h36a36.67,36.67,0,0,1,38.113-36.64,36.671,36.671,0,0,1,3.27,73.008,26.056,26.056,0,0,0-22.716,25.783V272h36V245.083a72.7,72.7,0,0,0,54.613-73.229Z" class="ci-primary"/>
  <rect width="36" height="36" x="236" y="296" fill="var(--ci-primary-color, currentColor)" class="ci-primary"/>
</svg>
