<svg xmlns="http://www.w3.org/2000/svg" viewBox="0 0 512 512">
  <polygon fill="var(--ci-secondary-color, currentColor)" points="496 466.301 45.699 16 16 16 16 45.699 93.567 123.267 127.514 157.213 356.352 386.051 390.952 420.651 466.301 496 496 496 496 466.301" class="ci-secondary" opacity="var(--ci-secondary-opacity, 0.25)"/>
  <path fill="var(--ci-primary-color, currentColor)" d="M424.205,263.5A144.006,144.006,0,0,1,410.594,324.9l35.517,35.517a192.681,192.681,0,0,0-24.7-227.189l54.36-41.816L320,51.367V211.228l63.162-48.587A143.509,143.509,0,0,1,424.205,263.5Z" class="ci-primary"/>
  <path fill="var(--ci-primary-color, currentColor)" d="M232.246,112l-.082-48A192.389,192.389,0,0,0,162.7,77l38.41,38.41A145.805,145.805,0,0,1,232.246,112Z" class="ci-primary"/>
  <path fill="var(--ci-primary-color, currentColor)" d="M90.8,386.775,36.438,428.593l155.767,40.04V308.772l-63.162,48.586c-54.107-55.478-54.622-144.045-1.529-200.145L93.567,123.267C23.212,196.59,22.293,312.337,90.8,386.775Z" class="ci-primary"/>
  <path fill="var(--ci-primary-color, currentColor)" d="M279.959,408l.082,48a191.122,191.122,0,0,0,110.911-35.349l-34.6-34.6A143.556,143.556,0,0,1,279.959,408Z" class="ci-primary"/>
</svg>
