<svg xmlns="http://www.w3.org/2000/svg" viewBox="0 0 512 512">
  <polygon fill="var(--ci-secondary-color, currentColor)" points="45.976 16 16 16 16 45.422 466.578 496 496 496 496 466.024 45.976 16" class="ci-secondary" opacity="var(--ci-secondary-opacity, 0.25)"/>
  <polygon fill="var(--ci-primary-color, currentColor)" points="376.971 296 400 296 400 240 320.971 240 376.971 296" class="ci-primary"/>
  <polygon fill="var(--ci-primary-color, currentColor)" points="266.578 296 224 253.422 210.578 240 136 240 136 296 224 296 266.578 296" class="ci-primary"/>
  <polygon fill="var(--ci-primary-color, currentColor)" points="136 336 136 392 224 392 224 472 288 472 288 392 362.578 392 306.578 336 136 336" class="ci-primary"/>
  <polygon fill="var(--ci-primary-color, currentColor)" points="425.2 91.722 374.8 52.278 268.753 187.782 314.343 233.372 425.2 91.722" class="ci-primary"/>
</svg>
