<svg xmlns="http://www.w3.org/2000/svg" viewBox="0 0 512 512">
  <path fill="var(--ci-secondary-color, currentColor)" d="M256,16A238.857,238.857,0,0,0,130.422,51.451L460.549,381.578A238.857,238.857,0,0,0,496,256C496,123.452,388.548,16,256,16Z" class="ci-secondary" opacity="var(--ci-secondary-opacity, 0.25)"/>
  <path fill="var(--ci-secondary-color, currentColor)" d="M71.314,102.735A239.017,239.017,0,0,0,16,256c0,132.548,107.452,240,240,240a239.017,239.017,0,0,0,153.265-55.314Z" class="ci-secondary" opacity="var(--ci-secondary-opacity, 0.25)"/>
  <path fill="var(--ci-primary-color, currentColor)" d="M72,16v-.2c-.075.066-.152.131-.227.2Z" class="ci-primary"/>
  <path fill="var(--ci-primary-color, currentColor)" d="M100.035,73.06a241.5,241.5,0,0,0-29.889,29.508L193,225.422V242H145v40H249.578l40,40H145v40h48v48h48V362h64V337.422L408.432,440.854a241.5,241.5,0,0,0,29.508-29.889Z" class="ci-primary"/>
  <path fill="var(--ci-primary-color, currentColor)" d="M242,153h50.849c22.613,0,43.105,18.4,44.628,40.965a44.008,44.008,0,0,1-22.234,41.307l1.325,1.325h0l33.195,33.195a91.877,91.877,0,0,0,35.788-75.073C384.35,145.354,341.809,105,292.43,105H184.971L242,162.029Z" class="ci-primary"/>
</svg>
