<svg xmlns="http://www.w3.org/2000/svg" viewBox="0 0 512 512">
  <polygon fill="var(--ci-secondary-color, currentColor)" points="64 72 64 129.308 113.936 184 198.35 276.454 240 322.07 240 416 160 440 160 480 368 480 368 440 288 416 288 322.07 331.245 274.707 414.064 184 464 129.308 464 72 64 72" class="ci-secondary" opacity="var(--ci-secondary-opacity, 0.25)"/>
  <polygon fill="var(--ci-primary-color, currentColor)" points="288 322.07 331.245 274.707 414.064 184 349.066 184 178.934 184 113.936 184 198.35 276.454 240 322.07 240 416 160 440 160 480 368 480 368 440 288 416 288 322.07" class="ci-primary"/>
</svg>
