<svg xmlns="http://www.w3.org/2000/svg" viewBox="0 0 512 512">
  <path fill="var(--ci-secondary-color, currentColor)" d="M397.509,131.564a69.647,69.647,0,0,0,3.552-83.133L400.766,48H357.139l14.215,20.766a33.466,33.466,0,0,1-1.664,39.949c-18.779,22.863-20.73,56.307-4.743,81.331L371.306,200h42.721l-18.743-29.336A33.672,33.672,0,0,1,397.509,131.564Z" class="ci-secondary" opacity="var(--ci-secondary-opacity, 0.25)"/>
  <path fill="var(--ci-secondary-color, currentColor)" d="M467.284,170.664a33.672,33.672,0,0,1,2.225-39.1,69.647,69.647,0,0,0,3.552-83.133L472.766,48H429.139l14.215,20.766a33.466,33.466,0,0,1-1.664,39.949c-18.779,22.863-20.73,56.307-4.743,81.331L443.306,200h42.721Z" class="ci-secondary" opacity="var(--ci-secondary-opacity, 0.25)"/>
  <polygon fill="var(--ci-secondary-color, currentColor)" points="16 240 16 360 330.578 360 210.578 240 16 240" class="ci-secondary" opacity="var(--ci-secondary-opacity, 0.25)"/>
  <polygon fill="var(--ci-primary-color, currentColor)" points="424 240 376 240 376 295.029 424 343.029 424 240" class="ci-primary"/>
  <rect width="48" height="120" x="448" y="240" fill="var(--ci-primary-color, currentColor)" class="ci-primary"/>
  <polygon fill="var(--ci-primary-color, currentColor)" points="16 16 16 45.422 210.578 240 330.578 360 466.578 496 496 496 496 466.457 45.709 16 16 16" class="ci-primary"/>
</svg>
