<svg xmlns="http://www.w3.org/2000/svg" viewBox="0 0 512 512">
  <path fill="var(--ci-secondary-color, currentColor)" d="M256,16C158.953,16,80,94.953,80,192V384h64V192a112,112,0,0,1,224,0V384h64V192C432,94.953,353.047,16,256,16Z" class="ci-secondary" opacity="var(--ci-secondary-opacity, 0.25)"/>
  <polygon fill="var(--ci-primary-color, currentColor)" points="303.029 224.019 256.495 270.553 209.96 224.019 176.019 257.96 222.553 304.495 176.019 351.029 209.96 384.971 256.495 338.436 303.029 384.971 336.971 351.029 290.436 304.495 336.971 257.96 303.029 224.019" class="ci-primary"/>
  <path fill="var(--ci-primary-color, currentColor)" d="M464,216H432V384h32a32,32,0,0,0,32-32V248A32,32,0,0,0,464,216Z" class="ci-primary"/>
  <path fill="var(--ci-primary-color, currentColor)" d="M16,248V352a32,32,0,0,0,32,32H80V216H48A32,32,0,0,0,16,248Z" class="ci-primary"/>
</svg>
