<svg xmlns="http://www.w3.org/2000/svg" viewBox="0 0 512 512">
  <path fill="var(--ci-secondary-color, currentColor)" d="M15.985,40V472H496V40Zm84.864,384H63.985V376h36.864Zm0-96H63.985V280h36.864Zm0-96H63.985V184h36.864Zm0-96H63.985V88h36.864ZM448,424H411.151V376H448Zm0-96H411.151V280H448Zm0-96H411.151V184H448Zm0-96H411.151V88H448Z" class="ci-secondary" opacity="var(--ci-secondary-opacity, 0.25)"/>
  <polygon fill="var(--ci-primary-color, currentColor)" points="148.849 328 148.849 376 148.849 424 363.138 424 363.138 376 363.138 328 363.138 280 148.849 280 148.849 328" class="ci-primary"/>
  <polygon fill="var(--ci-primary-color, currentColor)" points="148.849 88 148.849 136 148.849 184 148.849 232 363.138 232 363.138 184 363.138 136 363.138 88 148.849 88" class="ci-primary"/>
</svg>
