<svg xmlns="http://www.w3.org/2000/svg" viewBox="0 0 512 512">
  <path fill="var(--ci-secondary-color, currentColor)" d="M427.425,416c-22.468,0-34.649,5.685-44.437,10.251C375.57,429.713,370.669,432,358.849,432s-16.719-2.287-24.137-5.748C324.925,421.685,312.745,416,290.277,416s-34.647,5.685-44.434,10.252c-7.418,3.461-12.318,5.748-24.136,5.748s-16.717-2.287-24.134-5.748C187.786,421.685,175.606,416,153.14,416s-34.647,5.685-44.434,10.252C101.288,429.713,96.388,432,84.57,432s-16.718-2.287-24.135-5.748C50.647,421.685,38.467,416,16,416v48c11.818,0,16.718,2.287,24.136,5.748C49.923,474.315,62.1,480,84.57,480s34.647-5.685,44.434-10.252c7.418-3.461,12.318-5.748,24.136-5.748s16.717,2.287,24.133,5.748C187.061,474.315,199.24,480,221.707,480s34.647-5.685,44.435-10.252c7.417-3.461,12.317-5.748,24.135-5.748s16.719,2.287,24.137,5.748C324.2,474.315,336.382,480,358.849,480s34.65-5.685,44.437-10.251c7.419-3.462,12.319-5.749,24.139-5.749s16.721,2.287,24.138,5.749C461.351,474.315,473.532,480,496,480V432c-11.82,0-16.721-2.287-24.139-5.749C462.074,421.685,449.893,416,427.425,416Z" class="ci-secondary" opacity="var(--ci-secondary-opacity, 0.25)"/>
  <path fill="var(--ci-secondary-color, currentColor)" d="M471.861,330.251C462.074,325.685,449.893,320,427.425,320s-34.649,5.685-44.437,10.251C375.57,333.713,370.669,336,358.849,336s-16.719-2.287-24.137-5.748C324.925,325.685,312.745,320,290.277,320s-34.647,5.685-44.434,10.252c-7.418,3.461-12.318,5.748-24.136,5.748s-16.717-2.287-24.134-5.748C187.786,325.685,175.606,320,153.14,320s-34.647,5.685-44.434,10.252C101.288,333.713,96.388,336,84.57,336s-16.718-2.287-24.135-5.748C50.647,325.685,38.467,320,16,320v48c11.818,0,16.718,2.287,24.136,5.748C49.923,378.315,62.1,384,84.57,384s34.647-5.685,44.434-10.252c7.418-3.461,12.318-5.748,24.136-5.748s16.717,2.287,24.133,5.748C187.061,378.315,199.24,384,221.707,384s34.647-5.685,44.435-10.252c7.417-3.461,12.317-5.748,24.135-5.748s16.719,2.287,24.137,5.748C324.2,378.315,336.382,384,358.849,384s34.65-5.685,44.437-10.251c7.419-3.462,12.319-5.749,24.139-5.749s16.721,2.287,24.138,5.749C461.351,378.315,473.532,384,496,384V336C484.18,336,479.279,333.713,471.861,330.251Z" class="ci-secondary" opacity="var(--ci-secondary-opacity, 0.25)"/>
  <path fill="var(--ci-primary-color, currentColor)" d="M253.672,120.4a56.174,56.174,0,0,0-63.2-11.185L109.982,146.19l20.036,43.62,80.542-37,.131-.062a8.029,8.029,0,0,1,8.838,1.4l29.794,31.968L142.381,280.477c3.308-.3,6.877-.477,10.759-.477,22.466,0,34.646,5.685,44.433,10.252C204.99,293.713,209.89,296,221.707,296a50.134,50.134,0,0,0,13.68-1.566l63.044-55.628,52.945,56.807a65.153,65.153,0,0,0,7.473.387c11.82,0,16.721-2.287,24.139-5.749a100.666,100.666,0,0,1,21.644-7.9L254.259,121.01Z" class="ci-primary"/>
  <circle cx="368" cy="136" r="48" fill="var(--ci-primary-color, currentColor)" class="ci-primary"/>
</svg>
