<svg xmlns="http://www.w3.org/2000/svg" viewBox="0 0 512 512">
  <path fill="var(--ci-secondary-color, currentColor)" d="M413.27,277.14c-.324,0-.646.007-.97,0a119.476,119.476,0,0,1-94.331-47.537A122.022,122.022,0,0,1,293,155.546V39.7q-18.428-1.552-37-1.574A439.835,439.835,0,0,0,8,114.7V165.79L91.064,284.418,228.012,480h55.976L426.549,276.4A120.337,120.337,0,0,1,413.27,277.14Z" class="ci-secondary" opacity="var(--ci-secondary-opacity, 0.25)"/>
  <path fill="var(--ci-primary-color, currentColor)" d="M472,104V75.527a60.319,60.319,0,0,0-60.25-60.25h-.5A60.319,60.319,0,0,0,351,75.527V104H329v53.148a84.091,84.091,0,0,0,87.111,83.944C461.442,239.446,497,201.468,497,156.107V104Zm-36-2H387V75.527a24.482,24.482,0,0,1,29.9-23.674C427.459,54.1,436,65.194,436,75.987Z" class="ci-primary"/>
  <path fill="var(--ci-primary-color, currentColor)" d="M412.3,277.145a119.476,119.476,0,0,1-94.331-47.537,250.225,250.225,0,0,0-226.9,54.81L228.012,480h55.976L426.549,276.4a120.337,120.337,0,0,1-13.279.739C412.946,277.14,412.624,277.147,412.3,277.145Z" class="ci-primary"/>
</svg>
