<svg xmlns="http://www.w3.org/2000/svg" viewBox="0 0 512 512">
  <path fill="var(--ci-secondary-color, currentColor)" d="M461.982,255.1c0,113-92.347,204.972-206,205.331V416L144.308,496H255.321v.439c133.8,0,242.661-108.264,242.661-241.339Z" class="ci-secondary" opacity="var(--ci-secondary-opacity, 0.25)"/>
  <path fill="var(--ci-secondary-color, currentColor)" d="M256,96,368,16H256v.721A239.307,239.307,0,0,0,17.414,256.035h36C53.414,144.168,144.226,53.121,256,52.722Z" class="ci-secondary" opacity="var(--ci-secondary-opacity, 0.25)"/>
  <path fill="var(--ci-primary-color, currentColor)" d="M236.417,251.4V124.573l-97.19,56.113a26.071,26.071,0,0,0-13,22.516V313.676l36-20.348Z" class="ci-primary"/>
  <path fill="var(--ci-primary-color, currentColor)" d="M364.769,180.685l-96.352-55.628V251.436l73.352,41.46,36,20.348V203.2A26.073,26.073,0,0,0,364.769,180.685Z" class="ci-primary"/>
  <path fill="var(--ci-primary-color, currentColor)" d="M252.38,279.13,177.5,321.452l-36.382,20.564L239,398.526a26.068,26.068,0,0,0,26,0L363.253,341.8l-36.382-20.564Z" class="ci-primary"/>
</svg>
