<svg xmlns="http://www.w3.org/2000/svg" viewBox="0 0 512 512">
  <rect width="304" height="448" x="192" y="30.667" fill="var(--ci-secondary-color, currentColor)" class="ci-secondary" opacity="var(--ci-secondary-opacity, 0.25)" rx="8"/>
  <path fill="var(--ci-primary-color, currentColor)" d="M104,80V432a8,8,0,0,0,8,8h48V72H112A8,8,0,0,0,104,80Z" class="ci-primary"/>
  <path fill="var(--ci-primary-color, currentColor)" d="M16,128V384a16,16,0,0,0,16,16H72V112H32A16,16,0,0,0,16,128Z" class="ci-primary"/>
  <path fill="var(--ci-primary-color, currentColor)" d="M416.92,304.341l-39.864-25.912,17.658-43V185.714a49.714,49.714,0,1,0-99.428,0v49.714L311.42,279.42l-38.34,24.921A33.143,33.143,0,0,0,258,332.129V368H432V332.129A33.143,33.143,0,0,0,416.92,304.341Z" class="ci-primary"/>
</svg>
