<svg xmlns="http://www.w3.org/2000/svg" viewBox="0 0 512 512">
  <rect width="480" height="384" x="16" y="64" fill="var(--ci-secondary-color, currentColor)" class="ci-secondary" opacity="var(--ci-secondary-opacity, 0.25)" rx="16"/>
  <path fill="var(--ci-primary-color, currentColor)" d="M358.334,318.229a62.229,62.229,0,0,1,0-124.458,61.572,61.572,0,0,1,38.514,13.347l22.3-28.259a97.236,97.236,0,0,0-60.818-21.088,98.229,98.229,0,0,0,0,196.458,97.236,97.236,0,0,0,60.818-21.088l-22.3-28.259A61.572,61.572,0,0,1,358.334,318.229Z" class="ci-primary"/>
  <path fill="var(--ci-primary-color, currentColor)" d="M176.229,193.771a61.571,61.571,0,0,1,38.513,13.347l22.3-28.259a97.235,97.235,0,0,0-60.817-21.088,98.229,98.229,0,0,0,0,196.458,97.235,97.235,0,0,0,60.817-21.088l-22.3-28.259a61.571,61.571,0,0,1-38.513,13.347,62.229,62.229,0,0,1,0-124.458Z" class="ci-primary"/>
</svg>
