<svg xmlns="http://www.w3.org/2000/svg" viewBox="0 0 512 512">
  <rect width="448" height="448" x="33" y="42" fill="var(--ci-secondary-color, currentColor)" class="ci-secondary" opacity="var(--ci-secondary-opacity, 0.25)" rx="224"/>
  <path fill="var(--ci-primary-color, currentColor)" d="M380.726,138.3A182.034,182.034,0,0,0,264.313,89.737c-101.22-4.593-186.7,76.328-185.973,177.65.7,96.765,79.993,175.272,177.363,175.272a176.788,176.788,0,0,0,124.132-50.446l-23.846-24.224c-36.316,35.425-88.39,49.4-140.157,35.386a139.793,139.793,0,0,1-98.807-100.607c-23.8-94.415,47.667-179.311,138.678-179.311,77.675,0,143.3,60.1,143.3,131.243v25.65c0,17.365-15.477,31.493-34.5,31.493S330,297.716,330,280.35V192H296v13.264a76.9,76.9,0,0,0-46.42-13.05c-39.362,1.683-71.492,33.218-73.594,72.559-2.363,44.24,33.078,80.985,76.969,80.985a77.016,77.016,0,0,0,57.315-25.516,69.58,69.58,0,0,0,54.23,25.516c37.771,0,68.5-29.342,68.5-65.408V249h-.049C431.4,207.544,413.005,168.424,380.726,138.3ZM253.143,311.857a43,43,0,1,1,43-43A43.049,43.049,0,0,1,253.143,311.857Z" class="ci-primary"/>
</svg>
