<svg xmlns="http://www.w3.org/2000/svg" viewBox="0 0 512 512">
  <path fill="var(--ci-secondary-color, currentColor)" d="M471.06,101.942c-74.233-49.5-144.491-74.006-214.789-74.914-1.437-.018-2.867-.028-4.3-.028C182.282,27,113.506,48.884,41.883,93.819a36.819,36.819,0,0,0-12.227,50.069L224.241,475.405a36.683,36.683,0,0,0,31.732,18.271h.185a36.677,36.677,0,0,0,31.72-17.964L482.247,151.764A36.956,36.956,0,0,0,471.06,101.942Z" class="ci-secondary" opacity="var(--ci-secondary-opacity, 0.25)"/>
  <rect width="68.352" height="35.999" x="253.824" y="178.027" fill="var(--ci-primary-color, currentColor)" class="ci-primary" transform="rotate(-20.556 288.002 196.026)"/>
  <rect width="36" height="62.482" x="230" y="316.785" fill="var(--ci-primary-color, currentColor)" class="ci-primary" transform="rotate(-50.194 248.003 348.028)"/>
  <path fill="var(--ci-primary-color, currentColor)" d="M223.576,231.487A27.731,27.731,0,1,0,201.069,263.6,27.731,27.731,0,0,0,223.576,231.487Z" class="ci-primary"/>
  <circle cx="307.735" cy="283.762" r="27.731" fill="var(--ci-primary-color, currentColor)" class="ci-primary" transform="rotate(-40.627 307.731 283.76)"/>
  <path fill="var(--ci-primary-color, currentColor)" d="M261.47,88.791c-70.837,0-134.157,30.313-175.036,55.962l19.132,30.5c36.857-23.124,93.606-50.457,155.9-50.457.91,0,1.824.006,2.737.018,51.89.67,99.494,16.611,149.814,50.167l19.972-29.952c-56.364-37.586-110.167-55.448-169.321-56.211C263.6,88.8,262.537,88.791,261.47,88.791Z" class="ci-primary"/>
</svg>
