<svg xmlns="http://www.w3.org/2000/svg" viewBox="0 0 512 512">
  <path fill="var(--ci-secondary-color, currentColor)" d="M471,112.232H368.394l.049-95.87H154.224l-.05,95.87H41A24.8,24.8,0,0,0,16.232,137V471.033A24.8,24.8,0,0,0,41,495.8H471a24.8,24.8,0,0,0,24.768-24.768V137A24.8,24.8,0,0,0,471,112.232ZM196.2,58.362h130.22l-.028,53.87H196.174Z" class="ci-secondary" opacity="var(--ci-secondary-opacity, 0.25)"/>
  <polygon fill="var(--ci-primary-color, currentColor)" points="240.23 408 250.447 408 342.597 305.633 250.447 203.266 240.23 203.266 240.23 281.633 152 281.633 152 329.633 240.23 329.633 240.23 408" class="ci-primary"/>
</svg>
