<svg xmlns="http://www.w3.org/2000/svg" viewBox="0 0 512 512">
  <rect width="448" height="448" x="32" y="32" fill="var(--ci-secondary-color, currentColor)" class="ci-secondary" opacity="var(--ci-secondary-opacity, 0.25)"/>
  <path fill="var(--ci-primary-color, currentColor)" d="M199,222H128V201.667L222,107.4V67H182.467L68,181.467V353a24,24,0,0,0,24,24H199a24,24,0,0,0,24-24V246A24,24,0,0,0,199,222Z" class="ci-primary"/>
  <path fill="var(--ci-primary-color, currentColor)" d="M444,107.4V67H403.467L289,181.467V353a24,24,0,0,0,24,24H420a24,24,0,0,0,24-24V246a24,24,0,0,0-24-24H350V201.667Z" class="ci-primary"/>
</svg>
