<svg xmlns="http://www.w3.org/2000/svg" viewBox="0 0 512 512">
  <path fill="var(--ci-secondary-color, currentColor)" d="M280,150V21.552l-18.263,2.609C209.885,31.568,171.624,63.4,151.088,116.2a223.237,223.237,0,0,0-10.931,38.357A87.449,87.449,0,0,1,168.087,150Z" class="ci-secondary" opacity="var(--ci-secondary-opacity, 0.25)"/>
  <path fill="var(--ci-primary-color, currentColor)" d="M438.3,281.294c-23.8-10.2-46.367-43.736-63.541-94.428h0C367.408,165.16,346.123,150,323,150H168.087a87.449,87.449,0,0,0-27.93,4.558,84.378,84.378,0,0,0-13.4,5.839c-1.2.656-2.292,1.286-3.209,1.871C104.215,174.606,87.4,193.179,73.358,217.75c-14.736,25.788-26.506,58.358-34.983,96.805A648.37,648.37,0,0,0,24,440v56H272V428.468a265.334,265.334,0,0,1,67.52-7.03,94.97,94.97,0,0,0,94.418-70.61l17.089-64.081Z" class="ci-primary"/>
</svg>
