<svg xmlns="http://www.w3.org/2000/svg" viewBox="0 0 512 512">
  <path fill="var(--ci-secondary-color, currentColor)" d="M344.055,174.427a23.975,23.975,0,0,1-13.311-4.034L192,77.9v71.148A104.18,104.18,0,0,1,264,248v8H496V80.283L357.135,170.545A23.976,23.976,0,0,1,344.055,174.427Z" class="ci-secondary" opacity="var(--ci-secondary-opacity, 0.25)"/>
  <polygon fill="var(--ci-secondary-color, currentColor)" points="192 16 192 39.437 344.111 140.845 495.28 42.585 496 43.692 496 16 192 16" class="ci-secondary" opacity="var(--ci-secondary-opacity, 0.25)"/>
  <path fill="var(--ci-primary-color, currentColor)" d="M205.826,377.435h0L232,312V248h0a72.466,72.466,0,0,0-.83-10.965A71.593,71.593,0,0,0,219.7,207.744q-1.941-2.872-4.145-5.543a72.426,72.426,0,0,0-15.3-13.9q-2.872-1.94-5.936-3.606a72.116,72.116,0,0,0-68.64,0q-3.06,1.662-5.936,3.606a72.426,72.426,0,0,0-15.3,13.905q-2.2,2.667-4.145,5.543A71.593,71.593,0,0,0,88.83,237.035,72.466,72.466,0,0,0,88,248v64l26.174,65.434h0L34.511,421.712a35.874,35.874,0,0,0-4.076,2.639q-.964.721-1.875,1.5a35.908,35.908,0,0,0-3.4,3.338q-.792.887-1.522,1.821A35.988,35.988,0,0,0,16,453.178V496H304V453.178a36,36,0,0,0-7.633-22.166q-.729-.935-1.522-1.821a35.908,35.908,0,0,0-3.405-3.338q-.909-.78-1.875-1.5a35.874,35.874,0,0,0-4.076-2.639Z" class="ci-primary"/>
</svg>
