<svg xmlns="http://www.w3.org/2000/svg" viewBox="0 0 512 512">
  <polygon fill="var(--ci-secondary-color, currentColor)" points="224 15.998 224 66.337 224 131.398 224 287.998 288 287.998 288 131.398 288 66.337 288 15.998 224 15.998" class="ci-secondary" opacity="var(--ci-secondary-opacity, 0.25)"/>
  <path fill="var(--ci-primary-color, currentColor)" d="M408.735,127.263A215.089,215.089,0,0,0,324,74.866v69.219A152.165,152.165,0,0,1,408,280c0,83.814-68.187,152-152,152S104,363.812,104,280a152.165,152.165,0,0,1,84-135.913V74.866a216.119,216.119,0,1,0,220.735,52.4Z" class="ci-primary"/>
</svg>
