<svg xmlns="http://www.w3.org/2000/svg" viewBox="0 0 512 512">
  <path fill="var(--ci-secondary-color, currentColor)" d="M250.268,179.058C177.375,128.576,116.185,98.965,81.4,96.775c-.278-.017-.57-.049-.845-.063-.008.289-.008.581-.014.871-1.338,63.485,44.682,143.776,73.751,187.973a388.235,388.235,0,0,0,38.792,49.6l40.184-40.184,29.7-29.7,42.148-42.148A500.487,500.487,0,0,0,250.268,179.058Z" class="ci-secondary" opacity="var(--ci-secondary-opacity, 0.25)"/>
  <polygon fill="var(--ci-primary-color, currentColor)" points="262.967 265.268 233.268 294.967 394.302 456 453.698 456 262.967 265.268" class="ci-primary"/>
  <path fill="var(--ci-primary-color, currentColor)" d="M330.59,197.645,399.431,128.8l-27.785-27.785A208.546,208.546,0,0,0,119.8,68.039c14.493,4.482,30.492,11.011,48.111,19.619,38.2,18.665,77.017,43.912,102.853,61.8A536.828,536.828,0,0,1,330.59,197.645Z" class="ci-primary"/>
  <path fill="var(--ci-primary-color, currentColor)" d="M68.016,201.421Q53.821,166.981,48.2,136.927A208.524,208.524,0,0,0,77.019,395.646L104.8,423.431l62.8-62.8a424.567,424.567,0,0,1-43.39-55.291C107.879,280.5,84.868,242.313,68.016,201.421Z" class="ci-primary"/>
</svg>
