<svg xmlns="http://www.w3.org/2000/svg" viewBox="0 0 512 512">
  <rect width="480" height="384" x="16" y="64" fill="var(--ci-secondary-color, currentColor)" class="ci-secondary" opacity="var(--ci-secondary-opacity, 0.25)" rx="16"/>
  <path fill="var(--ci-primary-color, currentColor)" d="M139.026,166,79.693,344H117.64l12.667-38h67.386l12.667,38h37.947L188.974,166Zm3.281,104L164,204.921,185.693,270Z" class="ci-primary"/>
  <path fill="var(--ci-primary-color, currentColor)" d="M343.333,166H278V344.425h65.333A82.76,82.76,0,0,0,426,261.759V248.667A82.76,82.76,0,0,0,343.333,166ZM390,261.759a46.719,46.719,0,0,1-46.667,46.666H314V202h29.333A46.72,46.72,0,0,1,390,248.667Z" class="ci-primary"/>
</svg>
