<svg xmlns="http://www.w3.org/2000/svg" viewBox="0 0 512 512">
  <polygon fill="var(--ci-secondary-color, currentColor)" points="376 140 376 16 136 16 136 55.271 220.842 140 376 140" class="ci-secondary" opacity="var(--ci-secondary-opacity, 0.25)"/>
  <polygon fill="var(--ci-secondary-color, currentColor)" points="379.5 420 376.585 406.01 372.575 402 354.575 384 258.576 288 160 288 140 384 136.25 402 132.5 420 120 480 392 480 379.5 420" class="ci-secondary" opacity="var(--ci-secondary-opacity, 0.25)"/>
  <polygon fill="var(--ci-primary-color, currentColor)" points="332.969 252 381.273 252 393.984 313.016 464.968 384 480 384 480 176 256.889 176 332.969 252" class="ci-primary"/>
  <polygon fill="var(--ci-primary-color, currentColor)" points="45.976 16 45.709 16 16 16 16 45.422 146.576 175.998 146.578 176 32 176 32 384 103.227 384 130.727 252 222.578 252 466.578 496 496 496 496 466.457 45.976 16" class="ci-primary"/>
</svg>
