<svg xmlns="http://www.w3.org/2000/svg" viewBox="0 0 512 512">
  <polygon fill="var(--ci-secondary-color, currentColor)" points="65.848 385.724 16.156 438.278 16.262 479.653 124.073 479.935 142.086 461.922 65.848 385.724" class="ci-secondary" opacity="var(--ci-secondary-opacity, 0.25)"/>
  <path fill="var(--ci-primary-color, currentColor)" d="M493.8,114.9,400.285,20.189a33.754,33.754,0,0,0-24.2-10.113h-.026a33.758,33.758,0,0,0-24.209,10.149L86.079,290.214a34.094,34.094,0,0,0,.188,47.894L99.79,351.632,65.849,385.723l76.237,76.2,34-34,11.259,11.259a33.707,33.707,0,0,0,24.021,9.958c.2,0,.4,0,.592,0a33.726,33.726,0,0,0,24.266-10.777L494.5,162.074A33.959,33.959,0,0,0,493.8,114.9Z" class="ci-primary"/>
</svg>
