<svg xmlns="http://www.w3.org/2000/svg" viewBox="0 0 512 512">
  <path fill="var(--ci-secondary-color, currentColor)" d="M350.845,158.341A83.728,83.728,0,0,1,329.3,115.428L163.434,204.74a83.71,83.71,0,0,1,21.34,43.024Z" class="ci-secondary" opacity="var(--ci-secondary-opacity, 0.25)"/>
  <path fill="var(--ci-secondary-color, currentColor)" d="M163.179,319.528l165.658,80.7A83.65,83.65,0,0,1,348.883,356.6L184.706,276.621A83.723,83.723,0,0,1,163.179,319.528Z" class="ci-secondary" opacity="var(--ci-secondary-opacity, 0.25)"/>
  <path fill="var(--ci-primary-color, currentColor)" d="M163.434,204.74a84.116,84.116,0,1,0,21.34,43.024A83.749,83.749,0,0,0,163.434,204.74Z" class="ci-primary"/>
  <path fill="var(--ci-primary-color, currentColor)" d="M412,328a84.046,84.046,0,0,0-83.163,72.233A84,84,0,1,0,412,328Z" class="ci-primary"/>
  <path fill="var(--ci-primary-color, currentColor)" d="M350.845,158.341A84.122,84.122,0,1,0,329.3,115.428,83.748,83.748,0,0,0,350.845,158.341Z" class="ci-primary"/>
</svg>
