<svg xmlns="http://www.w3.org/2000/svg" viewBox="0 0 512 512">
  <path fill="var(--ci-secondary-color, currentColor)" d="M455.336,454l-22.909-36H464V382H409.518l-22.91-36H416V310H363.7l-24.182-38H296.846l24.182,38H190.972l24.182-38H172.483L148.3,310H96v36h29.392l-22.91,36H48v36H79.573L56.664,454H16v36H496V454ZM168.063,346H343.937l22.909,36H145.154ZM99.336,454l22.909-36h267.51l22.909,36Z" class="ci-secondary" opacity="var(--ci-secondary-opacity, 0.25)"/>
  <path fill="var(--ci-primary-color, currentColor)" d="M337.867,16H167.4a42.817,42.817,0,0,0-42.768,42.768V120h256V58.768A42.816,42.816,0,0,0,337.867,16Z" class="ci-primary"/>
  <path fill="var(--ci-primary-color, currentColor)" d="M156.634,152h-32V272h256V152h-224ZM210,232H168V190h42Zm126,0H294V190h42Z" class="ci-primary"/>
</svg>
