<svg xmlns="http://www.w3.org/2000/svg" viewBox="0 0 512 512">
  <rect width="272" height="272" x="208" y="208" fill="var(--ci-secondary-color, currentColor)" class="ci-secondary" opacity="var(--ci-secondary-opacity, 0.25)"/>
  <polygon fill="var(--ci-primary-color, currentColor)" points="304 32 32 32 32 304 172 304 172 208 172 202 139.171 202 128.914 231.304 90.773 231.304 147.229 70 188.771 70 224.47 172 304 172 304 32" class="ci-primary"/>
  <polygon fill="var(--ci-primary-color, currentColor)" points="184.229 166 168 119.631 151.771 166 184.229 166" class="ci-primary"/>
  <path fill="var(--ci-primary-color, currentColor)" d="M400.234,322H424V286H362V248H326v38H264v36h23.766a168.443,168.443,0,0,0,19.97,47.54,140.677,140.677,0,0,0,8.685,12.39Q300.224,389.983,280,390v36c24.074,0,45.634-6.262,64-18.4,18.366,12.14,39.926,18.4,64,18.4V390c-14.3,0-26.308-3.116-36.375-8.13a140.3,140.3,0,0,0,8.639-12.33A168.443,168.443,0,0,0,400.234,322Zm-50.5,28.46q-2.754,4.4-5.77,8.323c-9.947-12.775-15.722-26.855-18.88-36.783h37.729A129.732,129.732,0,0,1,349.736,350.46Z" class="ci-primary"/>
</svg>
