<svg xmlns="http://www.w3.org/2000/svg" viewBox="0 0 512 512">
  <path fill="var(--ci-secondary-color, currentColor)" d="M321.32,218.629A55.694,55.694,0,0,0,269.024,182H242.976a55.694,55.694,0,0,0-52.3,36.629L140,398H372Z" class="ci-secondary" opacity="var(--ci-secondary-opacity, 0.25)"/>
  <polygon fill="var(--ci-primary-color, currentColor)" points="216 496 296 496 308.026 398 203.974 398 216 496" class="ci-primary"/>
  <path fill="var(--ci-primary-color, currentColor)" d="M335.575,142.3,316.368,65.471c-4.716-18.864-16.745-34.007-32.307-42.361l-.024-.014q-.961-.515-1.941-.994c-.281-.139-.56-.281-.843-.416-.307-.145-.618-.28-.927-.419a58.356,58.356,0,0,0-8.843-3.194l-.035-.01c-.722-.2-1.451-.374-2.185-.543-.168-.039-.336-.08-.5-.117q-.964-.213-1.938-.393c-.283-.053-.566-.1-.85-.152-.572-.1-1.146-.19-1.724-.271-.39-.055-.782-.1-1.174-.149-.5-.06-.994-.12-1.5-.168-.529-.05-1.061-.085-1.593-.121-.386-.026-.77-.059-1.158-.078-.938-.045-1.88-.071-2.826-.071h0c-.946,0-1.888.026-2.826.071-.388.019-.772.052-1.158.078-.532.036-1.064.071-1.593.121-.5.048-1,.108-1.5.168-.392.047-.784.094-1.174.149-.578.081-1.152.173-1.724.271-.284.049-.567.1-.85.152q-.975.181-1.938.393c-.169.037-.337.078-.5.117-.734.169-1.463.347-2.185.543l-.035.01a58.356,58.356,0,0,0-8.843,3.194c-.309.139-.62.274-.927.419-.283.135-.562.277-.843.416q-.978.481-1.941.994l-.024.014c-15.562,8.354-27.591,23.5-32.307,42.361L176.425,142.3A14.247,14.247,0,0,0,190.246,160H218.5l12.937,22.916c.052.092.118.173.172.263A55.6,55.6,0,0,1,242.976,182h26.048a55.6,55.6,0,0,1,11.366,1.179c.055-.09.12-.171.172-.263L293.5,160h28.255a14.247,14.247,0,0,0,13.821-17.7Z" class="ci-primary"/>
</svg>
