<svg xmlns="http://www.w3.org/2000/svg" viewBox="0 0 512 512">
  <path fill="var(--ci-secondary-color, currentColor)" d="M407.938,144.5a48.55,48.55,0,0,0-48.5-48.5H152.558a48.55,48.55,0,0,0-48.5,48.5V232H407.938Z" class="ci-secondary" opacity="var(--ci-secondary-opacity, 0.25)"/>
  <polygon fill="var(--ci-secondary-color, currentColor)" points="378.814 400 329.287 400 389.287 496 438.814 496 378.814 400" class="ci-secondary" opacity="var(--ci-secondary-opacity, 0.25)"/>
  <polygon fill="var(--ci-secondary-color, currentColor)" points="73.186 496 122.713 496 182.713 400 133.186 400 73.186 496" class="ci-secondary" opacity="var(--ci-secondary-opacity, 0.25)"/>
  <path fill="var(--ci-primary-color, currentColor)" d="M104.062,264V400H407.938V264ZM184,352a24,24,0,1,1,24-24A24,24,0,0,1,184,352Zm144,0a24,24,0,1,1,24-24A24,24,0,0,1,328,352Z" class="ci-primary"/>
  <path fill="var(--ci-primary-color, currentColor)" d="M426.313,36.376A25.858,25.858,0,0,0,403.056,22H108.944A25.855,25.855,0,0,0,85.689,36.373L63.9,79.95l32.2,16.1L115.125,58h55.484l22.8,38h42.1l-1.315-2-21.6-36h86.818l-21.6,36-1.391,2h42.173l22.8-38h55.484L415.9,96.05l32.2-16.1Z" class="ci-primary"/>
</svg>
