<svg xmlns="http://www.w3.org/2000/svg" viewBox="0 0 512 512">
  <polygon fill="var(--ci-secondary-color, currentColor)" points="112 86 112 426 238 426 274 426 400 426 400 86 112 86" class="ci-secondary" opacity="var(--ci-secondary-opacity, 0.25)"/>
  <path fill="var(--ci-primary-color, currentColor)" d="M384,32H128a16,16,0,0,0-16,16V86H400V48A16,16,0,0,0,384,32Z" class="ci-primary"/>
  <path fill="var(--ci-primary-color, currentColor)" d="M112,426v38a16,16,0,0,0,16,16H384a16,16,0,0,0,16-16V426Z" class="ci-primary"/>
  <path fill="var(--ci-primary-color, currentColor)" d="M274,282.594a81.307,81.307,0,1,0-99.3-79.3h36a45.3,45.3,0,0,1,47.081-45.264,45.3,45.3,0,0,1,4.038,90.194A27.322,27.322,0,0,0,238,275.263V324h36Z" class="ci-primary"/>
  <rect width="36" height="36" x="238" y="354" fill="var(--ci-primary-color, currentColor)" class="ci-primary"/>
</svg>
