<svg xmlns="http://www.w3.org/2000/svg" viewBox="0 0 512 512">
  <path fill="var(--ci-secondary-color, currentColor)" d="M127.475,145.01H51.428a24.087,24.087,0,0,0-23.511,19.177l-1.5,7.31A503.561,503.561,0,0,0,27.894,382.16a24.142,24.142,0,0,0,23.44,18.85h76.141a24.027,24.027,0,0,0,24-24v-208A24.027,24.027,0,0,0,127.475,145.01Z" class="ci-secondary" opacity="var(--ci-secondary-opacity, 0.25)"/>
  <path fill="var(--ci-primary-color, currentColor)" d="M462.2,238.751,397.556,125.142A24,24,0,0,0,376.7,113.01H258.579a24,24,0,0,0-12.143,3.3l-61.743,36.22V337.656L254.834,491.2a8.2,8.2,0,0,0,10.766,4.1h0a72.116,72.116,0,0,0,36.669-95.683l-10.991-24.34V326.3H424.1a24,24,0,0,0,22.472-15.573l17.241-45.976a24.008,24.008,0,0,0,1.528-8.427v-5.7A24,24,0,0,0,462.2,238.751Z" class="ci-primary"/>
</svg>
