<svg xmlns="http://www.w3.org/2000/svg" viewBox="0 0 512 512">
  <polygon fill="var(--ci-secondary-color, currentColor)" points="342 16 144 16 144 216 456 216 456 130 342 130 342 16" class="ci-secondary" opacity="var(--ci-secondary-opacity, 0.25)"/>
  <path fill="var(--ci-primary-color, currentColor)" d="M144,496H456V252H144ZM352,328h40v40H352Zm0,80h40v40H352Zm-80-80h40v40H272Zm0,80h40v40H272Zm-80-80h40v40H192Zm0,80h40v40H192Z" class="ci-primary"/>
  <polygon fill="var(--ci-primary-color, currentColor)" points="392 16 378 16 378 94 456 94 456 80 392 16" class="ci-primary"/>
  <path fill="var(--ci-primary-color, currentColor)" d="M16,192V480a16,16,0,0,0,16,16h76V176H32A16,16,0,0,0,16,192Z" class="ci-primary"/>
</svg>
