<svg xmlns="http://www.w3.org/2000/svg" viewBox="0 0 512 512">
  <path fill="var(--ci-secondary-color, currentColor)" d="M256,16A238.857,238.857,0,0,0,130.422,51.451L460.549,381.578A238.857,238.857,0,0,0,496,256C496,123.452,388.548,16,256,16Z" class="ci-secondary" opacity="var(--ci-secondary-opacity, 0.25)"/>
  <path fill="var(--ci-secondary-color, currentColor)" d="M71.314,102.735A239.017,239.017,0,0,0,16,256c0,132.548,107.452,240,240,240a239.017,239.017,0,0,0,153.265-55.314Z" class="ci-secondary" opacity="var(--ci-secondary-opacity, 0.25)"/>
  <path fill="var(--ci-primary-color, currentColor)" d="M410.348,439.77l29.676-29.722L101.952,71.976,72.23,101.652l67.084,67.084A148.106,148.106,0,0,0,126.321,192H88v40H202.578l40,40H88v40h38.321A148.208,148.208,0,0,0,261.6,400H312V352H261.6a99.908,99.908,0,0,1-79.949-40H282.578Z" class="ci-primary"/>
  <path fill="var(--ci-primary-color, currentColor)" d="M261.6,152H312V104H261.6a147.092,147.092,0,0,0-62.68,13.95l37.319,37.319A99.756,99.756,0,0,1,261.6,152Z" class="ci-primary"/>
</svg>
