<svg xmlns="http://www.w3.org/2000/svg" viewBox="0 0 512 512">
  <path fill="var(--ci-secondary-color, currentColor)" d="M462.041,279.839A430.509,430.509,0,0,0,369.47,142.53,430.717,430.717,0,0,0,64,16V64c211.738,0,384,172.262,384,384h48A429.319,429.319,0,0,0,462.041,279.839Z" class="ci-secondary" opacity="var(--ci-secondary-opacity, 0.25)"/>
  <path fill="var(--ci-primary-color, currentColor)" d="M64,248v48c83.813,0,152,68.187,152,152h48C264,337.72,174.28,248,64,248Z" class="ci-primary"/>
  <path fill="var(--ci-primary-color, currentColor)" d="M355.133,324.994A315.83,315.83,0,0,0,64,132v48c147.776,0,268,120.224,268,268h48A314.108,314.108,0,0,0,355.133,324.994Z" class="ci-primary"/>
  <circle cx="88" cy="424" r="48" fill="var(--ci-primary-color, currentColor)" class="ci-primary"/>
</svg>
