<svg xmlns="http://www.w3.org/2000/svg" viewBox="0 0 512 512">
  <polygon fill="var(--ci-secondary-color, currentColor)" points="179.728 336 126.395 496 170.667 496 224 336 179.728 336" class="ci-secondary" opacity="var(--ci-secondary-opacity, 0.25)"/>
  <polygon fill="var(--ci-secondary-color, currentColor)" points="373.333 336 320 496 364.272 496 417.605 336 373.333 336" class="ci-secondary" opacity="var(--ci-secondary-opacity, 0.25)"/>
  <polygon fill="var(--ci-secondary-color, currentColor)" points="275.728 336 238.395 448 282.667 448 320 336 275.728 336" class="ci-secondary" opacity="var(--ci-secondary-opacity, 0.25)"/>
  <polygon fill="var(--ci-secondary-color, currentColor)" points="82.926 336 45.592 448 89.864 448 127.197 336 82.926 336" class="ci-secondary" opacity="var(--ci-secondary-opacity, 0.25)"/>
  <path fill="var(--ci-primary-color, currentColor)" d="M383.759,152.238A128,128,0,0,0,256,32h0A128,128,0,0,0,128.225,152.489C75.935,156.1,32,196.605,32,249.619h0A97.763,97.763,0,0,0,43.85,296H469.626A107.8,107.8,0,0,0,480,249.619h0C480,194.434,438.753,152.814,383.759,152.238Z" class="ci-primary"/>
</svg>
