<svg xmlns="http://www.w3.org/2000/svg" viewBox="0 0 512 512">
  <rect width="48" height="176" x="232" y="16" fill="var(--ci-secondary-color, currentColor)" class="ci-secondary" opacity="var(--ci-secondary-opacity, 0.25)"/>
  <rect width="48" height="176" x="232" y="320" fill="var(--ci-secondary-color, currentColor)" class="ci-secondary" opacity="var(--ci-secondary-opacity, 0.25)"/>
  <rect width="176" height="48" x="320" y="232" fill="var(--ci-secondary-color, currentColor)" class="ci-secondary" opacity="var(--ci-secondary-opacity, 0.25)"/>
  <rect width="176" height="48" x="16" y="232" fill="var(--ci-secondary-color, currentColor)" class="ci-secondary" opacity="var(--ci-secondary-opacity, 0.25)"/>
  <path fill="var(--ci-primary-color, currentColor)" d="M107.685,196h53.782A112.9,112.9,0,0,1,196,161.467V107.685A160.9,160.9,0,0,0,107.685,196Z" class="ci-primary"/>
  <path fill="var(--ci-primary-color, currentColor)" d="M316,350.533v53.782A160.9,160.9,0,0,0,404.315,316H350.533A112.9,112.9,0,0,1,316,350.533Z" class="ci-primary"/>
  <path fill="var(--ci-primary-color, currentColor)" d="M316,107.685v53.782A112.9,112.9,0,0,1,350.533,196h53.782A160.9,160.9,0,0,0,316,107.685Z" class="ci-primary"/>
  <path fill="var(--ci-primary-color, currentColor)" d="M161.467,316H107.685A160.9,160.9,0,0,0,196,404.315V350.533A112.9,112.9,0,0,1,161.467,316Z" class="ci-primary"/>
</svg>
