<svg xmlns="http://www.w3.org/2000/svg" viewBox="0 0 512 512">
  <path fill="var(--ci-secondary-color, currentColor)" d="M472,128H16V449.565C16,461.956,26.745,472,40,472H472c13.255,0,24-10.044,24-22.435V150.435C496,138.044,485.255,128,472,128Z" class="ci-secondary" opacity="var(--ci-secondary-opacity, 0.25)"/>
  <path fill="var(--ci-primary-color, currentColor)" d="M315.558,322.838l42.228-42.569-5.374-16.539-59.184-9.618-1.1-.8L264.7,200h-17.39l-27.436,53.315-1.1.8-59.184,9.618-5.374,16.539,42.228,42.569.418,1.289-9.141,59.26,14.069,10.221L255.322,366.6h1.356l53.534,27.006,14.069-10.221-9.141-59.26Z" class="ci-primary"/>
  <path fill="var(--ci-primary-color, currentColor)" d="M237.9,54.154A23,23,0,0,0,216.667,40H39A23,23,0,0,0,16,63v65H268.667Z" class="ci-primary"/>
</svg>
