<svg xmlns="http://www.w3.org/2000/svg" viewBox="0 0 512 512">
  <polygon fill="var(--ci-secondary-color, currentColor)" points="496 466.968 46.032 17 16 17 16 46.365 466.635 497 496 497 496 466.968" class="ci-secondary" opacity="var(--ci-secondary-opacity, 0.25)"/>
  <path fill="var(--ci-primary-color, currentColor)" d="M394.634,220.664,269.475,25.174a16,16,0,0,0-26.95,0l-54.9,85.752L425.8,349.105a172.418,172.418,0,0,0,2.094-26.8A170.518,170.518,0,0,0,394.634,220.664Z" class="ci-primary"/>
  <path fill="var(--ci-primary-color, currentColor)" d="M117.365,220.665A170.525,170.525,0,0,0,84.1,322.3c0,94.785,77.112,171.9,171.9,171.9a171.737,171.737,0,0,0,138.128-69.707L145.834,176.2Z" class="ci-primary"/>
</svg>
