<svg xmlns="http://www.w3.org/2000/svg" viewBox="0 0 512 512">
  <path fill="var(--ci-secondary-color, currentColor)" d="M471,112.232H357.826l-.05-95.87H143.557l.049,95.87H41A24.8,24.8,0,0,0,16.232,137V471.033A24.8,24.8,0,0,0,41,495.8H471a24.8,24.8,0,0,0,24.768-24.768V137A24.8,24.8,0,0,0,471,112.232ZM315.8,58.362l.028,53.87H185.606l-.028-53.87Z" class="ci-secondary" opacity="var(--ci-secondary-opacity, 0.25)"/>
  <polygon fill="var(--ci-primary-color, currentColor)" points="246.834 408 246.834 329.633 335.064 329.633 335.064 281.633 246.834 281.633 246.834 203.266 236.617 203.266 144.467 305.633 236.617 408 246.834 408" class="ci-primary"/>
</svg>
