<svg xmlns="http://www.w3.org/2000/svg" viewBox="0 0 512 512">
  <path fill="var(--ci-secondary-color, currentColor)" d="M479,228H347a50,50,0,0,0-50,50v20a50,50,0,0,0,50,50H479a14,14,0,0,0,14-14V242A14,14,0,0,0,479,228Zm-90,80H349V268h40Z" class="ci-secondary" opacity="var(--ci-secondary-opacity, 0.25)"/>
  <path fill="var(--ci-primary-color, currentColor)" d="M347,192H455V136c.044-12.586-7.742-23.863-21.27-28.3a14.453,14.453,0,0,0-4.514-.7H61v-4.349A33.654,33.654,0,0,1,94.651,69H397V27H95.58A76.834,76.834,0,0,0,42.771,47.576,75.176,75.176,0,0,0,19,102.627V401.506a37.567,37.567,0,0,0,1.83,11.677C32.328,448.339,61.9,469,94.656,469H425a29.052,29.052,0,0,0,29-28.9V384H347a86,86,0,0,1-86-86V278A86,86,0,0,1,347,192Z" class="ci-primary"/>
</svg>
