<svg xmlns="http://www.w3.org/2000/svg" viewBox="0 0 512 512">
  <path fill="var(--ci-secondary-color, currentColor)" d="M192.992,183.065a159.466,159.466,0,0,0-99.461,34.693L127.777,252a112.2,112.2,0,0,1,156.53,156.531l34.246,34.246a159.471,159.471,0,0,0,34.693-99.462C353.246,254.955,281.356,183.065,192.992,183.065Z" class="ci-secondary" opacity="var(--ci-secondary-opacity, 0.25)"/>
  <path fill="var(--ci-secondary-color, currentColor)" d="M192.992,455.574A112.192,112.192,0,0,1,102.22,277.36L68.005,243.145A159.479,159.479,0,0,0,32.737,343.319c0,88.365,71.89,160.255,160.255,160.255a159.478,159.478,0,0,0,100.175-35.268l-34.215-34.215A111.648,111.648,0,0,1,192.992,455.574Z" class="ci-secondary" opacity="var(--ci-secondary-opacity, 0.25)"/>
  <circle cx="417.912" cy="70.088" r="38.088" fill="var(--ci-primary-color, currentColor)" class="ci-primary"/>
  <path fill="var(--ci-primary-color, currentColor)" d="M403.559,223.271H321.3l82.986-82.987L289.681,22.57a28.107,28.107,0,0,0-39.348-.749l-74.872,71.2L208.539,127.8,269.1,70.219l45.469,46.649-73.551,73.551a161.057,161.057,0,0,1,95.1,80.852h47.451V403.642h48V251.271A28.031,28.031,0,0,0,403.559,223.271Z" class="ci-primary"/>
</svg>
