<svg xmlns="http://www.w3.org/2000/svg" viewBox="0 0 512 512">
  <path fill="var(--ci-secondary-color, currentColor)" d="M249.248,16c-44.445-.278-86.69,17.2-119.028,49.309S80.06,139.583,80.06,184H80c0,120,86.52,98.5,86.52,201.7V406.52A89.48,89.48,0,0,0,256,496h1.073A106.507,106.507,0,0,0,363.58,389.493V299.868A165.6,165.6,0,0,0,413.5,180.443C412.965,90.406,339.283,16.639,249.248,16Z" class="ci-secondary" opacity="var(--ci-secondary-opacity, 0.25)"/>
  <path fill="var(--ci-primary-color, currentColor)" d="M302.383,102.822C287.1,87.816,266.439,79.786,244.191,80.181A78.215,78.215,0,0,0,189.014,104.3,79.81,79.81,0,0,0,166.52,160V271.221L180.8,285.5c21.642,21.642,33.561,44.593,33.561,75.2v25h42.57v-25h-.57c0-41.824-16.288-75.322-45.862-104.9l-1.978-1.978V160c0-20.492,16.344-37.461,36.435-37.826,10.891-.2,20.827,3.572,28,10.615A33.346,33.346,0,0,1,283,157.167h42A75.511,75.511,0,0,0,302.383,102.822Z" class="ci-primary"/>
</svg>
