<svg xmlns="http://www.w3.org/2000/svg" viewBox="0 0 512 512">
  <path fill="var(--ci-secondary-color, currentColor)" d="M93,96V248h0V404.389A18.055,18.055,0,0,1,89.117,415.8a17.41,17.41,0,0,1-13.768,6.531A17.594,17.594,0,0,1,58,404.749V176H16V404.486A59.721,59.721,0,0,0,75.068,464c.178,0,.353,0,.531,0,2.109,0,368.4-.332,368.4-.332a52.029,52.029,0,0,0,52-51.94V96Z" class="ci-secondary" opacity="var(--ci-secondary-opacity, 0.25)"/>
  <rect width="104" height="36" x="328" y="158" fill="var(--ci-primary-color, currentColor)" class="ci-primary"/>
  <rect width="104" height="36" x="328" y="302" fill="var(--ci-primary-color, currentColor)" class="ci-primary"/>
  <rect width="104" height="36" x="328" y="230" fill="var(--ci-primary-color, currentColor)" class="ci-primary"/>
  <rect width="107" height="176" x="165" y="160" fill="var(--ci-primary-color, currentColor)" class="ci-primary"/>
</svg>
