<svg xmlns="http://www.w3.org/2000/svg" viewBox="0 0 512 512">
  <rect width="480" height="48" x="16" y="448" fill="var(--ci-secondary-color, currentColor)" class="ci-secondary" opacity="var(--ci-secondary-opacity, 0.25)"/>
  <rect width="192" height="192" x="160" y="16" fill="var(--ci-secondary-color, currentColor)" class="ci-secondary" opacity="var(--ci-secondary-opacity, 0.25)"/>
  <polygon fill="var(--ci-primary-color, currentColor)" points="238 160 274 160 274 122 312 122 312 86 274 86 274 48 238 48 238 86 200 86 200 122 238 122 238 160" class="ci-primary"/>
  <path fill="var(--ci-primary-color, currentColor)" d="M352,104V208H160V104H88V448H238V376h38v72H424V104ZM197,394H157V354h40Zm0-92H157V262h40Zm80,0H237V262h40Zm80,92H317V354h40Zm0-92H317V262h40Z" class="ci-primary"/>
</svg>
