<svg xmlns="http://www.w3.org/2000/svg" viewBox="0 0 512 512">
  <path fill="var(--ci-secondary-color, currentColor)" d="M471,112.232H368.394l.049-95.87H154.224l-.05,95.87H41A24.8,24.8,0,0,0,16.232,137v61.776l33.536,33.536L95.456,278H238V232.5h36V278H416.544l45.688-45.688,33.536-33.536V137A24.8,24.8,0,0,0,471,112.232Zm-144.606,0H196.174l.028-53.87h130.22Z" class="ci-secondary" opacity="var(--ci-secondary-opacity, 0.25)"/>
  <path fill="var(--ci-primary-color, currentColor)" d="M431.456,314H274v46H238V314H80.544L49.768,283.224,16.232,249.688V471.033A24.8,24.8,0,0,0,41,495.8H471a24.8,24.8,0,0,0,24.768-24.768V249.688l-33.536,33.536Z" class="ci-primary"/>
</svg>
