<svg xmlns="http://www.w3.org/2000/svg" viewBox="0 0 512 512">
  <path fill="var(--ci-secondary-color, currentColor)" d="M456,32H56A24,24,0,0,0,32,56V328a24,24,0,0,0,24,24H388.767l69.522,128H480V56A24,24,0,0,0,456,32Z" class="ci-secondary" opacity="var(--ci-secondary-opacity, 0.25)"/>
  <rect width="40" height="40" x="168" y="120" fill="var(--ci-primary-color, currentColor)" class="ci-primary"/>
  <rect width="40" height="40" x="304" y="120" fill="var(--ci-primary-color, currentColor)" class="ci-primary"/>
  <path fill="var(--ci-primary-color, currentColor)" d="M316.592,208a61.685,61.685,0,0,1-57.154,38h-6.875a61.686,61.686,0,0,1-57.155-38H156.613l4.958,12.4A97.533,97.533,0,0,0,252.563,282h6.875a97.533,97.533,0,0,0,90.991-61.6l4.958-12.4Z" class="ci-primary"/>
</svg>
