<svg xmlns="http://www.w3.org/2000/svg" viewBox="0 0 512 512">
  <path fill="var(--ci-secondary-color, currentColor)" d="M272,16H240C167.272,78.073,24,96,24,96c0,154.473,43.2,348.509,232,400C444.8,444.509,488,250.473,488,96,488,96,344.728,78.073,272,16Z" class="ci-secondary" opacity="var(--ci-secondary-opacity, 0.25)"/>
  <path fill="var(--ci-primary-color, currentColor)" d="M390.442,141.025C336.027,126.193,290.965,107.013,256,83.843c-34.965,23.17-80.027,42.35-134.442,57.182-11.153,3.04-21.811,5.646-31.633,7.859,4.579,61.271,17.262,115.479,37.346,158.831C155.594,368.852,197.81,408.688,256,429.032c58.19-20.344,100.406-60.18,128.729-121.317,20.084-43.352,32.767-97.56,37.346-158.831C412.253,146.671,401.6,144.065,390.442,141.025Z" class="ci-primary"/>
</svg>
