<svg xmlns="http://www.w3.org/2000/svg" viewBox="0 0 512 512">
  <polygon fill="var(--ci-secondary-color, currentColor)" points="247.515 298.427 292.77 253.172 344.971 200.971 311.029 167.029 258.828 219.23 213.573 264.485 167.029 311.029 200.971 344.971 247.515 298.427" class="ci-secondary" opacity="var(--ci-secondary-opacity, 0.25)"/>
  <path fill="var(--ci-primary-color, currentColor)" d="M456.652,56.652h0a126.646,126.646,0,0,0-179.1,0L186.9,147.3l45.254,45.255L322.8,101.906A62.646,62.646,0,0,1,411.4,190.5L320.748,281.15,366,326.4l90.649-90.649A126.646,126.646,0,0,0,456.652,56.652Z" class="ci-primary"/>
  <path fill="var(--ci-primary-color, currentColor)" d="M190.5,411.4A62.646,62.646,0,0,1,101.906,322.8L186.9,237.81l-45.254-45.255L56.652,277.547a126.645,126.645,0,0,0,0,179.1h0a126.645,126.645,0,0,0,179.1,0l84.992-84.992L275.493,326.4Z" class="ci-primary"/>
</svg>
