<svg xmlns="http://www.w3.org/2000/svg" viewBox="0 0 512 512">
  <path fill="var(--ci-secondary-color, currentColor)" d="M256,16A238.857,238.857,0,0,0,130.422,51.451L460.549,381.578A238.857,238.857,0,0,0,496,256C496,123.452,388.548,16,256,16Z" class="ci-secondary" opacity="var(--ci-secondary-opacity, 0.25)"/>
  <path fill="var(--ci-secondary-color, currentColor)" d="M71.314,102.735A239.017,239.017,0,0,0,16,256c0,132.548,107.452,240,240,240a239.017,239.017,0,0,0,153.265-55.314Z" class="ci-secondary" opacity="var(--ci-secondary-opacity, 0.25)"/>
  <path fill="var(--ci-primary-color, currentColor)" d="M100.945,72.97,71.314,102.735,200,231.422V232H160v48h40v55.934H160v48H353l56.385,56.632,29.582-29.575ZM248,335.934V280h.578l55.934,55.934Z" class="ci-primary"/>
  <path fill="var(--ci-primary-color, currentColor)" d="M275.647,151A27.679,27.679,0,0,1,303.3,178.647h48A75.609,75.609,0,0,0,213.941,134.97l35.345,35.345A27.7,27.7,0,0,1,275.647,151Z" class="ci-primary"/>
</svg>
