<svg xmlns="http://www.w3.org/2000/svg" viewBox="0 0 512 512">
  <path fill="var(--ci-secondary-color, currentColor)" d="M458.668,53.332a72.831,72.831,0,0,0-103,0l-5.962,5.962-.043-.043-24.1-24.1a55.465,55.465,0,0,0-78.346,0L113.15,169.223l29.7,29.7L276.917,64.853a13.411,13.411,0,0,1,18.948,0l24.1,24.1.043.044-52.417,52.417,103,103,88.079-88.079A72.831,72.831,0,0,0,458.668,53.332Z" class="ci-secondary" opacity="var(--ci-secondary-opacity, 0.25)"/>
  <path fill="var(--ci-primary-color, currentColor)" d="M242.134,166.866l-52.928,52.928A627.43,627.43,0,0,0,38.838,461.66h0A9,9,0,0,0,41,470.915l.087.088a9,9,0,0,0,9.255,2.159h0A626.792,626.792,0,0,0,168.86,418.6a626.771,626.771,0,0,0,123.346-95.806l52.928-52.928Z" class="ci-primary"/>
</svg>
