<svg xmlns="http://www.w3.org/2000/svg" viewBox="0 0 512 512">
  <polygon fill="var(--ci-secondary-color, currentColor)" points="149.029 143.029 60.059 232 149.029 320.971 182.971 287.029 127.941 232 182.971 176.971 149.029 143.029" class="ci-secondary" opacity="var(--ci-secondary-opacity, 0.25)"/>
  <polygon fill="var(--ci-secondary-color, currentColor)" points="362.971 143.029 329.029 176.971 384.059 232 329.029 287.029 362.971 320.971 451.941 232 362.971 143.029" class="ci-secondary" opacity="var(--ci-secondary-opacity, 0.25)"/>
  <path fill="var(--ci-primary-color, currentColor)" d="M96,456a40.045,40.045,0,0,0,40,40H376a40.045,40.045,0,0,0,40-40V368H96Zm142-42h36v36H238Z" class="ci-primary"/>
  <path fill="var(--ci-primary-color, currentColor)" d="M376,16H136A40.045,40.045,0,0,0,96,56V88H416V56A40.045,40.045,0,0,0,376,16Z" class="ci-primary"/>
</svg>
