<svg xmlns="http://www.w3.org/2000/svg" viewBox="0 0 512 512">
  <polygon fill="var(--ci-secondary-color, currentColor)" points="45.976 16 16 16 16 45.422 466.578 496 496 496 496 466.024 45.976 16" class="ci-secondary" opacity="var(--ci-secondary-opacity, 0.25)"/>
  <path fill="var(--ci-primary-color, currentColor)" d="M316.567,235.6h0l83.419,83.42a96.1,96.1,0,0,0-95-95Z" class="ci-primary"/>
  <path fill="var(--ci-primary-color, currentColor)" d="M208,288h50.578L121.326,150.748A95.981,95.981,0,0,0,208,288Z" class="ci-primary"/>
  <path fill="var(--ci-primary-color, currentColor)" d="M368.941,160V96H296V40H232V96H208a95.729,95.729,0,0,0-27.122,3.907L240.971,160Z" class="ci-primary"/>
  <path fill="var(--ci-primary-color, currentColor)" d="M304,352H136v64h96v56h64V416h8a95.557,95.557,0,0,0,60.808-21.77L318.89,348.312A31.8,31.8,0,0,1,304,352Z" class="ci-primary"/>
</svg>
