<svg xmlns="http://www.w3.org/2000/svg" viewBox="0 0 512 512">
  <path fill="var(--ci-secondary-color, currentColor)" d="M256,102.6c-83.813,0-152,68.187-152,152,0,.465.015.931.019,1.4h48c-.006-.466-.019-.932-.019-1.4a104,104,0,0,1,208,0c0,.465-.013.931-.019,1.4h48c0-.466.02-.932.02-1.4C408,170.79,339.813,102.6,256,102.6Z" class="ci-secondary" opacity="var(--ci-secondary-opacity, 0.25)"/>
  <path fill="var(--ci-secondary-color, currentColor)" d="M425.706,86.866A239.994,239.994,0,0,0,16.007,256h48C64.317,150.393,150.322,64.571,256,64.571S447.683,150.393,447.993,256h48A238.413,238.413,0,0,0,425.706,86.866Z" class="ci-secondary" opacity="var(--ci-secondary-opacity, 0.25)"/>
  <path fill="var(--ci-primary-color, currentColor)" d="M280,382.059V323.887a72,72,0,1,0-48,0v58.172l-113.8,113.8.137.137h67.608L256,425.941,326.059,496h67.882Z" class="ci-primary"/>
</svg>
