<svg xmlns="http://www.w3.org/2000/svg" viewBox="0 0 512 512">
  <polygon fill="var(--ci-secondary-color, currentColor)" points="460.24 184 405.316 16 354.816 16 409.74 184 102.26 184 157.184 16 106.684 16 51.76 184 16 184 16 263.745 496 263.745 496 184 460.24 184" class="ci-secondary" opacity="var(--ci-secondary-opacity, 0.25)"/>
  <polygon fill="var(--ci-primary-color, currentColor)" points="58.856 496 453.117 496 491.168 305.745 21.201 305.745 58.856 496" class="ci-primary"/>
  <path fill="var(--ci-primary-color, currentColor)" d="M183.912,150.793H372.993l-36.679-43.347q-.818-.968-1.656-1.91c-18.51-20.816-45.323-32.329-73.178-32.329h-6.222c-26.237,0-51.652,10.169-69.961,28.962q-.95.974-1.875,1.977l-43.06,46.647Z" class="ci-primary"/>
</svg>
