<svg xmlns="http://www.w3.org/2000/svg" viewBox="0 0 512 512">
  <path fill="var(--ci-secondary-color, currentColor)" d="M256,16A240,240,0,0,0,86.294,425.706,240,240,0,0,0,425.706,86.294,238.432,238.432,0,0,0,256,16Z" class="ci-secondary" opacity="var(--ci-secondary-opacity, 0.25)"/>
  <path fill="var(--ci-primary-color, currentColor)" d="M82.027,149.054a204.951,204.951,0,0,0-19.74,173.331H181.661Z" class="ci-primary"/>
  <path fill="var(--ci-primary-color, currentColor)" d="M263.083,51.64c-2.16-.068-4.325-.114-6.5-.114a204.656,204.656,0,0,0-153.749,69.512l59.728,103.907Z" class="ci-primary"/>
  <path fill="var(--ci-primary-color, currentColor)" d="M252.329,461.679c1.415.029,2.831.054,4.253.054A204.668,204.668,0,0,0,410.7,391.8l-59.77-103.5Z" class="ci-primary"/>
  <path fill="var(--ci-primary-color, currentColor)" d="M436.928,159.011A205.8,205.8,0,0,0,297.736,55.676L237.8,159.011Z" class="ci-primary"/>
  <path fill="var(--ci-primary-color, currentColor)" d="M76.309,354.385A205.758,205.758,0,0,0,217.607,458l58.929-103.617Z" class="ci-primary"/>
  <path fill="var(--ci-primary-color, currentColor)" d="M450.921,191.011H331.7l99.736,172.71a204.957,204.957,0,0,0,19.483-172.71Z" class="ci-primary"/>
</svg>
