<svg xmlns="http://www.w3.org/2000/svg" viewBox="0 0 512 512">
  <path fill="var(--ci-secondary-color, currentColor)" d="M318.178,379.189C277.856,448,208,448,208,448a111.971,111.971,0,0,1-55.71-209.116l-5.834-50.56C88.694,212.485,48,269.575,48,336c0,88.224,71.776,160,160,160a159.721,159.721,0,0,0,122.86-57.631l-.326-1.521Z" class="ci-secondary" opacity="var(--ci-secondary-opacity, 0.25)"/>
  <circle cx="209.912" cy="70.088" r="38.088" fill="var(--ci-primary-color, currentColor)" class="ci-primary"/>
  <path fill="var(--ci-primary-color, currentColor)" d="M442.179,360.717,402.265,370.7l-17.443-81.4A32.165,32.165,0,0,0,353.533,264H271.958l-4.616-40H368V176H261.8l-3.317-28.743A24,24,0,0,0,231.9,126.166l-55.631,6.419L196.965,312H340.6l25.137,117.305,88.086-22.022Z" class="ci-primary"/>
</svg>
