<svg xmlns="http://www.w3.org/2000/svg" viewBox="0 0 512 512">
  <path fill="var(--ci-secondary-color, currentColor)" d="M86.648,86.148A237.717,237.717,0,0,0,17.069,239H134.215c1.619-64.352,12.681-124.538,31.574-170.952A225.123,225.123,0,0,1,188,25.755,238.244,238.244,0,0,0,86.648,86.148Z" class="ci-secondary" opacity="var(--ci-secondary-opacity, 0.25)"/>
  <path fill="var(--ci-secondary-color, currentColor)" d="M425.352,86.148A238.244,238.244,0,0,0,324,25.755a225.123,225.123,0,0,1,22.212,42.293C365.1,114.462,376.166,174.648,377.785,239H494.931A237.717,237.717,0,0,0,425.352,86.148Z" class="ci-secondary" opacity="var(--ci-secondary-opacity, 0.25)"/>
  <path fill="var(--ci-secondary-color, currentColor)" d="M256,18c-19.393,0-40.652,23.783-56.867,63.62C181.922,123.9,171.8,179.281,170.224,239H341.776c-1.577-59.719-11.7-115.1-28.909-157.38C296.652,41.783,275.393,18,256,18Z" class="ci-secondary" opacity="var(--ci-secondary-opacity, 0.25)"/>
  <path fill="var(--ci-primary-color, currentColor)" d="M134.291,275h-117A239.835,239.835,0,0,0,188,485.245a225.123,225.123,0,0,1-22.212-42.293C147.19,397.259,136.173,338.222,134.291,275Z" class="ci-primary"/>
  <path fill="var(--ci-primary-color, currentColor)" d="M170.308,275c1.832,58.573,11.9,112.806,28.825,154.38C215.348,469.217,236.607,493,256,493s40.652-23.783,56.867-63.62C329.79,387.806,339.86,333.573,341.692,275Z" class="ci-primary"/>
  <path fill="var(--ci-primary-color, currentColor)" d="M377.709,275c-1.882,63.222-12.9,122.259-31.5,167.952A225.123,225.123,0,0,1,324,485.245,239.835,239.835,0,0,0,494.708,275Z" class="ci-primary"/>
</svg>
