<svg xmlns="http://www.w3.org/2000/svg" viewBox="0 0 512 512">
  <polygon fill="var(--ci-secondary-color, currentColor)" points="312 121 291.296 121 246.904 166.026 312 231.035 312 121" class="ci-secondary" opacity="var(--ci-secondary-opacity, 0.25)"/>
  <polygon fill="var(--ci-secondary-color, currentColor)" points="456.723 121 328.584 247.613 480 399.029 480 121 456.723 121" class="ci-secondary" opacity="var(--ci-secondary-opacity, 0.25)"/>
  <polygon fill="var(--ci-secondary-color, currentColor)" points="152 32 112.701 32 152 71.247 152 32" class="ci-secondary" opacity="var(--ci-secondary-opacity, 0.25)"/>
  <polygon fill="var(--ci-secondary-color, currentColor)" points="265.578 295 192.145 221.567 166.084 248 152 248 152 181.422 32 61.422 32 480 450.577 480 389 418.423 265.578 295" class="ci-secondary" opacity="var(--ci-secondary-opacity, 0.25)"/>
  <rect width="40" height="40" x="132" y="312" fill="var(--ci-primary-color, currentColor)" class="ci-primary"/>
  <rect width="40" height="40" x="292" y="392" fill="var(--ci-primary-color, currentColor)" class="ci-primary"/>
  <rect width="40" height="40" x="212" y="312" fill="var(--ci-primary-color, currentColor)" class="ci-primary"/>
  <rect width="40" height="40" x="132" y="392" fill="var(--ci-primary-color, currentColor)" class="ci-primary"/>
  <rect width="40" height="40" x="212" y="392" fill="var(--ci-primary-color, currentColor)" class="ci-primary"/>
  <polygon fill="var(--ci-primary-color, currentColor)" points="45.709 16 16 16 16 45.422 32 61.422 152 181.422 192.145 221.567 466.577 496 496 496 496 466.457 45.709 16" class="ci-primary"/>
</svg>
