<svg xmlns="http://www.w3.org/2000/svg" viewBox="0 0 512 512">
  <path fill="var(--ci-secondary-color, currentColor)" d="M414.89,340.3c37.972-38,58.238-88.83,57.063-143.127C470.8,143.727,449.113,93.246,410.9,55.029L376.956,88.971c61.035,61.034,62.8,158.579,3.937,217.443L355.11,332.427,297.863,272V424h144l-53.725-56.71Z" class="ci-secondary" opacity="var(--ci-secondary-opacity, 0.25)"/>
  <path fill="var(--ci-primary-color, currentColor)" d="M123.862,128.71l-26.74,26.979c-37.981,38-58.25,88.834-57.075,143.138C41.2,352.274,62.887,402.755,101.1,440.971l33.941-33.941A158.852,158.852,0,0,1,88.036,297.789c-.89-41.111,14.407-79.539,43.071-108.2l25.783-26.013L214.137,224V72h-144Z" class="ci-primary"/>
</svg>
