<svg xmlns="http://www.w3.org/2000/svg" viewBox="0 0 512 512">
  <path fill="var(--ci-secondary-color, currentColor)" d="M208,245.1V148a68,68,0,0,1,136,0v97.1A132.051,132.051,0,0,0,408,132C408,59.215,348.785,0,276,0S144,59.215,144,132A132.051,132.051,0,0,0,208,245.1Z" class="ci-secondary" opacity="var(--ci-secondary-opacity, 0.25)"/>
  <path fill="var(--ci-primary-color, currentColor)" d="M455.059,314.316a8.006,8.006,0,0,0-2.542-2.838,7.976,7.976,0,0,0-2.376-1.105L312,272V148a36.39,36.39,0,0,0-.186-3.681q-.185-1.815-.545-3.574t-.887-3.45a35.927,35.927,0,0,0-6.6-12.194q-1.1-1.333-2.323-2.557t-2.557-2.323a35.908,35.908,0,0,0-12.194-6.6q-1.69-.526-3.45-.888t-3.574-.545a36.354,36.354,0,0,0-12.678.947,35.756,35.756,0,0,0-6.61,2.417q-1.575.759-3.06,1.662a36.185,36.185,0,0,0-12.121,12.121q-.9,1.484-1.662,3.06A35.826,35.826,0,0,0,240,148V344H192l-23.295-28.472c-.88-1.075-1.786-2.114-2.712-3.127-.305-.334-.622-.648-.932-.974-.631-.667-1.265-1.331-1.915-1.97-.377-.37-.766-.722-1.149-1.082-.6-.568-1.21-1.134-1.83-1.679-.414-.363-.835-.714-1.255-1.067-.609-.511-1.222-1.017-1.844-1.506-.437-.345-.88-.68-1.323-1.013q-.941-.707-1.9-1.381-.674-.473-1.355-.931c-.656-.439-1.319-.863-1.986-1.28-.451-.281-.9-.563-1.357-.834-.7-.416-1.407-.812-2.117-1.2-.436-.24-.869-.486-1.308-.716-.778-.409-1.566-.792-2.356-1.171-.383-.184-.762-.379-1.148-.556-1.014-.466-2.039-.9-3.069-1.32-.169-.068-.335-.146-.5-.214q-1.825-.723-3.681-1.348c-.272-.092-.548-.168-.821-.257-.955-.31-1.912-.609-2.877-.879-.429-.121-.862-.223-1.292-.335-.816-.213-1.632-.422-2.453-.607-.488-.11-.979-.206-1.47-.306-.771-.157-1.543-.309-2.319-.442-.516-.089-1.034-.167-1.552-.245-.756-.113-1.513-.217-2.272-.307q-.8-.1-1.6-.173c-.752-.073-1.5-.132-2.258-.182-.537-.036-1.073-.071-1.61-.1-.76-.035-1.521-.051-2.282-.062-.555-.008-1.11-.021-1.665-.016-.468,0-.935.018-1.4.03-.695.018-1.391.042-2.086.08-.472.026-.944.058-1.416.093q-1.042.077-2.084.183c-.464.047-.929.1-1.393.152-.71.086-1.418.186-2.126.292-.443.067-.886.13-1.328.2-.753.127-1.5.273-2.252.423-.392.078-.786.149-1.178.234-.888.194-1.773.411-2.655.637-.248.064-.5.117-.746.183q-1.713.459-3.41,1c-.156.051-.31.109-.466.16-.959.314-1.915.643-2.863,1-.358.134-.712.282-1.069.421-.742.29-1.483.585-2.218.9-.412.177-.82.366-1.23.55-.674.3-1.347.614-2.014.939-.428.209-.853.425-1.278.643q-.965.494-1.92,1.016-.642.352-1.278.718c-.629.361-1.252.736-1.873,1.118-.415.256-.831.51-1.243.775-.632.406-1.256.829-1.878,1.256-.386.266-.774.524-1.157.8-.673.481-1.337.985-2,1.492-.318.243-.64.476-.954.725-.969.767-1.927,1.557-2.868,2.38a7.607,7.607,0,0,0-2.784,4.373,5.343,5.343,0,0,0-.053,1.379c.244,2.707,2.442,5.114,4.167,6.993.192.209.377.412.554.607L222.194,496H456V318.081A7.98,7.98,0,0,0,455.059,314.316Z" class="ci-primary"/>
</svg>
