<svg xmlns="http://www.w3.org/2000/svg" viewBox="0 0 512 512">
  <polygon fill="var(--ci-secondary-color, currentColor)" points="424 160 424 88 16 88 16 424 424 424 424 352 496 352 496 160 424 160" class="ci-secondary" opacity="var(--ci-secondary-opacity, 0.25)"/>
  <path fill="var(--ci-primary-color, currentColor)" d="M232.375,125H169v42h63.375a35.5,35.5,0,0,1,0,71h-28.25A35.165,35.165,0,0,0,169,273.125V323h42V280h21.375a77.5,77.5,0,0,0,0-155Z" class="ci-primary"/>
  <polygon fill="var(--ci-primary-color, currentColor)" points="169 353.4 169 370.2 169 387 202.6 387 211 387 211 370.2 211 345 169 345 169 353.4" class="ci-primary"/>
</svg>
