<svg xmlns="http://www.w3.org/2000/svg" viewBox="0 0 512 512">
  <path fill="var(--ci-secondary-color, currentColor)" d="M256,64a192,192,0,1,1-135.765,56.235A190.746,190.746,0,0,1,256,64m0-48C123.452,16,16,123.452,16,256S123.452,496,256,496,496,388.548,496,256,388.548,16,256,16Z" class="ci-secondary" opacity="var(--ci-secondary-opacity, 0.25)"/>
  <path fill="var(--ci-primary-color, currentColor)" d="M463.936,375.914,392,280H224V216l32-24,80,16,24-24-16-40,56.1-79.933A240.029,240.029,0,0,0,56,123.315L136,208v64l68,72h48v72l-60,71.356A240.293,240.293,0,0,0,463.936,375.914Z" class="ci-primary"/>
</svg>
