<svg xmlns="http://www.w3.org/2000/svg" viewBox="0 0 512 512">
  <path fill="var(--ci-secondary-color, currentColor)" d="M288,163.278V100.9L213.257,26.158a16,16,0,0,0-22.628,0L24.334,192.453a16,16,0,0,0,0,22.627L295.586,486.332a16,16,0,0,0,22.628,0l166.3-166.295a16,16,0,0,0,0-22.627l-24.132-24.132H398A110,110,0,0,1,288,163.278Z" class="ci-secondary" opacity="var(--ci-secondary-opacity, 0.25)"/>
  <path fill="var(--ci-primary-color, currentColor)" d="M462.5,104V75.527a60.25,60.25,0,0,0-120.5,0V104H320v53.148a84,84,0,0,0,168,0V104Zm-36-2H378V75.527a24.25,24.25,0,1,1,48.5,0Z" class="ci-primary"/>
  <path fill="var(--ci-primary-color, currentColor)" d="M138.909,398.209,130.75,408l-6.711,8.052L112.45,429.96A147.7,147.7,0,0,1,52.182,310.937h-36c0,95.431,73.1,174.1,166.25,182.973q5.081.484,10.239.685L147.009,412.73Z" class="ci-primary"/>
</svg>
