<svg xmlns="http://www.w3.org/2000/svg" viewBox="0 0 512 512">
  <path fill="var(--ci-secondary-color, currentColor)" d="M447.348,271.833A192,192,0,0,1,120.235,391.765,192,192,0,0,1,256,64a194.053,194.053,0,0,1,35.842,3.333l-.086-48.679A241.98,241.98,0,0,0,256,16C123.452,16,16,123.452,16,256S123.452,496,256,496,496,388.548,496,256q0-6.5-.348-12.9A120.1,120.1,0,0,1,447.348,271.833Z" class="ci-secondary" opacity="var(--ci-secondary-opacity, 0.25)"/>
  <path fill="var(--ci-primary-color, currentColor)" d="M224,280V216l32-24,44.239,8.848a119.39,119.39,0,0,1-8.239-43.7l-.244-138.494A240.288,240.288,0,0,0,56,123.315L136,208v64l68,72h48v72l-60,71.356A240.293,240.293,0,0,0,463.936,375.914L392,280Z" class="ci-primary"/>
  <path fill="var(--ci-primary-color, currentColor)" d="M470.5,104V75.527a60.25,60.25,0,0,0-120.5,0V104H328v53.149a84,84,0,0,0,168,0V104ZM386,75.527a24.25,24.25,0,1,1,48.5,0V102H386Z" class="ci-primary"/>
</svg>
