<svg xmlns="http://www.w3.org/2000/svg" viewBox="0 0 512 512">
  <path fill="var(--ci-secondary-color, currentColor)" d="M453.493,159.459c.5-.457.99-.918,1.471-1.4h0a69.861,69.861,0,0,0,0-98.8h0a69.859,69.859,0,0,0-98.8,0h0c-.481.481-.942.975-1.4,1.471a181.109,181.109,0,0,0-69.254-13.68h0A235.2,235.2,0,0,0,50.247,282.315h0a181.118,181.118,0,0,0,13.68,69.255c-.5.456-.99.917-1.471,1.4h0a69.862,69.862,0,0,0,0,98.8h0a69.863,69.863,0,0,0,98.8,0h0c.481-.482.942-.976,1.4-1.472a181.1,181.1,0,0,0,69.255,13.681h0c129.933,0,235.264-105.331,235.264-235.264h0A181.1,181.1,0,0,0,453.493,159.459Z" class="ci-secondary" opacity="var(--ci-secondary-opacity, 0.25)"/>
  <path fill="var(--ci-primary-color, currentColor)" d="M153.239,243.637a213.908,213.908,0,0,1,117.9-103.888l-14.28-39.5a255.785,255.785,0,0,0-140.988,124.21Z" class="ci-primary"/>
</svg>
