<svg xmlns="http://www.w3.org/2000/svg" viewBox="0 0 512 512">
  <polygon fill="var(--ci-secondary-color, currentColor)" points="77.552 32 88.98 112 121.305 112 160.98 112 193.305 112 181.877 32 77.552 32" class="ci-secondary" opacity="var(--ci-secondary-opacity, 0.25)"/>
  <polygon fill="var(--ci-secondary-color, currentColor)" points="325.877 32 221.552 32 232.98 112 265.305 112 304.98 112 337.305 112 325.877 32" class="ci-secondary" opacity="var(--ci-secondary-opacity, 0.25)"/>
  <path fill="var(--ci-primary-color, currentColor)" d="M411.149,165.915l-.283-.852A32.1,32.1,0,0,0,380.793,144H48v72H426.244Z" class="ci-primary"/>
  <path fill="var(--ci-primary-color, currentColor)" d="M16,248V448H443.727L496,282.466V248Zm98,112H72V318h42Zm88,0H160V318h42Zm88,0H248V318h42Zm88,0H336V318h42Z" class="ci-primary"/>
</svg>
