<svg xmlns="http://www.w3.org/2000/svg" viewBox="0 0 512 512">
  <path fill="var(--ci-secondary-color, currentColor)" d="M384,70V40a24.028,24.028,0,0,0-24-24H72A24.028,24.028,0,0,0,48,40V144a24.028,24.028,0,0,0,24,24H360a24.028,24.028,0,0,0,24-24V70Z" class="ci-secondary" opacity="var(--ci-secondary-opacity, 0.25)"/>
  <path fill="var(--ci-primary-color, currentColor)" d="M399.412,70H384v36h15.412a46.588,46.588,0,0,1,7.084,92.635L238,224.558V296H184V496H328V296H274V255.442l137.97-21.225A82.589,82.589,0,0,0,399.412,70Z" class="ci-primary"/>
</svg>
