<svg xmlns="http://www.w3.org/2000/svg" viewBox="0 0 512 512">
  <path fill="var(--ci-secondary-color, currentColor)" d="M325,75.527V104H303v53.149a84,84,0,0,0,168,0V104H445.5V75.527a60.25,60.25,0,0,0-120.5,0Zm36,0a24.25,24.25,0,1,1,48.5,0V102H361Z" class="ci-secondary" opacity="var(--ci-secondary-opacity, 0.25)"/>
  <path fill="var(--ci-primary-color, currentColor)" d="M136,496H376a40.045,40.045,0,0,0,40-40V273.278H368V368H144V88H263V16H136A40.045,40.045,0,0,0,96,56V456A40.045,40.045,0,0,0,136,496Zm138-82v36H238V414Z" class="ci-primary"/>
</svg>
