<svg xmlns="http://www.w3.org/2000/svg" viewBox="0 0 512 512">
  <path fill="var(--ci-secondary-color, currentColor)" d="M373.85,134h68.3l8.5-50.448A43.248,43.248,0,0,0,408,33.122h0a43.248,43.248,0,0,0-42.647,50.43Z" class="ci-secondary" opacity="var(--ci-secondary-opacity, 0.25)"/>
  <path fill="var(--ci-secondary-color, currentColor)" d="M449.817,188.928h0A64.069,64.069,0,0,1,441.6,170H374.4a64.069,64.069,0,0,1-8.218,18.928h0a190.017,190.017,0,0,0-17.862,35.492,245.319,245.319,0,0,1,11.291,166.362l14.295,40.1h68.186l26.87-75.366A190.038,190.038,0,0,0,449.817,188.928Z" class="ci-secondary" opacity="var(--ci-secondary-opacity, 0.25)"/>
  <path fill="var(--ci-secondary-color, currentColor)" d="M163.679,224.421a190,190,0,0,0-17.862-35.493h0A64.069,64.069,0,0,1,137.6,170H70.4a64.069,64.069,0,0,1-8.218,18.928h0A190.038,190.038,0,0,0,43.037,355.512l26.87,75.366h68.186l14.3-40.1a245.315,245.315,0,0,1,11.291-166.361Z" class="ci-secondary" opacity="var(--ci-secondary-opacity, 0.25)"/>
  <path fill="var(--ci-secondary-color, currentColor)" d="M69.85,134h68.3l8.5-50.448A43.248,43.248,0,0,0,104,33.122h0a43.248,43.248,0,0,0-42.647,50.43Z" class="ci-secondary" opacity="var(--ci-secondary-opacity, 0.25)"/>
  <path fill="var(--ci-primary-color, currentColor)" d="M215.579,134l2.695,16h75.452l2.695-16,7.613-45.2a49.226,49.226,0,0,0,.688-8.268A48.3,48.3,0,0,0,298.98,57.77a49.134,49.134,0,0,0-7.5-10.435q-.882-.939-1.812-1.83a48.72,48.72,0,0,0-67.336,0A49.137,49.137,0,0,0,213.02,57.77a48.3,48.3,0,0,0-5.742,22.762,49.226,49.226,0,0,0,.688,8.268Z" class="ci-primary"/>
  <path fill="var(--ci-primary-color, currentColor)" d="M337.093,322.906q-.009-6.024-.356-12.035-.351-6.052-1.043-12.077a214.236,214.236,0,0,0-4.127-23.891q-1.371-5.915-3.078-11.754a213.807,213.807,0,0,0-8.165-22.975q-2.376-5.64-5.082-11.162t-5.743-10.9q-3.036-5.385-6.4-10.62h0A72.139,72.139,0,0,1,293.8,186H218.2a72.139,72.139,0,0,1-9.295,21.487h0q-3.365,5.234-6.4,10.62t-5.743,10.905q-2.706,5.519-5.082,11.162a213.807,213.807,0,0,0-8.165,22.975q-1.707,5.838-3.078,11.754a214.236,214.236,0,0,0-4.127,23.891q-.693,6.021-1.043,12.077-.348,6.009-.356,12.035c0,.031,0,.061,0,.092a213.943,213.943,0,0,0,12.431,72.116L217.6,480h76.8l30.264-84.886A213.943,213.943,0,0,0,337.1,323C337.1,322.967,337.093,322.937,337.093,322.906Z" class="ci-primary"/>
</svg>
