<svg xmlns="http://www.w3.org/2000/svg" viewBox="0 0 512 512">
  <rect width="144" height="48" x="184" y="16" fill="var(--ci-secondary-color, currentColor)" class="ci-secondary" opacity="var(--ci-secondary-opacity, 0.25)"/>
  <path fill="var(--ci-secondary-color, currentColor)" d="M455.168,417.621A83.6,83.6,0,0,0,355.3,422.13l-4.746,3.886a35.681,35.681,0,0,1-45.231-.105l-3.972-3.284a83.378,83.378,0,0,0-107.918,1.184,35.8,35.8,0,0,1-46.548,0l-.708-.611a83.655,83.655,0,0,0-106.728-2.147L16,439.726v61.352l53.348-42.469a35.624,35.624,0,0,1,45.446.911l.708.611a83.6,83.6,0,0,0,109.317,0,35.507,35.507,0,0,1,45.956-.5l3.972,3.283a83.78,83.78,0,0,0,106.214.25l4.747-3.886a35.816,35.816,0,0,1,42.528-1.919L496,503.287V445.3Z" class="ci-secondary" opacity="var(--ci-secondary-opacity, 0.25)"/>
  <path fill="var(--ci-primary-color, currentColor)" d="M400,128a32.036,32.036,0,0,0-32-32H144a32.036,32.036,0,0,0-32,32v69.281L256,151.2l144,46.08Z" class="ci-primary"/>
  <path fill="var(--ci-primary-color, currentColor)" d="M272,189.919V368.566a80.748,80.748,0,0,1,27.444,14.887l3.971,3.281a38.684,38.684,0,0,0,49.043.116l4.747-3.886a80.748,80.748,0,0,1,73.441-15.084l33.3-116.539Z" class="ci-primary"/>
  <path fill="var(--ci-primary-color, currentColor)" d="M80.573,365.147a80.563,80.563,0,0,1,63.647,18.839l.707.611a38.819,38.819,0,0,0,50.472,0A80.457,80.457,0,0,1,240,365.327V189.919L48.058,251.341Z" class="ci-primary"/>
</svg>
