<svg xmlns="http://www.w3.org/2000/svg" viewBox="0 0 512 512">
  <path fill="var(--ci-secondary-color, currentColor)" d="M472,104H16V448a24,24,0,0,0,24,24H472a24,24,0,0,0,24-24V128A24,24,0,0,0,472,104Z" class="ci-secondary" opacity="var(--ci-secondary-opacity, 0.25)"/>
  <path fill="var(--ci-primary-color, currentColor)" d="M237.9,54.154A23,23,0,0,0,216.667,40H39A23,23,0,0,0,16,63v41H258.667Z" class="ci-primary"/>
  <path fill="var(--ci-primary-color, currentColor)" d="M427.893,370.949,374.741,336.4l23.545-57.334v-44.78a66.286,66.286,0,0,0-132.572,0v44.78l21.513,58.655-51.12,33.228A44.19,44.19,0,0,0,216,408v24H448V408A44.19,44.19,0,0,0,427.893,370.949Z" class="ci-primary"/>
</svg>
