<svg xmlns="http://www.w3.org/2000/svg" viewBox="0 0 512 512">
  <polygon fill="var(--ci-secondary-color, currentColor)" points="232 15.998 232 57.8 232 106.598 232 200 280 200 280 106.598 280 57.8 280 15.998 232 15.998" class="ci-secondary" opacity="var(--ci-secondary-opacity, 0.25)"/>
  <rect width="64" height="64" x="104" y="432" fill="var(--ci-secondary-color, currentColor)" class="ci-secondary" opacity="var(--ci-secondary-opacity, 0.25)" rx="32"/>
  <rect width="64" height="64" x="224" y="432" fill="var(--ci-secondary-color, currentColor)" class="ci-secondary" opacity="var(--ci-secondary-opacity, 0.25)" rx="32"/>
  <rect width="64" height="64" x="344" y="432" fill="var(--ci-secondary-color, currentColor)" class="ci-secondary" opacity="var(--ci-secondary-opacity, 0.25)" rx="32"/>
  <path fill="var(--ci-primary-color, currentColor)" d="M316,67.685v53.782a112,112,0,1,1-120,0V67.685C137.42,91.469,96,148.984,96,216c0,88.225,71.776,160,160,160s160-71.775,160-160C416,148.984,374.58,91.469,316,67.685Z" class="ci-primary"/>
</svg>
