<svg xmlns="http://www.w3.org/2000/svg" viewBox="0 0 512 512">
  <path fill="var(--ci-secondary-color, currentColor)" d="M32,456a24,24,0,0,0,24,24H456a24,24,0,0,0,24-24V122H32Z" class="ci-secondary" opacity="var(--ci-secondary-opacity, 0.25)"/>
  <path fill="var(--ci-primary-color, currentColor)" d="M254.92,344.341l-39.864-25.912,17.658-43V225.714a49.714,49.714,0,0,0-99.428,0v49.715L149.42,319.42l-38.339,24.921A33.141,33.141,0,0,0,96,372.129V408H270V372.129A33.143,33.143,0,0,0,254.92,344.341Z" class="ci-primary"/>
  <rect width="136" height="36" x="296" y="174" fill="var(--ci-primary-color, currentColor)" class="ci-primary"/>
  <rect width="136" height="36" x="296" y="238" fill="var(--ci-primary-color, currentColor)" class="ci-primary"/>
  <path fill="var(--ci-primary-color, currentColor)" d="M456,32H56A24,24,0,0,0,32,56V86H480V56A24,24,0,0,0,456,32Z" class="ci-primary"/>
</svg>
