<svg xmlns="http://www.w3.org/2000/svg" viewBox="0 0 512 512">
  <path fill="var(--ci-secondary-color, currentColor)" d="M488,280H384V192H336v88H24a8,8,0,0,0-8,8V432a8,8,0,0,0,8,8H488a8,8,0,0,0,8-8V288A8,8,0,0,0,488,280Z" class="ci-secondary" opacity="var(--ci-secondary-opacity, 0.25)"/>
  <path fill="var(--ci-primary-color, currentColor)" d="M360,107a84.8,84.8,0,0,0-63.927,29.073l29.8,29.8a42.935,42.935,0,0,1,68.246,0l29.8-29.8A84.8,84.8,0,0,0,360,107Z" class="ci-primary"/>
  <path fill="var(--ci-primary-color, currentColor)" d="M360,43A148.617,148.617,0,0,0,250.773,90.773l29.71,29.71a106.84,106.84,0,0,1,159.034,0l29.71-29.71A148.617,148.617,0,0,0,360,43Z" class="ci-primary"/>
  <rect width="36" height="36" x="224" y="342" fill="var(--ci-primary-color, currentColor)" class="ci-primary"/>
  <rect width="36" height="36" x="80" y="342" fill="var(--ci-primary-color, currentColor)" class="ci-primary"/>
  <rect width="36" height="36" x="152" y="342" fill="var(--ci-primary-color, currentColor)" class="ci-primary"/>
</svg>
