<svg xmlns="http://www.w3.org/2000/svg" viewBox="0 0 512 512">
  <path fill="var(--ci-secondary-color, currentColor)" d="M344,240v32H280V112H232V272H168V234.6a56.071,56.071,0,0,1-48,0V320H232v69.4a56.071,56.071,0,0,1,48,0V320H392V240Z" class="ci-secondary" opacity="var(--ci-secondary-opacity, 0.25)"/>
  <path fill="var(--ci-primary-color, currentColor)" d="M280,389.4A56,56,0,1,0,312,440,55.779,55.779,0,0,0,280,389.4Z" class="ci-primary"/>
  <path fill="var(--ci-primary-color, currentColor)" d="M144,128a56,56,0,1,0,56,56A56,56,0,0,0,144,128Z" class="ci-primary"/>
  <polygon fill="var(--ci-primary-color, currentColor)" points="320 144 320 240 344 240 392 240 416 240 416 144 320 144" class="ci-primary"/>
  <polygon fill="var(--ci-primary-color, currentColor)" points="280 112 328 112 256 16 184 112 232 112 280 112" class="ci-primary"/>
</svg>
