<svg xmlns="http://www.w3.org/2000/svg" viewBox="0 0 512 512">
  <path fill="var(--ci-secondary-color, currentColor)" d="M311.39,16A63.586,63.586,0,0,1,320,48v96H447.373V312h48V16Z" class="ci-secondary" opacity="var(--ci-secondary-opacity, 0.25)"/>
  <path fill="var(--ci-secondary-color, currentColor)" d="M16,128V312H64V144H192V48a63.586,63.586,0,0,1,8.61-32H16Z" class="ci-secondary" opacity="var(--ci-secondary-opacity, 0.25)"/>
  <path fill="var(--ci-primary-color, currentColor)" d="M360,216H288V48q0-.828-.042-1.647a31.932,31.932,0,0,0-.965-6.35q-.4-1.535-.935-3.006a32.013,32.013,0,0,0-60.116,0q-.538,1.472-.935,3.006a31.932,31.932,0,0,0-.965,6.35Q224,47.172,224,48V216H152L256,336Z" class="ci-primary"/>
  <polygon fill="var(--ci-primary-color, currentColor)" points="447.373 312 367.843 312 316.078 384 256.746 384 255.254 384 186.667 384 143.529 312 64 312 16 312 16 495.998 495.373 495.998 495.373 312 447.373 312" class="ci-primary"/>
</svg>
