<svg xmlns="http://www.w3.org/2000/svg" viewBox="0 0 512 512">
  <path fill="var(--ci-secondary-color, currentColor)" d="M408,256a96.127,96.127,0,0,0-88-95.664v48.343a47.991,47.991,0,0,1,0,94.642v48.343A96.127,96.127,0,0,0,408,256Z" class="ci-secondary" opacity="var(--ci-secondary-opacity, 0.25)"/>
  <path fill="var(--ci-secondary-color, currentColor)" d="M320,50.462V99.217C392.943,114.083,448,178.731,448,256S392.943,397.917,320,412.783v48.755C419.553,446.1,496,359.812,496,256S419.553,65.9,320,50.462Z" class="ci-secondary" opacity="var(--ci-secondary-opacity, 0.25)"/>
  <polygon fill="var(--ci-primary-color, currentColor)" points="152 136 16 136 16 376 152 376 256 496 288 496 288 464 288 416 288 96 288 48 288 16 256 16 152 136" class="ci-primary"/>
</svg>
