<svg xmlns="http://www.w3.org/2000/svg" viewBox="0 0 512 512">
  <path fill="var(--ci-secondary-color, currentColor)" d="M367.688,143.75a181.246,181.246,0,0,1,6.7,48.946c0,100.187-81.509,181.7-181.7,181.7a181.289,181.289,0,0,1-47.021-6.182A181.756,181.756,0,0,0,320.7,501c100.188,0,181.7-81.508,181.7-181.7A182.085,182.085,0,0,0,367.688,143.75Z" class="ci-secondary" opacity="var(--ci-secondary-opacity, 0.25)"/>
  <path fill="var(--ci-secondary-color, currentColor)" d="M286.4,182.844l-10.273-40.723A181.936,181.936,0,0,0,143.166,279.46L184.2,288.4A140.525,140.525,0,0,1,286.4,182.844Z" class="ci-secondary" opacity="var(--ci-secondary-opacity, 0.25)"/>
  <path fill="var(--ci-primary-color, currentColor)" d="M192.7,11C92.508,11,11,92.508,11,192.7s81.508,181.7,181.7,181.7,181.7-81.508,181.7-181.7S292.883,11,192.7,11ZM53,192.7C53,115.667,115.667,53,192.7,53s139.7,62.667,139.7,139.7-62.667,139.7-139.7,139.7S53,269.724,53,192.7Z" class="ci-primary"/>
</svg>
