<svg xmlns="http://www.w3.org/2000/svg" viewBox="0 0 512 512">
  <path fill="var(--ci-secondary-color, currentColor)" d="M336.222,225.989l37.411,30.038a140.36,140.36,0,0,0-.189-176.288L336.1,109.856a92.463,92.463,0,0,1,.124,116.133Z" class="ci-secondary" opacity="var(--ci-secondary-opacity, 0.25)"/>
  <path fill="var(--ci-secondary-color, currentColor)" d="M401.17,278.137l37.5,30.113a224.056,224.056,0,0,0-.3-280.875L400.934,57.569a175.613,175.613,0,0,1,.236,220.568Z" class="ci-secondary" opacity="var(--ci-secondary-opacity, 0.25)"/>
  <polygon fill="var(--ci-secondary-color, currentColor)" points="45.709 16 16 16 16 45.422 466.578 496 496 496 496 466.457 45.709 16" class="ci-secondary" opacity="var(--ci-secondary-opacity, 0.25)"/>
  <path fill="var(--ci-primary-color, currentColor)" d="M304,211.033V120A104,104,0,0,0,200,16h0a103.664,103.664,0,0,0-73.175,30.1l176.3,176.065A71.943,71.943,0,0,0,304,211.033Z" class="ci-primary"/>
  <path fill="var(--ci-primary-color, currentColor)" d="M382.008,411.43,96,125.422v85.611a72,72,0,0,0,11.256,38.655l38.417,60.369-99.862,63.1A64,64,0,0,0,16,427.265v69.306L384,496V413.422Z" class="ci-primary"/>
</svg>
