<svg xmlns="http://www.w3.org/2000/svg" viewBox="0 0 512 512">
  <polygon fill="var(--ci-secondary-color, currentColor)" points="236.478 316.978 202.068 351.387 239.82 404.239 273.451 368.74 236.478 316.978" class="ci-secondary" opacity="var(--ci-secondary-opacity, 0.25)"/>
  <polygon fill="var(--ci-secondary-color, currentColor)" points="261.138 434.084 292.471 477.95 297.816 474.132 326.844 443.491 294.769 398.584 261.138 434.084" class="ci-secondary" opacity="var(--ci-secondary-opacity, 0.25)"/>
  <polygon fill="var(--ci-secondary-color, currentColor)" points="467.039 216.744 433.569 252.072 479.115 282.761 512.584 247.432 467.039 216.744" class="ci-secondary" opacity="var(--ci-secondary-opacity, 0.25)"/>
  <polygon fill="var(--ci-secondary-color, currentColor)" points="436.769 196.348 389.175 164.28 354.596 198.86 403.3 231.677 436.769 196.348" class="ci-secondary" opacity="var(--ci-secondary-opacity, 0.25)"/>
  <polygon fill="var(--ci-secondary-color, currentColor)" points="328.261 310.884 289.926 263.529 255.797 297.658 294.96 346.036 328.261 310.884" class="ci-secondary" opacity="var(--ci-secondary-opacity, 0.25)"/>
  <polygon fill="var(--ci-secondary-color, currentColor)" points="317.81 374.262 352.192 416.735 385.494 381.583 351.111 339.111 317.81 374.262" class="ci-secondary" opacity="var(--ci-secondary-opacity, 0.25)"/>
  <polygon fill="var(--ci-secondary-color, currentColor)" points="377.101 311.678 417.378 347.928 450.399 313.072 410.122 276.822 377.101 311.678" class="ci-secondary" opacity="var(--ci-secondary-opacity, 0.25)"/>
  <polygon fill="var(--ci-secondary-color, currentColor)" points="383.354 252.731 339.865 213.59 305.877 247.578 350.332 287.587 383.354 252.731" class="ci-secondary" opacity="var(--ci-secondary-opacity, 0.25)"/>
  <path fill="var(--ci-primary-color, currentColor)" d="M375.272,127.272,343.029,95.029l-37.552,37.553-19.061-19.06A95.6,95.6,0,0,0,157.369,107.9l-9.311-7.759A80.514,80.514,0,0,0,16,161.992V408H64V161.992a32.514,32.514,0,0,1,53.328-24.978l11.307,9.423,2.1-2.524A95.62,95.62,0,0,0,151.2,248.735l19.06,19.06-35.234,35.234,32.243,32.243,1.7,1.7,208-208Z" class="ci-primary"/>
</svg>
