<svg xmlns="http://www.w3.org/2000/svg" viewBox="0 0 512 512">
  <path fill="var(--ci-secondary-color, currentColor)" d="M425.706,86.294A240,240,0,0,0,86.294,425.706,240,240,0,0,0,425.706,86.294ZM376.355,333.8,342.414,367.74l-82.106-82.106L178.2,367.74,144.26,333.8l82.106-82.107L144.26,169.586,178.2,135.645l82.107,82.106,82.106-82.106,33.941,33.941-82.106,82.106Z" class="ci-secondary" opacity="var(--ci-secondary-opacity, 0.25)"/>
  <polygon fill="var(--ci-primary-color, currentColor)" points="178.201 367.74 260.308 285.634 342.414 367.74 376.355 333.799 294.249 251.692 376.355 169.586 342.414 135.645 260.308 217.751 178.201 135.645 144.26 169.586 226.366 251.692 144.26 333.799 178.201 367.74" class="ci-primary"/>
</svg>
