<svg xmlns="http://www.w3.org/2000/svg" viewBox="0 0 512 512">
  <path fill="var(--ci-secondary-color, currentColor)" d="M354.068,263l29.539,29.539,51.367,51.367c1.1-1.494,2.186-3,3.237-4.545L491.047,263Z" class="ci-secondary" opacity="var(--ci-secondary-opacity, 0.25)"/>
  <path fill="var(--ci-secondary-color, currentColor)" d="M233.988,263H13l39.11,67.071A150.223,150.223,0,0,0,182.105,405H314.063a149.983,149.983,0,0,0,52.453-9.471l-77.882-77.883Z" class="ci-secondary" opacity="var(--ci-secondary-opacity, 0.25)"/>
  <path fill="var(--ci-primary-color, currentColor)" d="M354.067,263h136.98s-73.92-86.255-96.178-115.932c-23.933-31.91-43-39.888-61.839-39.888h0c-41.868,0-70.715,63.82-70.715,63.82h-.247Z" class="ci-primary"/>
  <path fill="var(--ci-primary-color, currentColor)" d="M46.384,16H16V45.012L112.786,141.8C111.441,143.479,13,263,13,263H13v0H233.986l233,233H496V465.615Z" class="ci-primary"/>
</svg>
