<svg xmlns="http://www.w3.org/2000/svg" viewBox="0 0 512 512">
  <path fill="var(--ci-secondary-color, currentColor)" d="M456.017,32.022,56.036,32a24,24,0,0,0-24,24l-.021,399.981a24,24,0,0,0,24,24L455.993,480a24,24,0,0,0,24-24l.022-399.98A24,24,0,0,0,456.017,32.022Z" class="ci-secondary" opacity="var(--ci-secondary-opacity, 0.25)"/>
  <path fill="var(--ci-primary-color, currentColor)" d="M350.223,172.223A83.714,83.714,0,0,0,280.11,301.777H231.89a83.754,83.754,0,1,0-76,37.77v.23H356.111v-.23a83.765,83.765,0,0,0-5.888-167.324ZM161.777,301.777A45.777,45.777,0,1,1,207.556,256,45.83,45.83,0,0,1,161.777,301.777Zm188.446,0A45.777,45.777,0,1,1,396,256,45.83,45.83,0,0,1,350.223,301.777Z" class="ci-primary"/>
</svg>
