<svg xmlns="http://www.w3.org/2000/svg" viewBox="0 0 512 512">
  <path fill="var(--ci-secondary-color, currentColor)" d="M456,32.04,56,32.019a24,24,0,0,0-24,24l-.021,400a24,24,0,0,0,24,24l400,.021a24,24,0,0,0,24-24l.021-400A24,24,0,0,0,456,32.04Z" class="ci-secondary" opacity="var(--ci-secondary-opacity, 0.25)"/>
  <polygon fill="var(--ci-primary-color, currentColor)" points="101.029 368.029 134.971 401.971 256 280.941 377.029 401.971 410.971 368.029 256 213.059 101.029 368.029" class="ci-primary"/>
  <polygon fill="var(--ci-primary-color, currentColor)" points="101.029 248.029 134.971 281.971 256 160.941 377.029 281.971 410.971 248.029 256 93.059 101.029 248.029" class="ci-primary"/>
</svg>
