<svg xmlns="http://www.w3.org/2000/svg" viewBox="0 0 512 512">
  <polygon fill="var(--ci-secondary-color, currentColor)" points="472 198.123 431.244 154.823 414.123 97.877 357.177 80.756 313.877 40 256 53.646 198.123 40 154.823 80.756 97.877 97.877 80.756 154.823 40 198.123 53.646 256 40 313.877 80.756 357.177 97.877 414.123 154.823 431.244 198.123 472 256 458.354 313.877 472 357.177 431.244 414.123 414.123 431.244 357.177 472 313.877 458.354 256 472 198.123" class="ci-secondary" opacity="var(--ci-secondary-opacity, 0.25)"/>
  <polygon fill="var(--ci-primary-color, currentColor)" points="216 128 216 184 246 264 266 264 296 184 296 128 216 128" class="ci-primary"/>
  <circle cx="256" cy="352" r="40" fill="var(--ci-primary-color, currentColor)" class="ci-primary"/>
</svg>
