<svg xmlns="http://www.w3.org/2000/svg" viewBox="0 0 512 512">
  <path fill="var(--ci-secondary-color, currentColor)" d="M122.333,16H100.667A60.863,60.863,0,0,0,40,76.667V421.5A74.5,74.5,0,0,1,114.5,347H464V16Z" class="ci-secondary" opacity="var(--ci-secondary-opacity, 0.25)"/>
  <polygon fill="var(--ci-primary-color, currentColor)" points="311.66 231.667 366.332 279.667 376 279.667 376 64 248 64 248 279.667 257.565 279.667 311.66 231.667" class="ci-primary"/>
  <path fill="var(--ci-primary-color, currentColor)" d="M114.5,347a74.5,74.5,0,0,0,0,149H464V448H108.667C98.043,448,88,435.706,88,422.7c0-12.094,10.125-22.7,21.667-22.7H464V347Z" class="ci-primary"/>
</svg>
