<svg xmlns="http://www.w3.org/2000/svg" viewBox="0 0 512 512">
  <rect width="448" height="448" x="32" y="32" fill="var(--ci-secondary-color, currentColor)" class="ci-secondary" opacity="var(--ci-secondary-opacity, 0.25)" rx="24"/>
  <path fill="var(--ci-primary-color, currentColor)" d="M359.846,289.692H337.692V222.308h22.154a70.154,70.154,0,1,0-70.154-70.154v22.154H222.308V152.154a70.154,70.154,0,1,0-70.154,70.154h22.154v67.384H152.154a70.154,70.154,0,1,0,70.154,70.154V337.692h67.384v22.154a70.154,70.154,0,1,0,70.154-70.154ZM337.692,152.154a22.154,22.154,0,1,1,22.154,22.154H337.692ZM152.154,174.308a22.154,22.154,0,1,1,22.154-22.154v22.154Zm22.154,185.538a22.154,22.154,0,1,1-22.154-22.154h22.154Zm48-70.154V222.308h67.384v67.384ZM359.846,382a22.179,22.179,0,0,1-22.154-22.154V337.692h22.154a22.154,22.154,0,0,1,0,44.308Z" class="ci-primary"/>
</svg>
