<svg xmlns="http://www.w3.org/2000/svg" viewBox="0 0 512 512">
  <path fill="var(--ci-secondary-color, currentColor)" d="M373.449,183,330.762,95.932l-.391-.639A32.239,32.239,0,0,0,302.823,80L72.267,81.839A32.014,32.014,0,0,0,42.2,103.612L16,183Z" class="ci-secondary" opacity="var(--ci-secondary-opacity, 0.25)"/>
  <path fill="var(--ci-primary-color, currentColor)" d="M475.656,223.142,422.811,215H16V366.255H56a80,80,0,0,1,160,0h72a80,80,0,0,1,160,0h48V246.862A23.873,23.873,0,0,0,475.656,223.142Z" class="ci-primary"/>
  <circle cx="136" cy="366.255" r="48" fill="var(--ci-primary-color, currentColor)" class="ci-primary"/>
  <circle cx="368" cy="366.255" r="48" fill="var(--ci-primary-color, currentColor)" class="ci-primary"/>
</svg>
