<svg xmlns="http://www.w3.org/2000/svg" viewBox="0 0 512 512">
  <path fill="var(--ci-secondary-color, currentColor)" d="M299.493,325.774l-9.935,2.355L209.9,347.005l-.758.18-.766.146a37.347,37.347,0,0,1-43.711-43.706l.147-.767.18-.761,18.876-79.655,2.355-9.935,7.219-7.22L334.732,64H40A24.028,24.028,0,0,0,16,88V472a24.028,24.028,0,0,0,24,24H416a24.028,24.028,0,0,0,24-24V185.268L306.713,318.555Z" class="ci-secondary" opacity="var(--ci-secondary-opacity, 0.25)"/>
  <path fill="var(--ci-primary-color, currentColor)" d="M480.714,31.287h0a44.09,44.09,0,0,0-62.355,0L385.644,64h0L218.9,230.743h0l-8.169,34.474L200.025,310.4a1.316,1.316,0,0,0-.021.329c0,.035.011.068.015.1a1.4,1.4,0,0,0,.04.207c.012.039.029.075.044.113a1.425,1.425,0,0,0,.078.168,1.209,1.209,0,0,0,.071.105,1.334,1.334,0,0,0,.109.139c.03.032.061.06.093.089a1.6,1.6,0,0,0,.137.109c.036.024.072.047.111.068a1.67,1.67,0,0,0,.284.118,1.345,1.345,0,0,0,.181.034c.043.006.085.013.13.015.016,0,.03,0,.046,0a1.36,1.36,0,0,0,.259-.025l12.806-3.035L281.257,293.1,394.812,179.544,440,134.356h0l40.714-40.714A44.091,44.091,0,0,0,480.714,31.287Z" class="ci-primary"/>
</svg>
