<svg xmlns="http://www.w3.org/2000/svg" viewBox="0 0 512 512">
  <path fill="var(--ci-secondary-color, currentColor)" d="M384,200H80V320A176,176,0,0,0,256,496h0A176,176,0,0,0,432,320V200Z" class="ci-secondary" opacity="var(--ci-secondary-opacity, 0.25)"/>
  <path fill="var(--ci-primary-color, currentColor)" d="M256,16A127.539,127.539,0,0,0,148.137,75.06l40.425,25.88A80.01,80.01,0,0,1,336,144v56h48V144A128.144,128.144,0,0,0,256,16Z" class="ci-primary"/>
  <polygon fill="var(--ci-primary-color, currentColor)" points="274 264 238 264 238 318 184 318 184 354 238 354 238 408 274 408 274 354 328 354 328 318 274 318 274 264" class="ci-primary"/>
</svg>
