<svg xmlns="http://www.w3.org/2000/svg" viewBox="0 0 512 512">
  <path fill="var(--ci-secondary-color, currentColor)" d="M130.545,216.625V251H235V144H203.171A72.626,72.626,0,0,0,130.545,216.625Z" class="ci-secondary" opacity="var(--ci-secondary-opacity, 0.25)"/>
  <path fill="var(--ci-secondary-color, currentColor)" d="M308.829,144H277V251H381.455V216.625A72.626,72.626,0,0,0,308.829,144Z" class="ci-secondary" opacity="var(--ci-secondary-opacity, 0.25)"/>
  <path fill="var(--ci-primary-color, currentColor)" d="M435,16V59H264a29.032,29.032,0,0,0-29,29v56h42V101H448a29.032,29.032,0,0,0,29-29V16Z" class="ci-primary"/>
  <path fill="var(--ci-primary-color, currentColor)" d="M130.545,376.572A119.429,119.429,0,0,0,249.974,496h12.052A119.429,119.429,0,0,0,381.455,376.572V293H130.545Z" class="ci-primary"/>
</svg>
