<svg xmlns="http://www.w3.org/2000/svg" viewBox="0 0 512 512">
  <path fill="var(--ci-secondary-color, currentColor)" d="M400,160a144,144,0,0,0-288,0,96,96,0,0,0,0,192h80V264a64,64,0,0,1,128,0v88h88v-.334A96,96,0,0,0,400,160Z" class="ci-secondary" opacity="var(--ci-secondary-opacity, 0.25)"/>
  <path fill="var(--ci-primary-color, currentColor)" d="M288,352V264h0a31.963,31.963,0,0,0-32-32h0a31.862,31.862,0,0,0-19.146,6.357q-.617.46-1.209.95a32.191,32.191,0,0,0-6.18,6.8q-.863,1.278-1.6,2.639t-1.347,2.8A31.718,31.718,0,0,0,225.007,256,32.082,32.082,0,0,0,224,264h0V384H160l96,112,96-112H288Z" class="ci-primary"/>
</svg>
