<svg xmlns="http://www.w3.org/2000/svg" viewBox="0 0 512 512">
  <path fill="var(--ci-secondary-color, currentColor)" d="M296,256l97.283,55.5a112,112,0,0,0-1.548-113.626Z" class="ci-secondary" opacity="var(--ci-secondary-opacity, 0.25)"/>
  <path fill="var(--ci-secondary-color, currentColor)" d="M466.955,152.2l-44.449,26.988a148,148,0,0,1,2.046,150.149L469.719,355.1a200,200,0,0,0-2.764-202.9Z" class="ci-secondary" opacity="var(--ci-secondary-opacity, 0.25)"/>
  <path fill="var(--ci-primary-color, currentColor)" d="M118.982,256.8,40,307.777v71.738l2.021,3.132L144,316.821V496l55.736,0,160.29-111.279-.076-48.474L329.2,316.387l-92.235-59.575,122.972-79.378v-2.373l.01-45.259L197.541,15.974,144,16.038V196.765L41.362,130.471,40,132.58v73.2ZM208,101.458l72.7,50.952L208,199.334Zm0,212.834,73.173,47.262L208,412.353Z" class="ci-primary"/>
</svg>
