<svg xmlns="http://www.w3.org/2000/svg" viewBox="0 0 512 512">
  <path fill="var(--ci-secondary-color, currentColor)" d="M453,256a29.034,29.034,0,0,0-29-29H277V168H235v59H88a29.034,29.034,0,0,0-29,29v64h42V269H235v51h42V269H411v51h42Z" class="ci-secondary" opacity="var(--ci-secondary-opacity, 0.25)"/>
  <path fill="var(--ci-primary-color, currentColor)" d="M120,320H40a24,24,0,0,0-24,24v72a24,24,0,0,0,24,24h80a24,24,0,0,0,24-24V344A24,24,0,0,0,120,320Z" class="ci-primary"/>
  <path fill="var(--ci-primary-color, currentColor)" d="M472,320H392a24,24,0,0,0-24,24v72a24,24,0,0,0,24,24h80a24,24,0,0,0,24-24V344A24,24,0,0,0,472,320Z" class="ci-primary"/>
  <path fill="var(--ci-primary-color, currentColor)" d="M296,320H216a24,24,0,0,0-24,24v72a24,24,0,0,0,24,24h80a24,24,0,0,0,24-24V344A24,24,0,0,0,296,320Z" class="ci-primary"/>
  <path fill="var(--ci-primary-color, currentColor)" d="M304,48H208a24,24,0,0,0-24,24v72a24,24,0,0,0,24,24h96a24,24,0,0,0,24-24V72A24,24,0,0,0,304,48Z" class="ci-primary"/>
</svg>
