<svg xmlns="http://www.w3.org/2000/svg" viewBox="0 0 512 512">
  <polygon fill="var(--ci-secondary-color, currentColor)" points="45.977 16 16 16 16 45.422 466.577 496 496 496 496 466.024 45.977 16" class="ci-secondary" opacity="var(--ci-secondary-opacity, 0.25)"/>
  <path fill="var(--ci-primary-color, currentColor)" d="M223.151,313.422h0l-52.2-39.149-104.4,78.3,36.439,73.962a9.227,9.227,0,0,0,7.825,4.337h22.345A310.54,310.54,0,0,0,330.81,360.233l-58.888-58.888A103.932,103.932,0,0,1,223.151,313.422Z" class="ci-primary"/>
  <path fill="var(--ci-primary-color, currentColor)" d="M440.661,88.864,366.7,52.426l-78.3,104.4,39.15,52.2h0a104.288,104.288,0,0,1-5.139,32.416l62.127,62.127A310.41,310.41,0,0,0,445,119.034V96.689A9.229,9.229,0,0,0,440.661,88.864Z" class="ci-primary"/>
</svg>
