<svg xmlns="http://www.w3.org/2000/svg" viewBox="0 0 512 512">
  <path fill="var(--ci-secondary-color, currentColor)" d="M399.929,217.453V216c0-79.4-64.6-144-144-144a143.148,143.148,0,0,0-79.095,23.73L316.568,235.6h0L476.826,395.855a122.48,122.48,0,0,0,19.1-66.236C495.929,271.182,455.645,225.392,399.929,217.453Z" class="ci-secondary" opacity="var(--ci-secondary-opacity, 0.25)"/>
  <path fill="var(--ci-secondary-color, currentColor)" d="M111.929,216v2.492A122.27,122.27,0,0,0,49.135,251.2a109.4,109.4,0,0,0-33.206,78.42c0,31.119,12.789,60.762,36.01,83.469C74.629,435.275,105.268,448,136,448H382.76a111.115,111.115,0,0,0,31.349-4.47L125.53,154.952A143.143,143.143,0,0,0,111.929,216Z" class="ci-secondary" opacity="var(--ci-secondary-opacity, 0.25)"/>
  <polygon fill="var(--ci-primary-color, currentColor)" points="452.89 422.915 149.298 119.323 45.975 16 16 16 16 45.422 125.53 154.952 414.109 443.53 466.579 496 496 496 496 466.025 452.89 422.915" class="ci-primary"/>
</svg>
