<svg xmlns="http://www.w3.org/2000/svg" viewBox="0 0 512 512">
  <path fill="var(--ci-secondary-color, currentColor)" d="M472,24H184a16.016,16.016,0,0,0-16,16V328a16,16,0,0,0,16,16H472a15.986,15.986,0,0,0,15.963-15.273c.011-.243.037-.482.037-.727V40A16,16,0,0,0,472,24Z" class="ci-secondary" opacity="var(--ci-secondary-opacity, 0.25)"/>
  <path fill="var(--ci-primary-color, currentColor)" d="M64,168H24V472a16,16,0,0,0,16,16H344V448H64Z" class="ci-primary"/>
  <path fill="var(--ci-primary-color, currentColor)" d="M136,376V96H96V400a16,16,0,0,0,16,16H416V376Z" class="ci-primary"/>
  <path fill="var(--ci-primary-color, currentColor)" d="M295.609,245.031c0,28.149,24.645,50.969,55.047,50.969S405.7,273.18,405.7,245.031s-24.645-50.969-55.046-50.969a58.9,58.9,0,0,0-18.749,3.037l.242-117.594L241.907,96.669V144l54-10.271S295.609,243.237,295.609,245.031Z" class="ci-primary"/>
</svg>
