<svg xmlns="http://www.w3.org/2000/svg" viewBox="0 0 512 512">
  <circle cx="256" cy="256" r="144" fill="var(--ci-secondary-color, currentColor)" class="ci-secondary" opacity="var(--ci-secondary-opacity, 0.25)"/>
  <path fill="var(--ci-primary-color, currentColor)" d="M415.025,318.981,499,256l-83.87-62.9-2.148-5.011L427.827,84.173,324.043,99l-5.062-2.024L256,13,193.1,96.871l-5.01,2.147L84.173,84.173,99,187.957l-2.024,5.062L13,256l83.871,62.9,2.147,5.011L84.173,427.827,187.957,413l5.062,2.024L256,499l62.9-83.87,5.011-2.148,103.913,14.845L413,324.043ZM256,400A144,144,0,1,1,400,256,144,144,0,0,1,256,400Z" class="ci-primary"/>
</svg>
