<svg xmlns="http://www.w3.org/2000/svg" viewBox="0 0 512 512">
  <path fill="var(--ci-secondary-color, currentColor)" d="M177.17,266.777h48A42.825,42.825,0,0,1,267.947,224V176A90.881,90.881,0,0,0,177.17,266.777Z" class="ci-secondary" opacity="var(--ci-secondary-opacity, 0.25)"/>
  <path fill="var(--ci-secondary-color, currentColor)" d="M99.947,266.777h48a120.136,120.136,0,0,1,120-120v-48C175.312,98.777,99.947,174.142,99.947,266.777Z" class="ci-secondary" opacity="var(--ci-secondary-opacity, 0.25)"/>
  <path fill="var(--ci-secondary-color, currentColor)" d="M92.585,91.415A246.376,246.376,0,0,0,19.947,266.777h48c0-110.28,89.72-200,200-200v-48A246.376,246.376,0,0,0,92.585,91.415Z" class="ci-secondary" opacity="var(--ci-secondary-opacity, 0.25)"/>
  <path fill="var(--ci-primary-color, currentColor)" d="M475.663,135.259,401.7,98.82l-78.3,104.4,39.15,52.2h0a104.4,104.4,0,0,1-104.4,104.4h0l-52.2-39.15-104.4,78.3,36.439,73.962a9.227,9.227,0,0,0,7.825,4.337h22.344C340.386,477.265,480,337.651,480,165.428V143.084A9.227,9.227,0,0,0,475.663,135.259Z" class="ci-primary"/>
</svg>
