<svg xmlns="http://www.w3.org/2000/svg" viewBox="0 0 512 512">
  <path fill="var(--ci-secondary-color, currentColor)" d="M372.372,33.885a21.964,21.964,0,0,0-26.4-15.1L213.9,51.8l-46-30.665a17.92,17.92,0,0,0-9.942-3.01h0a17.924,17.924,0,0,0-17.193,12.859L113.013,140H399.292Z" class="ci-secondary" opacity="var(--ci-secondary-opacity, 0.25)"/>
  <polygon fill="var(--ci-secondary-color, currentColor)" points="419.12 176 93.042 176 16 239.073 16 264 496 264 496 239.073 419.12 176" class="ci-secondary" opacity="var(--ci-secondary-opacity, 0.25)"/>
  <path fill="var(--ci-primary-color, currentColor)" d="M370.864,305.667A84.928,84.928,0,0,0,306,335.694a90.977,90.977,0,0,0-102.762.267,82.543,82.543,0,1,0,19.109,38.288,48.739,48.739,0,0,1,65,.058,85.137,85.137,0,1,0,83.525-68.64Z" class="ci-primary"/>
  <polygon fill="var(--ci-primary-color, currentColor)" points="399 140 113 140 93 176 419 176 399 140" class="ci-primary"/>
</svg>
