<svg xmlns="http://www.w3.org/2000/svg" viewBox="0 0 512 512">
  <circle cx="256" cy="256" r="240" fill="var(--ci-secondary-color, currentColor)" class="ci-secondary" opacity="var(--ci-secondary-opacity, 0.25)"/>
  <path fill="var(--ci-primary-color, currentColor)" d="M355.318,367.428l-21.75,88.3,21.4,18.933A238.4,238.4,0,0,0,456.51,387.778c1.831-2.785,3.584-5.6,5.29-8.444L445.531,356Z" class="ci-primary"/>
  <path fill="var(--ci-primary-color, currentColor)" d="M495.9,250.256A238.4,238.4,0,0,0,455.753,122.79l-28.176,4.734-28.3,86.42,70.482,57.46,26.156-11.184C495.975,256.908,495.981,253.588,495.9,250.256Z" class="ci-primary"/>
  <polygon fill="var(--ci-primary-color, currentColor)" points="256 168.615 170.5 230.734 203.158 331.245 308.842 331.245 341.5 230.734 256 168.615" class="ci-primary"/>
  <path fill="var(--ci-primary-color, currentColor)" d="M330.968,55.131,327.6,26.884c-3.163-.986-6.347-1.925-9.566-2.786a238.394,238.394,0,0,0-133.613,2.663l-3.385,28.37L256,106.6Z" class="ci-primary"/>
  <path fill="var(--ci-primary-color, currentColor)" d="M84.365,127.524,56.189,122.79A238.4,238.4,0,0,0,16.041,250.256c-.079,3.332-.074,6.652-.018,9.964L42.18,271.4l70.481-57.46Z" class="ci-primary"/>
  <path fill="var(--ci-primary-color, currentColor)" d="M66.411,356,50.142,379.334c1.706,2.84,3.46,5.659,5.29,8.444a238.4,238.4,0,0,0,101.546,86.879l21.4-18.933-21.75-88.3Z" class="ci-primary"/>
</svg>
