<svg xmlns="http://www.w3.org/2000/svg" viewBox="0 0 512 512">
  <polygon fill="var(--ci-secondary-color, currentColor)" points="88 64 88 96 131.553 96 173.678 96 338.322 96 380.447 96 424 96 424 64 88 64" class="ci-secondary" opacity="var(--ci-secondary-opacity, 0.25)"/>
  <rect width="72" height="128" x="16" y="16" fill="var(--ci-primary-color, currentColor)" class="ci-primary"/>
  <rect width="72" height="128" x="424" y="16" fill="var(--ci-primary-color, currentColor)" class="ci-primary"/>
  <polygon fill="var(--ci-primary-color, currentColor)" points="372.258 202.454 380.447 96 338.322 96 331.742 181.546 256 244.664 180.258 181.546 173.678 96 131.553 96 139.742 202.454 220 269.336 220 331 140.135 331 132.444 469.426 174.509 469.426 179.866 373 332.134 373 337.491 469.426 379.556 469.426 371.865 331 292 331 292 269.336 372.258 202.454" class="ci-primary"/>
  <circle cx="256" cy="160" r="48" fill="var(--ci-primary-color, currentColor)" class="ci-primary"/>
</svg>
