<svg xmlns="http://www.w3.org/2000/svg" viewBox="0 0 512 512">
  <polygon fill="var(--ci-secondary-color, currentColor)" points="480 202 310 202 310 32 88 32 88 252 480 252 480 202" class="ci-secondary" opacity="var(--ci-secondary-opacity, 0.25)"/>
  <polygon fill="var(--ci-primary-color, currentColor)" points="352 32 346 32 346 166 480 166 480 160 352 32" class="ci-primary"/>
  <path fill="var(--ci-primary-color, currentColor)" d="M32,480H480V288H32ZM332,372a48.008,48.008,0,0,1,92.849-17.14l-22.308,8.924A23.995,23.995,0,0,0,356,372v24a23.995,23.995,0,0,0,46.541,8.216l22.308,8.924A48.008,48.008,0,0,1,332,396Zm-120,0a48,48,0,0,1,96,0v24a48,48,0,0,1-96,0ZM92,324h43.833A52.226,52.226,0,0,1,188,376.167v15.666A52.226,52.226,0,0,1,135.833,444H92Z" class="ci-primary"/>
  <path fill="var(--ci-primary-color, currentColor)" d="M260,420a24.028,24.028,0,0,0,24-24V372a24,24,0,0,0-48,0v24A24.028,24.028,0,0,0,260,420Z" class="ci-primary"/>
  <path fill="var(--ci-primary-color, currentColor)" d="M164,391.833V376.167A28.2,28.2,0,0,0,135.833,348H116v72h19.833A28.2,28.2,0,0,0,164,391.833Z" class="ci-primary"/>
</svg>
