<svg xmlns="http://www.w3.org/2000/svg" viewBox="0 0 512 512">
  <path fill="var(--ci-secondary-color, currentColor)" d="M479.6,400.4l-81.084-81.084-79.2,79.2L400.4,479.6a56,56,0,0,0,79.2-79.2Z" class="ci-secondary" opacity="var(--ci-secondary-opacity, 0.25)"/>
  <path fill="var(--ci-primary-color, currentColor)" d="M398.514,319.318l-53.32-22.028A178.985,178.985,0,0,0,376,196.686c0-99.252-80.748-180-180-180s-180,80.748-180,180,80.748,180,180,180a178.97,178.97,0,0,0,101.357-31.33l21.961,53.158ZM64,196.686c0-72.785,59.215-132,132-132s132,59.215,132,132-59.215,132-132,132S64,269.471,64,196.686Z" class="ci-primary"/>
</svg>
