<svg xmlns="http://www.w3.org/2000/svg" viewBox="0 0 512 512">
  <path fill="var(--ci-secondary-color, currentColor)" d="M408.873,350.472C452.634,316.89,480,269.074,480,216,480,114.379,379.712,32,256,32S32,114.379,32,216,132.288,400,256,400a274.016,274.016,0,0,0,33.348-2.032l22.106,19.159A257.347,257.347,0,0,0,480,480V464a299.274,299.274,0,0,1-70.593-112.012Z" class="ci-secondary" opacity="var(--ci-secondary-opacity, 0.25)"/>
  <polygon fill="var(--ci-primary-color, currentColor)" points="206.85 294.85 256 245.699 305.15 294.85 334.85 265.15 285.699 216 334.85 166.85 305.15 137.15 256 186.301 206.85 137.15 177.15 166.85 226.301 216 177.15 265.15 206.85 294.85" class="ci-primary"/>
</svg>
