<svg xmlns="http://www.w3.org/2000/svg" viewBox="0 0 512 512">
  <polygon fill="var(--ci-secondary-color, currentColor)" points="280 376 232 376 232 432 160 464 160 496 352 496 352 464 280 432 280 376" class="ci-secondary" opacity="var(--ci-secondary-opacity, 0.25)"/>
  <polygon fill="var(--ci-secondary-color, currentColor)" points="45.709 16 16 16 16 44 346.577 376 466.577 496 496 496 496 466.457 45.709 16" class="ci-secondary" opacity="var(--ci-secondary-opacity, 0.25)"/>
  <path fill="var(--ci-primary-color, currentColor)" d="M16,352a24.028,24.028,0,0,0,24,24H346.577L16,44Z" class="ci-primary"/>
  <path fill="var(--ci-primary-color, currentColor)" d="M472,32H112.7l344.27,344H472a24.028,24.028,0,0,0,24-24V56A24.028,24.028,0,0,0,472,32Z" class="ci-primary"/>
</svg>
