<svg xmlns="http://www.w3.org/2000/svg" viewBox="0 0 512 512">
  <rect width="480" height="272" x="16" y="104" fill="var(--ci-secondary-color, currentColor)" class="ci-secondary" opacity="var(--ci-secondary-opacity, 0.25)"/>
  <path fill="var(--ci-primary-color, currentColor)" d="M240.4,176H194.448L155.009,304h33.485l7.394-24h45.449l8,24h33.731Zm-34.652,72,11.971-38.853L230.671,248Z" class="ci-primary"/>
  <polygon fill="var(--ci-primary-color, currentColor)" points="112 176 48 176 40 176 40 208 48 208 80 208 80 304 112 304 112 208 152 208 152 176 112 176" class="ci-primary"/>
  <polygon fill="var(--ci-primary-color, currentColor)" points="416.683 176 378.517 176 356 210.642 333.483 176 295.317 176 336.917 240 295.317 304 333.483 304 356 269.358 378.517 304 416.683 304 375.083 240 416.683 176" class="ci-primary"/>
  <polygon fill="var(--ci-primary-color, currentColor)" points="440 304 464 304 472 304 472 176 464 176 440 176 440 304" class="ci-primary"/>
</svg>
