<svg xmlns="http://www.w3.org/2000/svg" viewBox="0 0 512 512">
  <path fill="var(--ci-secondary-color, currentColor)" d="M340.883,227.4,328.507,188.94c-10.285-31.956-19.318-64.289-28.242-96.652A104.043,104.043,0,0,0,200,16h0A104.043,104.043,0,0,0,99.735,92.288c-8.924,32.363-17.957,64.7-28.242,96.652L59.117,227.4A32,32,0,0,0,88.529,272H311.471A32,32,0,0,0,340.883,227.4Z" class="ci-secondary" opacity="var(--ci-secondary-opacity, 0.25)"/>
  <circle cx="382.5" cy="392.5" r="108.5" fill="var(--ci-secondary-color, currentColor)" class="ci-secondary" opacity="var(--ci-secondary-opacity, 0.25)"/>
  <path fill="var(--ci-primary-color, currentColor)" d="M210.485,82.433C181.081,130.8,138.157,163.4,96,173.781v21.252a72.007,72.007,0,0,0,11.256,38.656l40.9,74.275L148,308,45.811,373.162A64,64,0,0,0,16,427.265v69.306l197-.305V496h63.143A137.185,137.185,0,0,1,228,391.5c0-73.5,64.744-157.811,64.744-157.811A72.007,72.007,0,0,0,304,195.033V135A155.783,155.783,0,0,1,210.485,82.433Z" class="ci-primary"/>
  <polygon fill="var(--ci-primary-color, currentColor)" points="441.922 359.912 418.588 336.578 384.646 370.519 351.412 337.285 328.785 359.912 362.019 393.146 328.078 427.088 351.412 450.422 385.354 416.481 418.588 449.715 441.215 427.088 407.981 393.854 441.922 359.912" class="ci-primary"/>
</svg>
