<svg xmlns="http://www.w3.org/2000/svg" viewBox="0 0 512 512">
  <path fill="var(--ci-secondary-color, currentColor)" d="M272,16H240c-25.682,21.92-60.161,38.328-94.022,50.393L433.266,353.681C475.227,275.589,488,179.955,488,96,488,96,344.728,78.073,272,16Z" class="ci-secondary" opacity="var(--ci-secondary-opacity, 0.25)"/>
  <path fill="var(--ci-secondary-color, currentColor)" d="M24,96c0,154.473,43.2,348.509,232,400,56.015-15.277,99.213-43.1,132.269-78.718L60.684,89.7C38.537,94.178,24,96,24,96Z" class="ci-secondary" opacity="var(--ci-secondary-opacity, 0.25)"/>
  <polygon fill="var(--ci-primary-color, currentColor)" points="46.385 16 46.266 16 16 16 16 45.013 466.987 496 496 496 496 467.314 496 465.615 46.385 16" class="ci-primary"/>
</svg>
