<svg xmlns="http://www.w3.org/2000/svg" viewBox="0 0 512 512">
  <path fill="var(--ci-secondary-color, currentColor)" d="M480,216C480,114.38,379.712,32,256,32S32,114.38,32,216,132.288,400,256,400a274.016,274.016,0,0,0,33.348-2.032l22.106,19.159A257.353,257.353,0,0,0,480,480V464a299.274,299.274,0,0,1-70.593-112.012l-.534-1.516C452.634,316.89,480,269.074,480,216Z" class="ci-secondary" opacity="var(--ci-secondary-opacity, 0.25)"/>
  <polygon fill="var(--ci-primary-color, currentColor)" points="233.698 244.603 182.849 193.754 153.151 223.452 233.698 304 362.849 174.849 333.151 145.151 233.698 244.603" class="ci-primary"/>
</svg>
