<svg xmlns="http://www.w3.org/2000/svg" viewBox="0 0 512 512">
  <polygon fill="var(--ci-secondary-color, currentColor)" points="145.107 16 97.107 16 97.107 384 16 384 16 391.529 120.471 496 144.471 472 145.107 472 145.107 471.364 225.911 390.56 225.911 384 145.107 384 145.107 16" class="ci-secondary" opacity="var(--ci-secondary-opacity, 0.25)"/>
  <polygon fill="var(--ci-primary-color, currentColor)" points="422.911 329.456 422.911 279 273.911 279 273.911 321 370.17 321 268.911 414.544 268.911 465 425.911 465 425.911 423 321.652 423 422.911 329.456" class="ci-primary"/>
  <path fill="var(--ci-primary-color, currentColor)" d="M318.38,193h63.062l11.667,35H437.38L377.047,47H322.775L262.442,228h44.272Zm31.531-94.592L367.442,151H332.38Z" class="ci-primary"/>
</svg>
