<svg xmlns="http://www.w3.org/2000/svg" viewBox="0 0 512 512">
  <path fill="var(--ci-secondary-color, currentColor)" d="M213.257,26.158a16,16,0,0,0-22.628,0L24.334,192.453a16,16,0,0,0,0,22.627L295.586,486.332a16,16,0,0,0,22.628,0l166.3-166.295a16,16,0,0,0,0-22.627Z" class="ci-secondary" opacity="var(--ci-secondary-opacity, 0.25)"/>
  <path fill="var(--ci-primary-color, currentColor)" d="M112.45,429.96A147.7,147.7,0,0,1,52.182,310.937h-36c0,98.9,78.516,179.8,176.489,183.658l-53.762-96.386Z" class="ci-primary"/>
  <path fill="var(--ci-primary-color, currentColor)" d="M319.329,17.405l53.762,96.386L399.55,82.04a147.7,147.7,0,0,1,60.268,119.023h36C495.818,102.162,417.3,21.268,319.329,17.405Z" class="ci-primary"/>
</svg>
