<svg xmlns="http://www.w3.org/2000/svg" viewBox="0 0 512 512">
  <rect width="448" height="448" x="33" y="32" fill="var(--ci-secondary-color, currentColor)" class="ci-secondary" opacity="var(--ci-secondary-opacity, 0.25)" rx="24"/>
  <path fill="var(--ci-primary-color, currentColor)" d="M247.006,101.621A17.483,17.483,0,0,0,234.644,96.5H119.5a23.311,23.311,0,0,0-23.311,23.311V234.63a17.483,17.483,0,0,0,5.513,12.743L275.632,410.759a17.483,17.483,0,0,0,24.837-.905L411.192,289.5a17.483,17.483,0,0,0-.5-24.2Zm-75.054,96.865a26.225,26.225,0,1,1,26.225-26.225A26.225,26.225,0,0,1,171.952,198.486Z" class="ci-primary"/>
</svg>
