<svg xmlns="http://www.w3.org/2000/svg" viewBox="0 0 512 512">
  <path fill="var(--ci-secondary-color, currentColor)" d="M415.025,318.981,499,256l-83.87-62.9-2.148-5.011L427.827,84.173,324.043,99l-5.062-2.024L256,13,193.1,96.87l-5.011,2.148L84.173,84.173,99,187.957l-2.024,5.062L13,256l83.87,62.9,2.148,5.011L84.173,427.827,187.957,413l5.062,2.024L256,499l62.9-83.87,5.011-2.148,103.913,14.845L413,324.043Z" class="ci-secondary" opacity="var(--ci-secondary-opacity, 0.25)"/>
  <path fill="var(--ci-primary-color, currentColor)" d="M219.205,298H292.8l13.324,38H344.27L281.854,158H230.147L167.732,336H205.88Zm36.467-104h.657l23.844,68H231.828Z" class="ci-primary"/>
</svg>
