<svg xmlns="http://www.w3.org/2000/svg" viewBox="0 0 512 512">
  <path fill="var(--ci-secondary-color, currentColor)" d="M184.012,170.677c36.312-29.828,84.068-46.366,134.607-46.663C308.605,63.024,244.992,16,168,16,84.053,16,16,71.9,16,140.857c0,36.015,18.57,68.461,48.265,91.249l-.363,1.028A203.072,203.072,0,0,1,16,309.143V320a174.63,174.63,0,0,0,108.281-37.624,146.857,146.857,0,0,1,16.286-58.585A168.648,168.648,0,0,1,184.012,170.677Z" class="ci-secondary" opacity="var(--ci-secondary-opacity, 0.25)"/>
  <path fill="var(--ci-primary-color, currentColor)" d="M429.2,387.48C460.453,363.493,480,329.338,480,291.429,480,218.843,408.365,160,320,160S160,218.843,160,291.429s71.635,131.428,160,131.428a195.9,195.9,0,0,0,23.82-1.451l15.79,13.684A183.82,183.82,0,0,0,480,480V468.571a213.75,213.75,0,0,1-50.423-80.008Z" class="ci-primary"/>
</svg>
