<svg xmlns="http://www.w3.org/2000/svg" viewBox="0 0 512 512">
  <path fill="var(--ci-secondary-color, currentColor)" d="M436.613,44.009H75.3C58.033,44.009,44,57.694,44,74.561V437.4c0,16.884,14.029,30.587,31.3,30.587H436.613c17.3,0,31.387-13.7,31.387-30.587V74.561C468,57.694,453.911,44.009,436.613,44.009Z" class="ci-secondary" opacity="var(--ci-secondary-opacity, 0.25)"/>
  <polygon fill="var(--ci-primary-color, currentColor)" points="97.775 222.118 141.775 222.118 141.775 325.882 177.775 325.882 177.775 222.118 217.775 222.118 217.775 186.118 97.775 186.118 97.775 222.118" class="ci-primary"/>
  <polygon fill="var(--ci-primary-color, currentColor)" points="388.269 186.118 352.502 186.118 319.186 256.45 285.871 186.118 249.972 186.118 225.263 325.882 261.822 325.882 275.525 248.37 305.443 311.53 316.833 311.53 321.539 311.53 332.93 311.53 363.111 247.814 377.61 325.882 414.225 325.882 388.269 186.118" class="ci-primary"/>
</svg>
