<svg xmlns="http://www.w3.org/2000/svg" viewBox="0 0 512 512">
  <path fill="var(--ci-secondary-color, currentColor)" d="M456.027,32.011l-400-.022a24,24,0,0,0-24,24l-.021,400a24,24,0,0,0,24,24l400,.022a24,24,0,0,0,24-24l.021-400A24,24,0,0,0,456.027,32.011Z" class="ci-secondary" opacity="var(--ci-secondary-opacity, 0.25)"/>
  <path fill="var(--ci-primary-color, currentColor)" d="M390.842,130.458,332.551,101.74l-61.709,82.279L301.7,225.158h0a82.279,82.279,0,0,1-82.278,82.279h0l-41.139-30.855L96,338.291l28.718,58.291A7.274,7.274,0,0,0,130.885,400H148.5C284.227,400,394.26,289.968,394.26,154.236V136.625A7.274,7.274,0,0,0,390.842,130.458Z" class="ci-primary"/>
</svg>
