<svg xmlns="http://www.w3.org/2000/svg" viewBox="0 0 512 512">
  <polygon fill="var(--ci-secondary-color, currentColor)" points="450.745 16 394.745 72 330.745 136 136 330.745 136 376 181.255 376 376 181.255 440 117.255 496 61.255 496 16 450.745 16" class="ci-secondary" opacity="var(--ci-secondary-opacity, 0.25)"/>
  <polygon fill="var(--ci-primary-color, currentColor)" points="440 376 440 117.255 376 181.255 376 376 181.255 376 136 376 136 330.745 136 136 330.745 136 394.745 72 136 72 136 16 72 16 72 72 16 72 16 136 72 136 72 440 376 440 376 496 440 496 440 440 496 440 496 376 440 376" class="ci-primary"/>
</svg>
