<svg xmlns="http://www.w3.org/2000/svg" viewBox="0 0 512 512">
  <path fill="var(--ci-secondary-color, currentColor)" d="M396.883,227.4,384.507,188.94c-10.285-31.956-19.318-64.289-28.242-96.652A104.043,104.043,0,0,0,256,16h0A104.043,104.043,0,0,0,155.735,92.288c-8.924,32.363-17.957,64.7-28.242,96.652L115.117,227.4A32,32,0,0,0,144.529,272H367.471A32,32,0,0,0,396.883,227.4Z" class="ci-secondary" opacity="var(--ci-secondary-opacity, 0.25)"/>
  <path fill="var(--ci-primary-color, currentColor)" d="M410.189,373.162l-78.926-49.876h0L307.63,308.352l41.114-74.663A72.006,72.006,0,0,0,360,195.034V135a155.783,155.783,0,0,1-93.515-52.564C237.081,130.8,194.157,163.4,152,173.781v21.253a72.006,72.006,0,0,0,11.256,38.655l41.114,74.663-23.192,14.656-79.367,50.154A64,64,0,0,0,72,427.265v69.306L440,496V427.265A64,64,0,0,0,410.189,373.162Z" class="ci-primary"/>
</svg>
