<svg xmlns="http://www.w3.org/2000/svg" viewBox="0 0 512 512">
  <polygon fill="var(--ci-secondary-color, currentColor)" points="320 120 320 272 216 272 216 496 480 496 480 88 320 120" class="ci-secondary" opacity="var(--ci-secondary-opacity, 0.25)"/>
  <path fill="var(--ci-primary-color, currentColor)" d="M16,106.571V496H94V416h36v80h86V106.571L111.238,32ZM130,366H94V330h36Zm0-85H94V245h36Zm0-86H94V159h36Z" class="ci-primary"/>
  <rect width="36" height="36" x="245" y="416" fill="var(--ci-primary-color, currentColor)" class="ci-primary"/>
  <rect width="36" height="36" x="245" y="330" fill="var(--ci-primary-color, currentColor)" class="ci-primary"/>
  <rect width="36" height="36" x="382" y="330" fill="var(--ci-primary-color, currentColor)" class="ci-primary"/>
  <rect width="36" height="36" x="382" y="159" fill="var(--ci-primary-color, currentColor)" class="ci-primary"/>
  <rect width="36" height="36" x="382" y="416" fill="var(--ci-primary-color, currentColor)" class="ci-primary"/>
  <rect width="36" height="36" x="382" y="245" fill="var(--ci-primary-color, currentColor)" class="ci-primary"/>
</svg>
