<svg xmlns="http://www.w3.org/2000/svg" viewBox="0 0 512 512">
  <path fill="var(--ci-secondary-color, currentColor)" d="M107.633,284q-.507-1.1-1.067-2.179a48.129,48.129,0,0,0-4.1-6.54c-.707-.946-1.459-1.856-2.233-2.747a47.911,47.911,0,0,0-72.462,0c-.774.891-1.526,1.8-2.233,2.747a48.129,48.129,0,0,0-4.1,6.54q-.726,1.392-1.363,2.833A47.815,47.815,0,0,0,16,304V416a15.908,15.908,0,0,0,1.931,7.626q.369.681.8,1.32a16.054,16.054,0,0,0,8.51,6.335A16.071,16.071,0,0,0,32,432H64v64h48V304a47.889,47.889,0,0,0-2.913-16.5C108.652,286.306,108.158,285.144,107.633,284Z" class="ci-secondary" opacity="var(--ci-secondary-opacity, 0.25)"/>
  <path fill="var(--ci-secondary-color, currentColor)" d="M493.087,287.5a49.04,49.04,0,0,0-6.623-12.215c-.707-.946-1.459-1.856-2.233-2.747a47.911,47.911,0,0,0-72.462,0c-.774.891-1.526,1.8-2.233,2.747a48.129,48.129,0,0,0-4.1,6.54q-.56,1.074-1.067,2.179-.15.325-.3.654A47.815,47.815,0,0,0,400,304V496h48V432h32a15.966,15.966,0,0,0,13.268-7.054q.431-.639.8-1.32A15.908,15.908,0,0,0,496,416V304A47.889,47.889,0,0,0,493.087,287.5Z" class="ci-secondary" opacity="var(--ci-secondary-opacity, 0.25)"/>
  <path fill="var(--ci-primary-color, currentColor)" d="M424,112H88a32,32,0,0,0-32,32v76.391c2.635-.251,5.3-.391,8-.391a84.135,84.135,0,0,1,81.575,64h220.85A84.135,84.135,0,0,1,448,220c2.7,0,5.365.14,8,.391V144A32,32,0,0,0,424,112Z" class="ci-primary"/>
  <rect width="216" height="112" x="148" y="320" fill="var(--ci-primary-color, currentColor)" class="ci-primary"/>
</svg>
