<svg xmlns="http://www.w3.org/2000/svg" viewBox="0 0 512 512">
  <path fill="var(--ci-secondary-color, currentColor)" d="M293,155.546V39.7q-18.428-1.552-37-1.574A439.835,439.835,0,0,0,8,114.7V165.79L228.012,480h55.976L426.549,276.4a120.467,120.467,0,0,1-14.249.744C346.037,276.646,293,221.811,293,155.546Z" class="ci-secondary" opacity="var(--ci-secondary-opacity, 0.25)"/>
  <path fill="var(--ci-primary-color, currentColor)" d="M472,75.527a60.319,60.319,0,0,0-60.25-60.25h-.5A60.319,60.319,0,0,0,351,75.527V104H329v53.148a84.091,84.091,0,0,0,87.111,83.944C461.442,239.446,497,201.468,497,156.107V104H472ZM436,102H387V75.527a24.482,24.482,0,0,1,29.9-23.674C427.459,54.1,436,65.194,436,75.987Z" class="ci-primary"/>
</svg>
