<svg xmlns="http://www.w3.org/2000/svg" viewBox="0 0 512 512">
  <polygon fill="var(--ci-secondary-color, currentColor)" points="50 112 50 363 370 363 370 363 370 112 50 112" class="ci-secondary" opacity="var(--ci-secondary-opacity, 0.25)"/>
  <polygon fill="var(--ci-primary-color, currentColor)" points="479.5 416 479.029 415.529 478.559 416 479.5 416" class="ci-primary"/>
  <polygon fill="var(--ci-primary-color, currentColor)" points="405.618 219.364 405.618 363.364 405.618 399.364 369.618 399.364 160.382 399.364 160.382 475.364 480 475.364 480 219.364 405.618 219.364" class="ci-primary"/>
  <polygon fill="var(--ci-primary-color, currentColor)" points="168 291.364 264 227.364 168 171.364 168 291.364" class="ci-primary"/>
  <polygon fill="var(--ci-primary-color, currentColor)" points="159.999 66 262 66 262 76.627 262 112 298 112 298 76.226 298 30 124 30 124 76.226 124.001 112 160 112 159.999 76.627 159.999 66" class="ci-primary"/>
</svg>
