<svg xmlns="http://www.w3.org/2000/svg" viewBox="0 0 512 512">
  <path fill="var(--ci-secondary-color, currentColor)" d="M263,249H105.907l20.239,83.486q2.181-.214,4.388-.335Q133.249,332,136,332a100.009,100.009,0,0,1,94.75,68h90.5a100.031,100.031,0,0,1,118.562-65.128L456,274.167V249Z" class="ci-secondary" opacity="var(--ci-secondary-opacity, 0.25)"/>
  <path fill="var(--ci-primary-color, currentColor)" d="M456,240A168,168,0,0,0,288,72H263V249H456Z" class="ci-primary"/>
  <path fill="var(--ci-primary-color, currentColor)" d="M182.946,388.519a63.806,63.806,0,0,0-44.432-20.456c-.835-.032-1.671-.063-2.514-.063-.415,0-.824.023-1.237.031a64,64,0,1,0,48.183,20.488Z" class="ci-primary"/>
  <path fill="var(--ci-primary-color, currentColor)" d="M430.531,369.677A64,64,0,1,0,480,432,64.128,64.128,0,0,0,430.531,369.677Z" class="ci-primary"/>
  <path fill="var(--ci-primary-color, currentColor)" d="M90.262,184.466,105.907,249h43.216L131.08,174.571A56.847,56.847,0,0,0,75.685,131H16v42H75.685A14.96,14.96,0,0,1,90.262,184.466Z" class="ci-primary"/>
</svg>
