<svg xmlns="http://www.w3.org/2000/svg" viewBox="0 0 512 512">
  <polygon fill="var(--ci-secondary-color, currentColor)" points="495.998 16 448 16 64 16 16.002 16 16 16 16 64 16 448 16 496 47.077 496 64 496 424 496 425.846 496 448 496 456 496 496 496 496 448 496 64 496 16 495.998 16" class="ci-secondary" opacity="var(--ci-secondary-opacity, 0.25)"/>
  <path fill="var(--ci-primary-color, currentColor)" d="M215.8,64H167.711A112.168,112.168,0,0,1,64,167.711V215.8C145.871,211.748,211.748,145.872,215.8,64Z" class="ci-primary"/>
  <polygon fill="var(--ci-primary-color, currentColor)" points="379.89 268.687 324.689 325.047 447.642 448 448 448 448 336.796 379.89 268.687" class="ci-primary"/>
  <path fill="var(--ci-primary-color, currentColor)" d="M119.484,64H64v55.484A64,64,0,0,0,119.484,64Z" class="ci-primary"/>
  <polygon fill="var(--ci-primary-color, currentColor)" points="64 364.115 64 448 396.731 448 188.423 239.692 64 364.115" class="ci-primary"/>
</svg>
