<svg xmlns="http://www.w3.org/2000/svg" viewBox="0 0 512 512">
  <path fill="var(--ci-secondary-color, currentColor)" d="M394.633,220.662,269.475,25.173a16,16,0,0,0-26.95,0L117.367,220.662A170.507,170.507,0,0,0,84.1,322.3c0,94.786,77.114,171.9,171.9,171.9s171.9-77.114,171.9-171.9A170.507,170.507,0,0,0,394.633,220.662Z" class="ci-secondary" opacity="var(--ci-secondary-opacity, 0.25)"/>
  <path fill="var(--ci-primary-color, currentColor)" d="M394.633,220.662,269.475,25.173A16,16,0,0,0,256,17.8V494.2c94.786,0,171.9-77.114,171.9-171.9A170.507,170.507,0,0,0,394.633,220.662Z" class="ci-primary"/>
</svg>
