<svg xmlns="http://www.w3.org/2000/svg" viewBox="0 0 512 512">
  <path fill="var(--ci-secondary-color, currentColor)" d="M312,248V80a32.036,32.036,0,0,0-32-32H48A32.036,32.036,0,0,0,16,80V248Z" class="ci-secondary" opacity="var(--ci-secondary-opacity, 0.25)"/>
  <path fill="var(--ci-primary-color, currentColor)" d="M16,280V408H57.61a80.027,80.027,0,0,1,156.78,0h67.22a80.027,80.027,0,0,1,156.78,0H496V280Z" class="ci-primary"/>
  <path fill="var(--ci-primary-color, currentColor)" d="M491.661,212.758h0l-49.777-71.11A32.028,32.028,0,0,0,415.669,128H344V248H496V226.522A23.881,23.881,0,0,0,491.661,212.758Z" class="ci-primary"/>
  <circle cx="136" cy="424" r="48" fill="var(--ci-primary-color, currentColor)" class="ci-primary"/>
  <circle cx="360" cy="424" r="48" fill="var(--ci-primary-color, currentColor)" class="ci-primary"/>
</svg>
