<svg xmlns="http://www.w3.org/2000/svg" viewBox="0 0 512 512">
  <path fill="var(--ci-secondary-color, currentColor)" d="M72.23,101.652A238.912,238.912,0,0,0,17.1,233c-.72,7.571-1.1,15.24-1.1,23a242.633,242.633,0,0,0,1.292,25C28.98,393.924,118.964,483.6,232.029,494.811Q243.856,495.984,256,496q12.165,0,24.029-1.194A238.917,238.917,0,0,0,410.348,439.77Z" class="ci-secondary" opacity="var(--ci-secondary-opacity, 0.25)"/>
  <path fill="var(--ci-secondary-color, currentColor)" d="M461.316,380.345A238.489,238.489,0,0,0,494.708,281,242.633,242.633,0,0,0,496,256c0-7.76-.383-15.429-1.1-23C484.071,119.147,393.717,28.483,280,17.191Q268.159,16.015,256,16q-12.151,0-24,1.191A238.517,238.517,0,0,0,131.555,50.743Z" class="ci-secondary" opacity="var(--ci-secondary-opacity, 0.25)"/>
  <path fill="var(--ci-primary-color, currentColor)" d="M280,17.191Q268.159,16.015,256,16q-12.151,0-24,1.191V88h48Z" class="ci-primary"/>
  <path fill="var(--ci-primary-color, currentColor)" d="M232.029,494.811Q243.856,495.984,256,496q12.165,0,24.029-1.194V424h-48Z" class="ci-primary"/>
  <path fill="var(--ci-primary-color, currentColor)" d="M16,256a242.633,242.633,0,0,0,1.292,25H88.058V233H17.1C16.383,240.571,16,248.24,16,256Z" class="ci-primary"/>
  <path fill="var(--ci-primary-color, currentColor)" d="M496,256c0-7.76-.383-15.429-1.1-23H424.029v48h70.679A242.633,242.633,0,0,0,496,256Z" class="ci-primary"/>
  <path fill="var(--ci-primary-color, currentColor)" d="M316.568,235.6h0l.685.685,30.318-60.662a8,8,0,0,0-10.739-10.729L276.2,195.26Z" class="ci-primary"/>
  <path fill="var(--ci-primary-color, currentColor)" d="M45.841,16H16V45.422L212.578,242,165.39,336.335a8,8,0,0,0,10.728,10.736l94.408-47.124L466.579,496H496V466.025Z" class="ci-primary"/>
</svg>
