<svg xmlns="http://www.w3.org/2000/svg" viewBox="0 0 512 512">
  <path fill="var(--ci-secondary-color, currentColor)" d="M256,16A238.857,238.857,0,0,0,130.422,51.451L460.549,381.578A238.857,238.857,0,0,0,496,256C496,123.452,388.548,16,256,16Z" class="ci-secondary" opacity="var(--ci-secondary-opacity, 0.25)"/>
  <path fill="var(--ci-secondary-color, currentColor)" d="M71.314,102.735A239.017,239.017,0,0,0,16,256c0,132.548,107.452,240,240,240a239.017,239.017,0,0,0,153.265-55.314Z" class="ci-secondary" opacity="var(--ci-secondary-opacity, 0.25)"/>
  <path fill="var(--ci-primary-color, currentColor)" d="M101.952,71.976,72.23,101.652,202.578,232H176v40h66.578l40,40H176v40h56v48h48V352h42.578l87.77,87.77,29.676-29.722.038-.045Z" class="ci-primary"/>
  <polygon fill="var(--ci-primary-color, currentColor)" points="355.53 133.95 316.47 106.05 262.533 181.562 296.943 215.972 355.53 133.95" class="ci-primary"/>
  <polygon fill="var(--ci-primary-color, currentColor)" points="316.568 235.597 336 255.029 336 232 312.971 232 316.568 235.597 316.568 235.597" class="ci-primary"/>
</svg>
