<svg xmlns="http://www.w3.org/2000/svg" viewBox="0 0 512 512">
  <path fill="var(--ci-secondary-color, currentColor)" d="M425.39,200.035A184.385,184.385,0,0,0,299.121,93.089L324.352,52.72l-40.7-25.44L245.513,88.3a184.091,184.091,0,0,0-158.9,111.74,71.978,71.978,0,0,0,0,143.93,184.071,184.071,0,0,0,338.78,0,71.978,71.978,0,0,0,0-143.93Z" class="ci-secondary" opacity="var(--ci-secondary-opacity, 0.25)"/>
  <rect width="36" height="36" x="306" y="222" fill="var(--ci-primary-color, currentColor)" class="ci-primary"/>
  <rect width="36" height="36" x="170" y="222" fill="var(--ci-primary-color, currentColor)" class="ci-primary"/>
  <path fill="var(--ci-primary-color, currentColor)" d="M168,296a88,88,0,0,0,176,0Z" class="ci-primary"/>
</svg>
