<svg xmlns="http://www.w3.org/2000/svg" viewBox="0 0 512 512">
  <rect width="230.68" height="65.909" x="35.8" y="119.489" fill="var(--ci-secondary-color, currentColor)" class="ci-secondary" opacity="var(--ci-secondary-opacity, 0.25)" rx="8" transform="rotate(-45 151.14 152.444)"/>
  <path fill="var(--ci-secondary-color, currentColor)" d="M460.063,298.251,424.772,262.96a8,8,0,0,0-11.314,0l-151.8,151.8a8,8,0,0,0,0,11.314l35.291,35.29a8,8,0,0,0,11.313,0l151.8-151.8A8,8,0,0,0,460.063,298.251Z" class="ci-secondary" opacity="var(--ci-secondary-opacity, 0.25)"/>
  <path fill="var(--ci-primary-color, currentColor)" d="M139.32,35.764a8,8,0,0,0-11.313,0L34.46,129.31a8,8,0,0,0,0,11.314l40.948,40.947L180.268,76.712Z" class="ci-primary"/>
  <rect width="48" height="230.68" x="232" y="141.964" fill="var(--ci-primary-color, currentColor)" class="ci-primary" transform="rotate(-45 256 257.304)"/>
  <path fill="var(--ci-primary-color, currentColor)" d="M477.54,373.983l-40.948-40.947L331.732,437.9l40.948,40.947a8,8,0,0,0,11.313,0L477.54,385.3A8,8,0,0,0,477.54,373.983Z" class="ci-primary"/>
</svg>
