<svg xmlns="http://www.w3.org/2000/svg" viewBox="0 0 512 512">
  <rect width="48" height="48" x="112" y="448" fill="var(--ci-secondary-color, currentColor)" class="ci-secondary" opacity="var(--ci-secondary-opacity, 0.25)"/>
  <rect width="48" height="48" x="232" y="448" fill="var(--ci-secondary-color, currentColor)" class="ci-secondary" opacity="var(--ci-secondary-opacity, 0.25)"/>
  <rect width="48" height="48" x="352" y="448" fill="var(--ci-secondary-color, currentColor)" class="ci-secondary" opacity="var(--ci-secondary-opacity, 0.25)"/>
  <path fill="var(--ci-secondary-color, currentColor)" d="M256,13A143.552,143.552,0,0,0,154.224,55.224L188.15,89.15a95.844,95.844,0,0,1,135.7,0l33.926-33.926A143.552,143.552,0,0,0,256,13Z" class="ci-secondary" opacity="var(--ci-secondary-opacity, 0.25)"/>
  <path fill="var(--ci-primary-color, currentColor)" d="M312,112H200a16,16,0,0,0-16,16V387a16,16,0,0,0,16,16H312a16,16,0,0,0,16-16V128A16,16,0,0,0,312,112ZM256,213a24,24,0,1,1,24-24A24,24,0,0,1,256,213Z" class="ci-primary"/>
</svg>
