<svg xmlns="http://www.w3.org/2000/svg" viewBox="0 0 512 512">
  <path fill="var(--ci-secondary-color, currentColor)" d="M209.273,54.522l-25.043-.36-.23,0c-57.579,0-101.757,9.631-130.21,56.634C28.542,152.5,17.091,222.17,16.075,341.983H16v36l35.2.008,16.459,0,16.458,0L92,378a101.486,101.486,0,0,0,71.471-28.547c17.257-16.512,29.7-39.076,35.981-65.252l.074-.312,39.906-196.93L242.665,71,245.9,55.048Z" class="ci-secondary" opacity="var(--ci-secondary-opacity, 0.25)"/>
  <path fill="var(--ci-primary-color, currentColor)" d="M393.3,161.33,334.532,76.437a48.091,48.091,0,0,0-38.775-20.672L245.9,55.048,242.665,71l-3.233,15.956-39.906,196.93-.074.312c-6.283,26.176-18.724,48.74-35.981,65.252A101.486,101.486,0,0,1,92,378l-7.884,0-16.458,0-16.459,0L22.722,496H312V389.493l98.616-16.887c22.36-2.749,38.857-9.955,50.426-22.023,9.89-10.318,15.909-23.5,19.519-42.752L496,225.487V178.446Z" class="ci-primary"/>
</svg>
