<svg xmlns="http://www.w3.org/2000/svg" viewBox="0 0 512 512">
  <path fill="var(--ci-secondary-color, currentColor)" d="M456,32H56A24,24,0,0,0,32,56V328a24,24,0,0,0,24,24H388.767l69.522,128H480V56A24,24,0,0,0,456,32Z" class="ci-secondary" opacity="var(--ci-secondary-opacity, 0.25)"/>
  <polygon fill="var(--ci-primary-color, currentColor)" points="238 262 202 298 384 298 384 262 238 262" class="ci-primary"/>
  <path fill="var(--ci-primary-color, currentColor)" d="M277.406,107.757h0a36.171,36.171,0,0,0-51.154,0L112.668,221.341,97.183,286.686a1.105,1.105,0,0,0,1.293,1.294l65.346-15.486L277.406,158.911A36.173,36.173,0,0,0,277.406,107.757Z" class="ci-primary"/>
</svg>
