<svg xmlns="http://www.w3.org/2000/svg" viewBox="0 0 512 512">
  <path fill="var(--ci-secondary-color, currentColor)" d="M256,175.857a320.184,320.184,0,0,1,39.3,2.433,120.277,120.277,0,0,1-1.865-21.142V105.936H293V89.7q-18.4-1.675-37-1.7a407.979,407.979,0,0,0-130.065,21.29q-6.365,2.14-12.653,4.5-2,.746-3.991,1.514a407.945,407.945,0,0,0-59.164,28.459Q44.444,147.09,38.86,150.6q-3.657,2.3-7.269,4.678c-3.227,2.126-6.437,4.283-9.61,6.5l50.393,71.968A320.183,320.183,0,0,1,256,175.857Z" class="ci-secondary" opacity="var(--ci-secondary-opacity, 0.25)"/>
  <path fill="var(--ci-primary-color, currentColor)" d="M309.415,216.929A284.064,284.064,0,0,0,93.022,263.244l46.214,66a203.574,203.574,0,0,1,233.528,0L409.3,277.069A120.1,120.1,0,0,1,309.415,216.929Z" class="ci-primary"/>
  <path fill="var(--ci-primary-color, currentColor)" d="M181.95,345.678q-1.432.707-2.854,1.44a167.463,167.463,0,0,0-19.211,11.615L256,496l96.115-137.267h0A167.574,167.574,0,0,0,181.95,345.678Z" class="ci-primary"/>
  <path fill="var(--ci-primary-color, currentColor)" d="M471.936,104V75.527a60.25,60.25,0,0,0-120.5,0V104h-22v53.148a84,84,0,0,0,168,0V104Zm-36-2h-48.5V75.527a24.25,24.25,0,1,1,48.5,0Z" class="ci-primary"/>
</svg>
