<svg xmlns="http://www.w3.org/2000/svg" viewBox="0 0 512 512">
  <path fill="var(--ci-secondary-color, currentColor)" d="M424,16H88A16,16,0,0,0,72,32V144H440V32A16,16,0,0,0,424,16Z" class="ci-secondary" opacity="var(--ci-secondary-opacity, 0.25)"/>
  <path fill="var(--ci-secondary-color, currentColor)" d="M257.461,341.005h0q-.69-.476-1.406-.948a87.446,87.446,0,0,0-87.608-4.744l-8.4,3.468a96,96,0,0,0,191.934-.953l-26.221,8.828C299.753,355.41,275.485,353.4,257.461,341.005Z" class="ci-secondary" opacity="var(--ci-secondary-opacity, 0.25)"/>
  <rect width="32" height="32" x="224" y="72" fill="var(--ci-primary-color, currentColor)" class="ci-primary"/>
  <rect width="72" height="32" x="120" y="72" fill="var(--ci-primary-color, currentColor)" class="ci-primary"/>
  <path fill="var(--ci-primary-color, currentColor)" d="M72,176V480a16,16,0,0,0,16,16H424a16,16,0,0,0,16-16V176ZM256,464A128,128,0,1,1,384,336,128.145,128.145,0,0,1,256,464Z" class="ci-primary"/>
</svg>
