<svg xmlns="http://www.w3.org/2000/svg" viewBox="0 0 512 512">
  <path fill="var(--ci-secondary-color, currentColor)" d="M464,376.089,256,496.178,48,376.089V135.911L256,15.822,464,135.911Z" class="ci-secondary" opacity="var(--ci-secondary-opacity, 0.25)"/>
  <polygon fill="var(--ci-primary-color, currentColor)" points="464 240.28 464 196.798 391.97 177.498 411.27 105.467 373.614 83.727 348.217 178.51 277 219.627 277 137.393 346.386 68.007 308.73 46.266 256 98.996 203.27 46.266 165.614 68.007 235 137.393 235 219.627 163.783 178.51 138.386 83.727 100.73 105.467 120.03 177.498 48 196.798 48 240.28 142.783 214.883 214 256 142.784 297.117 48 271.72 48 315.201 120.03 334.502 100.73 406.533 138.386 428.273 163.783 333.49 235 292.373 235 374.607 165.614 443.993 203.27 465.734 256 413.004 308.73 465.734 346.386 443.993 277 374.607 277 292.373 348.217 333.49 373.614 428.273 411.27 406.533 391.97 334.502 464 315.201 464 271.72 369.216 297.117 298 256 369.217 214.883 464 240.28" class="ci-primary"/>
</svg>
