<svg xmlns="http://www.w3.org/2000/svg" viewBox="0 0 512 512">
  <path fill="var(--ci-secondary-color, currentColor)" d="M85.564,369.91a23.566,23.566,0,0,1,.157-24.088l42.31-71.848-40.818-25.28-42.854,72.77A72,72,0,0,0,106.4,430H156.2l48-48H106.4A23.568,23.568,0,0,1,85.564,369.91Z" class="ci-secondary" opacity="var(--ci-secondary-opacity, 0.25)"/>
  <path fill="var(--ci-secondary-color, currentColor)" d="M324.127,57.1a72,72,0,0,0-124.083,0l-24.143,41,15.611,68.084,49.893-84.724h0a24,24,0,0,1,41.361,0l42.963,72.957,39.985-26.695Z" class="ci-secondary" opacity="var(--ci-secondary-opacity, 0.25)"/>
  <path fill="var(--ci-secondary-color, currentColor)" d="M479.812,321.464,448.2,267.787l-61.723-10.218,51.971,88.252A24,24,0,0,1,417.77,382H333.733l.574,48H417.77a72,72,0,0,0,62.042-108.536Z" class="ci-secondary" opacity="var(--ci-secondary-opacity, 0.25)"/>
  <polygon fill="var(--ci-primary-color, currentColor)" points="42.642 215.188 40 219.454 176.512 304 179.544 299.104 153.681 189.085 42.642 215.188" class="ci-primary"/>
  <polygon fill="var(--ci-primary-color, currentColor)" points="327.303 327.069 248.162 408.125 329.971 488 335 487.94 333.076 327 327.303 327.069" class="ci-primary"/>
  <polygon fill="var(--ci-primary-color, currentColor)" points="413.214 96 279.67 185.161 282.869 189.951 393.707 212.04 416 100.173 413.214 96" class="ci-primary"/>
</svg>
