<svg xmlns="http://www.w3.org/2000/svg" viewBox="0 0 512 512">
  <path fill="var(--ci-secondary-color, currentColor)" d="M472,88H400V16H336V88H176V16H112V88H40a24.028,24.028,0,0,0-24,24V448a24.028,24.028,0,0,0,24,24H472a24.028,24.028,0,0,0,24-24V112A24.028,24.028,0,0,0,472,88Z" class="ci-secondary" opacity="var(--ci-secondary-opacity, 0.25)"/>
  <polygon fill="var(--ci-primary-color, currentColor)" points="232 384 280 384 280 312 352 312 352 264 280 264 280 192 232 192 232 264 160 264 160 312 232 312 232 384" class="ci-primary"/>
</svg>
