<svg xmlns="http://www.w3.org/2000/svg" viewBox="0 0 512 512">
  <path fill="var(--ci-secondary-color, currentColor)" d="M256,464a72,72,0,0,0,72-72H184A72,72,0,0,0,256,464Z" class="ci-secondary" opacity="var(--ci-secondary-opacity, 0.25)"/>
  <path fill="var(--ci-primary-color, currentColor)" d="M392,264V176A135.992,135.992,0,0,0,168.375,72H168v.317A135.692,135.692,0,0,0,120,176v88L74.4,348.19A8,8,0,0,0,81.432,360H430.568a8,8,0,0,0,7.035-11.81ZM274,304H238V264h36Zm0-72H238V120h36Z" class="ci-primary"/>
</svg>
