<svg xmlns="http://www.w3.org/2000/svg" viewBox="0 0 512 512">
  <path fill="var(--ci-secondary-color, currentColor)" d="M397.222,123.1l-.218-.222C334.515,60.389,240.535,48.138,165.682,86.1l52.657,52.658L357.246,277.661,416.7,337.117,496,254.683V225.79Z" class="ci-secondary" opacity="var(--ci-secondary-opacity, 0.25)"/>
  <path fill="var(--ci-secondary-color, currentColor)" d="M306.48,335.492,160.508,189.52l-55.872-55.872L16,225.79v28.893l98.778,102.689.218.222a199.8,199.8,0,0,0,243.591,30l-42.764-42.764Z" class="ci-secondary" opacity="var(--ci-secondary-opacity, 0.25)"/>
  <path fill="var(--ci-primary-color, currentColor)" d="M364,240A108.057,108.057,0,0,0,218.339,138.754L357.246,277.661A107.761,107.761,0,0,0,364,240Z" class="ci-primary"/>
  <path fill="var(--ci-primary-color, currentColor)" d="M46.384,16H16V45.012L160.508,189.52A108.023,108.023,0,0,0,306.48,335.492L466.988,496H496V465.616Z" class="ci-primary"/>
</svg>
