<svg xmlns="http://www.w3.org/2000/svg" viewBox="0 0 512 512">
  <path fill="var(--ci-secondary-color, currentColor)" d="M318.222,16H33.778C23.959,16,16,23.675,16,33.143V478.857C16,488.325,23.959,496,33.778,496H318.222c9.819,0,17.778-7.675,17.778-17.143V33.143C336,23.675,328.041,16,318.222,16Z" class="ci-secondary" opacity="var(--ci-secondary-opacity, 0.25)"/>
  <path fill="var(--ci-primary-color, currentColor)" d="M468,128H368V280a56,56,0,0,1,0,112V496H468a12,12,0,0,0,12-12V140A12,12,0,0,0,468,128Z" class="ci-primary"/>
  <circle cx="176" cy="136" r="56" fill="var(--ci-primary-color, currentColor)" class="ci-primary"/>
  <circle cx="176" cy="336" r="96" fill="var(--ci-primary-color, currentColor)" class="ci-primary"/>
</svg>
