<svg xmlns="http://www.w3.org/2000/svg" viewBox="0 0 512 512">
  <path fill="var(--ci-secondary-color, currentColor)" d="M384.773,288H16V424a16,16,0,0,0,16,16H480a16,16,0,0,0,16-16V288H384.773Z" class="ci-secondary" opacity="var(--ci-secondary-opacity, 0.25)"/>
  <path fill="var(--ci-secondary-color, currentColor)" d="M480,64H32A16,16,0,0,0,16,80V224H496V80A16,16,0,0,0,480,64Z" class="ci-secondary" opacity="var(--ci-secondary-opacity, 0.25)"/>
  <path fill="var(--ci-primary-color, currentColor)" d="M270,342.923a4.776,4.776,0,0,1-1.5,3.452,5.784,5.784,0,0,1-4.09,1.625H231V288H195v96h69.415a41.6,41.6,0,0,0,29.264-11.892A40.538,40.538,0,0,0,306,342.923V288H270Z" class="ci-primary"/>
  <rect width="36" height="96" x="54" y="288" fill="var(--ci-primary-color, currentColor)" class="ci-primary"/>
  <rect width="36" height="96" x="134" y="288" fill="var(--ci-primary-color, currentColor)" class="ci-primary"/>
  <rect width="36" height="96" x="333" y="288" fill="var(--ci-primary-color, currentColor)" class="ci-primary"/>
  <polygon fill="var(--ci-primary-color, currentColor)" points="384.773 288 413 333.162 413 384 449 384 449 322.838 427.227 288 384.773 288" class="ci-primary"/>
  <path fill="var(--ci-primary-color, currentColor)" d="M449,224V153.994C449,135.25,434.346,120,416.333,120H333V224H306V161.077C306,138.427,287.344,120,264.413,120H195V224H170V120H134V224H90V120H54V224H0v32H512V224Zm-179,0H231V156h33.413A5.356,5.356,0,0,1,270,161.077Zm143,0H369V156h44Z" class="ci-primary"/>
</svg>
