<svg xmlns="http://www.w3.org/2000/svg" viewBox="0 0 512 512">
  <rect width="448" height="448" x="32" y="32" fill="var(--ci-secondary-color, currentColor)" class="ci-secondary" opacity="var(--ci-secondary-opacity, 0.25)" rx="24"/>
  <path fill="var(--ci-primary-color, currentColor)" d="M403.554,195.188h0a86,86,0,0,0-121.621,0l-25.7,25.7-25.7-25.7A86,86,0,0,0,108.917,316.811h0a86,86,0,0,0,121.622,0l25.7-25.7,25.7,25.7A86,86,0,1,0,403.554,195.188ZM200.841,287.113a44,44,0,1,1,0-62.226L231.953,256Zm173.014,0a44,44,0,0,1-62.225,0L280.518,256l31.112-31.113a44.05,44.05,0,0,1,62.225,0h0a44,44,0,0,1,0,62.225Z" class="ci-primary"/>
</svg>
