<svg xmlns="http://www.w3.org/2000/svg" viewBox="0 0 512 512">
  <path fill="var(--ci-secondary-color, currentColor)" d="M355,478.534a49.669,49.669,0,0,1-35.355-14.645L48.11,192.36a50,50,0,0,1,0-70.711h0l73.539-73.539a50,50,0,0,1,70.711,0L463.89,319.64a50,50,0,0,1,0,70.711l-73.538,73.538A49.673,49.673,0,0,1,355,478.534ZM157.005,69.466a13.916,13.916,0,0,0-9.9,4.1l-73.539,73.54a14,14,0,0,0,0,19.8L345.1,438.434a14,14,0,0,0,19.8,0L438.434,364.9a14,14,0,0,0,0-19.8L166.9,73.566A13.907,13.907,0,0,0,157.005,69.466Z" class="ci-secondary" opacity="var(--ci-secondary-opacity, 0.25)"/>
  <path fill="var(--ci-primary-color, currentColor)" d="M475.2,132.964,379.036,36.8a34.039,34.039,0,0,0-48.083,0L36.8,330.953a34,34,0,0,0,0,48.083L132.963,475.2h0a34.038,34.038,0,0,0,48.083,0L475.2,181.047a34,34,0,0,0,0-48.083ZM211.485,270.515l-18-18,18-18,18,18Zm45,45-18-18,18-18,18,18Zm0-90-18-18,18-18,18,18Zm45,45-18-18,18-18,18,18Z" class="ci-primary"/>
</svg>
