<svg xmlns="http://www.w3.org/2000/svg" viewBox="0 0 512 512">
  <path fill="var(--ci-secondary-color, currentColor)" d="M16.424,256a238.826,238.826,0,0,0,70.17,169.406l33.941-33.941a191.578,191.578,0,0,1,0-270.93h0L86.594,86.594A238.826,238.826,0,0,0,16.424,256Z" class="ci-secondary" opacity="var(--ci-secondary-opacity, 0.25)"/>
  <path fill="var(--ci-secondary-color, currentColor)" d="M424.9,86.1l-33.941,33.941c.167.167.339.327.506.494a191.578,191.578,0,0,1,0,270.93l33.941,33.941A239.564,239.564,0,0,0,424.9,86.1Z" class="ci-secondary" opacity="var(--ci-secondary-opacity, 0.25)"/>
  <path fill="var(--ci-primary-color, currentColor)" d="M157.021,157.021a139.979,139.979,0,0,0,0,197.958l33.972-33.972a91.83,91.83,0,0,1,0-130.014Z" class="ci-primary"/>
  <path fill="var(--ci-primary-color, currentColor)" d="M354.473,156.527,320.5,190.5a91.821,91.821,0,0,1,.506,130.508l33.972,33.972a139.967,139.967,0,0,0-.506-198.452Z" class="ci-primary"/>
  <path fill="var(--ci-primary-color, currentColor)" d="M256,208a48.029,48.029,0,1,0,33.429,13.571A47.762,47.762,0,0,0,256,208Z" class="ci-primary"/>
</svg>
