<svg xmlns="http://www.w3.org/2000/svg" viewBox="0 0 512 512">
  <rect width="192" height="192" x="160" y="32" fill="var(--ci-secondary-color, currentColor)" class="ci-secondary" opacity="var(--ci-secondary-opacity, 0.25)"/>
  <polygon fill="var(--ci-secondary-color, currentColor)" points="432 448 405 448 368 448 332 448 117 448 80 448 16 448 16 496 80 496 432 496 496 496 496 448 432 448" class="ci-secondary" opacity="var(--ci-secondary-opacity, 0.25)"/>
  <polygon fill="var(--ci-primary-color, currentColor)" points="234 146 278 146 278 192 314 192 314 64 278 64 278 110 234 110 234 64 198 64 198 192 234 192 234 146" class="ci-primary"/>
  <path fill="var(--ci-primary-color, currentColor)" d="M352,96V224H160V96H80V448H332V382h36v66h64V96ZM184,390H148V354h36Zm0-72H148V282h36Zm91,72H239V354h36Zm0-72H239V282h36Zm93,0H332V282h36Z" class="ci-primary"/>
</svg>
