<svg xmlns="http://www.w3.org/2000/svg" viewBox="0 0 512 512">
  <path fill="var(--ci-secondary-color, currentColor)" d="M480,128H32a16,16,0,0,0-16,16V480a16,16,0,0,0,16,16H480a16,16,0,0,0,16-16V144A16,16,0,0,0,480,128Z" class="ci-secondary" opacity="var(--ci-secondary-opacity, 0.25)"/>
  <polygon fill="var(--ci-primary-color, currentColor)" points="321.941 416 320.971 415.029 320 416 321.941 416" class="ci-primary"/>
  <polygon fill="var(--ci-primary-color, currentColor)" points="192 216 192 408 200 408 352 320 352 312 200 216 192 216" class="ci-primary"/>
  <polygon fill="var(--ci-primary-color, currentColor)" points="136 16 136 128 184 128 184 64 328 64 328 128 376 128 376 16 136 16" class="ci-primary"/>
</svg>
