<svg xmlns="http://www.w3.org/2000/svg" viewBox="0 0 512 512">
  <rect width="40" height="40" x="76" y="112" fill="var(--ci-secondary-color, currentColor)" class="ci-secondary" opacity="var(--ci-secondary-opacity, 0.25)"/>
  <rect width="40" height="40" x="156" y="112" fill="var(--ci-secondary-color, currentColor)" class="ci-secondary" opacity="var(--ci-secondary-opacity, 0.25)"/>
  <rect width="40" height="40" x="236" y="112" fill="var(--ci-secondary-color, currentColor)" class="ci-secondary" opacity="var(--ci-secondary-opacity, 0.25)"/>
  <rect width="40" height="40" x="316" y="112" fill="var(--ci-secondary-color, currentColor)" class="ci-secondary" opacity="var(--ci-secondary-opacity, 0.25)"/>
  <rect width="40" height="40" x="396" y="112" fill="var(--ci-secondary-color, currentColor)" class="ci-secondary" opacity="var(--ci-secondary-opacity, 0.25)"/>
  <polygon fill="var(--ci-secondary-color, currentColor)" points="356 152 356 192 316 192 316 152 276 152 276 192 236 192 236 152 196 152 196 192 156 192 156 152 116 152 116 192 76 192 76 232 76 272 76 312 76 390 436 390 436 312 436 272 436 232 436 192 396 192 396 152 356 152" class="ci-secondary" opacity="var(--ci-secondary-opacity, 0.25)"/>
  <rect width="40" height="40" x="156" y="232" fill="var(--ci-primary-color, currentColor)" class="ci-primary"/>
  <rect width="40" height="40" x="236" y="232" fill="var(--ci-primary-color, currentColor)" class="ci-primary"/>
  <rect width="40" height="40" x="316" y="232" fill="var(--ci-primary-color, currentColor)" class="ci-primary"/>
  <rect width="40" height="40" x="116" y="272" fill="var(--ci-primary-color, currentColor)" class="ci-primary"/>
  <rect width="40" height="40" x="196" y="272" fill="var(--ci-primary-color, currentColor)" class="ci-primary"/>
  <rect width="40" height="40" x="276" y="272" fill="var(--ci-primary-color, currentColor)" class="ci-primary"/>
  <rect width="40" height="40" x="356" y="272" fill="var(--ci-primary-color, currentColor)" class="ci-primary"/>
  <path fill="var(--ci-primary-color, currentColor)" d="M454.715,32H57.285A21.285,21.285,0,0,0,36,53.285v405.43A21.285,21.285,0,0,0,57.285,480h397.43A21.285,21.285,0,0,0,476,458.715V53.285A21.285,21.285,0,0,0,454.715,32ZM436,232H396v40h40v40H396v40H356V312H316v40H276V312H236v40H196V312H156v40H116V312H76V272h40V232H76V72H436Z" class="ci-primary"/>
</svg>
