<svg xmlns="http://www.w3.org/2000/svg" viewBox="0 0 512 512">
  <path fill="var(--ci-secondary-color, currentColor)" d="M344,24H40A16,16,0,0,0,24,40V344H64V64H344Z" class="ci-secondary" opacity="var(--ci-secondary-opacity, 0.25)"/>
  <path fill="var(--ci-secondary-color, currentColor)" d="M112,96a16,16,0,0,0-16,16V416h40V136H416V96Z" class="ci-secondary" opacity="var(--ci-secondary-opacity, 0.25)"/>
  <path fill="var(--ci-primary-color, currentColor)" d="M487.963,183.273A15.986,15.986,0,0,0,472,168H184a16,16,0,0,0-16,16V472a16.016,16.016,0,0,0,16,16H472a16,16,0,0,0,16-16V184C488,183.755,487.974,183.516,487.963,183.273ZM424,356H240V308H424Z" class="ci-primary"/>
</svg>
