<svg xmlns="http://www.w3.org/2000/svg" viewBox="0 0 512 512">
  <path fill="var(--ci-secondary-color, currentColor)" d="M438.435,232C428.018,152.383,366.509,88.616,288,74.791V16H224V74.791a182.571,182.571,0,0,0-51.226,17.135l49.074,49.033A120.011,120.011,0,0,1,371.06,290.089l49.055,49.055A182.615,182.615,0,0,0,435.608,296H496V232Z" class="ci-secondary" opacity="var(--ci-secondary-opacity, 0.25)"/>
  <path fill="var(--ci-secondary-color, currentColor)" d="M256,376a119.938,119.938,0,0,1-98.245-188.823L112.077,141.5A183.169,183.169,0,0,0,73.565,232H16v64H76.392A184.529,184.529,0,0,0,224,437.209V496h64V437.209a183.28,183.28,0,0,0,82.5-37.286l-45.678-45.678A119.326,119.326,0,0,1,256,376Z" class="ci-secondary" opacity="var(--ci-secondary-opacity, 0.25)"/>
  <polygon fill="var(--ci-primary-color, currentColor)" points="45.841 16 16 16 16 45.422 466.577 496 496 496 496 466.024 45.841 16" class="ci-primary"/>
  <path fill="var(--ci-primary-color, currentColor)" d="M288,74.791V16H224V74.791a184.842,184.842,0,0,1,64,0Z" class="ci-primary"/>
  <path fill="var(--ci-primary-color, currentColor)" d="M438.435,232a184.518,184.518,0,0,1-2.827,64H496V232Z" class="ci-primary"/>
  <path fill="var(--ci-primary-color, currentColor)" d="M73.565,232H16v64H76.392a184.518,184.518,0,0,1-2.827-64Z" class="ci-primary"/>
  <path fill="var(--ci-primary-color, currentColor)" d="M224,437.209V496h64V437.209a184.842,184.842,0,0,1-64,0Z" class="ci-primary"/>
</svg>
