<svg xmlns="http://www.w3.org/2000/svg" viewBox="0 0 512 512">
  <path fill="var(--ci-secondary-color, currentColor)" d="M458.668,51.693a72.831,72.831,0,0,0-103,0l-48.441,48.441,103,103,48.441-48.441A72.831,72.831,0,0,0,458.668,51.693Z" class="ci-secondary" opacity="var(--ci-secondary-opacity, 0.25)"/>
  <path fill="var(--ci-primary-color, currentColor)" d="M281.772,125.589l-92.566,92.567A627.233,627.233,0,0,0,38.838,460.021h0A9,9,0,0,0,41,469.277l.087.087a9,9,0,0,0,9.255,2.159h0a626.788,626.788,0,0,0,120.217-55.567,626.838,626.838,0,0,0,121.649-94.8l92.566-92.567Z" class="ci-primary"/>
</svg>
