<svg xmlns="http://www.w3.org/2000/svg" viewBox="0 0 512 512">
  <path fill="var(--ci-secondary-color, currentColor)" d="M256,16C159.171,16,80.4,94.776,80.4,191.605a174.2,174.2,0,0,0,33.987,103.84L235.659,484.872a24.155,24.155,0,0,0,40.683,0L397.618,295.445a174.2,174.2,0,0,0,33.987-103.84C431.605,94.776,352.829,16,256,16Z" class="ci-secondary" opacity="var(--ci-secondary-opacity, 0.25)"/>
  <path fill="var(--ci-primary-color, currentColor)" d="M280.313,109.734H203V312h42V250.468h35.313A68.765,68.765,0,0,0,349,181.781v-3.36A68.765,68.765,0,0,0,280.313,109.734ZM307,181.781a26.717,26.717,0,0,1-26.687,26.687H245V151.734h35.313A26.718,26.718,0,0,1,307,178.421Z" class="ci-primary"/>
</svg>
