<svg xmlns="http://www.w3.org/2000/svg" viewBox="0 0 512 512">
  <path fill="var(--ci-secondary-color, currentColor)" d="M472,138H40a24,24,0,0,0-24,24V456a24.028,24.028,0,0,0,24,24H472a24.028,24.028,0,0,0,24-24V162A24,24,0,0,0,472,138Z" class="ci-secondary" opacity="var(--ci-secondary-opacity, 0.25)"/>
  <path fill="var(--ci-primary-color, currentColor)" d="M195.312,177.4l-23.643,50.1h53.077l23.573-49.952h15.159L287.051,227.5h53.076l-23.635-50.085A79.995,79.995,0,1,0,256,40.489,79.975,79.975,0,1,0,195.312,177.4ZM280,97.548a32,32,0,1,1,32,32H293.9l-.048-.1H280Zm-80-32a32.036,32.036,0,0,1,32,32v31.9H217.942l-.048.1H200a32,32,0,0,1,0-64Z" class="ci-primary"/>
  <rect width="480" height="64" x="16" y="328" fill="var(--ci-primary-color, currentColor)" class="ci-primary"/>
</svg>
