<svg xmlns="http://www.w3.org/2000/svg" viewBox="0 0 512 512">
  <path fill="var(--ci-secondary-color, currentColor)" d="M408.873,350.472C452.634,316.89,480,269.074,480,216a154.821,154.821,0,0,0-14.185-64.547L346.084,271.183l-7.219,7.22-9.935,2.354-79.656,18.877-.768.182-.775.148a37.346,37.346,0,0,1-43.69-43.718l.146-.764.179-.756,18.877-79.656,2.354-9.935,7.22-7.219,111.17-111.17A265.6,265.6,0,0,0,256,32C132.288,32,32,114.38,32,216S132.288,400,256,400a274.016,274.016,0,0,0,33.348-2.032l22.106,19.159A257.353,257.353,0,0,0,480,480h0V464a299.274,299.274,0,0,1-70.593-112.012Z" class="ci-secondary" opacity="var(--ci-secondary-opacity, 0.25)"/>
  <path fill="var(--ci-primary-color, currentColor)" d="M258.273,183.372,239.4,263.027h0a1.365,1.365,0,0,0-.021.329c0,.036.011.069.016.1a1.4,1.4,0,0,0,.039.207c.012.039.03.074.045.112a1.433,1.433,0,0,0,.077.169c.022.036.047.07.071.105a1.331,1.331,0,0,0,.11.138c.029.032.06.061.092.09a1.313,1.313,0,0,0,.138.108,1.263,1.263,0,0,0,.11.069,1.546,1.546,0,0,0,.16.074,1.1,1.1,0,0,0,.3.077,1.159,1.159,0,0,0,.132.015c.016,0,.03,0,.045,0a1.443,1.443,0,0,0,.259-.024l24.061-5.7,55.594-13.174L459.086,107.27a44.093,44.093,0,0,0,0-62.356h0a44.093,44.093,0,0,0-62.356,0Z" class="ci-primary"/>
</svg>
