<svg xmlns="http://www.w3.org/2000/svg" viewBox="0 0 512 512">
  <path fill="var(--ci-secondary-color, currentColor)" d="M96,472.205A23.715,23.715,0,0,0,119.579,496H392.421A23.715,23.715,0,0,0,416,472.205V168H96Z" class="ci-secondary" opacity="var(--ci-secondary-opacity, 0.25)"/>
  <path fill="var(--ci-primary-color, currentColor)" d="M333,91V48c0-16.262-11.684-29-26.6-29H205.6C190.684,19,179,31.738,179,48V91H64v42H448V91Zm-42,0H221V61h70Z" class="ci-primary"/>
  <polygon fill="var(--ci-primary-color, currentColor)" points="171.301 324.697 196.699 350.211 238 309.098 238 422.546 274 422.546 274 308.721 315.243 350.153 340.757 324.755 256.388 239.998 171.301 324.697" class="ci-primary"/>
</svg>
