<svg xmlns="http://www.w3.org/2000/svg" viewBox="0 0 512 512">
  <path fill="var(--ci-secondary-color, currentColor)" d="M480,120H380.914L357.091,58.242A16,16,0,0,0,342.164,48h-172.8A16,16,0,0,0,154.4,58.33L131.032,120H32a16,16,0,0,0-16,16V456a16,16,0,0,0,16,16H480a16,16,0,0,0,16-16V136A16,16,0,0,0,480,120Z" class="ci-secondary" opacity="var(--ci-secondary-opacity, 0.25)"/>
  <polygon fill="var(--ci-primary-color, currentColor)" points="176 306.451 336 306.117 336 360 424 288 336 216 336 270.117 176 270.451 176 216 88 288 176 360 176 306.451" class="ci-primary"/>
</svg>
