<svg xmlns="http://www.w3.org/2000/svg" viewBox="0 0 512 512">
  <polygon fill="var(--ci-secondary-color, currentColor)" points="16 152 64 152 64 64 152 64 152 16 16 16 16 152" class="ci-secondary" opacity="var(--ci-secondary-opacity, 0.25)"/>
  <polygon fill="var(--ci-secondary-color, currentColor)" points="64 360 16 360 16 496 152 496 152 448 64 448 64 360" class="ci-secondary" opacity="var(--ci-secondary-opacity, 0.25)"/>
  <polygon fill="var(--ci-secondary-color, currentColor)" points="448 448 360 448 360 496 496 496 496 360 448 360 448 448" class="ci-secondary" opacity="var(--ci-secondary-opacity, 0.25)"/>
  <polygon fill="var(--ci-secondary-color, currentColor)" points="360 16 360 64 448 64 448 152 496 152 496 16 360 16" class="ci-secondary" opacity="var(--ci-secondary-opacity, 0.25)"/>
  <rect width="48" height="48" x="104" y="360" fill="var(--ci-primary-color, currentColor)" class="ci-primary"/>
  <rect width="48" height="48" x="104" y="104" fill="var(--ci-primary-color, currentColor)" class="ci-primary"/>
  <rect width="48" height="48" x="360" y="104" fill="var(--ci-primary-color, currentColor)" class="ci-primary"/>
  <polygon fill="var(--ci-primary-color, currentColor)" points="240 272 104 272 104 320 192 320 192 408 408 408 408 360 240 360 240 272" class="ci-primary"/>
  <polygon fill="var(--ci-primary-color, currentColor)" points="320 104 192 104 192 152 272 152 272 240 360 240 360 276 280 276 280 324 408 324 408 192 320 192 320 104" class="ci-primary"/>
  <rect width="128" height="48" x="104" y="192" fill="var(--ci-primary-color, currentColor)" class="ci-primary"/>
</svg>
