<svg xmlns="http://www.w3.org/2000/svg" viewBox="0 0 512 512">
  <rect width="240" height="48" x="256" y="408" fill="var(--ci-secondary-color, currentColor)" class="ci-secondary" opacity="var(--ci-secondary-opacity, 0.25)"/>
  <rect width="240" height="48" x="256" y="301.333" fill="var(--ci-secondary-color, currentColor)" class="ci-secondary" opacity="var(--ci-secondary-opacity, 0.25)"/>
  <rect width="240" height="48" x="256" y="194.667" fill="var(--ci-secondary-color, currentColor)" class="ci-secondary" opacity="var(--ci-secondary-opacity, 0.25)"/>
  <rect width="168" height="48" x="328" y="88" fill="var(--ci-secondary-color, currentColor)" class="ci-secondary" opacity="var(--ci-secondary-opacity, 0.25)"/>
  <path fill="var(--ci-primary-color, currentColor)" d="M95.2,370.464C75.08,344.424,64,309.456,64,272s11.08-72.424,31.2-98.464c17.615-22.8,40.195-35.946,64-37.4v68.784l140.407-93.9L159.2,19.782V88.087c-38.935,1.393-75.007,21.185-101.983,56.1C30.636,178.59,16,223.98,16,272s14.636,93.41,41.213,127.81C85.207,436.045,122.994,456,163.612,456H216V408H163.612C138.2,408,113.9,394.669,95.2,370.464Z" class="ci-primary"/>
</svg>
