<svg xmlns="http://www.w3.org/2000/svg" viewBox="0 0 512 512">
  <circle cx="382.5" cy="392.5" r="108.5" fill="var(--ci-secondary-color, currentColor)" class="ci-secondary" opacity="var(--ci-secondary-opacity, 0.25)"/>
  <path fill="var(--ci-secondary-color, currentColor)" d="M302.435,261.122a98.613,98.613,0,0,1-3.054,24.367A134.907,134.907,0,0,1,382.5,257c.412,0,.822.012,1.233.016l32.913-51.722a62.6,62.6,0,0,0,9.789-33.613V106.435A90.44,90.44,0,0,0,246.861,91.129,127.843,127.843,0,0,1,265.4,106.473a125.608,125.608,0,0,1,37.032,89.4Z" class="ci-secondary" opacity="var(--ci-secondary-opacity, 0.25)"/>
  <path fill="var(--ci-secondary-color, currentColor)" d="M16.452,440.624q.225-1.749.557-3.472Q16.678,438.874,16.452,440.624Z" class="ci-secondary" opacity="var(--ci-secondary-opacity, 0.25)"/>
  <path fill="var(--ci-secondary-color, currentColor)" d="M19.777,427.57c.267-.689.543-1.374.838-2.051C20.32,426.2,20.044,426.881,19.777,427.57Z" class="ci-secondary" opacity="var(--ci-secondary-opacity, 0.25)"/>
  <path fill="var(--ci-primary-color, currentColor)" d="M246,393a139.506,139.506,0,0,1,3.128-29.412L223.241,347.23l33.406-52.495a62.61,62.61,0,0,0,9.788-33.613V195.876a90.435,90.435,0,1,0-180.87,0v65.246a62.6,62.6,0,0,0,9.789,33.613l33.4,52.5L41.923,402.1A55.653,55.653,0,0,0,16,449.149V496l275.2-.427A138.634,138.634,0,0,1,246,393Z" class="ci-primary"/>
  <rect width="128" height="33" x="321" y="377" fill="var(--ci-primary-color, currentColor)" class="ci-primary"/>
</svg>
