<svg xmlns="http://www.w3.org/2000/svg" viewBox="0 0 512 512">
  <polygon fill="var(--ci-secondary-color, currentColor)" points="344.971 200.971 311.029 167.029 279.532 198.526 313.458 232.484 344.971 200.971" class="ci-secondary" opacity="var(--ci-secondary-opacity, 0.25)"/>
  <polygon fill="var(--ci-secondary-color, currentColor)" points="361.192 331.216 315.937 285.962 287.958 257.983 254.017 224.042 227.342 197.367 182.087 152.112 45.975 16 16 16 16 45.422 152.389 181.811 197.643 227.065 224.318 253.74 167.029 311.029 200.971 344.971 258.26 287.682 286.238 315.66 331.493 360.915 466.578 496 496 496 496 466.024 361.192 331.216" class="ci-secondary" opacity="var(--ci-secondary-opacity, 0.25)"/>
  <path fill="var(--ci-primary-color, currentColor)" d="M190.5,411.4A62.646,62.646,0,0,1,101.906,322.8l95.737-95.737-45.254-45.254L56.652,277.547a126.645,126.645,0,0,0,0,179.1h0a126.645,126.645,0,0,0,179.1,0l95.737-95.737L286.238,315.66Z" class="ci-primary"/>
  <path fill="var(--ci-primary-color, currentColor)" d="M456.652,56.652h0a126.646,126.646,0,0,0-179.1,0l-69.91,69.91,45.233,45.277L322.8,101.906A62.646,62.646,0,1,1,411.4,190.5l-69.962,69.963,45.255,45.255,69.962-69.963A126.646,126.646,0,0,0,456.652,56.652Z" class="ci-primary"/>
</svg>
