<svg xmlns="http://www.w3.org/2000/svg" viewBox="0 0 512 512">
  <path fill="var(--ci-secondary-color, currentColor)" d="M312.162,62.412a24.006,24.006,0,0,0-16.94-7H252.581l179.27,178.613a48,48,0,0,1,.063,67.946L300.241,433.644l8.705,8.737a24,24,0,0,0,33.973.031L466.912,318.419a72,72,0,0,0-.094-101.916Z" class="ci-secondary" opacity="var(--ci-secondary-opacity, 0.25)"/>
  <path fill="var(--ci-primary-color, currentColor)" d="M34.943,254.245,222.974,442.967a24,24,0,0,0,33.972.031l158-158a24,24,0,0,0-.031-33.973L226.189,63a24,24,0,0,0-16.939-7H185.224l.586-.586H145.917a32.155,32.155,0,0,0-6.09.586H59.945a32,32,0,0,0-32,32V237.305A24,24,0,0,0,34.943,254.245ZM126.1,115.887a36,36,0,1,1-36,36A36,36,0,0,1,126.1,115.887Z" class="ci-primary"/>
</svg>
