<svg xmlns="http://www.w3.org/2000/svg" viewBox="0 0 512 512">
  <path fill="var(--ci-secondary-color, currentColor)" d="M84.186,194.954a171.026,171.026,0,0,0,33.257,101.6L242.878,476.333a16,16,0,0,0,26.244,0L342.188,371.61,97.982,127.4A171.238,171.238,0,0,0,84.186,194.954Z" class="ci-secondary" opacity="var(--ci-secondary-opacity, 0.25)"/>
  <path fill="var(--ci-secondary-color, currentColor)" d="M256,23.139A171.116,171.116,0,0,0,144.807,63.983L228.9,148.005l76.131,76.065L316.568,235.6h0l70.988,70.988,7-10.034A171.815,171.815,0,0,0,256,23.139Z" class="ci-secondary" opacity="var(--ci-secondary-opacity, 0.25)"/>
  <polygon fill="var(--ci-primary-color, currentColor)" points="366.599 336.623 496 466.024 496 465.945 366.606 336.612 366.599 336.623" class="ci-primary"/>
  <polygon fill="var(--ci-primary-color, currentColor)" points="329.151 299.175 366.599 336.623 366.606 336.612 329.151 299.175" class="ci-primary"/>
  <path fill="var(--ci-primary-color, currentColor)" d="M45.977,16h-.136L119.93,90.053l.043-.056Z" class="ci-primary"/>
  <path fill="var(--ci-primary-color, currentColor)" d="M278.325,248.373l50.826,50.8-50.809-50.81Z" class="ci-primary"/>
  <path fill="var(--ci-primary-color, currentColor)" d="M119.973,90l-.043.056,84.7,84.658.019-.041Z" class="ci-primary"/>
  <path fill="var(--ci-primary-color, currentColor)" d="M204.647,174.67l-.019.041,73.7,73.662.017-.008Z" class="ci-primary"/>
  <polygon fill="var(--ci-primary-color, currentColor)" points="45.841 16 16 16 16 45.422 466.577 496 496 496 496 466.024 45.841 16" class="ci-primary"/>
  <path fill="var(--ci-primary-color, currentColor)" d="M312,197.012a56,56,0,0,0-83.1-49.007l76.131,76.065A55.724,55.724,0,0,0,312,197.012Z" class="ci-primary"/>
</svg>
