<svg xmlns="http://www.w3.org/2000/svg" viewBox="0 0 512 512">
  <path fill="var(--ci-secondary-color, currentColor)" d="M425.867,109.236H30.133c-7.8,0-14.133,7.1-14.133,15.859V424.141C16,432.9,22.328,440,30.133,440H304V216a48.055,48.055,0,0,1,48-48h88V125.1C440,116.336,433.672,109.236,425.867,109.236Z" class="ci-secondary" opacity="var(--ci-secondary-opacity, 0.25)"/>
  <path fill="var(--ci-primary-color, currentColor)" d="M464,200H352a16,16,0,0,0-16,16V440H464a16,16,0,0,0,16-16V216A16,16,0,0,0,464,200Z" class="ci-primary"/>
  <path fill="var(--ci-primary-color, currentColor)" d="M229.926,243.258,224,184H152l-5.926,59.258a83.919,83.919,0,0,0,0,145.484L151.2,440h73.6l5.126-51.258a83.919,83.919,0,0,0,0-145.484ZM188,368a52,52,0,1,1,52-52A52.059,52.059,0,0,1,188,368Z" class="ci-primary"/>
</svg>
