<svg xmlns="http://www.w3.org/2000/svg" viewBox="0 0 512 512">
  <path fill="var(--ci-secondary-color, currentColor)" d="M125.527,263.281l-48.4,96.792c.952-.042,1.907-.073,2.869-.073a63.735,63.735,0,0,1,42.661,16.343l44.485-88.97A64,64,0,0,1,125.527,263.281Z" class="ci-secondary" opacity="var(--ci-secondary-opacity, 0.25)"/>
  <path fill="var(--ci-secondary-color, currentColor)" d="M212.631,276.434l78.1,65.084a64.287,64.287,0,0,1,30.109-37.392l-81.955-68.295A64.1,64.1,0,0,1,212.631,276.434Z" class="ci-secondary" opacity="var(--ci-secondary-opacity, 0.25)"/>
  <path fill="var(--ci-secondary-color, currentColor)" d="M432,160a63.7,63.7,0,0,1-41.219-15.094L347.563,296.171c1.467-.1,2.944-.171,4.437-.171a63.7,63.7,0,0,1,41.219,15.094l43.219-151.265C434.97,159.93,433.493,160,432,160Z" class="ci-secondary" opacity="var(--ci-secondary-opacity, 0.25)"/>
  <path fill="var(--ci-primary-color, currentColor)" d="M122.661,376.343A63.735,63.735,0,0,0,80,360c-.962,0-1.917.031-2.869.073a64.071,64.071,0,1,0,45.53,16.27Z" class="ci-primary"/>
  <path fill="var(--ci-primary-color, currentColor)" d="M176,160a63.947,63.947,0,1,0,64,64A64.072,64.072,0,0,0,176,160Z" class="ci-primary"/>
  <path fill="var(--ci-primary-color, currentColor)" d="M393.219,311.094A63.7,63.7,0,0,0,352,296c-1.493,0-2.97.07-4.437.171a63.536,63.536,0,0,0-26.722,7.955,64.02,64.02,0,1,0,72.378,6.968Z" class="ci-primary"/>
  <path fill="var(--ci-primary-color, currentColor)" d="M432,32a64,64,0,0,0,0,128c1.493,0,2.97-.07,4.438-.171A63.991,63.991,0,0,0,432,32Z" class="ci-primary"/>
</svg>
