<svg xmlns="http://www.w3.org/2000/svg" viewBox="0 0 512 512">
  <path fill="var(--ci-secondary-color, currentColor)" d="M374.416,101.691q-3.823-1.127-7.668-2.18-11.535-3.159-23.245-5.66A419.024,419.024,0,0,0,256,84.613q-8.062,0-16.1.31t-16.035.924q-12,.923-23.894,2.529-15.855,2.139-31.475,5.475-11.706,2.5-23.245,5.66-19.222,5.268-37.886,12.343-7.457,2.828-14.806,5.94-3.675,1.556-7.32,3.182a418.994,418.994,0,0,0-69.657,39.441l52.335,74.741h0A327.8,327.8,0,0,1,253.4,175.881l2.47-10.36,7.03-29.5,29.832,5.434,31.116,5.668,29.833,5.434-3.823,30.081-.85,6.689q2.8.829,5.593,1.7a327.557,327.557,0,0,1,89.478,44.123h0l52.335-74.741A419.125,419.125,0,0,0,374.416,101.691Z" class="ci-secondary" opacity="var(--ci-secondary-opacity, 0.25)"/>
  <path fill="var(--ci-secondary-color, currentColor)" d="M88.567,264.648l48.042,68.61a208.292,208.292,0,0,1,87.679-35.216l20.49-85.97a291.969,291.969,0,0,0-146.9,46.321Q93.168,261.428,88.567,264.648Z" class="ci-secondary" opacity="var(--ci-secondary-opacity, 0.25)"/>
  <path fill="var(--ci-secondary-color, currentColor)" d="M333.6,310.62a207.873,207.873,0,0,1,41.791,22.638l48.042-68.61a291.909,291.909,0,0,0-79.027-39.075Z" class="ci-secondary" opacity="var(--ci-secondary-opacity, 0.25)"/>
  <path fill="var(--ci-primary-color, currentColor)" d="M224.894,433.523a32.141,32.141,0,0,0,.67,17.44q.48,1.476,1.1,2.89a31.221,31.221,0,0,0,2.15,4.071A29.545,29.545,0,0,0,253.967,472c15.047,0,28.348-11.633,30.382-27.647L286.936,424h0l15.642-123.1h0l10.594-83.374h0l4.549-35.8h0l.4-3.111L287,172.94Z" class="ci-primary"/>
</svg>
