<svg xmlns="http://www.w3.org/2000/svg" viewBox="0 0 512 512">
  <path fill="var(--ci-secondary-color, currentColor)" d="M40.768,112A24.768,24.768,0,0,0,16,136.768v61.9l33.583,33.583L95.334,278H248.671l-166-166Z" class="ci-secondary" opacity="var(--ci-secondary-opacity, 0.25)"/>
  <path fill="var(--ci-secondary-color, currentColor)" d="M471.232,112H369l.05-96H154l-.03,56.94,63.869,63.71,8.957,8.935,90.177,89.953h0L359.541,278h57.468l45.553-45.752L496,198.665v-61.9A24.768,24.768,0,0,0,471.232,112Zm-145.26,0H196l.028-54H326Z" class="ci-secondary" opacity="var(--ci-secondary-opacity, 0.25)"/>
  <polygon fill="var(--ci-primary-color, currentColor)" points="495.768 414.797 495.768 249.688 462.232 283.224 431.456 314 394.971 314 462.232 381.261 495.768 414.797" class="ci-primary"/>
  <path fill="var(--ci-primary-color, currentColor)" d="M495.768,465.793,343.975,314h0l-36-36h0L142.208,112.232h0L45.975,16H16V45.422l66.81,66.81L248.578,278h0l36,36H81L49.768,283.423,16.232,249.887V471.232A24.8,24.8,0,0,0,41,496H496V466.025Z" class="ci-primary"/>
</svg>
