<svg xmlns="http://www.w3.org/2000/svg" viewBox="0 0 512 512">
  <path fill="var(--ci-secondary-color, currentColor)" d="M389.053,126.3A302.9,302.9,0,0,0,280.012,18.15L272,13V441.459a176.947,176.947,0,0,0,21-1.253c32.257-3.855,62.093-16.562,85.607-36.747,32.309-27.735,50.228-67.162,51.82-114.017.117-3.457.177-6.956.177-10.4A300.939,300.939,0,0,0,389.053,126.3Z" class="ci-secondary" opacity="var(--ci-secondary-opacity, 0.25)"/>
  <path fill="var(--ci-primary-color, currentColor)" d="M263.988,18.15A301.088,301.088,0,0,0,113.4,279.042c0,3.444.06,6.943.177,10.4,1.592,46.856,19.511,86.283,51.82,114.018A157.659,157.659,0,0,0,234,437.294V496h38V13Z" class="ci-primary"/>
</svg>
