<svg xmlns="http://www.w3.org/2000/svg" viewBox="0 0 512 512">
  <path fill="var(--ci-secondary-color, currentColor)" d="M254.341,159.9l-2.819,31.876q2.507.221,4.974.22a56,56,0,0,0,4.89-111.786l-2.819,31.876a24,24,0,1,1-4.226,47.814Z" class="ci-secondary" opacity="var(--ci-secondary-opacity, 0.25)"/>
  <path fill="var(--ci-secondary-color, currentColor)" d="M245.9,255.377q5.365.474,10.644.471A119.851,119.851,0,0,0,267.009,16.611L264.19,48.487A87.848,87.848,0,1,1,248.718,223.5Z" class="ci-secondary" opacity="var(--ci-secondary-opacity, 0.25)"/>
  <path fill="var(--ci-primary-color, currentColor)" d="M135.845,477.471a8.634,8.634,0,0,0,8.046,2.308l73.034-24.823L199.659,334.093l-60.431-8.633h0a97.671,97.671,0,0,1,0-138.128h0l60.431-8.633L216.925,57.836,143.891,33.013a8.634,8.634,0,0,0-8.046,2.308L121.063,50.1C7.13,164.035,7.13,348.757,121.063,462.689Z" class="ci-primary"/>
</svg>
