<svg xmlns="http://www.w3.org/2000/svg" viewBox="0 0 512 512">
  <path fill="var(--ci-secondary-color, currentColor)" d="M470.107,41.893a88.4,88.4,0,0,0-130.924,6.529L201.8,216.341l93.863,93.864L463.578,172.817a88.4,88.4,0,0,0,6.529-130.924Z" class="ci-secondary" opacity="var(--ci-secondary-opacity, 0.25)"/>
  <path fill="var(--ci-primary-color, currentColor)" d="M263.147,328.6l-79.933-79.933-13.565-13.564-70.922,14.45a23.875,23.875,0,0,0-17.648,15L22.252,419.648a24.033,24.033,0,0,0,5.469,25.484l6.846,6.846L45.88,440.664,57.194,429.35l46.078-46.078,25.456,25.456L82.65,454.806,71.336,466.12,60.022,477.434l5.638,5.637a24.023,24.023,0,0,0,25.482,5.47L246.3,429.688a23.917,23.917,0,0,0,14.937-17.322l15.352-70.321ZM136,336h40v40H136Z" class="ci-primary"/>
</svg>
