<svg xmlns="http://www.w3.org/2000/svg" viewBox="0 0 512 512">
  <path fill="var(--ci-secondary-color, currentColor)" d="M456.027,32.011l-400-.022a24,24,0,0,0-24,24l-.021,400a24,24,0,0,0,24,24l400,.022a24,24,0,0,0,24-24l.021-400A24,24,0,0,0,456.027,32.011Z" class="ci-secondary" opacity="var(--ci-secondary-opacity, 0.25)"/>
  <polygon fill="var(--ci-primary-color, currentColor)" points="150.052 148 196.4 148 196.4 108 79.6 108 79.6 224.8 119.6 224.8 119.6 174.065 207.684 264.365 236.316 236.435 150.052 148" class="ci-primary"/>
  <polygon fill="var(--ci-primary-color, currentColor)" points="315.6 108 315.6 148 362.909 148 229.2 290.068 229.2 400 269.2 400 269.2 305.931 392.4 175.029 392.4 224.8 432.4 224.8 432.4 108 315.6 108" class="ci-primary"/>
</svg>
