<svg xmlns="http://www.w3.org/2000/svg" viewBox="0 0 512 512">
  <rect width="48" height="104" x="72" y="16" fill="var(--ci-secondary-color, currentColor)" class="ci-secondary" opacity="var(--ci-secondary-opacity, 0.25)"/>
  <rect width="48" height="104" x="72" y="392" fill="var(--ci-secondary-color, currentColor)" class="ci-secondary" opacity="var(--ci-secondary-opacity, 0.25)"/>
  <rect width="48" height="104" x="232" y="16" fill="var(--ci-secondary-color, currentColor)" class="ci-secondary" opacity="var(--ci-secondary-opacity, 0.25)"/>
  <rect width="48" height="104" x="232" y="392" fill="var(--ci-secondary-color, currentColor)" class="ci-secondary" opacity="var(--ci-secondary-opacity, 0.25)"/>
  <rect width="48" height="104" x="392" y="16" fill="var(--ci-secondary-color, currentColor)" class="ci-secondary" opacity="var(--ci-secondary-opacity, 0.25)"/>
  <rect width="48" height="104" x="392" y="392" fill="var(--ci-secondary-color, currentColor)" class="ci-secondary" opacity="var(--ci-secondary-opacity, 0.25)"/>
  <path fill="var(--ci-primary-color, currentColor)" d="M144,120H48a16,16,0,0,0-16,16V238H160V136A16,16,0,0,0,144,120Z" class="ci-primary"/>
  <path fill="var(--ci-primary-color, currentColor)" d="M32,376a16,16,0,0,0,16,16h96a16,16,0,0,0,16-16V274H32Z" class="ci-primary"/>
  <path fill="var(--ci-primary-color, currentColor)" d="M304,120H208a16,16,0,0,0-16,16V238H320V136A16,16,0,0,0,304,120Z" class="ci-primary"/>
  <path fill="var(--ci-primary-color, currentColor)" d="M192,376a16,16,0,0,0,16,16h96a16,16,0,0,0,16-16V274H192Z" class="ci-primary"/>
  <path fill="var(--ci-primary-color, currentColor)" d="M352,376a16,16,0,0,0,16,16h96a16,16,0,0,0,16-16V274H352Z" class="ci-primary"/>
  <path fill="var(--ci-primary-color, currentColor)" d="M464,120H368a16,16,0,0,0-16,16V238H480V136A16,16,0,0,0,464,120Z" class="ci-primary"/>
</svg>
