<svg xmlns="http://www.w3.org/2000/svg" viewBox="0 0 512 512">
  <path fill="var(--ci-secondary-color, currentColor)" d="M350.75,85.912a108.979,108.979,0,0,1,0,108.285l41.667,23.81a156.9,156.9,0,0,0,0-155.9Z" class="ci-secondary" opacity="var(--ci-secondary-opacity, 0.25)"/>
  <path fill="var(--ci-secondary-color, currentColor)" d="M119.583,62.1a156.9,156.9,0,0,0,0,155.905L161.25,194.2a108.979,108.979,0,0,1,0-108.285Z" class="ci-secondary" opacity="var(--ci-secondary-opacity, 0.25)"/>
  <path fill="var(--ci-secondary-color, currentColor)" d="M469.6,18,427.806,41.88a197.612,197.612,0,0,1,0,196.349L469.6,262.111A246.646,246.646,0,0,0,469.6,18Z" class="ci-secondary" opacity="var(--ci-secondary-opacity, 0.25)"/>
  <path fill="var(--ci-secondary-color, currentColor)" d="M42.4,18a246.646,246.646,0,0,0,0,244.113l41.794-23.882a197.612,197.612,0,0,1,0-196.349Z" class="ci-secondary" opacity="var(--ci-secondary-opacity, 0.25)"/>
  <path fill="var(--ci-primary-color, currentColor)" d="M309.924,189.359a68,68,0,1,0-107.6.318L100.218,496h50.6l42.594-127.781H323.479L369.622,496h50.56l.419-.151ZM209.408,320.219,244.479,215a67.121,67.121,0,0,0,23.633-.106l38.033,105.321Z" class="ci-primary"/>
</svg>
