<svg xmlns="http://www.w3.org/2000/svg" viewBox="0 0 512 512">
  <polygon fill="var(--ci-secondary-color, currentColor)" points="335.285 16 177.5 16 177.5 94.5 334.584 94.5 335.285 16" class="ci-secondary" opacity="var(--ci-secondary-opacity, 0.25)"/>
  <path fill="var(--ci-primary-color, currentColor)" d="M432,56H369.93l-.43,48.107A25.531,25.531,0,0,1,344,129.5H168A25.529,25.529,0,0,1,142.5,104V56H80A24.028,24.028,0,0,0,56,80V472a24.028,24.028,0,0,0,24,24H432a24.028,24.028,0,0,0,24-24V80A24.028,24.028,0,0,0,432,56Z" class="ci-primary"/>
</svg>
