<svg xmlns="http://www.w3.org/2000/svg" viewBox="0 0 512 512">
  <path fill="var(--ci-secondary-color, currentColor)" d="M456,216a31.978,31.978,0,0,0-27.708,16H416V216a32,32,0,0,0-59.708-16H344v-8a32,32,0,0,0-64,0H264V56a32,32,0,0,0-64,0V312.478H159.593l-32.006-35.525a79.783,79.783,0,0,0-112.677-5.87,8,8,0,0,0-.589,11.3L206.783,496,208,494.9V496H455.238l32.023-101.653A16,16,0,0,0,488,389.54V248A32,32,0,0,0,456,216Z" class="ci-secondary" opacity="var(--ci-secondary-opacity, 0.25)"/>
  <rect width="24" height="80" x="260" y="296" fill="var(--ci-primary-color, currentColor)" class="ci-primary"/>
  <rect width="24" height="80" x="340" y="296" fill="var(--ci-primary-color, currentColor)" class="ci-primary"/>
  <rect width="24" height="80" x="412" y="296" fill="var(--ci-primary-color, currentColor)" class="ci-primary"/>
</svg>
