<svg xmlns="http://www.w3.org/2000/svg" viewBox="0 0 512 512">
  <rect width="448" height="448" x="32" y="32" fill="var(--ci-secondary-color, currentColor)" class="ci-secondary" opacity="var(--ci-secondary-opacity, 0.25)"/>
  <path fill="var(--ci-primary-color, currentColor)" d="M344.766,288H257.025l38.055,25.748a21.9,21.9,0,0,1,9.557,16.186,20.651,20.651,0,0,1-6.058,16.825C294.7,350.58,286.705,357,276.676,357h-104v54h104c21.723,0,42.973-9.165,59.835-25.808a74.641,74.641,0,0,0,21.9-60.219A75.823,75.823,0,0,0,344.766,288Z" class="ci-primary"/>
  <path fill="var(--ci-primary-color, currentColor)" d="M258.8,224l-43.372-29.347c-12.195-8.251-9.725-20.754-8.677-24.389,1.268-4.4,5.647-14.643,18.964-15.249,6.469-.016,87.028,0,118.282,0l.01-54c-118.6-.022-119.174,0-119.794.016-32.949,1.113-60.171,22.419-69.351,54.278-7.125,24.727-1.819,49.847,13.481,68.688H80v32H432V224Z" class="ci-primary"/>
</svg>
