<svg xmlns="http://www.w3.org/2000/svg" viewBox="0 0 512 512">
  <path fill="var(--ci-secondary-color, currentColor)" d="M328,136H144V440H496V136ZM232,376H192V336h40Zm0-136H192V200h40Zm72,136H264V336h40Zm0-136H264V200h40Zm72,136H336V336h40Zm0-136H336V200h40Zm72,136H408V336h40Zm0-136H408V200h40Z" class="ci-secondary" opacity="var(--ci-secondary-opacity, 0.25)"/>
  <path fill="var(--ci-primary-color, currentColor)" d="M144,136H328V104a32.036,32.036,0,0,0-32-32H280V48a32.036,32.036,0,0,0-32-32H96A32.036,32.036,0,0,0,64,48V72H48a32.036,32.036,0,0,0-32,32V464a32.036,32.036,0,0,0,32,32H296a32.036,32.036,0,0,0,32-32V440H144Z" class="ci-primary"/>
</svg>
