<svg xmlns="http://www.w3.org/2000/svg" viewBox="0 0 512 512">
  <path fill="var(--ci-secondary-color, currentColor)" d="M324.117,240A128.115,128.115,0,0,1,275.35,48,129.89,129.89,0,0,1,309.6,16H96A48.055,48.055,0,0,0,48,64V240Z" class="ci-secondary" opacity="var(--ci-secondary-opacity, 0.25)"/>
  <path fill="var(--ci-primary-color, currentColor)" d="M48,399.455a32.036,32.036,0,0,0,32,32H96V478a18.021,18.021,0,0,0,18,18h68a18.021,18.021,0,0,0,18-18V431.455H312V478a18.021,18.021,0,0,0,18,18h68a18.021,18.021,0,0,0,18-18V431.455h16a32.036,32.036,0,0,0,32-32V272H48ZM360,312a32,32,0,1,1-32,32A32,32,0,0,1,360,312Zm-216,0a32,32,0,1,1-32,32A32,32,0,0,1,144,312Z" class="ci-primary"/>
  <path fill="var(--ci-primary-color, currentColor)" d="M380.654,36a92,92,0,1,0,92,92A92,92,0,0,0,380.654,36Zm35.692,135.05-54.273-29.565V77h32v45.477l37.581,20.473Z" class="ci-primary"/>
</svg>
