<svg xmlns="http://www.w3.org/2000/svg" viewBox="0 0 512 512">
  <polygon fill="var(--ci-secondary-color, currentColor)" points="286 202 286 32 64 32 64 480 456 480 456 202 286 202" class="ci-secondary" opacity="var(--ci-secondary-opacity, 0.25)"/>
  <polygon fill="var(--ci-primary-color, currentColor)" points="328 32 322 32 322 166 456 166 456 160 328 32" class="ci-primary"/>
  <path fill="var(--ci-primary-color, currentColor)" d="M272,292v24a20,20,0,0,1,0,40v24a44,44,0,0,0,0-88Z" class="ci-primary"/>
  <polygon fill="var(--ci-primary-color, currentColor)" points="180.286 298.286 137.143 298.286 137.143 373.714 180.286 373.714 233.143 408 240 408 240 264 233.143 264 180.286 298.286" class="ci-primary"/>
</svg>
