<svg xmlns="http://www.w3.org/2000/svg" viewBox="0 0 512 512">
  <path fill="var(--ci-secondary-color, currentColor)" d="M96,168V472.205A23.715,23.715,0,0,0,119.579,496H392.421A23.715,23.715,0,0,0,416,472.205V168Z" class="ci-secondary" opacity="var(--ci-secondary-opacity, 0.25)"/>
  <path fill="var(--ci-primary-color, currentColor)" d="M333,91V48c0-16.262-11.684-29-26.6-29H205.6C190.684,19,179,31.738,179,48V91H64v42H448V91Zm-42,0H221V61h70Z" class="ci-primary"/>
  <polygon fill="var(--ci-primary-color, currentColor)" points="307.272 251.272 256 302.545 204.728 251.272 179.272 276.728 230.545 328 179.272 379.272 204.728 404.728 256 353.455 307.272 404.728 332.728 379.272 281.455 328 332.728 276.728 307.272 251.272" class="ci-primary"/>
</svg>
