<svg xmlns="http://www.w3.org/2000/svg" viewBox="0 0 512 512">
  <rect width="448" height="448" x="32" y="31.998" fill="var(--ci-secondary-color, currentColor)" class="ci-secondary" opacity="var(--ci-secondary-opacity, 0.25)"/>
  <path fill="var(--ci-primary-color, currentColor)" d="M215.167,216.183a16.442,16.442,0,0,1,30.961,10.942L215.591,330.954a66.328,66.328,0,0,0,61.288,85q1.187.042,2.367.042a66.225,66.225,0,0,0,57.283-32.928l9.335-16.016-45.482-17.287L295.06,358.9a18.328,18.328,0,0,1-33.419-14.4l30.537-103.829a64.443,64.443,0,0,0-121.345-42.884l-9.96,24,44.334,18.4Z" class="ci-primary"/>
  <rect width="48" height="48" x="264" y="79.998" fill="var(--ci-primary-color, currentColor)" class="ci-primary"/>
</svg>
