<svg xmlns="http://www.w3.org/2000/svg" viewBox="0 0 512 512">
  <path fill="var(--ci-secondary-color, currentColor)" d="M425.706,86.294A238.43,238.43,0,0,0,256,16H232V128h48V65.5C374.583,77.344,448,158.258,448,256c0,105.869-86.131,192-192,192S64,361.869,64,256a191.689,191.689,0,0,1,68.58-147.083L101.705,72.165a240,240,0,1,0,324,14.129Z" class="ci-secondary" opacity="var(--ci-secondary-opacity, 0.25)"/>
  <circle cx="120" cy="264" r="32" fill="var(--ci-primary-color, currentColor)" class="ci-primary"/>
  <circle cx="256" cy="384" r="32" fill="var(--ci-primary-color, currentColor)" class="ci-primary"/>
  <circle cx="392" cy="264" r="32" fill="var(--ci-primary-color, currentColor)" class="ci-primary"/>
  <polygon fill="var(--ci-primary-color, currentColor)" points="229.463 270.889 267.095 241.093 266.986 240.955 120 55 84.723 87.905 229.396 270.805 229.463 270.889" class="ci-primary"/>
</svg>
