<svg xmlns="http://www.w3.org/2000/svg" viewBox="0 0 512 512">
  <path fill="var(--ci-secondary-color, currentColor)" d="M384,40H230.627A31.791,31.791,0,0,0,208,49.373L169.172,88.2l147.4,147.4h0L416,335.029V72A32.036,32.036,0,0,0,384,40Z" class="ci-secondary" opacity="var(--ci-secondary-opacity, 0.25)"/>
  <path fill="var(--ci-secondary-color, currentColor)" d="M336,365.422l-112-112h0L113.976,143.4,97.373,160A31.791,31.791,0,0,0,88,182.627V448a32.036,32.036,0,0,0,32,32H384a32.036,32.036,0,0,0,32-32v-2.578l-80-80Z" class="ci-secondary" opacity="var(--ci-secondary-opacity, 0.25)"/>
  <polygon fill="var(--ci-primary-color, currentColor)" points="45.976 16 16 16 16 45.422 224 253.422 224 400 336 400 336 365.422 466.578 496 496 496 496 466.024 45.976 16" class="ci-primary"/>
</svg>
