<svg xmlns="http://www.w3.org/2000/svg" viewBox="0 0 512 512">
  <path fill="var(--ci-secondary-color, currentColor)" d="M376,178.857H136a120,120,0,0,0-120,120V415.593A80.408,80.408,0,0,0,96.407,496h1.932a80.408,80.408,0,0,0,61.771-28.932l61.6-82.5h68.572l61.574,80.047A80.407,80.407,0,0,0,496,415.593V298.857A120,120,0,0,0,376,178.857Z" class="ci-secondary" opacity="var(--ci-secondary-opacity, 0.25)"/>
  <path fill="var(--ci-primary-color, currentColor)" d="M432,16V64H264a32.036,32.036,0,0,0-32,32v82.857h48V112H448a32.036,32.036,0,0,0,32-32V16Z" class="ci-primary"/>
  <rect width="42" height="42" x="355" y="227" fill="var(--ci-primary-color, currentColor)" class="ci-primary"/>
  <rect width="42" height="42" x="355" y="339" fill="var(--ci-primary-color, currentColor)" class="ci-primary"/>
  <rect width="42" height="42" x="299" y="283" fill="var(--ci-primary-color, currentColor)" class="ci-primary"/>
  <rect width="42" height="42" x="411" y="283" fill="var(--ci-primary-color, currentColor)" class="ci-primary"/>
  <polygon fill="var(--ci-primary-color, currentColor)" points="157 248 115 248 115 283 80 283 80 325 115 325 115 360 157 360 157 325 192 325 192 283 157 283 157 248" class="ci-primary"/>
</svg>
