<svg xmlns="http://www.w3.org/2000/svg" viewBox="0 0 512 512">
  <path fill="var(--ci-secondary-color, currentColor)" d="M250.975,40c-44.733,16.965-88.153,44.563-125.946,82.356-37.046,37.046-64.287,79.5-81.329,123.3L267.953,469.9c43.8-17.042,86.249-44.284,123.3-81.329,39.331-39.332,67.621-84.758,84.374-131.417Z" class="ci-secondary" opacity="var(--ci-secondary-opacity, 0.25)"/>
  <path fill="var(--ci-primary-color, currentColor)" d="M49.3,464.651c50.375,27.263,111.732,33.387,173.186,19.537L29.767,291.465C15.916,352.92,22.04,414.276,49.3,464.651Z" class="ci-primary"/>
  <path fill="var(--ci-primary-color, currentColor)" d="M466.973,46.981c-49.426-26.75-109.426-33.158-169.716-20.307L488.362,211.409C499.743,152.907,492.941,94.962,466.973,46.981Z" class="ci-primary"/>
  <polygon fill="var(--ci-primary-color, currentColor)" points="315.272 171.272 288 198.544 260.728 171.272 235.272 196.728 262.544 224 240 246.544 212.728 219.272 187.272 244.728 214.544 272 187.272 299.272 212.728 324.728 240 297.456 267.272 324.728 292.728 299.272 265.456 272 288 249.456 315.272 276.728 340.728 251.272 313.456 224 340.728 196.728 315.272 171.272" class="ci-primary"/>
</svg>
