<svg xmlns="http://www.w3.org/2000/svg" viewBox="0 0 512 512">
  <path fill="var(--ci-secondary-color, currentColor)" d="M410.045,97.5c-3.51-1.53-7.034-3.024-10.585-4.448-2.879-1.155-5.776-2.262-8.681-3.347-3.962-1.479-7.943-2.906-11.95-4.254a385.257,385.257,0,0,0-245.658,0c-4.007,1.348-7.988,2.775-11.95,4.254-2.905,1.085-5.8,2.192-8.681,3.347-3.551,1.424-7.075,2.918-10.585,4.448A385.209,385.209,0,0,0,35,135.03L82.589,203a302.341,302.341,0,0,1,346.822,0L477,135.03A385.209,385.209,0,0,0,410.045,97.5Z" class="ci-secondary" opacity="var(--ci-secondary-opacity, 0.25)"/>
  <path fill="var(--ci-primary-color, currentColor)" d="M256,182.316a268.366,268.366,0,0,0-153.911,48.528l43.643,62.328a192.248,192.248,0,0,1,220.536,0l43.643-62.328A268.366,268.366,0,0,0,256,182.316Z" class="ci-primary"/>
  <path fill="var(--ci-primary-color, currentColor)" d="M319.268,305.608q-3-1.31-6.058-2.494-3.354-1.3-6.762-2.455a158.519,158.519,0,0,0-19.865-5.269q-.48-.094-.96-.186-5.693-1.086-11.468-1.757a158.228,158.228,0,0,0-36.31,0q-5.772.668-11.468,1.757-.48.091-.96.186a158.519,158.519,0,0,0-19.865,5.269q-3.408,1.147-6.762,2.455-3.054,1.184-6.058,2.494c-1.321.576-2.638,1.164-3.943,1.777a158.156,158.156,0,0,0-23.557,13.636L256,450.651l90.768-129.63a158.156,158.156,0,0,0-23.557-13.636C321.906,306.772,320.589,306.184,319.268,305.608Z" class="ci-primary"/>
</svg>
