<svg xmlns="http://www.w3.org/2000/svg" viewBox="0 0 512 512">
  <path fill="var(--ci-secondary-color, currentColor)" d="M256,464a72,72,0,0,0,72-72H184A72,72,0,0,0,256,464Z" class="ci-secondary" opacity="var(--ci-secondary-opacity, 0.25)"/>
  <polygon fill="var(--ci-secondary-color, currentColor)" points="389.976 360 138.116 108.14 45.976 16 16 16 16 45.422 122.185 151.607 330.578 360 362.578 392 416 445.422 466.578 496 496 496 496 466.024 389.976 360" class="ci-secondary" opacity="var(--ci-secondary-opacity, 0.25)"/>
  <path fill="var(--ci-primary-color, currentColor)" d="M392,264V176A135.993,135.993,0,0,0,160.325,79.354L316.567,235.6h0L437.289,356.318a7.922,7.922,0,0,0,.314-8.128Z" class="ci-primary"/>
  <path fill="var(--ci-primary-color, currentColor)" d="M120,176v88L74.4,348.19A8,8,0,0,0,81.432,360H330.578L122.185,151.607A136.817,136.817,0,0,0,120,176Z" class="ci-primary"/>
</svg>
