<svg xmlns="http://www.w3.org/2000/svg" viewBox="0 0 512 512">
  <path fill="var(--ci-secondary-color, currentColor)" d="M311.745,151.667,254.136,83.084a31.931,31.931,0,0,0-24.5-11.417H114.367a31.931,31.931,0,0,0-24.5,11.417L32.256,151.667H311.745Z" class="ci-secondary" opacity="var(--ci-secondary-opacity, 0.25)"/>
  <path fill="var(--ci-secondary-color, currentColor)" d="M430.136,199.084a31.931,31.931,0,0,0-24.5-11.417H290.367a31.931,31.931,0,0,0-24.5,11.417l-55.089,65.583h274.45Z" class="ci-secondary" opacity="var(--ci-secondary-opacity, 0.25)"/>
  <path fill="var(--ci-primary-color, currentColor)" d="M237.024,183.667H24v124H64v40h48v-40h56V284.78a52.088,52.088,0,0,1,12.183-33.446l40.041-47.667ZM122,261.667H80v-42h42Z" class="ci-primary"/>
  <path fill="var(--ci-primary-color, currentColor)" d="M200,296.667v127h40v40h48v-40H408v40h48v-40h40v-127Zm98,81H256v-42h42Zm142,0H398v-42h42Z" class="ci-primary"/>
</svg>
