<svg xmlns="http://www.w3.org/2000/svg" viewBox="0 0 512 512">
  <path fill="var(--ci-secondary-color, currentColor)" d="M480,216C480,114.379,379.712,32,256,32S32,114.379,32,216,132.288,400,256,400a274.016,274.016,0,0,0,33.348-2.032l22.106,19.159A257.347,257.347,0,0,0,480,480V464a299.274,299.274,0,0,1-70.593-112.012l-.534-1.516C452.634,316.89,480,269.074,480,216Z" class="ci-secondary" opacity="var(--ci-secondary-opacity, 0.25)"/>
  <rect width="40" height="40" x="168" y="152" fill="var(--ci-primary-color, currentColor)" class="ci-primary"/>
  <rect width="40" height="40" x="304" y="152" fill="var(--ci-primary-color, currentColor)" class="ci-primary"/>
  <path fill="var(--ci-primary-color, currentColor)" d="M316.592,240a61.685,61.685,0,0,1-57.154,38h-6.875a61.686,61.686,0,0,1-57.155-38H156.613l4.958,12.4A97.533,97.533,0,0,0,252.563,314h6.875a97.533,97.533,0,0,0,90.991-61.6l4.958-12.4Z" class="ci-primary"/>
</svg>
