<svg xmlns="http://www.w3.org/2000/svg" viewBox="0 0 512 512">
  <path fill="var(--ci-secondary-color, currentColor)" d="M91.529,227,19,380.362v28.431l5.549,6.031A118.445,118.445,0,0,0,111.512,453h.4a118.448,118.448,0,0,0,87.1-38.766l5.991-6.6V380.362L132.471,227Z" class="ci-secondary" opacity="var(--ci-secondary-opacity, 0.25)"/>
  <path fill="var(--ci-secondary-color, currentColor)" d="M420.471,107H379.529L307,260.362v28.431l5.549,6.031A118.445,118.445,0,0,0,399.512,333h.4a118.448,118.448,0,0,0,87.1-38.766l5.991-6.6V260.362Z" class="ci-secondary" opacity="var(--ci-secondary-opacity, 0.25)"/>
  <path fill="var(--ci-secondary-color, currentColor)" d="M322.77,114.675A66.991,66.991,0,0,0,189,120c0,1.616.078,3.214.19,4.8A66.991,66.991,0,0,0,323,120C323,118.206,322.908,116.434,322.77,114.675Z" class="ci-secondary" opacity="var(--ci-secondary-opacity, 0.25)"/>
  <path fill="var(--ci-primary-color, currentColor)" d="M36.669,343,19,380.362v28.431l5.549,6.031A118.445,118.445,0,0,0,111.512,453h.4a118.448,118.448,0,0,0,87.1-38.766l5.991-6.6V380.362L187.331,343Z" class="ci-primary"/>
  <path fill="var(--ci-primary-color, currentColor)" d="M475.331,223H324.669L307,260.362v28.431l5.549,6.031A118.445,118.445,0,0,0,399.512,333h.4a118.448,118.448,0,0,0,87.1-38.766l5.991-6.6V260.362Z" class="ci-primary"/>
  <path fill="var(--ci-primary-color, currentColor)" d="M277,183.624a67,67,0,0,1-42,0V477H376V435H277Z" class="ci-primary"/>
  <path fill="var(--ci-primary-color, currentColor)" d="M96,162.8v45.357l109.183-44.517A66.691,66.691,0,0,1,189.19,124.8Z" class="ci-primary"/>
  <path fill="var(--ci-primary-color, currentColor)" d="M416,74.342V29.509l-.338-.782L306.472,75.964a66.693,66.693,0,0,1,16.3,38.711Z" class="ci-primary"/>
  <circle cx="256" cy="120" r="30" fill="var(--ci-primary-color, currentColor)" class="ci-primary"/>
</svg>
