<svg xmlns="http://www.w3.org/2000/svg" viewBox="0 0 512 512">
  <path fill="var(--ci-secondary-color, currentColor)" d="M130.322,154.322A143.575,143.575,0,0,1,232.246,112l-.082-48A191.266,191.266,0,0,0,96.381,120.381C23.24,193.522,21.389,311.355,90.8,386.775L36.438,428.593l155.767,40.04V308.772l-63.162,48.586C74,300.917,74.417,210.228,130.322,154.322Z" class="ci-secondary" opacity="var(--ci-secondary-opacity, 0.25)"/>
  <path fill="var(--ci-primary-color, currentColor)" d="M475.767,91.407,320,51.367V211.228l63.162-48.587A144.488,144.488,0,0,1,279.959,408l.082,48A192.487,192.487,0,0,0,421.407,133.223Z" class="ci-primary"/>
</svg>
