<svg xmlns="http://www.w3.org/2000/svg" viewBox="0 0 512 512">
  <path fill="var(--ci-secondary-color, currentColor)" d="M456,171.313a63.79,63.79,0,0,1-48,0V232H280V171.313a63.79,63.79,0,0,1-48,0V232H104V171.313a63.79,63.79,0,0,1-48,0V232H16v48H144v60.687a63.79,63.79,0,0,1,48,0V280H320v60.687a63.79,63.79,0,0,1,48,0V280H496V232H456Z" class="ci-secondary" opacity="var(--ci-secondary-opacity, 0.25)"/>
  <path fill="var(--ci-primary-color, currentColor)" d="M80,48a63.99,63.99,0,1,0,64,64A64.072,64.072,0,0,0,80,48Z" class="ci-primary"/>
  <path fill="var(--ci-primary-color, currentColor)" d="M432,48a63.99,63.99,0,1,0,64,64A64.072,64.072,0,0,0,432,48Z" class="ci-primary"/>
  <path fill="var(--ci-primary-color, currentColor)" d="M256,48a63.99,63.99,0,1,0,64,64A64.072,64.072,0,0,0,256,48Z" class="ci-primary"/>
  <path fill="var(--ci-primary-color, currentColor)" d="M192,340.687A63.99,63.99,0,1,0,232,400,63.639,63.639,0,0,0,192,340.687Z" class="ci-primary"/>
  <path fill="var(--ci-primary-color, currentColor)" d="M368,340.687A63.99,63.99,0,1,0,408,400,63.639,63.639,0,0,0,368,340.687Z" class="ci-primary"/>
</svg>
