<svg xmlns="http://www.w3.org/2000/svg" viewBox="0 0 512 512">
  <path fill="var(--ci-secondary-color, currentColor)" d="M399.93,217.453V216c0-79.4-64.6-144-144-144s-144,64.6-144,144v2.491A122.283,122.283,0,0,0,49.136,251.2a109.4,109.4,0,0,0-33.206,78.42c0,31.119,12.788,60.762,36.009,83.469C74.629,435.275,105.268,448,136,448H382.76A109.747,109.747,0,0,0,463.9,412.546c20.656-22.207,32.031-51.657,32.031-82.927C495.93,271.182,455.646,225.392,399.93,217.453Z" class="ci-secondary" opacity="var(--ci-secondary-opacity, 0.25)"/>
  <circle cx="160" cy="336" r="32" fill="var(--ci-primary-color, currentColor)" class="ci-primary"/>
  <circle cx="264" cy="336" r="32" fill="var(--ci-primary-color, currentColor)" class="ci-primary"/>
  <circle cx="368" cy="336" r="32" fill="var(--ci-primary-color, currentColor)" class="ci-primary"/>
</svg>
