<svg xmlns="http://www.w3.org/2000/svg" viewBox="0 0 512 512">
  <path fill="var(--ci-secondary-color, currentColor)" d="M243.649,120H256.33c12.613-11.519,20.724-29.4,20.724-49.5,0-23.295-10.89-43.619-27.065-54.5-16.174,10.882-27.064,31.206-27.064,54.5C222.925,90.6,231.036,108.481,243.649,120Z" class="ci-secondary" opacity="var(--ci-secondary-opacity, 0.25)"/>
  <path fill="var(--ci-secondary-color, currentColor)" d="M422,246H90a42,42,0,0,0-42,42v36.525l32.844,14.491a35.156,35.156,0,0,0,28.312,0L150,321l40.844,18.02a35.152,35.152,0,0,0,28.312,0L260,321l40.842,18.02a35.156,35.156,0,0,0,28.312,0L370,321l40.844,18.02a35.147,35.147,0,0,0,28.31,0L464,328.054V288A42,42,0,0,0,422,246Z" class="ci-secondary" opacity="var(--ci-secondary-opacity, 0.25)"/>
  <path fill="var(--ci-primary-color, currentColor)" d="M425,377.985a71.061,71.061,0,0,1-28.688-6.032L370,360.344l-26.314,11.609a71.228,71.228,0,0,1-57.374,0L260,360.344l-26.31,11.608a71.218,71.218,0,0,1-57.375,0L150,360.344l-26.311,11.608a71.22,71.22,0,0,1-57.374,0L48,363.873V480a16,16,0,0,0,16,16H448a16,16,0,0,0,16-16V367.4l-10.321,4.553A71.092,71.092,0,0,1,425,377.985Z" class="ci-primary"/>
  <polygon fill="var(--ci-primary-color, currentColor)" points="256.33 120 243.649 120 200 120 200 246 296 246 296 120 256.33 120" class="ci-primary"/>
</svg>
