<svg xmlns="http://www.w3.org/2000/svg" viewBox="0 0 512 512">
  <path fill="var(--ci-secondary-color, currentColor)" d="M472,48H40A24.028,24.028,0,0,0,16,72V440a24.028,24.028,0,0,0,24,24H472a24.028,24.028,0,0,0,24-24V72A24.028,24.028,0,0,0,472,48Z" class="ci-secondary" opacity="var(--ci-secondary-opacity, 0.25)"/>
  <path fill="var(--ci-primary-color, currentColor)" d="M400,416V405.178a36,36,0,0,0-18.511-31.467l-79.663-44.276L328,264V200a72,72,0,0,0-72-72h0a72,72,0,0,0-72,72v64l26.174,65.435-79.663,44.276A36,36,0,0,0,112,405.178V464H400V416Z" class="ci-primary"/>
</svg>
