<svg xmlns="http://www.w3.org/2000/svg" viewBox="0 0 512 512">
  <polygon fill="var(--ci-secondary-color, currentColor)" points="298.345 16 384.182 115.042 395.412 128 409.279 144 447.372 144 447.372 312 495.372 312 495.372 128 495.372 16 298.345 16" class="ci-secondary" opacity="var(--ci-secondary-opacity, 0.25)"/>
  <polygon fill="var(--ci-secondary-color, currentColor)" points="16 128 16 312 64 312 64 144 102.721 144 116.588 128 127.818 115.042 213.655 16 16 16 16 128" class="ci-secondary" opacity="var(--ci-secondary-opacity, 0.25)"/>
  <path fill="var(--ci-primary-color, currentColor)" d="M224,144h0V304a31.87,31.87,0,0,0,2.866,13.232c.17.374.345.743.529,1.109a32.112,32.112,0,0,0,2.962,4.805c.472.631.973,1.238,1.489,1.831a32.159,32.159,0,0,0,6.263,5.558q1.276.863,2.638,1.6a31.8,31.8,0,0,0,8.8,3.212A32.162,32.162,0,0,0,256,336h0a32.088,32.088,0,0,0,8-1.007q1.534-.4,3.006-.935c.711-.26,1.407-.554,2.094-.862.732-.329,1.454-.677,2.156-1.058q1.361-.739,2.639-1.6a32.191,32.191,0,0,0,6.8-6.18q.489-.593.95-1.209A31.862,31.862,0,0,0,288,304V136h72L256,16,152,136h72Z" class="ci-primary"/>
  <polygon fill="var(--ci-primary-color, currentColor)" points="447.372 312 367.843 312 316.078 384 186.667 384 143.529 312 64 312 16 312 16 495.998 495.372 495.998 495.372 312 447.372 312" class="ci-primary"/>
</svg>
