<svg xmlns="http://www.w3.org/2000/svg" viewBox="0 0 512 512">
  <rect width="480" height="480" x="16" y="16" fill="var(--ci-secondary-color, currentColor)" class="ci-secondary" opacity="var(--ci-secondary-opacity, 0.25)" rx="32"/>
  <path fill="var(--ci-primary-color, currentColor)" d="M380,136H280V376H380c33.084,0,60-25.674,60-57.231V193.231C440,161.674,413.084,136,380,136Zm12,182.769c0,5-5.5,9.231-12,9.231H328V184h52c6.5,0,12,4.227,12,9.231Z" class="ci-primary"/>
  <polygon fill="var(--ci-primary-color, currentColor)" points="192 232 128 232 128 136 80 136 80 376 128 376 128 280 192 280 192 376 240 376 240 136 192 136 192 232" class="ci-primary"/>
</svg>
