<svg xmlns="http://www.w3.org/2000/svg" viewBox="0 0 512 512">
  <path fill="var(--ci-secondary-color, currentColor)" d="M440,80H72A16,16,0,0,0,56,96V408a16,16,0,0,0,16,16H440a16,16,0,0,0,16-16V96A16,16,0,0,0,440,80ZM222.364,378Z" class="ci-secondary" opacity="var(--ci-secondary-opacity, 0.25)"/>
  <path fill="var(--ci-primary-color, currentColor)" d="M219.635,130.546l-38.085,29.2a151.7,151.7,0,0,1,2.116,189.876L222.364,378h0a199.559,199.559,0,0,0-2.729-247.454Z" class="ci-primary"/>
  <path fill="var(--ci-primary-color, currentColor)" d="M111.652,213.334a63.832,63.832,0,0,1,.983,84.2L151.4,325.957a111.759,111.759,0,0,0-1.6-141.866Z" class="ci-primary"/>
  <path fill="var(--ci-primary-color, currentColor)" d="M56,224v64a32,32,0,0,0,0-64Z" class="ci-primary"/>
</svg>
