<svg xmlns="http://www.w3.org/2000/svg" viewBox="0 0 512 512">
  <path fill="var(--ci-secondary-color, currentColor)" d="M464,350.469a31.863,31.863,0,0,0-5.65-18.146L426.317,287,352,181.853V152h32a32.036,32.036,0,0,0,32-32V16H96V120a32.036,32.036,0,0,0,32,32h31.917v30.922L85.9,287,53.868,332.041l-.162.23A31.852,31.852,0,0,0,48,350.509v89.422a56.066,56.066,0,0,0,55.987,56L408.019,496h.013a56,56,0,0,0,56-56.019Z" class="ci-secondary" opacity="var(--ci-secondary-opacity, 0.25)"/>
  <path fill="var(--ci-primary-color, currentColor)" d="M53.706,332.271A31.852,31.852,0,0,0,48,350.509v89.422a56.066,56.066,0,0,0,55.987,56L408.019,496h.013a56,56,0,0,0,56-56.019L464,350.469a31.863,31.863,0,0,0-5.65-18.146L426.317,287H85.9L53.868,332.041Z" class="ci-primary"/>
</svg>
