<svg xmlns="http://www.w3.org/2000/svg" viewBox="0 0 512 512">
  <path fill="var(--ci-secondary-color, currentColor)" d="M480,216C480,114.38,379.712,32,256,32S32,114.38,32,216,132.288,400,256,400a274.016,274.016,0,0,0,33.348-2.032l22.106,19.159A257.353,257.353,0,0,0,480,480V464a299.274,299.274,0,0,1-70.593-112.012l-.534-1.516C452.634,316.89,480,269.074,480,216Z" class="ci-secondary" opacity="var(--ci-secondary-opacity, 0.25)"/>
  <polygon fill="var(--ci-primary-color, currentColor)" points="235 304 277 304 277 237 344 237 344 195 277 195 277 128 235 128 235 195 168 195 168 237 235 237 235 304" class="ci-primary"/>
</svg>
