<svg xmlns="http://www.w3.org/2000/svg" viewBox="0 0 512 512">
  <rect width="230.902" height="54" x="270.913" y="106.636" fill="var(--ci-secondary-color, currentColor)" class="ci-secondary" opacity="var(--ci-secondary-opacity, 0.25)" transform="rotate(-45 386.364 133.637)"/>
  <path fill="var(--ci-primary-color, currentColor)" d="M198.424,160.24a99.067,99.067,0,1,0-38.184,38.184L221.816,260l-56.57,56.571a98.958,98.958,0,1,0,35.925,40.442L260,298.184,448.908,487.092l38.184-38.184ZM112,157a45,45,0,1,1,45-45A45.051,45.051,0,0,1,112,157Zm0,288a45,45,0,1,1,45-45A45.051,45.051,0,0,1,112,445Z" class="ci-primary"/>
</svg>
