<svg xmlns="http://www.w3.org/2000/svg" viewBox="0 0 512 512">
  <path fill="var(--ci-secondary-color, currentColor)" d="M485.551,131.782,380.706,26.938A24,24,0,0,0,345.16,28.71l-77.266,94.436L389.342,244.594l94.436-77.266a24,24,0,0,0,1.773-35.546Z" class="ci-secondary" opacity="var(--ci-secondary-opacity, 0.25)"/>
  <path fill="var(--ci-primary-color, currentColor)" d="M356.525,261.273,251.06,155.808,237.5,142.244l-112.409,22.9a27.094,27.094,0,0,0-20.025,17.026l-82.6,217.764a27.271,27.271,0,0,0,6.2,28.917L42.93,443.115,54.244,431.8l11.313-11.313,97.183-97.183a43.966,43.966,0,1,1,24.223,25.273L90.306,445.235,78.992,456.549,67.678,467.863l14.261,14.261a27.263,27.263,0,0,0,28.915,6.207l217.861-82.638a27.143,27.143,0,0,0,16.949-19.654l24.3-111.324Z" class="ci-primary"/>
</svg>
