<svg xmlns="http://www.w3.org/2000/svg" viewBox="0 0 512 512">
  <path fill="var(--ci-secondary-color, currentColor)" d="M256,104C132.288,104,32,204.288,32,328v72H200a56,56,0,0,1,112,0H480V328C480,204.288,379.712,104,256,104Z" class="ci-secondary" opacity="var(--ci-secondary-opacity, 0.25)"/>
  <path fill="var(--ci-primary-color, currentColor)" d="M306.821,335.719l61.407-127.93-32.456-15.578L274.384,320.1a82.176,82.176,0,1,0,32.437,15.615ZM256,446a46,46,0,0,1,0-92c.7,0,1.4.022,2.088.053A46,46,0,0,1,256,446Z" class="ci-primary"/>
  <rect width="40" height="40" x="80" y="312" fill="var(--ci-primary-color, currentColor)" class="ci-primary"/>
  <rect width="40" height="40" x="128" y="200" fill="var(--ci-primary-color, currentColor)" class="ci-primary"/>
  <rect width="40" height="40" x="240" y="152" fill="var(--ci-primary-color, currentColor)" class="ci-primary"/>
  <rect width="40" height="40" x="392" y="312" fill="var(--ci-primary-color, currentColor)" class="ci-primary"/>
</svg>
