<svg xmlns="http://www.w3.org/2000/svg" viewBox="0 0 512 512">
  <path fill="var(--ci-secondary-color, currentColor)" d="M438.435,232C428.018,152.383,366.509,88.616,288,74.791V16H224V74.791C145.491,88.616,83.982,152.383,73.565,232H16v64H76.392A184.529,184.529,0,0,0,224,437.209V496h64V437.209A184.529,184.529,0,0,0,435.608,296H496V232ZM256,376A120,120,0,1,1,376,256,120.136,120.136,0,0,1,256,376Z" class="ci-secondary" opacity="var(--ci-secondary-opacity, 0.25)"/>
  <circle cx="256" cy="256" r="72" fill="var(--ci-primary-color, currentColor)" class="ci-primary"/>
  <path fill="var(--ci-primary-color, currentColor)" d="M288,74.791V16H224V74.791a184.842,184.842,0,0,1,64,0Z" class="ci-primary"/>
  <path fill="var(--ci-primary-color, currentColor)" d="M438.435,232a184.518,184.518,0,0,1-2.827,64H496V232Z" class="ci-primary"/>
  <path fill="var(--ci-primary-color, currentColor)" d="M73.565,232H16v64H76.392a184.518,184.518,0,0,1-2.827-64Z" class="ci-primary"/>
  <path fill="var(--ci-primary-color, currentColor)" d="M224,437.209V496h64V437.209a184.842,184.842,0,0,1-64,0Z" class="ci-primary"/>
</svg>
