<svg xmlns="http://www.w3.org/2000/svg" viewBox="0 0 512 512">
  <rect width="48" height="48" x="448" y="312" fill="var(--ci-secondary-color, currentColor)" class="ci-secondary" opacity="var(--ci-secondary-opacity, 0.25)"/>
  <rect width="49.6" height="48" x="348.801" y="312" fill="var(--ci-secondary-color, currentColor)" class="ci-secondary" opacity="var(--ci-secondary-opacity, 0.25)"/>
  <rect width="49.6" height="48" x="249.601" y="312" fill="var(--ci-secondary-color, currentColor)" class="ci-secondary" opacity="var(--ci-secondary-opacity, 0.25)"/>
  <rect width="48" height="48" x="152" y="312" fill="var(--ci-secondary-color, currentColor)" class="ci-secondary" opacity="var(--ci-secondary-opacity, 0.25)"/>
  <rect width="48" height="49.6" x="152" y="113.6" fill="var(--ci-secondary-color, currentColor)" class="ci-secondary" opacity="var(--ci-secondary-opacity, 0.25)"/>
  <rect width="48" height="49.6" x="152" y="212.8" fill="var(--ci-secondary-color, currentColor)" class="ci-secondary" opacity="var(--ci-secondary-opacity, 0.25)"/>
  <rect width="48" height="48" x="152" y="16" fill="var(--ci-secondary-color, currentColor)" class="ci-secondary" opacity="var(--ci-secondary-opacity, 0.25)"/>
  <rect width="49.6" height="48" x="348.8" y="16" fill="var(--ci-secondary-color, currentColor)" class="ci-secondary" opacity="var(--ci-secondary-opacity, 0.25)"/>
  <rect width="49.6" height="48" x="249.6" y="16" fill="var(--ci-secondary-color, currentColor)" class="ci-secondary" opacity="var(--ci-secondary-opacity, 0.25)"/>
  <rect width="48" height="48" x="448" y="16" fill="var(--ci-secondary-color, currentColor)" class="ci-secondary" opacity="var(--ci-secondary-opacity, 0.25)"/>
  <rect width="48" height="49.6" x="448" y="212.8" fill="var(--ci-secondary-color, currentColor)" class="ci-secondary" opacity="var(--ci-secondary-opacity, 0.25)"/>
  <rect width="48" height="49.6" x="448" y="113.6" fill="var(--ci-secondary-color, currentColor)" class="ci-secondary" opacity="var(--ci-secondary-opacity, 0.25)"/>
  <path fill="var(--ci-primary-color, currentColor)" d="M48,496H408V400.348H112V112H16V464A32.036,32.036,0,0,0,48,496Z" class="ci-primary"/>
</svg>
