<svg xmlns="http://www.w3.org/2000/svg" viewBox="0 0 512 512">
  <rect width="480" height="376" x="16" y="64" fill="var(--ci-secondary-color, currentColor)" class="ci-secondary" opacity="var(--ci-secondary-opacity, 0.25)" rx="16"/>
  <path fill="var(--ci-primary-color, currentColor)" d="M264.773,119.958H195.589V384.021h69.184a41.331,41.331,0,0,0,41.482-41.083v-181.9A41.332,41.332,0,0,0,264.773,119.958Zm5.482,222.98a5.3,5.3,0,0,1-5.482,5.083H231.589V155.957h33.184a5.3,5.3,0,0,1,5.482,5.084Z" class="ci-primary"/>
  <polygon fill="var(--ci-primary-color, currentColor)" points="134 233.989 90 233.989 90 120 54 120 54 384 90 384 90 269.989 134 269.989 134 384 170 384 170 120 134 120 134 233.989" class="ci-primary"/>
  <path fill="var(--ci-primary-color, currentColor)" d="M449.447,248V153.957c0-18.748-14.654-34-32.667-34H333.447V384h36V282h12.024l31.976,51.162V384h36V322.838L423.473,281.28C438.286,278.056,449.447,264.361,449.447,248Zm-36-2h-44V155.957h44Z" class="ci-primary"/>
</svg>
