<svg xmlns="http://www.w3.org/2000/svg" viewBox="0 0 512 512">
  <path fill="var(--ci-secondary-color, currentColor)" d="M480,88H32a16,16,0,0,0-16,16V392a16,16,0,0,0,16,16H480a16,16,0,0,0,16-16V104A16,16,0,0,0,480,88Z" class="ci-secondary" opacity="var(--ci-secondary-opacity, 0.25)"/>
  <rect width="192" height="64" x="160" y="432" fill="var(--ci-primary-color, currentColor)" class="ci-primary"/>
  <polygon fill="var(--ci-primary-color, currentColor)" points="192 160 192.931 344 216 344 352 256 352 248 215.069 160 192 160" class="ci-primary"/>
  <polygon fill="var(--ci-primary-color, currentColor)" points="314.441 88 386.441 16 318.559 16 256.25 78.309 193.941 16 126.059 16 198.059 88 314.441 88" class="ci-primary"/>
</svg>
