<svg xmlns="http://www.w3.org/2000/svg" viewBox="0 0 512 512">
  <path fill="var(--ci-secondary-color, currentColor)" d="M402.936,13.655l-30.95,36.69A179.752,179.752,0,0,1,436,188h48A227.655,227.655,0,0,0,402.936,13.655Z" class="ci-secondary" opacity="var(--ci-secondary-opacity, 0.25)"/>
  <path fill="var(--ci-secondary-color, currentColor)" d="M28,188H76A179.752,179.752,0,0,1,140.014,50.345l-30.95-36.69A227.655,227.655,0,0,0,28,188Z" class="ci-secondary" opacity="var(--ci-secondary-opacity, 0.25)"/>
  <path fill="var(--ci-secondary-color, currentColor)" d="M256,464a72,72,0,0,0,72-72H184A72,72,0,0,0,256,464Z" class="ci-secondary" opacity="var(--ci-secondary-opacity, 0.25)"/>
  <path fill="var(--ci-primary-color, currentColor)" d="M392,264V176a136,136,0,0,0-272,0v88L74.4,348.19A8,8,0,0,0,81.432,360H430.568a8,8,0,0,0,7.035-11.81Z" class="ci-primary"/>
</svg>
