<svg xmlns="http://www.w3.org/2000/svg" viewBox="0 0 512 512">
  <path fill="var(--ci-secondary-color, currentColor)" d="M423.584,88.416A237,237,0,0,0,19,256V360H61V256C61,148.477,148.477,61,256,61s195,87.477,195,195V360h42V256A235.445,235.445,0,0,0,423.584,88.416Z" class="ci-secondary" opacity="var(--ci-secondary-opacity, 0.25)"/>
  <polygon fill="var(--ci-secondary-color, currentColor)" points="388.635 400 352.712 400 433.145 496 487.937 496 388.635 377.478 388.635 400" class="ci-secondary" opacity="var(--ci-secondary-opacity, 0.25)"/>
  <polygon fill="var(--ci-secondary-color, currentColor)" points="132.635 367.83 24.184 496 79.201 496 160.432 400 132.635 400 132.635 367.83" class="ci-secondary" opacity="var(--ci-secondary-opacity, 0.25)"/>
  <path fill="var(--ci-primary-color, currentColor)" d="M345.867,144H175.4a42.815,42.815,0,0,0-42.766,42.768V248h256V186.768A42.817,42.817,0,0,0,345.867,144Z" class="ci-primary"/>
  <path fill="var(--ci-primary-color, currentColor)" d="M164.635,280h-32V400h256V280h-224ZM218,360H176V318h42Zm126,0H302V318h42Z" class="ci-primary"/>
</svg>
