<svg xmlns="http://www.w3.org/2000/svg" viewBox="0 0 512 512">
  <path fill="var(--ci-secondary-color, currentColor)" d="M219.657,275.657h0l-2,2-.06-.059a50.424,50.424,0,0,1-69.254-73.255L248.687,104H130.627a16,16,0,0,0-11.313,4.686L48,180H16V340H64l76,76a28.284,28.284,0,0,0,40,0l28-28,20,20a28.284,28.284,0,0,0,40,0l24-24h0a28.284,28.284,0,0,0,40,0l26.343-26.343L248,247.314Z" class="ci-secondary" opacity="var(--ci-secondary-opacity, 0.25)"/>
  <path fill="var(--ci-primary-color, currentColor)" d="M438,174l-65.314-65.314A16,16,0,0,0,361.373,104h-90.06L159.657,215.657a34.426,34.426,0,1,0,48.686,48.686l1.966-1.966,76.034-76.034,11.314,11.314L259.313,236l120,120h38.059a16,16,0,0,0,11.313-4.686L464,316h32V174Z" class="ci-primary"/>
</svg>
