<svg xmlns="http://www.w3.org/2000/svg" viewBox="0 0 512 512">
  <circle cx="256" cy="256" r="240" fill="var(--ci-secondary-color, currentColor)" class="ci-secondary" opacity="var(--ci-secondary-opacity, 0.25)"/>
  <path fill="var(--ci-primary-color, currentColor)" d="M496,256q0-9.083-.67-18H368.454c3.64-65.521,26.866-122.352,58.577-150.349a241.369,241.369,0,0,0-27.288-23.858A174.388,174.388,0,0,0,369.9,101.975C347.982,139.081,334.891,186.838,332.4,238H274V16.67q-8.914-.66-18-.67t-18,.67V238H179.6c-2.494-51.162-15.585-98.919-37.5-136.025a174.388,174.388,0,0,0-29.843-38.182A241.369,241.369,0,0,0,84.969,87.651c31.711,28,54.937,84.828,58.577,150.349H16.67q-.66,8.915-.67,18t.67,18H143.546c-3.64,65.521-26.866,122.352-58.577,150.349a241.369,241.369,0,0,0,27.288,23.858A174.388,174.388,0,0,0,142.1,410.025c21.918-37.106,35.009-84.863,37.5-136.025H238V495.33q8.915.66,18,.67t18-.67V274h58.4c2.494,51.162,15.585,98.919,37.5,136.025a174.388,174.388,0,0,0,29.843,38.182,241.369,241.369,0,0,0,27.288-23.858c-31.711-28-54.937-84.828-58.577-150.349H495.33Q495.99,265.086,496,256Z" class="ci-primary"/>
</svg>
