<svg xmlns="http://www.w3.org/2000/svg" viewBox="0 0 512 512">
  <path fill="var(--ci-secondary-color, currentColor)" d="M470.935,194.043,333.8,171.757,270.227,48.22A15.822,15.822,0,0,0,256,39.542V411.2l124.044,62.576a16,16,0,0,0,23.02-16.724L381.882,319.74,479.728,221.1A16,16,0,0,0,470.935,194.043Z" class="ci-secondary" opacity="var(--ci-secondary-opacity, 0.25)"/>
  <path fill="var(--ci-primary-color, currentColor)" d="M241.773,48.22,178.2,171.757,41.065,194.043A16,16,0,0,0,32.272,221.1l97.846,98.636L108.936,457.051a16,16,0,0,0,23.02,16.724L256,411.2V39.542A15.822,15.822,0,0,0,241.773,48.22Z" class="ci-primary"/>
</svg>
