<svg xmlns="http://www.w3.org/2000/svg" viewBox="0 0 512 512">
  <polygon fill="var(--ci-secondary-color, currentColor)" points="45.976 16 16 16 16 45.422 466.578 496 496 496 496 466.024 45.976 16" class="ci-secondary" opacity="var(--ci-secondary-opacity, 0.25)"/>
  <path fill="var(--ci-primary-color, currentColor)" d="M147.427,176.85q-1.751,3.535-3.362,7.15H104v56H210.578Z" class="ci-primary"/>
  <path fill="var(--ci-primary-color, currentColor)" d="M316,72a187.111,187.111,0,0,0-119.8,43.229l45.543,45.543A123.323,123.323,0,0,1,316,136h68V72Z" class="ci-primary"/>
  <polygon fill="var(--ci-primary-color, currentColor)" points="316.568 235.597 320.971 240 344 240 344 184 264.971 184 316.568 235.597 316.568 235.597" class="ci-primary"/>
  <path fill="var(--ci-primary-color, currentColor)" d="M316,384a123.855,123.855,0,0,1-97.91-48h88.488l-56-56H104v56h40.065C173.313,401.91,239.371,448,316,448h68V413.423L354.577,384Z" class="ci-primary"/>
</svg>
