<svg xmlns="http://www.w3.org/2000/svg" viewBox="0 0 512 512">
  <path fill="var(--ci-secondary-color, currentColor)" d="M67.777,104,87.312,224l13.512,83,25.3,155.428A39.847,39.847,0,0,0,165.606,496H346.394a39.849,39.849,0,0,0,39.481-33.573L411.177,307l13.511-83,19.535-120Z" class="ci-secondary" opacity="var(--ci-secondary-opacity, 0.25)"/>
  <path fill="var(--ci-primary-color, currentColor)" d="M261.557,224l-8.372-72L247.6,104,241.3,49.75,237.371,16H104V64h90.629l4.651,40,5.581,48,8.372,72H87.312l13.512,83,25.3,155.428A39.847,39.847,0,0,0,165.606,496H346.394a39.849,39.849,0,0,0,39.481-33.573L411.177,307l13.511-83Z" class="ci-primary"/>
</svg>
