<svg xmlns="http://www.w3.org/2000/svg" viewBox="0 0 512 512">
  <path fill="var(--ci-secondary-color, currentColor)" d="M249.248,16A165.636,165.636,0,0,0,142.365,54.326L168.14,80.1l22.545,22.545,5.158,5.158L220.4,132.357l8.174,8.174L336.024,247.985l39.23,39.23A165.6,165.6,0,0,0,413.5,180.443C412.965,90.406,339.283,16.639,249.248,16Z" class="ci-secondary" opacity="var(--ci-secondary-opacity, 0.25)"/>
  <path fill="var(--ci-secondary-color, currentColor)" d="M315.58,344.592,208.52,237.532l-42-42-35.871-35.871L92.437,121.449h0A163.87,163.87,0,0,0,80.06,184H80c0,120,86.52,98.5,86.52,201.7V406.52A89.48,89.48,0,0,0,256,496h1.073A106.507,106.507,0,0,0,363.534,392.546h0Z" class="ci-secondary" opacity="var(--ci-secondary-opacity, 0.25)"/>
  <path fill="var(--ci-primary-color, currentColor)" d="M272.955,132.789A33.346,33.346,0,0,1,283,157.167h42a75.511,75.511,0,0,0-22.617-54.345C287.1,87.816,266.439,79.786,244.191,80.181a78.129,78.129,0,0,0-53.506,22.465l5.158,5.158L220.4,132.357a36.568,36.568,0,0,1,24.559-10.183C255.846,121.971,265.782,125.746,272.955,132.789Z" class="ci-primary"/>
  <path fill="var(--ci-primary-color, currentColor)" d="M363.58,333.2l-47.21-47.21L208.916,178.531,176.189,145.8l-27.7-27.7L114.1,83.714,46.385,16H16V45.012l76.437,76.437,38.212,38.212,35.871,35.871v75.689L180.8,285.5c21.642,21.642,33.561,44.593,33.561,75.2v25h42.57v-25h-.57c0-41.824-16.288-75.322-45.862-104.9l-1.978-1.978V237.532l107.06,107.06,47.953,47.954L466.988,496H496V465.615Z" class="ci-primary"/>
</svg>
