<svg xmlns="http://www.w3.org/2000/svg" viewBox="0 0 512 512">
  <path fill="var(--ci-secondary-color, currentColor)" d="M210.684,136l5.116,44h30.753c.49,0,.976.011,1.464.019A93.551,93.551,0,0,1,340,273.447V472h82.247l39.069-336Z" class="ci-secondary" opacity="var(--ci-secondary-opacity, 0.25)"/>
  <rect width="272" height="48" x="32" y="344" fill="var(--ci-secondary-color, currentColor)" class="ci-secondary" opacity="var(--ci-secondary-opacity, 0.25)"/>
  <polygon fill="var(--ci-primary-color, currentColor)" points="360 88 360 16 312 16 312 88 184 88 184 136 496 136 496 88 360 88" class="ci-primary"/>
  <path fill="var(--ci-primary-color, currentColor)" d="M246,216H90a58.066,58.066,0,0,0-58,58v38H304V274A58.066,58.066,0,0,0,246,216Z" class="ci-primary"/>
  <rect width="272" height="48" x="32" y="424" fill="var(--ci-primary-color, currentColor)" class="ci-primary"/>
</svg>
