<svg xmlns="http://www.w3.org/2000/svg" viewBox="0 0 512 512">
  <path fill="var(--ci-secondary-color, currentColor)" d="M456,80H201.524a24,24,0,0,0-17.42,7.492L32,248v16L184.1,424.508A24,24,0,0,0,201.524,432H456a24,24,0,0,0,24-24V104A24,24,0,0,0,456,80Z" class="ci-secondary" opacity="var(--ci-secondary-opacity, 0.25)"/>
  <polygon fill="var(--ci-primary-color, currentColor)" points="395.272 147.272 312 230.544 228.728 147.272 203.272 172.728 286.544 256 203.272 339.272 228.728 364.728 312 281.456 395.272 364.728 420.728 339.272 337.456 256 420.728 172.728 395.272 147.272" class="ci-primary"/>
</svg>
