<svg xmlns="http://www.w3.org/2000/svg" viewBox="0 0 512 512">
  <polygon fill="var(--ci-secondary-color, currentColor)" points="165 64 123 64 123 219.894 96 246.894 96 342.894 192 342.894 192 246.894 165 219.894 165 64" class="ci-secondary" opacity="var(--ci-secondary-opacity, 0.25)"/>
  <path fill="var(--ci-secondary-color, currentColor)" d="M436.574,120H336v60h80a4,4,0,0,1,4,4V320a4,4,0,0,1-4,4H336v60H436.574A43.425,43.425,0,0,0,480,340.574V163.426A43.425,43.425,0,0,0,436.574,120Z" class="ci-secondary" opacity="var(--ci-secondary-opacity, 0.25)"/>
  <path fill="var(--ci-primary-color, currentColor)" d="M165,64V219.894l27,27v96H96v-96l27-27V64H32V408a48,48,0,0,0,48,48H288a48,48,0,0,0,48-48V64Z" class="ci-primary"/>
</svg>
