<svg xmlns="http://www.w3.org/2000/svg" viewBox="0 0 512 512">
  <path fill="var(--ci-secondary-color, currentColor)" d="M480,120H380.914L357.091,58.242A16,16,0,0,0,342.164,48H177.317A100.044,100.044,0,0,1,88,183.914V184H16V456a16,16,0,0,0,16,16H480a16,16,0,0,0,16-16V136A16,16,0,0,0,480,120Z" class="ci-secondary" opacity="var(--ci-secondary-opacity, 0.25)"/>
  <polygon fill="var(--ci-primary-color, currentColor)" points="152 66 102 66 102 16 66 16 66 66 16 66 16 102 66 102 66 152 102 152 102 102 152 102 152 66" class="ci-primary"/>
  <circle cx="256" cy="282" r="104" fill="var(--ci-primary-color, currentColor)" class="ci-primary"/>
</svg>
