<svg xmlns="http://www.w3.org/2000/svg" viewBox="0 0 512 512">
  <path fill="var(--ci-secondary-color, currentColor)" d="M191.917,140.09H336.083v-108a16,16,0,0,0-16-16H32a16,16,0,0,0-16,16V336H40l53.333-96h46.584V192.09A52.059,52.059,0,0,1,191.917,140.09Z" class="ci-secondary" opacity="var(--ci-secondary-opacity, 0.25)"/>
  <path fill="var(--ci-primary-color, currentColor)" d="M480,176.09H191.917a16,16,0,0,0-16,16V384a16,16,0,0,0,16,16H416l56,96h24V192.09A16,16,0,0,0,480,176.09Z" class="ci-primary"/>
</svg>
