<svg xmlns="http://www.w3.org/2000/svg" viewBox="0 0 512 512">
  <path fill="var(--ci-secondary-color, currentColor)" d="M256.321,90.5,368,16H256.321v.741A239.291,239.291,0,0,0,17.386,256.035h32c0-114.183,92.8-207.1,206.935-207.294Z" class="ci-secondary" opacity="var(--ci-secondary-opacity, 0.25)"/>
  <path fill="var(--ci-secondary-color, currentColor)" d="M463.982,256.035c0,114.106-93.244,206.972-208,207.332V432L144.308,496H255.987v-.633c132.4-.36,240-107.581,240-239.332Z" class="ci-secondary" opacity="var(--ci-secondary-opacity, 0.25)"/>
  <polygon fill="var(--ci-secondary-color, currentColor)" points="322.745 144 274.745 192 192 274.745 192 320 217.372 320 312 225.372 360 177.372 396.686 140.686 361.373 105.373 322.745 144" class="ci-secondary" opacity="var(--ci-secondary-opacity, 0.25)"/>
  <polygon fill="var(--ci-primary-color, currentColor)" points="400 320 360 320 360 222.628 312 270.628 312 320 217.372 320 192 320 192 274.745 192 192 274.745 192 322.745 144 192 144 192 104 144 104 144 144 104 144 104 192 144 192 144 368 312 368 312 408 360 408 360 368 400 368 400 320" class="ci-primary"/>
</svg>
