<svg xmlns="http://www.w3.org/2000/svg" viewBox="0 0 512 512">
  <path fill="var(--ci-secondary-color, currentColor)" d="M456,130H56a24,24,0,0,0-24,24V458a24,24,0,0,0,24,24H456a24,24,0,0,0,24-24V154A24,24,0,0,0,456,130Z" class="ci-secondary" opacity="var(--ci-secondary-opacity, 0.25)"/>
  <path fill="var(--ci-primary-color, currentColor)" d="M200,172H312A77,77,0,1,0,256,42.233,76.965,76.965,0,1,0,200,172Zm77-45V95a34.979,34.979,0,1,1,35,35H277ZM200,60a35.04,35.04,0,0,1,35,35v35H200a35,35,0,0,1,0-70Z" class="ci-primary"/>
  <polygon fill="var(--ci-primary-color, currentColor)" points="32 226 32 290 224 290 224 482 288 482 288 290 480 290 480 226 32 226" class="ci-primary"/>
</svg>
