<svg xmlns="http://www.w3.org/2000/svg" viewBox="0 0 512 512">
  <path fill="var(--ci-secondary-color, currentColor)" d="M464,144H48a16,16,0,0,0-16,16V464a16,16,0,0,0,16,16H464a16,16,0,0,0,16-16V160A16,16,0,0,0,464,144Z" class="ci-secondary" opacity="var(--ci-secondary-opacity, 0.25)"/>
  <rect width="256" height="36" x="128" y="30" fill="var(--ci-primary-color, currentColor)" class="ci-primary"/>
  <rect width="384" height="36" x="64" y="86" fill="var(--ci-primary-color, currentColor)" class="ci-primary"/>
  <path fill="var(--ci-primary-color, currentColor)" d="M388.682,435l-86.935-45.169,25.386-63.466v-63.23A71.133,71.133,0,0,0,256,192h0a71.133,71.133,0,0,0-71.133,71.133v63.23l25.386,63.466L123.318,435a17.784,17.784,0,0,0-9.584,15.781V480H398.266V450.779A17.784,17.784,0,0,0,388.682,435Z" class="ci-primary"/>
</svg>
