<svg xmlns="http://www.w3.org/2000/svg" viewBox="0 0 512 512">
  <path fill="var(--ci-secondary-color, currentColor)" d="M456,31.953,56,31.931a24,24,0,0,0-24,24l-.021,400a24,24,0,0,0,24,24l400,.022a24,24,0,0,0,24-24l.021-400A24,24,0,0,0,456,31.953Z" class="ci-secondary" opacity="var(--ci-secondary-opacity, 0.25)"/>
  <polygon fill="var(--ci-primary-color, currentColor)" points="256 231.059 134.971 110.029 101.029 143.971 256 298.941 410.971 143.971 377.029 110.029 256 231.059" class="ci-primary"/>
  <polygon fill="var(--ci-primary-color, currentColor)" points="256 351.059 134.971 230.029 101.029 263.971 256 418.941 410.971 263.971 377.029 230.029 256 351.059" class="ci-primary"/>
</svg>
