<svg xmlns="http://www.w3.org/2000/svg" viewBox="0 0 512 512">
  <path fill="var(--ci-secondary-color, currentColor)" d="M426.751,160.913c-11.734-29.548-30.876-54.635-55.342-72.54A153.779,153.779,0,0,0,308.06,61.078c-1.927-.36-3.872-.675-5.825-.964a172.493,172.493,0,0,0-54.5.824c-42.733,7.47-83.79,30.87-115.607,65.886-31.848,35.05-52.6,79.863-58.422,126.181-5.917,47.045,3.875,92.869,27.57,129.032,23.975,36.59,60.457,61.06,102.719,68.9.492.091.99.17,1.484.257a165.832,165.832,0,0,0,28.669,2.486,174.389,174.389,0,0,0,30.05-2.624c26.018-4.523,51.034-14.69,74.351-30.219C392.8,384.716,430.089,324.214,438.292,259,442.608,224.708,438.618,190.791,426.751,160.913Zm-94.151,91c-8.778,50.85-31.736,97.586-61.418,125.025-11.024,10.2-22.475,17.037-33.15,19.785a42.292,42.292,0,0,1-10.562,1.4,33.719,33.719,0,0,1-8.591-1.092c-.28-.072-.562-.13-.841-.21-29-8.358-51.266-61.794-38.338-136.744,6.27-36.311,20.076-71.321,38.874-98.582,16.981-24.625,37.271-41.478,55.635-46.229a42.812,42.812,0,0,1,10.621-1.4,35.279,35.279,0,0,1,4.044.248,32.8,32.8,0,0,1,5.378,1.054l.025.008c7.287,2.1,13.978,6.855,19.884,14.122C334.314,154.112,341.379,201.1,332.6,251.917Z" class="ci-secondary" opacity="var(--ci-secondary-opacity, 0.25)"/>
  <path fill="var(--ci-primary-color, currentColor)" d="M264.2,451.056c26.018-4.523,51.034-14.69,74.351-30.219C392.8,384.716,430.089,324.214,438.292,259c4.316-34.289.326-68.206-11.541-98.084-11.734-29.548-30.876-54.635-55.342-72.54A153.779,153.779,0,0,0,308.06,61.078c-1.927-.36-3.872-.675-5.825-.964l-13.361,54a32.8,32.8,0,0,1,5.378,1.054l.025.008c7.287,2.1,13.978,6.855,19.884,14.122,20.153,24.81,27.218,71.793,18.439,122.615-8.778,50.85-31.736,97.586-61.418,125.025-11.024,10.2-22.475,17.037-33.15,19.785a42.292,42.292,0,0,1-10.562,1.4,33.719,33.719,0,0,1-8.591-1.092l-13.4,54.156a165.832,165.832,0,0,0,28.669,2.486A174.389,174.389,0,0,0,264.2,451.056Z" class="ci-primary"/>
</svg>
