<svg xmlns="http://www.w3.org/2000/svg" viewBox="0 0 512 512">
  <path fill="var(--ci-secondary-color, currentColor)" d="M448.348,102.182a140.371,140.371,0,0,0-144.7,0,92.45,92.45,0,0,1-95.3,0,140.371,140.371,0,0,0-144.7,0A93,93,0,0,1,16,115.357v48a141.151,141.151,0,0,0,72.348-20.019,92.457,92.457,0,0,1,95.3,0,140.368,140.368,0,0,0,144.7,0,92.457,92.457,0,0,1,95.3,0A141.155,141.155,0,0,0,496,163.362v-48A92.97,92.97,0,0,1,448.348,102.182Z" class="ci-secondary" opacity="var(--ci-secondary-opacity, 0.25)"/>
  <path fill="var(--ci-secondary-color, currentColor)" d="M303.652,193.563a92.45,92.45,0,0,1-95.3,0,140.371,140.371,0,0,0-144.7,0A92.975,92.975,0,0,1,16,206.737v48.005a141.161,141.161,0,0,0,72.348-20.019,92.459,92.459,0,0,1,95.3,0,140.368,140.368,0,0,0,144.7,0,92.459,92.459,0,0,1,95.3,0A141.166,141.166,0,0,0,496,254.744v-48a92.96,92.96,0,0,1-47.652-13.176A140.371,140.371,0,0,0,303.652,193.563Z" class="ci-secondary" opacity="var(--ci-secondary-opacity, 0.25)"/>
  <path fill="var(--ci-primary-color, currentColor)" d="M448.348,282.8a140.371,140.371,0,0,0-144.7,0,92.445,92.445,0,0,1-95.3,0,140.371,140.371,0,0,0-144.7,0A93,93,0,0,1,16,295.977v48a141.143,141.143,0,0,0,72.348-20.02,92.457,92.457,0,0,1,95.3,0,140.368,140.368,0,0,0,144.7,0,92.457,92.457,0,0,1,95.3,0A141.144,141.144,0,0,0,496,343.98v-48A92.99,92.99,0,0,1,448.348,282.8Z" class="ci-primary"/>
  <path fill="var(--ci-primary-color, currentColor)" d="M303.652,370.8a92.445,92.445,0,0,1-95.3,0,140.371,140.371,0,0,0-144.7,0A92.986,92.986,0,0,1,16,383.976v48a141.142,141.142,0,0,0,72.348-20.019,92.457,92.457,0,0,1,95.3,0,140.368,140.368,0,0,0,144.7,0,92.457,92.457,0,0,1,95.3,0A141.154,141.154,0,0,0,496,431.98v-48A92.96,92.96,0,0,1,448.348,370.8,140.371,140.371,0,0,0,303.652,370.8Z" class="ci-primary"/>
</svg>
