<svg xmlns="http://www.w3.org/2000/svg" viewBox="0 0 512 512">
  <circle cx="382.5" cy="392.5" r="108.5" fill="var(--ci-secondary-color, currentColor)" class="ci-secondary" opacity="var(--ci-secondary-opacity, 0.25)"/>
  <path fill="var(--ci-primary-color, currentColor)" d="M216,16A104,104,0,0,0,112,120v91.034a72.006,72.006,0,0,0,11.256,38.655l38.417,60.368-99.862,63.1A64,64,0,0,0,32,427.265V496H292.143a137.493,137.493,0,0,1-21.551-185.776l-.265-.167,38.417-60.368A72.006,72.006,0,0,0,320,211.034V120A104,104,0,0,0,216,16Z" class="ci-primary"/>
  <polygon fill="var(--ci-primary-color, currentColor)" points="401 377 401 330 369 330 369 377 321 377 321 410 369 410 369 457 401 457 401 410 449 410 449 377 401 377" class="ci-primary"/>
</svg>
