<svg xmlns="http://www.w3.org/2000/svg" viewBox="0 0 512 512">
  <path fill="var(--ci-secondary-color, currentColor)" d="M412.3,277.145c-66.263-.5-119.3-55.334-119.3-121.6V39.7q-18.428-1.552-37-1.574A439.835,439.835,0,0,0,8,114.7V165.79l35.87,51.227L228.012,480h55.476l142.52-203.541A120.375,120.375,0,0,1,412.3,277.145Z" class="ci-secondary" opacity="var(--ci-secondary-opacity, 0.25)"/>
  <polygon fill="var(--ci-primary-color, currentColor)" points="88.033 35.467 88 35.444 88 35.514 88.033 35.467" class="ci-primary"/>
  <path fill="var(--ci-primary-color, currentColor)" d="M472,104V75.527a60.319,60.319,0,0,0-60.25-60.25h-.5A60.319,60.319,0,0,0,351,75.527V104H329v53.148a84.091,84.091,0,0,0,87.111,83.944C461.442,239.446,497,201.468,497,156.107V104Zm-36-2H387V75.527a24.482,24.482,0,0,1,29.9-23.674C427.459,54.1,436,65.194,436,75.987Z" class="ci-primary"/>
  <path fill="var(--ci-primary-color, currentColor)" d="M412.3,277.145c-66.263-.5-119.3-55.334-119.3-121.6V144.018A340.973,340.973,0,0,0,256,142,336.409,336.409,0,0,0,43.87,217.017L228.012,480h55.976L426.549,276.4l-.541.058A120.375,120.375,0,0,1,412.3,277.145Z" class="ci-primary"/>
</svg>
