<svg xmlns="http://www.w3.org/2000/svg" viewBox="0 0 512 512">
  <path fill="var(--ci-secondary-color, currentColor)" d="M474.542,322.317l-31.763-26.15v.005a193.228,193.228,0,0,0,0-80.344v0l31.763-26.149a19.939,19.939,0,0,0,4.61-25.442l-32.613-56.487A19.938,19.938,0,0,0,422.2,99.029l-38.56,14.447a191.77,191.77,0,0,0-69.554-40.2l.013,0-6.763-40.574A19.938,19.938,0,0,0,287.611,16H222.389a19.938,19.938,0,0,0-19.728,16.712L195.9,73.283l.013,0a191.77,191.77,0,0,0-69.554,40.2L87.793,99.027a19.94,19.94,0,0,0-24.334,8.731L30.847,164.245a19.936,19.936,0,0,0,4.611,25.438l31.763,26.15v0a193.228,193.228,0,0,0,0,80.344v-.005L35.458,322.316a19.936,19.936,0,0,0-4.61,25.441l32.613,56.488A19.938,19.938,0,0,0,87.8,412.971l38.56-14.447a191.77,191.77,0,0,0,69.554,40.2l-.013,0,6.763,40.574A19.938,19.938,0,0,0,222.389,496h65.222a19.938,19.938,0,0,0,19.728-16.712l6.763-40.571-.013,0a191.77,191.77,0,0,0,69.554-40.2l38.564,14.449a19.939,19.939,0,0,0,24.334-8.731l32.611-56.485A19.936,19.936,0,0,0,474.542,322.317ZM255,328a72,72,0,1,1,72-72A72,72,0,0,1,255,328Z" class="ci-secondary" opacity="var(--ci-secondary-opacity, 0.25)"/>
  <path fill="var(--ci-primary-color, currentColor)" d="M255,64C148.961,64,63,149.961,63,256s85.961,192,192,192,192-85.961,192-192S361.039,64,255,64Zm0,264a72,72,0,1,1,72-72A72,72,0,0,1,255,328Z" class="ci-primary"/>
</svg>
