<svg xmlns="http://www.w3.org/2000/svg" viewBox="0 0 512 512">
  <path fill="var(--ci-secondary-color, currentColor)" d="M408,56a16,16,0,0,0-16-16H64A16,16,0,0,0,48,56V456a16,16,0,0,0,16,16H392a16,16,0,0,0,16-16V408h72V360H408V280h72V232H408V152h72V104H408Z" class="ci-secondary" opacity="var(--ci-secondary-opacity, 0.25)"/>
  <path fill="var(--ci-primary-color, currentColor)" d="M310,376H136V340.054a33.142,33.142,0,0,1,14.983-27.725l38.028-24.909L173,243.429V193.607a49.5,49.5,0,0,1,49.5-49.5h0a49.5,49.5,0,0,1,49.5,49.5v49.822l-18,43,40.676,25.942A33.143,33.143,0,0,1,310,340.315Z" class="ci-primary"/>
</svg>
