<svg xmlns="http://www.w3.org/2000/svg" viewBox="0 0 512 512">
  <circle cx="88" cy="80" r="56" fill="var(--ci-secondary-color, currentColor)" class="ci-secondary" opacity="var(--ci-secondary-opacity, 0.25)"/>
  <path fill="var(--ci-primary-color, currentColor)" d="M475.48,150.781A129.008,129.008,0,0,0,440,75.063a127.61,127.61,0,0,0-31.371-23.869Q405.487,49.5,402.267,48a129.957,129.957,0,0,0-104.818-1.78c-1.362.571-2.708,1.168-4.044,1.78-37.231,17.05-64.691,49.759-83.922,85.246Q204.4,142.633,200,152.4a276.509,276.509,0,0,0-16.478,47.573c-1.74,7.088-2.862,14.285-4.771,21.326q-2.172,8.019-4.346,16.037a320.29,320.29,0,0,1-52.041,107.7c-16.052,21.544-35.346,40.04-54.265,58.986-5.8,5.805-11.661,11.552-17.394,17.419-6.658,6.813-10.2,15.632-7.127,25.006,2.861,8.733,10.1,16.5,17.827,21.27,8.279,5.107,17.954,5.784,26.252.326,3.326-2.188,5.945-5.054,8.665-7.9l23.954-25.072c7.543-7.9,15.012-15.854,23.007-23.3a316.072,316.072,0,0,1,106.751-65.5c13.746-5.031,27.946-8.345,41.971-12.457,15.041-4.41,29.092-9.055,42.066-13.81,25.694-9.416,47.153-19.263,63.619-28.573a159.36,159.36,0,0,0,68.5-77.549A130.583,130.583,0,0,0,475.48,150.781Zm-61.27,69.94a124.636,124.636,0,0,1-11.435,13.107c-16.489,16.49-36.8,29.165-57.858,38.957-22.591,10.5-47.155,18.269-72.1,20.117-10.922.809-22.416.635-32.931-2.75-6.584-2.119-12.013-5.626-15.213-11.853-3.277-6.379-4.578-13.737-5.179-20.818a130.989,130.989,0,0,1,1.571-31.574c3.864-24.279,12.342-47.94,23.735-69.679,10.545-20.123,23.955-39.5,41.419-54.24C303.1,87.736,324.04,78.379,346.328,77.934a86.264,86.264,0,0,1,87.719,81.6C435.238,181.672,427.445,203.155,414.21,220.721Z" class="ci-primary"/>
</svg>
