<svg xmlns="http://www.w3.org/2000/svg" viewBox="0 0 512 512">
  <polygon fill="var(--ci-secondary-color, currentColor)" points="16 120 64 120 64 64 120 64 120 16 16 16 16 120" class="ci-secondary" opacity="var(--ci-secondary-opacity, 0.25)"/>
  <polygon fill="var(--ci-secondary-color, currentColor)" points="392 16 392 64 448 64 448 128 496 128 496 16 392 16" class="ci-secondary" opacity="var(--ci-secondary-opacity, 0.25)"/>
  <polygon fill="var(--ci-secondary-color, currentColor)" points="64 352 16 352 16 456 120 456 120 408 64 408 64 352" class="ci-secondary" opacity="var(--ci-secondary-opacity, 0.25)"/>
  <rect width="176" height="48" x="168" y="16" fill="var(--ci-secondary-color, currentColor)" class="ci-secondary" opacity="var(--ci-secondary-opacity, 0.25)"/>
  <polygon fill="var(--ci-secondary-color, currentColor)" points="168 408 168 456 234.452 456 221.772 408 168 408" class="ci-secondary" opacity="var(--ci-secondary-opacity, 0.25)"/>
  <rect width="48" height="136" x="16" y="168" fill="var(--ci-secondary-color, currentColor)" class="ci-secondary" opacity="var(--ci-secondary-opacity, 0.25)"/>
  <polygon fill="var(--ci-secondary-color, currentColor)" points="448 249.469 496 272 496 176 448 176 448 249.469" class="ci-secondary" opacity="var(--ci-secondary-opacity, 0.25)"/>
  <path fill="var(--ci-primary-color, currentColor)" d="M213.593,191.8a26.578,26.578,0,0,0-8.652,27.18L278.115,496h31.837L382.33,384.65,496,339.184V307.353L242,188.128C233.543,184.159,220.761,185.813,213.593,191.8Z" class="ci-primary"/>
</svg>
