<svg xmlns="http://www.w3.org/2000/svg" viewBox="0 0 512 512">
  <path fill="var(--ci-secondary-color, currentColor)" d="M96,184l.012,151.958a161.237,161.237,0,0,0,27.518,90.293A159.378,159.378,0,0,0,235,495.479V264h42V495.394A160.632,160.632,0,0,0,416,335.837V184Z" class="ci-secondary" opacity="var(--ci-secondary-opacity, 0.25)"/>
  <path fill="var(--ci-primary-color, currentColor)" d="M416,64V16H356.521L301.836,71l-.025-.015A96.553,96.553,0,0,0,255,58.96h0a96.563,96.563,0,0,0-45.824,11.491l-.025.014L155.44,16,96,16.053,96.043,64l39.359-.035L173.8,102.9A96.532,96.532,0,0,0,158,155.96V184l194-.03V155.96a96.544,96.544,0,0,0-15.159-52.085L376.484,64Z" class="ci-primary"/>
  <path fill="var(--ci-primary-color, currentColor)" d="M416,335.674c0,.109,0,.217,0,.326h80V288H416Z" class="ci-primary"/>
  <polygon fill="var(--ci-primary-color, currentColor)" points="96 184 64 177.754 64 125 16 125 16 216.286 96.003 234.005 96 184" class="ci-primary"/>
  <path fill="var(--ci-primary-color, currentColor)" d="M16,405.633V496H64V442.367l59.53-16.116a160.778,160.778,0,0,1-20.816-44.092Z" class="ci-primary"/>
  <polygon fill="var(--ci-primary-color, currentColor)" points="416 184 416 233.119 496 215.235 495.975 124 448 124.014 448.015 176.779 416 184" class="ci-primary"/>
  <path fill="var(--ci-primary-color, currentColor)" d="M388.424,426.14,448,442.344V496h48V405.656l-86.684-23.578A160.171,160.171,0,0,1,388.424,426.14Z" class="ci-primary"/>
  <path fill="var(--ci-primary-color, currentColor)" d="M96.012,335.915l0-47.915H16v48H96.013C96.013,335.972,96.012,335.944,96.012,335.915Z" class="ci-primary"/>
</svg>
