<svg xmlns="http://www.w3.org/2000/svg" viewBox="0 0 512 512">
  <path fill="var(--ci-secondary-color, currentColor)" d="M432,192c0-97.047-78.953-176-176-176S80,94.953,80,192V424h64V192a112,112,0,0,1,224,0V424h64Z" class="ci-secondary" opacity="var(--ci-secondary-opacity, 0.25)"/>
  <path fill="var(--ci-primary-color, currentColor)" d="M16,264V392a32,32,0,0,0,32,32H80V232H48A32,32,0,0,0,16,264Z" class="ci-primary"/>
  <path fill="var(--ci-primary-color, currentColor)" d="M464,232H432V424h32a32,32,0,0,0,32-32V264A32,32,0,0,0,464,232Z" class="ci-primary"/>
</svg>
