<svg xmlns="http://www.w3.org/2000/svg" viewBox="0 0 512 512">
  <rect width="448" height="448" x="32" y="32" fill="var(--ci-secondary-color, currentColor)" class="ci-secondary" opacity="var(--ci-secondary-opacity, 0.25)" rx="24"/>
  <path fill="var(--ci-primary-color, currentColor)" d="M116,259v42a99.112,99.112,0,0,1,99,99h42C257,322.252,193.748,259,116,259Z" class="ci-primary"/>
  <path fill="var(--ci-primary-color, currentColor)" d="M116,179v42c98.7,0,179,80.3,179,179h42A221,221,0,0,0,116,179Z" class="ci-primary"/>
  <path fill="var(--ci-primary-color, currentColor)" d="M328.839,187.161A299.032,299.032,0,0,0,116,99v42c142.813,0,259,116.187,259,259h42A299.03,299.03,0,0,0,328.839,187.161Z" class="ci-primary"/>
  <circle cx="128" cy="388" r="32" fill="var(--ci-primary-color, currentColor)" class="ci-primary"/>
</svg>
