<svg xmlns="http://www.w3.org/2000/svg" viewBox="0 0 512 512">
  <path fill="var(--ci-secondary-color, currentColor)" d="M472,88H400V16H336V88H176V16H112V88H40a24.028,24.028,0,0,0-24,24V448a24.028,24.028,0,0,0,24,24H472a24.028,24.028,0,0,0,24-24V112A24.028,24.028,0,0,0,472,88Z" class="ci-secondary" opacity="var(--ci-secondary-opacity, 0.25)"/>
  <rect width="64" height="64" x="104" y="192" fill="var(--ci-primary-color, currentColor)" class="ci-primary"/>
  <rect width="64" height="64" x="224" y="192" fill="var(--ci-primary-color, currentColor)" class="ci-primary"/>
  <rect width="64" height="64" x="344" y="192" fill="var(--ci-primary-color, currentColor)" class="ci-primary"/>
  <rect width="64" height="64" x="104" y="312" fill="var(--ci-primary-color, currentColor)" class="ci-primary"/>
  <rect width="64" height="64" x="224" y="312" fill="var(--ci-primary-color, currentColor)" class="ci-primary"/>
  <rect width="64" height="64" x="344" y="312" fill="var(--ci-primary-color, currentColor)" class="ci-primary"/>
</svg>
