<svg xmlns="http://www.w3.org/2000/svg" viewBox="0 0 512 512">
  <circle cx="382.5" cy="392.5" r="108.5" fill="var(--ci-secondary-color, currentColor)" class="ci-secondary" opacity="var(--ci-secondary-opacity, 0.25)"/>
  <path fill="var(--ci-primary-color, currentColor)" d="M216,16A104,104,0,0,0,112,120v91.034a72.006,72.006,0,0,0,11.256,38.655l38.417,60.368-99.862,63.1A64,64,0,0,0,32,427.265V496H292.143a137.493,137.493,0,0,1-21.551-185.776l-.265-.167,38.417-60.368A72.006,72.006,0,0,0,320,211.034V120A104,104,0,0,0,216,16Z" class="ci-primary"/>
  <polygon fill="var(--ci-primary-color, currentColor)" points="441.922 359.912 418.588 336.578 384.646 370.519 351.412 337.285 328.785 359.912 362.019 393.146 328.078 427.088 351.412 450.422 385.354 416.481 418.588 449.715 441.215 427.088 407.981 393.854 441.922 359.912" class="ci-primary"/>
</svg>
