<svg xmlns="http://www.w3.org/2000/svg" viewBox="0 0 512 512">
  <path fill="var(--ci-secondary-color, currentColor)" d="M495.618,263.6l-50.3-227.06,0-.006c-.111-.5-.25-.995-.406-1.476-.051-.159-.114-.311-.17-.467-.114-.321-.233-.639-.367-.949-.076-.176-.16-.347-.242-.519-.133-.28-.271-.556-.419-.825-.094-.173-.192-.342-.293-.51-.155-.26-.319-.514-.488-.763-.107-.159-.214-.317-.327-.471-.186-.254-.383-.5-.583-.741-.11-.132-.216-.269-.33-.4-.251-.283-.514-.554-.784-.818-.075-.073-.144-.153-.221-.225-.35-.331-.716-.644-1.093-.942-.1-.078-.207-.148-.309-.224-.283-.212-.569-.419-.865-.612-.148-.1-.3-.183-.452-.275-.262-.158-.526-.312-.8-.455-.167-.089-.338-.172-.508-.255q-.4-.193-.81-.366c-.177-.073-.354-.146-.533-.213-.283-.107-.571-.2-.861-.293-.174-.055-.347-.112-.523-.161-.326-.09-.657-.163-.989-.232-.146-.031-.288-.068-.435-.1-.479-.086-.964-.152-1.454-.194-.069-.006-.14,0-.209-.009-.416-.03-.835-.046-1.257-.042-.371,0-.744.031-1.117.06-.185.015-.369.016-.554.037a15.916,15.916,0,0,0-1.681.278h0L385.067,33.5,199.182,74.677a15.923,15.923,0,0,0-9.007,5.606c-.138.173-.268.352-.4.53a14.925,14.925,0,0,0-2.35,4.585,15.862,15.862,0,0,0-.785,5.142,16.042,16.042,0,0,0,.38,3.218L212.326,208h0l24.99,112.818A15.982,15.982,0,0,0,256.4,332.979L304,322.435l179.457-39.751a16.05,16.05,0,0,0,3.078-1.015,15.847,15.847,0,0,0,3.95-2.52c.39-.338.762-.695,1.115-1.067.049-.052.091-.11.14-.163a16.34,16.34,0,0,0,2.948-4.555c.132-.307.253-.618.366-.934a15.688,15.688,0,0,0,.564-8.827Z" class="ci-secondary" opacity="var(--ci-secondary-opacity, 0.25)"/>
  <path fill="var(--ci-primary-color, currentColor)" d="M252.922,369.361A52.006,52.006,0,0,1,202.168,328.6L175.453,208H32a16,16,0,0,0-16,16V480a16,16,0,0,0,16,16H288a16,16,0,0,0,16-16V359.307l-39.817,8.82A52.149,52.149,0,0,1,252.922,369.361ZM115.81,448H72V404.19h43.81Zm0-140.19H72V264h43.81Zm70.1,70.095H142.1V334.1h43.81ZM256,448H212.19V404.19H256Z" class="ci-primary"/>
  <rect width="42.765" height="42.765" x="400.398" y="207.121" fill="var(--ci-primary-color, currentColor)" class="ci-primary" transform="rotate(-12.48 422.324 228.748)"/>
  <rect width="42.765" height="42.765" x="318.796" y="155.114" fill="var(--ci-primary-color, currentColor)" class="ci-primary" transform="rotate(-12.49 340.169 176.495)"/>
  <rect width="42.765" height="42.765" x="237.193" y="103.107" fill="var(--ci-primary-color, currentColor)" class="ci-primary" transform="rotate(-12.49 258.566 124.485)"/>
</svg>
