<svg xmlns="http://www.w3.org/2000/svg" viewBox="0 0 512 512">
  <polygon fill="var(--ci-secondary-color, currentColor)" points="343.638 431.454 393.226 496 446.19 496 396.603 431.454 343.638 431.454" class="ci-secondary" opacity="var(--ci-secondary-opacity, 0.25)"/>
  <polygon fill="var(--ci-secondary-color, currentColor)" points="65.81 496 118.774 496 168.362 431.454 115.397 431.454 65.81 496" class="ci-secondary" opacity="var(--ci-secondary-opacity, 0.25)"/>
  <path fill="var(--ci-secondary-color, currentColor)" d="M416,16H96A48.055,48.055,0,0,0,48,64V240H464V64A48.055,48.055,0,0,0,416,16Z" class="ci-secondary" opacity="var(--ci-secondary-opacity, 0.25)"/>
  <path fill="var(--ci-primary-color, currentColor)" d="M48,272V431.454H464V272ZM168,376a32,32,0,1,1,32-32A32,32,0,0,1,168,376Zm176,0a32,32,0,1,1,32-32A32,32,0,0,1,344,376Z" class="ci-primary"/>
  <rect width="128" height="32" x="192" y="88" fill="var(--ci-primary-color, currentColor)" class="ci-primary"/>
</svg>
