<svg xmlns="http://www.w3.org/2000/svg" viewBox="0 0 512 512">
  <polygon fill="var(--ci-secondary-color, currentColor)" points="45.975 16 16 16 16 45.422 466.578 496 496 496 496 466.024 45.975 16" class="ci-secondary" opacity="var(--ci-secondary-opacity, 0.25)"/>
  <path fill="var(--ci-primary-color, currentColor)" d="M376,16H96.971l72,72H368V287.029l48,48V56A40.045,40.045,0,0,0,376,16Z" class="ci-primary"/>
  <path fill="var(--ci-primary-color, currentColor)" d="M144,368V173.422l-48-48V456a40.045,40.045,0,0,0,40,40H376a40.045,40.045,0,0,0,40-40V445.422L338.578,368Zm130,82H238V414h36Z" class="ci-primary"/>
</svg>
