<svg xmlns="http://www.w3.org/2000/svg" viewBox="0 0 512 512">
  <polygon fill="var(--ci-secondary-color, currentColor)" points="16 432 32 432 480 432 496 432 496 80 16 80 16 432" class="ci-secondary" opacity="var(--ci-secondary-opacity, 0.25)"/>
  <path fill="var(--ci-primary-color, currentColor)" d="M48,289.409v39.522A157.43,157.43,0,0,1,117.351,400H156.49a192.187,192.187,0,0,0-43.866-68.031A192.231,192.231,0,0,0,48,289.409Z" class="ci-primary"/>
  <path fill="var(--ci-primary-color, currentColor)" d="M48,183.069v39.522a192.231,192.231,0,0,0,64.624-42.56A192.187,192.187,0,0,0,156.49,112H117.351A157.43,157.43,0,0,1,48,183.069Z" class="ci-primary"/>
  <path fill="var(--ci-primary-color, currentColor)" d="M355.51,400h39.139A157.43,157.43,0,0,1,464,328.931V289.409A191.811,191.811,0,0,0,355.51,400Z" class="ci-primary"/>
  <ellipse cx="256" cy="256" fill="var(--ci-primary-color, currentColor)" class="ci-primary" rx="72" ry="80.134"/>
  <path fill="var(--ci-primary-color, currentColor)" d="M394.649,112H355.51A191.811,191.811,0,0,0,464,222.591V183.069A157.43,157.43,0,0,1,394.649,112Z" class="ci-primary"/>
</svg>
