<svg xmlns="http://www.w3.org/2000/svg" viewBox="0 0 512 512">
  <polygon fill="var(--ci-secondary-color, currentColor)" points="24 272 32 320 208 298.88 208 187.077 24 272" class="ci-secondary" opacity="var(--ci-secondary-opacity, 0.25)"/>
  <polygon fill="var(--ci-secondary-color, currentColor)" points="390.194 309.223 480 320 488 272 304 187.077 304 223.029 390.194 309.223" class="ci-secondary" opacity="var(--ci-secondary-opacity, 0.25)"/>
  <path fill="var(--ci-primary-color, currentColor)" d="M304,96a89.437,89.437,0,0,0-32.18-68.706,24.711,24.711,0,0,0-31.64,0A89.437,89.437,0,0,0,208,96v31.029l96,96Z" class="ci-primary"/>
  <polygon fill="var(--ci-primary-color, currentColor)" points="45.975 16 16 16 16 45.422 208 237.422 208 298.88 208 304 217.772 416.383 144 448 144 488 368 488 368 448 294.228 416.383 301.646 331.068 466.579 496 496 496 496 466.025 45.975 16" class="ci-primary"/>
</svg>
