<svg xmlns="http://www.w3.org/2000/svg" viewBox="0 0 512 512">
  <rect width="448" height="448" x="32" y="32" fill="var(--ci-secondary-color, currentColor)" class="ci-secondary" opacity="var(--ci-secondary-opacity, 0.25)" rx="24"/>
  <rect width="32" height="32" x="240" y="408" fill="var(--ci-primary-color, currentColor)" class="ci-primary"/>
  <path fill="var(--ci-primary-color, currentColor)" d="M88,72A16,16,0,0,0,72,88V440h32V104H440V72Z" class="ci-primary"/>
  <rect width="32" height="32" x="408" y="352" fill="var(--ci-primary-color, currentColor)" class="ci-primary"/>
  <rect width="32" height="32" x="408" y="296" fill="var(--ci-primary-color, currentColor)" class="ci-primary"/>
  <rect width="32" height="32" x="352" y="408" fill="var(--ci-primary-color, currentColor)" class="ci-primary"/>
  <rect width="32" height="32" x="408" y="240" fill="var(--ci-primary-color, currentColor)" class="ci-primary"/>
  <rect width="32" height="32" x="408" y="408" fill="var(--ci-primary-color, currentColor)" class="ci-primary"/>
  <rect width="32" height="32" x="408" y="128" fill="var(--ci-primary-color, currentColor)" class="ci-primary"/>
  <rect width="32" height="32" x="408" y="184" fill="var(--ci-primary-color, currentColor)" class="ci-primary"/>
  <rect width="32" height="32" x="296" y="408" fill="var(--ci-primary-color, currentColor)" class="ci-primary"/>
  <rect width="32" height="32" x="184" y="408" fill="var(--ci-primary-color, currentColor)" class="ci-primary"/>
  <rect width="32" height="32" x="128" y="408" fill="var(--ci-primary-color, currentColor)" class="ci-primary"/>
</svg>
