<svg xmlns="http://www.w3.org/2000/svg" viewBox="0 0 512 512">
  <polygon fill="var(--ci-secondary-color, currentColor)" points="480 202 310 202 310 32 88 32 88 252 480 252 480 202" class="ci-secondary" opacity="var(--ci-secondary-opacity, 0.25)"/>
  <polygon fill="var(--ci-primary-color, currentColor)" points="352 32 346 32 346 166 480 166 480 160 352 32" class="ci-primary"/>
  <path fill="var(--ci-primary-color, currentColor)" d="M32,480H480V288H32ZM330,324h76v24H354v29h36v30H354v41H330Zm-128,0h43.833A52.226,52.226,0,0,1,298,376.167v19.241a52.226,52.226,0,0,1-52.167,52.167H202ZM90,412V324h44.5A43.549,43.549,0,0,1,178,367.5v1A43.549,43.549,0,0,1,134.5,412H114v36H90Z" class="ci-primary"/>
  <path fill="var(--ci-primary-color, currentColor)" d="M154,368.5v-1A19.523,19.523,0,0,0,134.5,348H114v40h20.5A19.523,19.523,0,0,0,154,368.5Z" class="ci-primary"/>
  <path fill="var(--ci-primary-color, currentColor)" d="M274,395.408V376.167A28.2,28.2,0,0,0,245.833,348H226v75.575h19.833A28.2,28.2,0,0,0,274,395.408Z" class="ci-primary"/>
</svg>
