<svg xmlns="http://www.w3.org/2000/svg" viewBox="0 0 512 512">
  <path fill="var(--ci-secondary-color, currentColor)" d="M432,56H80A16,16,0,0,0,64,72v96H448V72A16,16,0,0,0,432,56Z" class="ci-secondary" opacity="var(--ci-secondary-opacity, 0.25)"/>
  <path fill="var(--ci-primary-color, currentColor)" d="M64,200V480a16,16,0,0,0,16,16H432a16,16,0,0,0,16-16V200ZM376,416H136V264H376Z" class="ci-primary"/>
  <rect width="32" height="32" x="360" y="96" fill="var(--ci-primary-color, currentColor)" class="ci-primary"/>
  <rect width="32" height="32" x="120" y="96" fill="var(--ci-primary-color, currentColor)" class="ci-primary"/>
  <rect width="32" height="32" x="184" y="96" fill="var(--ci-primary-color, currentColor)" class="ci-primary"/>
  <rect width="32" height="32" x="248" y="96" fill="var(--ci-primary-color, currentColor)" class="ci-primary"/>
</svg>
