<svg xmlns="http://www.w3.org/2000/svg" viewBox="0 0 512 512">
  <path fill="var(--ci-secondary-color, currentColor)" d="M256,16A238.857,238.857,0,0,0,130.422,51.451L460.549,381.578A238.857,238.857,0,0,0,496,256C496,123.452,388.548,16,256,16Z" class="ci-secondary" opacity="var(--ci-secondary-opacity, 0.25)"/>
  <path fill="var(--ci-secondary-color, currentColor)" d="M71.314,102.735A239.017,239.017,0,0,0,16,256c0,132.548,107.452,240,240,240a239.017,239.017,0,0,0,153.265-55.314Z" class="ci-secondary" opacity="var(--ci-secondary-opacity, 0.25)"/>
  <path fill="var(--ci-primary-color, currentColor)" d="M101.952,71.976,72.23,101.652l70.7,70.7A75.952,75.952,0,0,0,212,280h38.578l53.333,53.333A27.818,27.818,0,0,1,292,336H160v48h72v48h48V384h12a75.6,75.6,0,0,0,46.572-16.006l71.776,71.777,29.676-29.723Z" class="ci-primary"/>
  <path fill="var(--ci-primary-color, currentColor)" d="M344,176V128H280V80H232v48H212c-.991,0-1.973.037-2.954.075L256.971,176Z" class="ci-primary"/>
</svg>
