<svg xmlns="http://www.w3.org/2000/svg" viewBox="0 0 512 512">
  <path fill="var(--ci-secondary-color, currentColor)" d="M386.151,259.89,336,264l-16,96,57.947,14.487a15.935,15.935,0,0,0,12.085-1.785C409.9,360.751,472,314.25,472,200c0-85.476-59.444-138.529-80.619-154.716a16.029,16.029,0,0,0-15.363-2.291L320,64l16,80,50.151,12.11h0a73.384,73.384,0,0,1,0,103.78Z" class="ci-secondary" opacity="var(--ci-secondary-opacity, 0.25)"/>
  <path fill="var(--ci-primary-color, currentColor)" d="M304,496V429.178a36,36,0,0,0-18.511-31.466l-79.663-44.277L232,288V224a72,72,0,0,0-72-72h0a72,72,0,0,0-72,72v64l26.174,65.435L34.511,397.712A36,36,0,0,0,16,429.178V496Z" class="ci-primary"/>
</svg>
