<svg xmlns="http://www.w3.org/2000/svg" viewBox="0 0 512 512">
  <path fill="var(--ci-secondary-color, currentColor)" d="M456.017,32.022,56.037,32a24,24,0,0,0-24,24l-.021,399.98a24,24,0,0,0,24,24L455.993,480a24,24,0,0,0,24-24l.022-399.98A24,24,0,0,0,456.017,32.022Z" class="ci-secondary" opacity="var(--ci-secondary-opacity, 0.25)"/>
  <path fill="var(--ci-primary-color, currentColor)" d="M422.065,251.807c-91.715-91.743-240.415-91.743-332.13,0l-11.9,11.9a6.95,6.95,0,0,0-1.858,6.478L96.161,329l97.293-13.9,6.95-48.662h0a78.608,78.608,0,0,1,111.192,0h0l6.95,48.662L415.839,329l19.983-58.811a6.95,6.95,0,0,0-1.858-6.478Z" class="ci-primary"/>
</svg>
