<svg xmlns="http://www.w3.org/2000/svg" viewBox="0 0 512 512">
  <path fill="var(--ci-secondary-color, currentColor)" d="M456,32.011,56,31.989a24,24,0,0,0-24,24l-.021,400a24,24,0,0,0,24,24l400,.022a24,24,0,0,0,24-24l.021-400A24,24,0,0,0,456,32.011Z" class="ci-secondary" opacity="var(--ci-secondary-opacity, 0.25)"/>
  <polygon fill="var(--ci-primary-color, currentColor)" points="143.971 410.971 298.941 256 143.971 101.029 110.029 134.971 231.059 256 110.029 377.029 143.971 410.971" class="ci-primary"/>
  <polygon fill="var(--ci-primary-color, currentColor)" points="230.029 377.029 263.971 410.971 418.941 256 263.971 101.029 230.029 134.971 351.059 256 230.029 377.029" class="ci-primary"/>
</svg>
