<svg xmlns="http://www.w3.org/2000/svg" viewBox="0 0 512 512">
  <polygon fill="var(--ci-secondary-color, currentColor)" points="480 202 310 202 310 32 88 32 88 252 480 252 480 202" class="ci-secondary" opacity="var(--ci-secondary-opacity, 0.25)"/>
  <polygon fill="var(--ci-primary-color, currentColor)" points="352 32 346 32 346 166 480 166 480 160 352 32" class="ci-primary"/>
  <path fill="var(--ci-primary-color, currentColor)" d="M32,480H480V288H32ZM328,324h96v24H388V448H364V348H328ZM220,412V324h44.5A43.549,43.549,0,0,1,308,367.5v1A43.549,43.549,0,0,1,264.5,412H244v36H220Zm-116,0V324h44.5A43.549,43.549,0,0,1,192,367.5v1A43.549,43.549,0,0,1,148.5,412H128v36H104Z" class="ci-primary"/>
  <path fill="var(--ci-primary-color, currentColor)" d="M284,368.5v-1A19.523,19.523,0,0,0,264.5,348H244v40h20.5A19.523,19.523,0,0,0,284,368.5Z" class="ci-primary"/>
  <path fill="var(--ci-primary-color, currentColor)" d="M168,368.5v-1A19.523,19.523,0,0,0,148.5,348H128v40h20.5A19.523,19.523,0,0,0,168,368.5Z" class="ci-primary"/>
</svg>
