<svg xmlns="http://www.w3.org/2000/svg" viewBox="0 0 512 512">
  <path fill="var(--ci-secondary-color, currentColor)" d="M467,392H46a29,29,0,0,0-29,29v43a29,29,0,0,0,29,29H467a29,29,0,0,0,29-29V421A29,29,0,0,0,467,392Z" class="ci-secondary" opacity="var(--ci-secondary-opacity, 0.25)"/>
  <path fill="var(--ci-primary-color, currentColor)" d="M143.4,338.91a17.42,17.42,0,0,0,3.293-.314l89.86-21.279,190.2-190.2a62.923,62.923,0,0,0-88.986-88.987l-190.2,190.2-21.134,89.185-.145.674A17.436,17.436,0,0,0,143.4,338.91Z" class="ci-primary"/>
</svg>
