<svg xmlns="http://www.w3.org/2000/svg" viewBox="0 0 512 512">
  <path fill="var(--ci-secondary-color, currentColor)" d="M32,88a16,16,0,0,0-16,16V392a16,16,0,0,0,16,16H378.578l-320-320Z" class="ci-secondary" opacity="var(--ci-secondary-opacity, 0.25)"/>
  <path fill="var(--ci-secondary-color, currentColor)" d="M480,88H168.775L316.568,235.6h0L487.23,406.26A15.986,15.986,0,0,0,496,392V104A16,16,0,0,0,480,88Z" class="ci-secondary" opacity="var(--ci-secondary-opacity, 0.25)"/>
  <polygon fill="var(--ci-primary-color, currentColor)" points="255 88 264.5 88 314.441 88 386.441 16 318.559 16 256.25 78.309 193.941 16 126.059 16 198.059 88 255 88" class="ci-primary"/>
  <rect width="192" height="64" x="160" y="432" fill="var(--ci-primary-color, currentColor)" class="ci-primary"/>
  <polygon fill="var(--ci-primary-color, currentColor)" points="45.709 16 16 16 16 45.422 466.578 496 496 496 496 466.457 45.709 16" class="ci-primary"/>
</svg>
