<svg xmlns="http://www.w3.org/2000/svg" viewBox="0 0 512 512">
  <rect width="448" height="448" x="32" y="32" fill="var(--ci-secondary-color, currentColor)" class="ci-secondary" opacity="var(--ci-secondary-opacity, 0.25)"/>
  <path fill="var(--ci-primary-color, currentColor)" d="M420,67H313a24,24,0,0,0-24,24V198a24,24,0,0,0,24,24h71v20.333L290,336.6V377h39.533L444,262.533V91A24,24,0,0,0,420,67Z" class="ci-primary"/>
  <path fill="var(--ci-primary-color, currentColor)" d="M199,67H92A24,24,0,0,0,68,91V198a24,24,0,0,0,24,24h70v20.333L68,336.6V377h40.533L223,262.533V91A24,24,0,0,0,199,67Z" class="ci-primary"/>
</svg>
