<svg xmlns="http://www.w3.org/2000/svg" viewBox="0 0 512 512">
  <rect width="480" height="384" x="16" y="64" fill="var(--ci-secondary-color, currentColor)" class="ci-secondary" opacity="var(--ci-secondary-opacity, 0.25)" rx="16"/>
  <path fill="var(--ci-primary-color, currentColor)" d="M237.014,340.79c0-23.864-20.893-43.21-46.667-43.21A50.318,50.318,0,0,0,180,298.66V228.185l108-21.967v90.953a40.326,40.326,0,0,0-.319,4.989c0,23.865,20.893,43.21,46.666,43.21s46.667-19.345,46.667-43.21-20.893-43.21-46.667-43.21A50.387,50.387,0,0,0,324,260.03V135.79l-180,35.8V335.8a40.326,40.326,0,0,0-.319,4.989c0,23.864,20.893,43.21,46.666,43.21S237.014,364.654,237.014,340.79Z" class="ci-primary"/>
</svg>
