<svg xmlns="http://www.w3.org/2000/svg" viewBox="0 0 512 512">
  <path fill="var(--ci-secondary-color, currentColor)" d="M440,16H72A56.063,56.063,0,0,0,16,72V456a16,16,0,0,0,16,16H480a16,16,0,0,0,16-16V72A56.063,56.063,0,0,0,440,16Z" class="ci-secondary" opacity="var(--ci-secondary-opacity, 0.25)"/>
  <polygon fill="var(--ci-primary-color, currentColor)" points="211.965 64 235.965 136 292.035 136 268.035 64 211.965 64" class="ci-primary"/>
  <polygon fill="var(--ci-primary-color, currentColor)" points="374.701 64 318.632 64 342.632 136 398.701 136 374.701 64" class="ci-primary"/>
  <polygon fill="var(--ci-primary-color, currentColor)" points="105.299 64 129.299 136 185.368 136 161.368 64 105.299 64" class="ci-primary"/>
</svg>
