<svg xmlns="http://www.w3.org/2000/svg" viewBox="0 0 512 512">
  <polygon fill="var(--ci-secondary-color, currentColor)" points="64 112 16 112 16 496 496 496 496 448 64 448 64 112" class="ci-secondary" opacity="var(--ci-secondary-opacity, 0.25)"/>
  <path fill="var(--ci-primary-color, currentColor)" d="M272,326.059,216.722,270.78,103.783,374.309l32.434,35.382,79.061-72.471L272,393.941l45.91-45.909a226.332,226.332,0,0,0-22.286-45.6Z" class="ci-primary"/>
  <path fill="var(--ci-primary-color, currentColor)" d="M496,136H346.885l-4.638,4.638,57.586,57.587-40.681,40.681A307.88,307.88,0,0,0,326.96,201.04,302.01,302.01,0,0,0,112,112v43.129A268.964,268.964,0,0,1,372.872,416H416a302.754,302.754,0,0,0-31.331-134.727l49.106-49.106,56.9,56.9L496,283.744Z" class="ci-primary"/>
</svg>
