<svg xmlns="http://www.w3.org/2000/svg" viewBox="0 0 512 512">
  <circle cx="96" cy="344" r="24" fill="var(--ci-secondary-color, currentColor)" class="ci-secondary" opacity="var(--ci-secondary-opacity, 0.25)"/>
  <circle cx="152" cy="408" r="24" fill="var(--ci-secondary-color, currentColor)" class="ci-secondary" opacity="var(--ci-secondary-opacity, 0.25)"/>
  <circle cx="256" cy="408" r="24" fill="var(--ci-secondary-color, currentColor)" class="ci-secondary" opacity="var(--ci-secondary-opacity, 0.25)"/>
  <circle cx="360" cy="408" r="24" fill="var(--ci-secondary-color, currentColor)" class="ci-secondary" opacity="var(--ci-secondary-opacity, 0.25)"/>
  <circle cx="202.667" cy="344" r="24" fill="var(--ci-secondary-color, currentColor)" class="ci-secondary" opacity="var(--ci-secondary-opacity, 0.25)"/>
  <circle cx="202.667" cy="472" r="24" fill="var(--ci-secondary-color, currentColor)" class="ci-secondary" opacity="var(--ci-secondary-opacity, 0.25)"/>
  <circle cx="309.333" cy="344" r="24" fill="var(--ci-secondary-color, currentColor)" class="ci-secondary" opacity="var(--ci-secondary-opacity, 0.25)"/>
  <circle cx="309.333" cy="472" r="24" fill="var(--ci-secondary-color, currentColor)" class="ci-secondary" opacity="var(--ci-secondary-opacity, 0.25)"/>
  <circle cx="416" cy="344" r="24" fill="var(--ci-secondary-color, currentColor)" class="ci-secondary" opacity="var(--ci-secondary-opacity, 0.25)"/>
  <path fill="var(--ci-primary-color, currentColor)" d="M383.759,152.238a127.995,127.995,0,0,0-255.534.251C75.935,156.1,32,196.605,32,249.619h0A97.763,97.763,0,0,0,43.85,296H469.626A107.8,107.8,0,0,0,480,249.619h0C480,194.434,438.753,152.814,383.759,152.238Z" class="ci-primary"/>
</svg>
