<svg xmlns="http://www.w3.org/2000/svg" viewBox="0 0 512 512">
  <circle cx="328" cy="312" r="168" fill="var(--ci-secondary-color, currentColor)" class="ci-secondary" opacity="var(--ci-secondary-opacity, 0.25)"/>
  <path fill="var(--ci-primary-color, currentColor)" d="M71.326,166h81.348l9.708-76.854A50.782,50.782,0,0,0,112,32h0A50.782,50.782,0,0,0,61.618,89.146Z" class="ci-primary"/>
  <path fill="var(--ci-primary-color, currentColor)" d="M128,312a199.433,199.433,0,0,1,31.722-108.146c-.265-.62-.545-1.235-.814-1.854H65.092A307.081,307.081,0,0,0,53.625,416.192L73.6,480h76.8l15.787-50.431A199.292,199.292,0,0,1,128,312Z" class="ci-primary"/>
  <circle cx="328" cy="296" r="24" fill="var(--ci-primary-color, currentColor)" class="ci-primary"/>
  <circle cx="336" cy="216" r="24" fill="var(--ci-primary-color, currentColor)" class="ci-primary"/>
  <circle cx="408" cy="264" r="24" fill="var(--ci-primary-color, currentColor)" class="ci-primary"/>
</svg>
