<svg xmlns="http://www.w3.org/2000/svg" viewBox="0 0 512 512">
  <path fill="var(--ci-secondary-color, currentColor)" d="M472,128H16V449.565C16,461.956,26.745,472,40,472H472c13.255,0,24-10.044,24-22.435V150.435C496,138.044,485.255,128,472,128Z" class="ci-secondary" opacity="var(--ci-secondary-opacity, 0.25)"/>
  <polygon fill="var(--ci-primary-color, currentColor)" points="277 283 277 216 235 216 235 283 168 283 168 325 235 325 235 392 277 392 277 325 344 325 344 283 277 283" class="ci-primary"/>
  <path fill="var(--ci-primary-color, currentColor)" d="M237.9,54.154A23,23,0,0,0,216.667,40H39A23,23,0,0,0,16,63v65H268.667Z" class="ci-primary"/>
</svg>
