<svg xmlns="http://www.w3.org/2000/svg" viewBox="0 0 512 512">
  <polygon fill="var(--ci-secondary-color, currentColor)" points="480 202 310 202 310 32 88 32 88 252 480 252 480 202" class="ci-secondary" opacity="var(--ci-secondary-opacity, 0.25)"/>
  <polygon fill="var(--ci-primary-color, currentColor)" points="352 32 346 32 346 166 480 166 480 160 352 32" class="ci-primary"/>
  <path fill="var(--ci-primary-color, currentColor)" d="M32,480H480V288H32ZM376,327h40v24H376a12,12,0,0,0,0,24h16a36,36,0,0,1,0,72H344V423h48a12,12,0,0,0,0-24H376a36,36,0,0,1,0-72Zm-134-4h24V423h52v24H242Zm-119.84,0,28.374,41.727L178.908,323H207.93l-42.885,63.067,41.752,61.4H177.774l-27.24-40.06-27.241,40.06H94.271l41.752-61.4L93.137,323Z" class="ci-primary"/>
</svg>
