<svg xmlns="http://www.w3.org/2000/svg" viewBox="0 0 512 512">
  <path fill="var(--ci-secondary-color, currentColor)" d="M322.923,123.03c.045-1,.077-2.014.077-3.03a67.535,67.535,0,1,0-.077,3.03Z" class="ci-secondary" opacity="var(--ci-secondary-opacity, 0.25)"/>
  <path fill="var(--ci-secondary-color, currentColor)" d="M92.529,115,20,268.362v28.431l5.549,6.031A118.445,118.445,0,0,0,112.512,341h.4a118.448,118.448,0,0,0,87.1-38.766l5.991-6.6V268.362L133.471,115Z" class="ci-secondary" opacity="var(--ci-secondary-opacity, 0.25)"/>
  <path fill="var(--ci-secondary-color, currentColor)" d="M420.471,225H379.529L307,378.362v28.431l5.549,6.031A118.445,118.445,0,0,0,399.512,451h.4a118.448,118.448,0,0,0,87.1-38.766l5.991-6.6V378.362Z" class="ci-secondary" opacity="var(--ci-secondary-opacity, 0.25)"/>
  <circle cx="256" cy="120" r="30" fill="var(--ci-primary-color, currentColor)" class="ci-primary"/>
  <path fill="var(--ci-primary-color, currentColor)" d="M416,160.98l-93.077-37.95a66.687,66.687,0,0,1-14.962,39.257L416,206.338Z" class="ci-primary"/>
  <path fill="var(--ci-primary-color, currentColor)" d="M206.684,74.658,96,26.774V72.536l93.374,40.395A66.743,66.743,0,0,1,206.684,74.658Z" class="ci-primary"/>
  <path fill="var(--ci-primary-color, currentColor)" d="M235,183.624V433H136v42H277V183.624a67,67,0,0,1-42,0Z" class="ci-primary"/>
  <path fill="var(--ci-primary-color, currentColor)" d="M200.009,302.233l5.991-6.6V268.362L188.331,231H37.669L20,268.362v28.431l5.549,6.031A118.445,118.445,0,0,0,112.512,341h.4A118.448,118.448,0,0,0,200.009,302.233Z" class="ci-primary"/>
  <path fill="var(--ci-primary-color, currentColor)" d="M475.331,341H324.669L307,378.362v28.431l5.549,6.031A118.445,118.445,0,0,0,399.512,451h.4a118.448,118.448,0,0,0,87.1-38.766l5.991-6.6V378.362Z" class="ci-primary"/>
</svg>
