<svg xmlns="http://www.w3.org/2000/svg" viewBox="0 0 512 512">
  <polygon fill="var(--ci-secondary-color, currentColor)" points="188.12 224.971 222.062 191.029 166.351 135.319 222.062 79.609 188.12 45.668 132.41 101.378 76.7 45.668 42.758 79.609 98.469 135.319 42.758 191.029 76.7 224.971 132.41 169.261 188.12 224.971" class="ci-secondary" opacity="var(--ci-secondary-opacity, 0.25)"/>
  <path fill="var(--ci-primary-color, currentColor)" d="M451.663,116.439,377.7,80,299.4,184.4l39.15,52.2h0A104.4,104.4,0,0,1,234.153,341h0l-52.2-39.15-104.4,78.3,36.439,73.962a9.227,9.227,0,0,0,7.825,4.337h22.344C316.386,458.445,456,318.831,456,146.609V124.264A9.227,9.227,0,0,0,451.663,116.439Z" class="ci-primary"/>
</svg>
