<svg xmlns="http://www.w3.org/2000/svg" viewBox="0 0 512 512">
  <path fill="var(--ci-secondary-color, currentColor)" d="M408,80H160.765l155.8,155.6h0l8,8A48.057,48.057,0,0,1,368,216h56V96A16,16,0,0,0,408,80Z" class="ci-secondary" opacity="var(--ci-secondary-opacity, 0.25)"/>
  <path fill="var(--ci-secondary-color, currentColor)" d="M32,80A16,16,0,0,0,16,96V368a16,16,0,0,0,16,16H320V349.422L50.578,80Z" class="ci-secondary" opacity="var(--ci-secondary-opacity, 0.25)"/>
  <path fill="var(--ci-primary-color, currentColor)" d="M480,248H368a16,16,0,0,0-16,16v7.029l72,72,72,72V264A16,16,0,0,0,480,248Z" class="ci-primary"/>
  <polygon fill="var(--ci-primary-color, currentColor)" points="249 384 207 384 207 424.122 152 430.857 152 472 304 472 304 430.857 249 424.122 249 384" class="ci-primary"/>
  <path fill="var(--ci-primary-color, currentColor)" d="M412.829,383.255,352,322.4,336,306.4l-16-16.006L109.686,80,45.709,16H16V45.422L50.578,80,320,349.422l16,16,16,16V456a16,16,0,0,0,16,16h74.578l16,16,8,8H496V466.457l-2.271-2.272Z" class="ci-primary"/>
</svg>
