<svg xmlns="http://www.w3.org/2000/svg" viewBox="0 0 512 512">
  <polygon fill="var(--ci-secondary-color, currentColor)" points="466.301 16 394.301 88 362.301 120 304 178.301 208 274.301 16 466.301 16 496 45.699 496 304 237.699 496 45.699 496 16 466.301 16" class="ci-secondary" opacity="var(--ci-secondary-opacity, 0.25)"/>
  <polygon fill="var(--ci-primary-color, currentColor)" points="304 282.954 208 378.954 208 400 168 400 168 432 344 432 344 400 304 400 304 282.954" class="ci-primary"/>
  <polygon fill="var(--ci-primary-color, currentColor)" points="72 88 72 168 136 168 136 120 208 120 208 274.301 304 178.301 304 120 362.301 120 394.301 88 72 88" class="ci-primary"/>
</svg>
