<svg xmlns="http://www.w3.org/2000/svg" viewBox="0 0 512 512">
  <path fill="var(--ci-secondary-color, currentColor)" d="M421,307l-12.606,12.606q-3.941,4.421-8.144,8.644t-8.644,8.144L379,349h72V467H61V349h72l-12.606-12.606q-4.421-3.941-8.644-8.144t-8.144-8.644L91,307H19V509H493V307Z" class="ci-secondary" opacity="var(--ci-secondary-opacity, 0.25)"/>
  <path fill="var(--ci-secondary-color, currentColor)" d="M89.936,209.585q.955,6.256,2.366,12.356.939,4.064,2.071,8.051,1.7,5.981,3.821,11.772,1.413,3.859,3.008,7.629t3.364,7.442a168.032,168.032,0,0,0,16.809,27.682q1.21,1.617,2.457,3.2a167.511,167.511,0,0,0,123.522,64.06q4.3.219,8.646.219t8.646-.219a167.511,167.511,0,0,0,123.522-64.06q1.247-1.587,2.457-3.2a168.032,168.032,0,0,0,16.809-27.682q1.768-3.672,3.364-7.442t3.008-7.629q2.12-5.79,3.821-11.772,1.132-3.987,2.071-8.051,1.407-6.1,2.366-12.356.637-4.172,1.069-8.408a170.589,170.589,0,0,0,0-34.354q-.645-6.354-1.757-12.562-.369-2.068-.789-4.119-1.259-6.151-2.96-12.134t-3.821-11.772a167.654,167.654,0,0,0-23.181-42.753q-1.211-1.617-2.457-3.2a167.511,167.511,0,0,0-123.522-64.06Q260.35,16,256,16t-8.646.219a167.511,167.511,0,0,0-123.522,64.06q-1.246,1.587-2.457,3.2a167.654,167.654,0,0,0-23.181,42.753q-2.12,5.79-3.821,11.772t-2.96,12.134q-.42,2.05-.789,4.119-1.108,6.206-1.757,12.562a170.589,170.589,0,0,0,0,34.354Q89.3,205.413,89.936,209.585Z" class="ci-secondary" opacity="var(--ci-secondary-opacity, 0.25)"/>
  <polygon fill="var(--ci-primary-color, currentColor)" points="276.367 387 235.633 387 112 387 112 429 400 429 400 387 276.367 387" class="ci-primary"/>
  <path fill="var(--ci-primary-color, currentColor)" d="M230.846,206h51.876a16.285,16.285,0,0,1,16.327,14.141A16.019,16.019,0,0,1,283.154,238H197v36h39v38h40V274h6.314c27.743,0,51.252-21.4,52.761-49.106A52.056,52.056,0,0,0,283.154,170H231.278a16.285,16.285,0,0,1-16.327-14.141A16.019,16.019,0,0,1,230.846,138H317V102H276V64H236v38h-4.314c-27.743,0-51.252,21.4-52.761,49.106A52.056,52.056,0,0,0,230.846,206Z" class="ci-primary"/>
</svg>
