<svg xmlns="http://www.w3.org/2000/svg" viewBox="0 0 512 512">
  <path fill="var(--ci-secondary-color, currentColor)" d="M430.223,280l-37.777-85A32,32,0,0,0,363.2,176H148.8a32,32,0,0,0-29.242,19L81.777,280Z" class="ci-secondary" opacity="var(--ci-secondary-opacity, 0.25)"/>
  <polygon fill="var(--ci-primary-color, currentColor)" points="256 22.138 16 118.5 16 170.225 256 73.862 496 170.225 496 118.5 256 22.138" class="ci-primary"/>
  <path fill="var(--ci-primary-color, currentColor)" d="M448,280H64a16,16,0,0,0-16,16V424a16,16,0,0,0,16,16H80v49a8,8,0,0,0,8,8h56a8,8,0,0,0,8-8V440H360v49a8,8,0,0,0,8,8h56a8,8,0,0,0,8-8V440h16a16,16,0,0,0,16-16V296A16,16,0,0,0,448,280ZM176,377H96V345h80Zm240,0H336V345h80Z" class="ci-primary"/>
</svg>
