<svg xmlns="http://www.w3.org/2000/svg" viewBox="0 0 512 512">
  <path fill="var(--ci-secondary-color, currentColor)" d="M360,195V120A104,104,0,0,0,256,16h0A104,104,0,0,0,152,120v75Z" class="ci-secondary" opacity="var(--ci-secondary-opacity, 0.25)"/>
  <path fill="var(--ci-primary-color, currentColor)" d="M410.189,373.162l-99.862-63.1,38.417-60.368A72.006,72.006,0,0,0,360,211.034V146.7a170.519,170.519,0,0,1-39.539-27.871C263.208,157.533,197.847,167.265,152,147.905v63.129a72.006,72.006,0,0,0,11.256,38.655l38.417,60.368-99.862,63.1A64,64,0,0,0,72,427.265V496H440V427.265A64,64,0,0,0,410.189,373.162Z" class="ci-primary"/>
</svg>
