<svg xmlns="http://www.w3.org/2000/svg" viewBox="0 0 512 512">
  <polygon fill="var(--ci-secondary-color, currentColor)" points="424 453.422 418.578 448 274 448 238 448 88 448 16 448 16 496 448 496 466.578 496 424 453.422" class="ci-secondary" opacity="var(--ci-secondary-opacity, 0.25)"/>
  <path fill="var(--ci-primary-color, currentColor)" d="M316.568,235.6,424,343.029V32H112.7L316.567,235.6ZM328,96h40v40H328Zm0,96h40v40H328Zm-52-56H236V96h40Z" class="ci-primary"/>
  <path fill="var(--ci-primary-color, currentColor)" d="M477.55,448,424,394.43,357.594,328,328,298.4,88,58.306,45.709,16H16V45.422l72,72V448H238V384h36v64H418.578L424,453.422,466.578,496H496V466.457ZM184,328H144V288h40Zm0-96H144V192h18.578L184,213.422Zm92,96H236V288h22.578L276,305.422Z" class="ci-primary"/>
</svg>
