<svg xmlns="http://www.w3.org/2000/svg" viewBox="0 0 512 512">
  <path fill="var(--ci-secondary-color, currentColor)" d="M91.5,171,18.851,324.362v28.431l5.558,6.031A118.721,118.721,0,0,0,111.511,397h.4a118.721,118.721,0,0,0,87.236-38.766l6-6.6V324.362L132.5,171Z" class="ci-secondary" opacity="var(--ci-secondary-opacity, 0.25)"/>
  <path fill="var(--ci-secondary-color, currentColor)" d="M420.5,171H379.5L306.851,324.362v28.431l5.558,6.031A118.721,118.721,0,0,0,399.511,397h.4a118.721,118.721,0,0,0,87.236-38.766l6-6.6V324.362Z" class="ci-secondary" opacity="var(--ci-secondary-opacity, 0.25)"/>
  <circle cx="256" cy="120" r="67" fill="var(--ci-secondary-color, currentColor)" class="ci-secondary" opacity="var(--ci-secondary-opacity, 0.25)"/>
  <path fill="var(--ci-primary-color, currentColor)" d="M199.148,358.233l6-6.6V324.362L187.452,287H36.548l-17.7,37.362v28.431l5.558,6.031A118.721,118.721,0,0,0,111.511,397h.4A118.721,118.721,0,0,0,199.148,358.233Z" class="ci-primary"/>
  <path fill="var(--ci-primary-color, currentColor)" d="M475.452,287h-150.9l-17.7,37.362v28.431l5.558,6.031A118.721,118.721,0,0,0,399.511,397h.4a118.721,118.721,0,0,0,87.236-38.766l6-6.6V324.362Z" class="ci-primary"/>
  <path fill="var(--ci-primary-color, currentColor)" d="M277,183.624a67,67,0,0,1-42,0V435H128v42H384V435H277Z" class="ci-primary"/>
  <path fill="var(--ci-primary-color, currentColor)" d="M189,120a66.9,66.9,0,0,1,3.376-21H96v42h96.376A66.9,66.9,0,0,1,189,120Z" class="ci-primary"/>
  <path fill="var(--ci-primary-color, currentColor)" d="M416,141V99H319.624a67,67,0,0,1,0,42Z" class="ci-primary"/>
  <circle cx="256" cy="120" r="30" fill="var(--ci-primary-color, currentColor)" class="ci-primary"/>
</svg>
