<svg xmlns="http://www.w3.org/2000/svg" viewBox="0 0 512 512">
  <rect width="240" height="48" x="256" y="48" fill="var(--ci-secondary-color, currentColor)" class="ci-secondary" opacity="var(--ci-secondary-opacity, 0.25)"/>
  <rect width="240" height="48" x="256" y="154.667" fill="var(--ci-secondary-color, currentColor)" class="ci-secondary" opacity="var(--ci-secondary-opacity, 0.25)"/>
  <rect width="240" height="48" x="256" y="261.333" fill="var(--ci-secondary-color, currentColor)" class="ci-secondary" opacity="var(--ci-secondary-opacity, 0.25)"/>
  <rect width="168" height="48" x="328" y="368" fill="var(--ci-secondary-color, currentColor)" class="ci-secondary" opacity="var(--ci-secondary-opacity, 0.25)"/>
  <path fill="var(--ci-primary-color, currentColor)" d="M159.2,367.861c-23.8-1.451-46.384-14.6-64-37.4C75.08,304.424,64,269.456,64,232s11.08-72.424,31.2-98.464C113.9,109.331,138.2,96,163.612,96H216V48H163.612c-40.618,0-78.4,19.955-106.4,56.19C30.636,138.59,16,183.98,16,232s14.636,93.41,41.213,127.81c26.977,34.918,63.048,54.71,101.983,56.1v68.305L299.6,392.977,159.2,299.077Z" class="ci-primary"/>
</svg>
