<svg xmlns="http://www.w3.org/2000/svg" viewBox="0 0 512 512">
  <circle cx="256" cy="256" r="240" fill="var(--ci-secondary-color, currentColor)" class="ci-secondary" opacity="var(--ci-secondary-opacity, 0.25)"/>
  <path fill="var(--ci-primary-color, currentColor)" d="M494.615,230.181c-34.381-18.067-64.841-19.751-92.657-5.2-27.148,14.2-46.789,41.857-65.781,68.606-15.682,22.085-31.9,44.921-51.31,58.731-20.024,14.248-41.889,17.416-68.807,9.979-22.1-6.109-41.23-24.829-41.377-24.975-.188-.187-18.882-19.329-24.976-41.377-15.437-55.858,16.132-84.625,69.96-125.363C246.682,150.133,274.615,128.991,289,100.9c13.055-25.507,13.366-52.712.839-82.51A242.016,242.016,0,0,0,256,16c-4.837,0-9.636.16-14.4.442,34.3,55.2,8.375,78.527-47.277,120.646-25.033,18.945-50.919,38.536-68.83,64.558-21.806,31.681-27.128,66.185-16.266,105.484,9.111,32.963,34.674,58.8,35.759,59.887s26.923,26.647,59.887,35.758a142.473,142.473,0,0,0,38,5.5c24.008,0,45.932-7.215,66.341-21.735,25.2-17.928,43.505-43.708,61.207-68.64,16.863-23.749,32.791-46.181,51-55.7,11.344-5.933,30.733-10.969,67.974,13.69l5.461,3.577Q495.981,267.881,496,256A242.756,242.756,0,0,0,494.615,230.181Z" class="ci-primary"/>
</svg>
