<svg xmlns="http://www.w3.org/2000/svg" viewBox="0 0 512 512">
  <polygon fill="var(--ci-secondary-color, currentColor)" points="328 496 448 496 466.578 496 328 357.422 328 496" class="ci-secondary" opacity="var(--ci-secondary-opacity, 0.25)"/>
  <polygon fill="var(--ci-secondary-color, currentColor)" points="328 160 328 247.029 394 313.029 412.971 332 496 415.029 496 160 328 160" class="ci-secondary" opacity="var(--ci-secondary-opacity, 0.25)"/>
  <polygon fill="var(--ci-secondary-color, currentColor)" points="96.68 16 296.27 215.326 296.27 16 96.68 16" class="ci-secondary" opacity="var(--ci-secondary-opacity, 0.25)"/>
  <path fill="var(--ci-primary-color, currentColor)" d="M430,400.432,405.577,376,328,298.4l-32-32.012L45.709,16H16V496H138V424h36v72H296V325.422l32,32L466.578,496H496V466.457ZM132,316H96V280h36Zm0-84H96V196h36Zm84,84H180V280h36Z" class="ci-primary"/>
  <rect width="36" height="36" x="394" y="216" fill="var(--ci-primary-color, currentColor)" class="ci-primary"/>
  <polygon fill="var(--ci-primary-color, currentColor)" points="430 332 430 296 394 296 394 313.029 412.971 332 430 332" class="ci-primary"/>
</svg>
