<svg xmlns="http://www.w3.org/2000/svg" viewBox="0 0 512 512">
  <polygon fill="var(--ci-secondary-color, currentColor)" points="133.425 72.709 16 72.709 16 208.709 205.425 208.709 133.425 72.709" class="ci-secondary" opacity="var(--ci-secondary-opacity, 0.25)"/>
  <path fill="var(--ci-secondary-color, currentColor)" d="M421.255,208.709h39.851c-40.115-57.288-116.582-136-233.768-136h-57.7l72,136Z" class="ci-secondary" opacity="var(--ci-secondary-opacity, 0.25)"/>
  <rect width="480" height="42" x="16" y="419" fill="var(--ci-secondary-color, currentColor)" class="ci-secondary" opacity="var(--ci-secondary-opacity, 0.25)"/>
  <path fill="var(--ci-primary-color, currentColor)" d="M489.162,254.941c-2.043-3.971-4.621-8.78-7.739-14.232H16v81.469a69.558,69.558,0,0,1,9.622-9.469,68.687,68.687,0,0,1,86.5,0,69.366,69.366,0,0,1,16.313,19.034,69.369,69.369,0,0,1,16.314-19.034,68.685,68.685,0,0,1,86.5,0,69.369,69.369,0,0,1,16.314,19.034,69.366,69.366,0,0,1,16.313-19.034,68.879,68.879,0,0,1,108.653,32h61.9a61.568,61.568,0,0,0,54.728-89.768Z" class="ci-primary"/>
  <circle cx="68.873" cy="366.255" r="36.873" fill="var(--ci-primary-color, currentColor)" class="ci-primary"/>
  <circle cx="188.623" cy="366.255" r="36.873" fill="var(--ci-primary-color, currentColor)" class="ci-primary"/>
  <circle cx="308.373" cy="366.255" r="36.873" fill="var(--ci-primary-color, currentColor)" class="ci-primary"/>
</svg>
