<svg xmlns="http://www.w3.org/2000/svg" viewBox="0 0 512 512">
  <path fill="var(--ci-secondary-color, currentColor)" d="M480,88H32a16,16,0,0,0-16,16V408a16,16,0,0,0,16,16H480a16,16,0,0,0,16-16V104A16,16,0,0,0,480,88Z" class="ci-secondary" opacity="var(--ci-secondary-opacity, 0.25)"/>
  <rect width="240" height="72" x="136" y="424" fill="var(--ci-primary-color, currentColor)" class="ci-primary"/>
  <polygon fill="var(--ci-primary-color, currentColor)" points="319.387 88 386.868 16 321.082 16 256.02 85.418 191.23 16 125.57 16 192.77 88 319.387 88" class="ci-primary"/>
  <rect width="224" height="36" x="180" y="168" fill="var(--ci-primary-color, currentColor)" class="ci-primary"/>
  <rect width="224" height="36" x="180" y="248" fill="var(--ci-primary-color, currentColor)" class="ci-primary"/>
  <rect width="36" height="36" x="104" y="324" fill="var(--ci-primary-color, currentColor)" class="ci-primary"/>
  <rect width="224" height="36" x="180" y="324" fill="var(--ci-primary-color, currentColor)" class="ci-primary"/>
  <rect width="36" height="36" x="104" y="168" fill="var(--ci-primary-color, currentColor)" class="ci-primary"/>
  <rect width="36" height="36" x="104" y="248" fill="var(--ci-primary-color, currentColor)" class="ci-primary"/>
</svg>
