<svg xmlns="http://www.w3.org/2000/svg" viewBox="0 0 512 512">
  <polygon fill="var(--ci-secondary-color, currentColor)" points="286 202 286 32 64 32 64 480 456 480 456 202 286 202" class="ci-secondary" opacity="var(--ci-secondary-opacity, 0.25)"/>
  <polygon fill="var(--ci-primary-color, currentColor)" points="328 32 322 32 322 166 456 166 456 160 328 32" class="ci-primary"/>
  <polygon fill="var(--ci-primary-color, currentColor)" points="174.185 285.449 110.544 349.088 174.185 412.728 199.64 387.272 161.456 349.088 199.64 310.905 174.185 285.449" class="ci-primary"/>
  <polygon fill="var(--ci-primary-color, currentColor)" points="307.272 308.728 345.456 346.912 307.272 385.095 332.728 410.551 396.368 346.912 332.728 283.272 307.272 308.728" class="ci-primary"/>
  <polygon fill="var(--ci-primary-color, currentColor)" points="204.012 434.308 238.164 445.692 298.728 264 260.781 264 204.012 434.308" class="ci-primary"/>
</svg>
