<svg xmlns="http://www.w3.org/2000/svg" viewBox="0 0 512 512">
  <rect width="448" height="448" x="32" y="32" fill="var(--ci-secondary-color, currentColor)" class="ci-secondary" opacity="var(--ci-secondary-opacity, 0.25)" rx="24"/>
  <rect width="32" height="32" x="296" y="72" fill="var(--ci-primary-color, currentColor)" class="ci-primary"/>
  <rect width="32" height="32" x="296" y="240" fill="var(--ci-primary-color, currentColor)" class="ci-primary"/>
  <polygon fill="var(--ci-primary-color, currentColor)" points="240 88 240 104 272 104 272 88 272 72 240 72 240 88" class="ci-primary"/>
  <rect width="32" height="32" x="296" y="408" fill="var(--ci-primary-color, currentColor)" class="ci-primary"/>
  <rect width="32" height="32" x="240" y="240" fill="var(--ci-primary-color, currentColor)" class="ci-primary"/>
  <rect width="32" height="32" x="240" y="184" fill="var(--ci-primary-color, currentColor)" class="ci-primary"/>
  <rect width="32" height="32" x="240" y="128" fill="var(--ci-primary-color, currentColor)" class="ci-primary"/>
  <rect width="32" height="32" x="240" y="296" fill="var(--ci-primary-color, currentColor)" class="ci-primary"/>
  <rect width="32" height="32" x="408" y="408" fill="var(--ci-primary-color, currentColor)" class="ci-primary"/>
  <rect width="32" height="32" x="408" y="352" fill="var(--ci-primary-color, currentColor)" class="ci-primary"/>
  <rect width="32" height="32" x="352" y="408" fill="var(--ci-primary-color, currentColor)" class="ci-primary"/>
  <rect width="32" height="32" x="408" y="296" fill="var(--ci-primary-color, currentColor)" class="ci-primary"/>
  <rect width="32" height="32" x="352" y="240" fill="var(--ci-primary-color, currentColor)" class="ci-primary"/>
  <rect width="32" height="32" x="352" y="72" fill="var(--ci-primary-color, currentColor)" class="ci-primary"/>
  <polygon fill="var(--ci-primary-color, currentColor)" points="408 240 408 272 424 272 440 272 440 240 424 240 408 240" class="ci-primary"/>
  <rect width="32" height="32" x="240" y="352" fill="var(--ci-primary-color, currentColor)" class="ci-primary"/>
  <rect width="32" height="32" x="72" y="184" fill="var(--ci-primary-color, currentColor)" class="ci-primary"/>
  <rect width="32" height="32" x="72" y="72" fill="var(--ci-primary-color, currentColor)" class="ci-primary"/>
  <rect width="32" height="32" x="72" y="128" fill="var(--ci-primary-color, currentColor)" class="ci-primary"/>
  <polygon fill="var(--ci-primary-color, currentColor)" points="72 240 72 272 88 272 104 272 104 240 88 240 72 240" class="ci-primary"/>
  <rect width="32" height="32" x="72" y="408" fill="var(--ci-primary-color, currentColor)" class="ci-primary"/>
  <rect width="32" height="32" x="72" y="296" fill="var(--ci-primary-color, currentColor)" class="ci-primary"/>
  <rect width="32" height="32" x="72" y="352" fill="var(--ci-primary-color, currentColor)" class="ci-primary"/>
  <polygon fill="var(--ci-primary-color, currentColor)" points="240 424 240 440 272 440 272 424 272 408 240 408 240 424" class="ci-primary"/>
  <rect width="32" height="32" x="184" y="72" fill="var(--ci-primary-color, currentColor)" class="ci-primary"/>
  <rect width="32" height="32" x="408" y="184" fill="var(--ci-primary-color, currentColor)" class="ci-primary"/>
  <rect width="32" height="32" x="184" y="240" fill="var(--ci-primary-color, currentColor)" class="ci-primary"/>
  <rect width="32" height="32" x="184" y="408" fill="var(--ci-primary-color, currentColor)" class="ci-primary"/>
  <rect width="32" height="32" x="128" y="240" fill="var(--ci-primary-color, currentColor)" class="ci-primary"/>
  <rect width="32" height="32" x="128" y="408" fill="var(--ci-primary-color, currentColor)" class="ci-primary"/>
  <rect width="32" height="32" x="128" y="72" fill="var(--ci-primary-color, currentColor)" class="ci-primary"/>
  <rect width="32" height="32" x="408" y="128" fill="var(--ci-primary-color, currentColor)" class="ci-primary"/>
  <rect width="32" height="32" x="408" y="72" fill="var(--ci-primary-color, currentColor)" class="ci-primary"/>
</svg>
