<svg xmlns="http://www.w3.org/2000/svg" viewBox="0 0 512 512">
  <polygon fill="var(--ci-secondary-color, currentColor)" points="240 312 240 264 172.23 264 280.506 161.423 247.494 126.577 136 232.203 136 168 88 168 88 312 240 312" class="ci-secondary" opacity="var(--ci-secondary-opacity, 0.25)"/>
  <path fill="var(--ci-primary-color, currentColor)" d="M368,88V368H96v88a40.045,40.045,0,0,0,40,40H376a40.045,40.045,0,0,0,40-40V56a40.045,40.045,0,0,0-40-40H136A40.045,40.045,0,0,0,96,56V88ZM274,414v36H238V414Z" class="ci-primary"/>
</svg>
