<svg xmlns="http://www.w3.org/2000/svg" viewBox="0 0 512 512">
  <path fill="var(--ci-secondary-color, currentColor)" d="M86.648,86.148A237.717,237.717,0,0,0,17.069,239H134.215c1.619-64.352,12.681-124.538,31.574-170.952A225.123,225.123,0,0,1,188,25.755,238.244,238.244,0,0,0,86.648,86.148Z" class="ci-secondary" opacity="var(--ci-secondary-opacity, 0.25)"/>
  <path fill="var(--ci-secondary-color, currentColor)" d="M292,157.148V42.806C280.351,26.863,267.829,18,256,18c-19.393,0-40.652,23.783-56.867,63.62C181.922,123.9,171.8,179.281,170.224,239H324.336A119.555,119.555,0,0,1,292,157.148Z" class="ci-secondary" opacity="var(--ci-secondary-opacity, 0.25)"/>
  <path fill="var(--ci-primary-color, currentColor)" d="M134.291,275h-117A239.835,239.835,0,0,0,188,485.245a225.123,225.123,0,0,1-22.212-42.293C147.19,397.259,136.173,338.222,134.291,275Z" class="ci-primary"/>
  <path fill="var(--ci-primary-color, currentColor)" d="M170.308,275c1.832,58.573,11.9,112.806,28.825,154.38C215.348,469.217,236.607,493,256,493s40.652-23.783,56.867-63.62C329.79,387.806,339.86,333.573,341.692,275Z" class="ci-primary"/>
  <path fill="var(--ci-primary-color, currentColor)" d="M346.211,442.952A225.123,225.123,0,0,1,324,485.245,239.835,239.835,0,0,0,494.708,275h-117C375.827,338.222,364.81,397.259,346.211,442.952Z" class="ci-primary"/>
  <path fill="var(--ci-primary-color, currentColor)" d="M470.5,104V75.527a60.25,60.25,0,0,0-120.5,0V104H328v53.149a84,84,0,0,0,168,0V104ZM386,75.527a24.25,24.25,0,1,1,48.5,0V102H386Z" class="ci-primary"/>
</svg>
