<svg xmlns="http://www.w3.org/2000/svg" viewBox="0 0 512 512">
  <path fill="var(--ci-secondary-color, currentColor)" d="M480,80H32A16,16,0,0,0,16,96v64A264,264,0,0,1,280,424H480a16,16,0,0,0,16-16V96A16,16,0,0,0,480,80Z" class="ci-secondary" opacity="var(--ci-secondary-opacity, 0.25)"/>
  <polygon fill="var(--ci-primary-color, currentColor)" points="304 230.111 304 265.889 368 297.889 432 265.889 432 230.111 368 262.111 304 230.111" class="ci-primary"/>
  <polygon fill="var(--ci-primary-color, currentColor)" points="368 128 280 172 280 188 368 232 456 188 456 172 368 128" class="ci-primary"/>
  <path fill="var(--ci-primary-color, currentColor)" d="M16.394,197.508v48c98.2,0,178.1,79.9,178.1,178.1h48a224.618,224.618,0,0,0-66.223-159.875A224.618,224.618,0,0,0,16.394,197.508Z" class="ci-primary"/>
  <path fill="var(--ci-primary-color, currentColor)" d="M16,360v64H80A64,64,0,0,0,16,360Z" class="ci-primary"/>
  <path fill="var(--ci-primary-color, currentColor)" d="M16.254,280.635v48a95.218,95.218,0,0,1,95.111,95.111h48C159.365,344.834,95.166,280.635,16.254,280.635Z" class="ci-primary"/>
</svg>
