<svg xmlns="http://www.w3.org/2000/svg" viewBox="0 0 512 512">
  <path fill="var(--ci-secondary-color, currentColor)" d="M466.668,45.1a128.64,128.64,0,0,0-181.929,0l-79.154,79.154h90.509l33.9-33.9a64.645,64.645,0,0,1,91.42,91.423L324.6,278.591a64.717,64.717,0,0,1-91.421,0l-45.255,45.256a128.794,128.794,0,0,0,181.932,0l96.811-96.813A128.788,128.788,0,0,0,466.668,45.1Z" class="ci-secondary" opacity="var(--ci-secondary-opacity, 0.25)"/>
  <path fill="var(--ci-primary-color, currentColor)" d="M183.056,421.474a65.223,65.223,0,1,1-92.24-92.239l97.8-97.8a64.644,64.644,0,0,1,91.42,0l45.256-45.254a128.645,128.645,0,0,0-181.931,0l-97.8,97.8A129.223,129.223,0,0,0,228.31,466.728l79.472-79.471H217.274Z" class="ci-primary"/>
</svg>
