<svg xmlns="http://www.w3.org/2000/svg" viewBox="0 0 512 512">
  <path fill="var(--ci-secondary-color, currentColor)" d="M149.94,334.88a202.479,202.479,0,0,1,43.405-222.151,204.91,204.91,0,0,1,15.622-14.085,160.615,160.615,0,1,0,0,314.712,204.91,204.91,0,0,1-15.622-14.085A201.875,201.875,0,0,1,149.94,334.88Z" class="ci-secondary" opacity="var(--ci-secondary-opacity, 0.25)"/>
  <path fill="var(--ci-primary-color, currentColor)" d="M460.554,153.834q-1.227-1.488-2.49-2.945-2.525-2.915-5.184-5.7t-5.45-5.449q-2.788-2.659-5.7-5.185a161.12,161.12,0,0,0-18.54-13.863q-6.517-4.177-13.45-7.732-5.194-2.661-10.6-4.949a161.312,161.312,0,0,0-101.715-7.8c-1.6.4-3.194.818-4.774,1.267q-7.1,2.015-13.913,4.663-4.163,1.609-8.216,3.432-3.557,1.608-7.021,3.383-3.49,1.787-6.88,3.739-1.655.953-3.284,1.942a161.347,161.347,0,0,0-32.98,26.548c-1.3,1.367-2.574,2.764-3.829,4.176-1.306,1.47-2.593,2.956-3.845,4.473q-2.456,2.975-4.768,6.067-3.469,4.638-6.606,9.529-1.044,1.629-2.05,3.285-2.488,4.093-4.725,8.35a159.707,159.707,0,0,0-9.242,21.017c-.725,2.035-1.421,4.084-2.065,6.156a159.539,159.539,0,0,0-4.712,19.33q-.354,1.978-.658,3.972-.611,3.987-1.022,8.038A162.611,162.611,0,0,0,176,256a160.561,160.561,0,0,0,7.221,47.762q1.173,3.772,2.525,7.463a159.715,159.715,0,0,0,7.825,17.895q2.661,5.195,5.682,10.165,2.012,3.312,4.178,6.517,1.081,1.6,2.2,3.176a161.348,161.348,0,0,0,12.092,15.016q2.592,2.853,5.318,5.578a160.616,160.616,0,0,0,227.145,0q2.724-2.724,5.318-5.578,3.636-4,7-8.247a160.925,160.925,0,0,0,13.448-19.8q.967-1.681,1.894-3.388a160.73,160.73,0,0,0-17.291-178.725Z" class="ci-primary"/>
</svg>
