<svg xmlns="http://www.w3.org/2000/svg" viewBox="0 0 512 512">
  <path fill="var(--ci-secondary-color, currentColor)" d="M372,280.652v-48H140v48Z" class="ci-secondary" opacity="var(--ci-secondary-opacity, 0.25)"/>
  <path fill="var(--ci-primary-color, currentColor)" d="M368,112H288v64c76.146-.558,158.413-12.009,159.686,87.142C432.315,355.732,351.257,333.228,288,336v64c.028-.062,52.881.044,72.747,0C556.9,400.161,563.615,121.292,368,112Z" class="ci-primary"/>
  <path fill="var(--ci-primary-color, currentColor)" d="M104.657,117.462C38.006,136.148-8.2,202.074,1.239,274.933,31.079,426.914,171.046,397.268,224,400V336c-74.68-.158-151.676,13.32-160-80,9.684-100.01,96.867-77.461,160-80V112C196.638,113.041,131.337,108.417,104.657,117.462Z" class="ci-primary"/>
</svg>
