<svg xmlns="http://www.w3.org/2000/svg" viewBox="0 0 512 512">
  <path fill="var(--ci-secondary-color, currentColor)" d="M400,192H120a32.036,32.036,0,0,0-32,32V456a32.036,32.036,0,0,0,32,32H400a32.036,32.036,0,0,0,32-32V224A32.036,32.036,0,0,0,400,192Z" class="ci-secondary" opacity="var(--ci-secondary-opacity, 0.25)"/>
  <path fill="var(--ci-primary-color, currentColor)" d="M260,24c-74.991,0-136,61.009-136,136v32h48V160a88,88,0,0,1,176,0v32h48V160C396,85.009,334.991,24,260,24Z" class="ci-primary"/>
  <rect width="72" height="72" x="224" y="312" fill="var(--ci-primary-color, currentColor)" class="ci-primary"/>
</svg>
