<svg xmlns="http://www.w3.org/2000/svg" viewBox="0 0 512 512">
  <rect width="479" height="101" x="17" y="392" fill="var(--ci-secondary-color, currentColor)" class="ci-secondary" opacity="var(--ci-secondary-opacity, 0.25)" rx="29"/>
  <path fill="var(--ci-secondary-color, currentColor)" d="M90.873,258.715l158.508,40.519a13.193,13.193,0,0,0,16.054-9.517L287.863,202l4.091-16,4.091-16H99.933l-4.092,16L91.75,202,81.355,242.654A13.216,13.216,0,0,0,90.873,258.715Z" class="ci-secondary" opacity="var(--ci-secondary-opacity, 0.25)"/>
  <path fill="var(--ci-primary-color, currentColor)" d="M420,184s-52,65.072-52,96,23.281,56,52,56,52-25.072,52-56S420,184,420,184Z" class="ci-primary"/>
  <path fill="var(--ci-primary-color, currentColor)" d="M82.989,66.222,22.136,49.271,10.864,89.729l61.718,17.193L40.665,231.748a55.265,55.265,0,0,0,39.8,67.158l158.509,40.519a55.529,55.529,0,0,0,13.771,1.744,55.255,55.255,0,0,0,53.376-41.547l54.2-211.987L94.866,19.773ZM99.933,169.5l25.22-98.634,184.079,47.058L296.045,169.5l-4.091,16-4.091,16-22.428,87.717a13.193,13.193,0,0,1-16.054,9.517L90.873,258.215a13.216,13.216,0,0,1-9.518-16.061L91.75,201.5l4.091-16Z" class="ci-primary"/>
</svg>
