<svg xmlns="http://www.w3.org/2000/svg" viewBox="0 0 512 512">
  <polygon fill="var(--ci-secondary-color, currentColor)" points="286 202 286 32 225 32 208 32 168 32 80 32 64 32 64 480 456 480 456 202 286 202" class="ci-secondary" opacity="var(--ci-secondary-opacity, 0.25)"/>
  <polygon fill="var(--ci-primary-color, currentColor)" points="328 32 322 32 322 166 456 166 456 160 328 32" class="ci-primary"/>
  <polygon fill="var(--ci-primary-color, currentColor)" points="136 280 128 384 128 400 208 400 208 384 200 280 136 280" class="ci-primary"/>
  <rect width="40" height="40" x="168" y="192" fill="var(--ci-primary-color, currentColor)" class="ci-primary"/>
  <rect width="40" height="40" x="168" y="32" fill="var(--ci-primary-color, currentColor)" class="ci-primary"/>
  <rect width="40" height="40" x="168" y="112" fill="var(--ci-primary-color, currentColor)" class="ci-primary"/>
  <rect width="40" height="40" x="128" y="152" fill="var(--ci-primary-color, currentColor)" class="ci-primary"/>
  <rect width="40" height="40" x="128" y="72" fill="var(--ci-primary-color, currentColor)" class="ci-primary"/>
</svg>
