<svg xmlns="http://www.w3.org/2000/svg" viewBox="0 0 512 512">
  <polygon fill="var(--ci-secondary-color, currentColor)" points="345.97 349.637 330.762 329.514 156.469 98.888 140.962 78.37 125.52 57.937 93.826 16 89.15 16 64 16 64 46.193 84.274 73.02 99.233 92.814 114.188 112.603 305.444 365.672 320.652 385.795 335.86 405.919 379.755 464 408 464 408 437.902 408 431.714 361.178 369.76 345.97 349.637" class="ci-secondary" opacity="var(--ci-secondary-opacity, 0.25)"/>
  <path fill="var(--ci-primary-color, currentColor)" d="M388.31,58.5A439.807,439.807,0,0,0,165.616,47.52l16.107,21.312,16.3,21.57L353.832,296.567,369.04,316.69l15.208,20.123L504,165.79V114.7A439.439,439.439,0,0,0,388.31,58.5Z" class="ci-primary"/>
  <path fill="var(--ci-primary-color, currentColor)" d="M305.444,365.672,114.188,112.6,99.233,92.814,84.274,73.02A439.337,439.337,0,0,0,8,114.7V165.79L228.012,480h55.976l51.872-74.081L320.652,385.8Z" class="ci-primary"/>
</svg>
