<svg xmlns="http://www.w3.org/2000/svg" viewBox="0 0 512 512">
  <path fill="var(--ci-secondary-color, currentColor)" d="M74.329,388.038l165,95.264a34.088,34.088,0,0,0,34,0l164.954-95.236L401.905,367.5,256.282,285.194l-145.571,82.28Z" class="ci-secondary" opacity="var(--ci-secondary-opacity, 0.25)"/>
  <path fill="var(--ci-primary-color, currentColor)" d="M50.983,157.071V354.929a33.707,33.707,0,0,0,.345,4.757l35.655-20.154,151.359-85.55V29.27L67.983,127.626A34.1,34.1,0,0,0,50.983,157.071Z" class="ci-primary"/>
  <path fill="var(--ci-primary-color, currentColor)" d="M444.684,127.626,274.342,29.279V254.05l151.342,85.541,35.646,20.148a33.7,33.7,0,0,0,.354-4.81V157.071A34.1,34.1,0,0,0,444.684,127.626Z" class="ci-primary"/>
</svg>
