<svg xmlns="http://www.w3.org/2000/svg" viewBox="0 0 512 512">
  <path fill="var(--ci-secondary-color, currentColor)" d="M425.706,86.294A240,240,0,0,0,86.294,425.706,240,240,0,0,0,425.706,86.294ZM256,370.612A114.612,114.612,0,1,1,370.612,256,114.742,114.742,0,0,1,256,370.612Z" class="ci-secondary" opacity="var(--ci-secondary-opacity, 0.25)"/>
  <path fill="var(--ci-primary-color, currentColor)" d="M227.979,144.858,132.953,49.832a243.16,243.16,0,0,0-83.121,83.121l95.026,95.026A115.026,115.026,0,0,1,227.979,144.858Z" class="ci-primary"/>
  <path fill="var(--ci-primary-color, currentColor)" d="M284.02,367.142l95.026,95.026a243.151,243.151,0,0,0,83.122-83.121l-95.026-95.026A115.026,115.026,0,0,1,284.02,367.142Z" class="ci-primary"/>
  <path fill="var(--ci-primary-color, currentColor)" d="M367.167,228.083l95.217-94.759a243.043,243.043,0,0,0-82.971-83.27l-95.289,94.83A115.023,115.023,0,0,1,367.167,228.083Z" class="ci-primary"/>
  <path fill="var(--ci-primary-color, currentColor)" d="M144.884,284.125l-94.83,95.288a243.043,243.043,0,0,0,83.27,82.971l94.759-95.217A115.025,115.025,0,0,1,144.884,284.125Z" class="ci-primary"/>
</svg>
