<svg xmlns="http://www.w3.org/2000/svg" viewBox="0 0 512 512">
  <path fill="var(--ci-secondary-color, currentColor)" d="M169.925,84.323l-21.551-42.89A240.131,240.131,0,0,0,87.055,85.538l33.789,34.092A192.247,192.247,0,0,1,169.925,84.323Z" class="ci-secondary" opacity="var(--ci-secondary-opacity, 0.25)"/>
  <path fill="var(--ci-secondary-color, currentColor)" d="M85.1,168.4,42.4,146.462a238.285,238.285,0,0,0-23.46,71.861l47.414,7.483A190.363,190.363,0,0,1,85.1,168.4Z" class="ci-secondary" opacity="var(--ci-secondary-opacity, 0.25)"/>
  <path fill="var(--ci-secondary-color, currentColor)" d="M18.966,293.816a238.281,238.281,0,0,0,23.5,71.848L85.15,343.705a190.373,190.373,0,0,1-18.776-57.4Z" class="ci-secondary" opacity="var(--ci-secondary-opacity, 0.25)"/>
  <path fill="var(--ci-secondary-color, currentColor)" d="M120.92,392.447,87.152,426.561a240.228,240.228,0,0,0,61.349,44.07l21.525-42.9A192.289,192.289,0,0,1,120.92,392.447Z" class="ci-secondary" opacity="var(--ci-secondary-opacity, 0.25)"/>
  <path fill="var(--ci-primary-color, currentColor)" d="M425.706,86.294A238.43,238.43,0,0,0,256,16a242.59,242.59,0,0,0-35.4,2.6l7.027,47.482A194.416,194.416,0,0,1,256,64c105.869,0,192,86.131,192,192S361.869,448,256,448a194.416,194.416,0,0,1-28.374-2.079L220.6,493.4A242.59,242.59,0,0,0,256,496,240,240,0,0,0,425.706,86.294Z" class="ci-primary"/>
  <polygon fill="var(--ci-primary-color, currentColor)" points="208 136 192.931 136 192.931 368 208 368 368 252 208 136" class="ci-primary"/>
</svg>
