<svg xmlns="http://www.w3.org/2000/svg" viewBox="0 0 512 512">
  <path fill="var(--ci-secondary-color, currentColor)" d="M301,200a15.38,15.38,0,0,1,9.332-14.152l11.88-5.092a57.4,57.4,0,0,0,0-105.512l-11.881-5.092A15.38,15.38,0,0,1,301,56V16H259V56a57.331,57.331,0,0,0,34.787,52.756l11.881,5.092a15.4,15.4,0,0,1,0,28.3l-11.88,5.092A57.331,57.331,0,0,0,259,200v48h42Z" class="ci-secondary" opacity="var(--ci-secondary-opacity, 0.25)"/>
  <path fill="var(--ci-secondary-color, currentColor)" d="M413,200a15.38,15.38,0,0,1,9.332-14.152l11.88-5.092a57.4,57.4,0,0,0,0-105.512l-11.881-5.092A15.38,15.38,0,0,1,413,56V16H371V56a57.331,57.331,0,0,0,34.787,52.756l11.881,5.092a15.4,15.4,0,0,1,0,28.3l-11.88,5.092A57.331,57.331,0,0,0,371,200v48h42Z" class="ci-secondary" opacity="var(--ci-secondary-opacity, 0.25)"/>
  <path fill="var(--ci-secondary-color, currentColor)" d="M205.984,296H16V448a48.054,48.054,0,0,0,48,48H448a48.054,48.054,0,0,0,48-48V296Z" class="ci-secondary" opacity="var(--ci-secondary-opacity, 0.25)"/>
  <circle cx="120" cy="128" r="48" fill="var(--ci-primary-color, currentColor)" class="ci-primary"/>
  <polygon fill="var(--ci-primary-color, currentColor)" points="171.075 200 66.287 200 66.287 296 205.984 296 171.075 200" class="ci-primary"/>
  <rect width="48" height="72" x="376" y="360" fill="var(--ci-primary-color, currentColor)" class="ci-primary"/>
  <rect width="48" height="72" x="280" y="360" fill="var(--ci-primary-color, currentColor)" class="ci-primary"/>
  <rect width="48" height="72" x="88" y="360" fill="var(--ci-primary-color, currentColor)" class="ci-primary"/>
  <rect width="48" height="72" x="184" y="360" fill="var(--ci-primary-color, currentColor)" class="ci-primary"/>
</svg>
