<svg xmlns="http://www.w3.org/2000/svg" viewBox="0 0 512 512">
  <polygon fill="var(--ci-secondary-color, currentColor)" points="171 99 171 184 213 184 213 141 296 141 296 387 248 387 248 429 424 429 424 387 376 387 376 141 459 141 459 184 501 184 501 99 171 99" class="ci-secondary" opacity="var(--ci-secondary-opacity, 0.25)"/>
  <polygon fill="var(--ci-primary-color, currentColor)" points="248 280 248 216 16 216 16 280 48 280 48 248 96 248 96 400 64 400 64 432 192 432 192 400 160 400 160 248 216 248 216 280 248 280" class="ci-primary"/>
</svg>
