<svg xmlns="http://www.w3.org/2000/svg" viewBox="0 0 512 512">
  <path fill="var(--ci-secondary-color, currentColor)" d="M485.888,263.261,248,25.373A31.791,31.791,0,0,0,225.373,16H64A48.055,48.055,0,0,0,16,64V225.078A32.118,32.118,0,0,0,26.09,248.4L279.153,486.126a23.813,23.813,0,0,0,16.409,6.509q.448,0,.9-.017a23.821,23.821,0,0,0,16.786-7.734L486.58,296.479A23.942,23.942,0,0,0,485.888,263.261ZM136,172a36,36,0,1,1,36-36A36,36,0,0,1,136,172Z" class="ci-secondary" opacity="var(--ci-secondary-opacity, 0.25)"/>
  <path fill="var(--ci-primary-color, currentColor)" d="M290.23,389.683l72.637-72.637a44.838,44.838,0,0,0-63.411-63.411l-9.226,9.226-9.728-9.728a44.838,44.838,0,0,0-63.411,63.411Z" class="ci-primary"/>
</svg>
