<svg xmlns="http://www.w3.org/2000/svg" viewBox="0 0 512 512">
  <polygon fill="var(--ci-secondary-color, currentColor)" points="415.3 475 441.5 475 344.476 253.439 325.733 270.47 415.3 475" class="ci-secondary" opacity="var(--ci-secondary-opacity, 0.25)"/>
  <circle cx="207.088" cy="64.088" r="38.088" fill="var(--ci-primary-color, currentColor)" class="ci-primary"/>
  <polygon fill="var(--ci-primary-color, currentColor)" points="195.999 347.195 167.153 290.067 93.18 475 144.877 475 195.999 347.195" class="ci-primary"/>
  <path fill="var(--ci-primary-color, currentColor)" d="M242,297.387V178.463l83.669,92,.064-.059,18.743-17.031,16.71-15.184L255.517,122H163.273l-35.044,22.747A68.3,68.3,0,0,0,97,202.236V274h48V246.123l-.034-.066.034-.017V202.2a20.577,20.577,0,0,1,9.37-17.257l14.63-9.5V253.79L280.7,475h43.766Z" class="ci-primary"/>
</svg>
