<svg xmlns="http://www.w3.org/2000/svg" viewBox="0 0 512 512">
  <circle cx="100" cy="100" r="76" fill="var(--ci-secondary-color, currentColor)" class="ci-secondary" opacity="var(--ci-secondary-opacity, 0.25)"/>
  <polygon fill="var(--ci-secondary-color, currentColor)" points="168.258 291.956 69.402 397.402 110.296 438.296 215.742 339.44 168.258 291.956" class="ci-secondary" opacity="var(--ci-secondary-opacity, 0.25)"/>
  <path fill="var(--ci-primary-color, currentColor)" d="M476.71,32.408h0a61.222,61.222,0,0,0-87.954,1.418l-37.4,39.889q-39.348,41.971-75.8,86.523L168,291.7l.258.258,47.484,47.484.258.258,89.8-69.388A1706.3,1706.3,0,0,0,469.033,126.665l7.677-7.676A61.223,61.223,0,0,0,476.71,32.408Z" class="ci-primary"/>
  <path fill="var(--ci-primary-color, currentColor)" d="M110.3,438.3,69.4,397.4,66,394a19.8,19.8,0,0,0-28,28l52,52a19.8,19.8,0,0,0,28-28Z" class="ci-primary"/>
</svg>
