<svg xmlns="http://www.w3.org/2000/svg" viewBox="0 0 511.974 512">
  <circle cx="256" cy="256" r="240" fill="var(--ci-secondary-color, currentColor)" class="ci-secondary" opacity="var(--ci-secondary-opacity, 0.25)"/>
  <path fill="var(--ci-primary-color, currentColor)" d="M307.265,337.958,295.059,358.9a18.328,18.328,0,0,1-33.418-14.4l30.537-103.829a64.443,64.443,0,0,0-121.345-42.884l-9.96,24,44.334,18.4,9.96-24a16.443,16.443,0,0,1,30.962,10.941L215.592,330.953a66.327,66.327,0,0,0,61.287,85c.792.028,1.579.042,2.367.042a66.228,66.228,0,0,0,57.283-32.928l12.206-20.942Z" class="ci-primary"/>
  <rect width="48" height="48" x="264" y="79.998" fill="var(--ci-primary-color, currentColor)" class="ci-primary"/>
</svg>
