<svg xmlns="http://www.w3.org/2000/svg" viewBox="0 0 512 512">
  <path fill="var(--ci-secondary-color, currentColor)" d="M394,56a38,38,0,0,0-38-38H124.887A76.719,76.719,0,0,1,137,59.429v395.5a39.182,39.182,0,0,0,37.538,39.028A38.109,38.109,0,0,0,211,456V393H394Z" class="ci-secondary" opacity="var(--ci-secondary-opacity, 0.25)"/>
  <path fill="var(--ci-primary-color, currentColor)" d="M429.541,429H247v26.748A74.5,74.5,0,0,1,236.5,494H456a38,38,0,0,0,38-38V429Z" class="ci-primary"/>
  <path fill="var(--ci-primary-color, currentColor)" d="M75.715,21.3A41.572,41.572,0,0,0,54.426,18.3C33.5,20.8,18,39.026,18,60.1V110h83V59.429A41.491,41.491,0,0,0,75.715,21.3Z" class="ci-primary"/>
</svg>
