<svg xmlns="http://www.w3.org/2000/svg" viewBox="0 0 512 512">
  <rect width="480" height="480" x="16" y="16" fill="var(--ci-secondary-color, currentColor)" class="ci-secondary" opacity="var(--ci-secondary-opacity, 0.25)" rx="32"/>
  <polygon fill="var(--ci-primary-color, currentColor)" points="216 184 168 184 168 264 122.52 264 135.32 136 87.08 136 69.48 312 168 312 168 376 216 376 216 312 256 312 256 264 216 264 216 184" class="ci-primary"/>
  <polygon fill="var(--ci-primary-color, currentColor)" points="446.833 136 393.167 136 345.167 232 328 232 328 136 280 136 280 376 328 376 328 280 345.167 280 393.167 376 446.833 376 386.833 256 446.833 136" class="ci-primary"/>
</svg>
