<svg xmlns="http://www.w3.org/2000/svg" viewBox="0 0 512 512">
  <path fill="var(--ci-secondary-color, currentColor)" d="M256,56c110.28,0,200,89.72,200,200a198.764,198.764,0,0,1-24.037,94.993l35.2,35.2A248.112,248.112,0,0,0,125.918,44.765L161.1,79.985A198.767,198.767,0,0,1,256,56Z" class="ci-secondary" opacity="var(--ci-secondary-opacity, 0.25)"/>
  <path fill="var(--ci-secondary-color, currentColor)" d="M411.543,381.568,383.075,353.1l-34.349-34.35L313.7,283.724,228.276,198.3,193.25,163.274,158.9,128.925l-28.468-28.468L96.266,66.29,45.976,16H16V45.422L66.543,95.965a248,248,0,0,0,14.1,335.4l34.007-34.007A199.63,199.63,0,0,1,100.7,130.125l28.462,28.462L163.5,192.923l34.986,34.986,85.6,85.6L306.578,336l12.5,12.5,34.336,34.336L381.874,411.3l34.16,34.16L466.577,496H496V466.024l-50.29-50.29Z" class="ci-secondary" opacity="var(--ci-secondary-opacity, 0.25)"/>
  <path fill="var(--ci-primary-color, currentColor)" d="M192,256a64.011,64.011,0,0,0,92.09,57.513l-85.6-85.6A63.736,63.736,0,0,0,192,256Z" class="ci-primary"/>
  <path fill="var(--ci-primary-color, currentColor)" d="M256,96a159.087,159.087,0,0,0-65.068,13.841l37.548,37.584A112.03,112.03,0,0,1,364.558,283.587l37.564,37.564A159.074,159.074,0,0,0,416,256C416,167.776,344.225,96,256,96Z" class="ci-primary"/>
  <path fill="var(--ci-primary-color, currentColor)" d="M163.5,192.923l-34.336-34.336a159.7,159.7,0,0,0,13.751,210.5L176,336h1.7a111.784,111.784,0,0,1-14.2-143.077Z" class="ci-primary"/>
</svg>
