<svg xmlns="http://www.w3.org/2000/svg" viewBox="0 0 512 512">
  <path fill="var(--ci-secondary-color, currentColor)" d="M480,32H32V72L241.6,229.2A23.984,23.984,0,0,0,256,234c.633,0,1.267-.025,1.9-.075a23.953,23.953,0,0,0,12.5-4.725L480,72Z" class="ci-secondary" opacity="var(--ci-secondary-opacity, 0.25)"/>
  <circle cx="392" cy="392" r="104" fill="var(--ci-secondary-color, currentColor)" class="ci-secondary" opacity="var(--ci-secondary-opacity, 0.25)"/>
  <polygon fill="var(--ci-primary-color, currentColor)" points="32 117 32 299 153.333 208 32 117" class="ci-primary"/>
  <path fill="var(--ci-primary-color, currentColor)" d="M292,258a60,60,0,0,1-72,0l-36.667-27.5L32,344v40H252.232A140.008,140.008,0,0,1,480,283.1V117Z" class="ci-primary"/>
  <rect width="114.286" height="36" x="336" y="374" fill="var(--ci-primary-color, currentColor)" class="ci-primary"/>
</svg>
