<svg xmlns="http://www.w3.org/2000/svg" viewBox="0 0 512 512">
  <path fill="var(--ci-secondary-color, currentColor)" d="M440,208H392c0,74.99-61.009,136-136,136S120,282.99,120,208H72c0,93.325,69.841,170.638,160,182.435V448H160v48H352V448H280V390.435C370.159,378.638,440,301.325,440,208Z" class="ci-secondary" opacity="var(--ci-secondary-opacity, 0.25)"/>
  <path fill="var(--ci-primary-color, currentColor)" d="M256,16h0a96,96,0,0,0-96,96v38H352V112A96,96,0,0,0,256,16Z" class="ci-primary"/>
  <path fill="var(--ci-primary-color, currentColor)" d="M160,208a96,96,0,0,0,96,96h0a96,96,0,0,0,96-96V186H160Z" class="ci-primary"/>
</svg>
