<svg xmlns="http://www.w3.org/2000/svg" viewBox="0 0 512 512">
  <path fill="var(--ci-secondary-color, currentColor)" d="M366.25,31.326l-.012-.026a119.361,119.361,0,0,0-31.823,4.653c-1.278.368-2.552.766-3.824,1.179q-.476.153-.949.311c-1.272.424-2.543.863-3.809,1.332q-2.846,1.055-5.666,2.264a119.989,119.989,0,0,0-63.026,157.675l.011.025A120.1,120.1,0,0,0,366.25,31.326Z" class="ci-secondary" opacity="var(--ci-secondary-opacity, 0.25)"/>
  <path fill="var(--ci-primary-color, currentColor)" d="M453.255,204.764c-10.861-27.839-28.3-49.28-50.442-62a96.64,96.64,0,0,0-38.549-12.414,120.167,120.167,0,0,1-107.112,68.392l-.011-.025a120.642,120.642,0,0,1-7.088-22.256,119.165,119.165,0,0,1-2.6-21.468c-9.479-4.542-17.776-8.453-21.059-9.729-15.6-6.066-34.7-13.265-39.243-13.986-24.943-3.962-47.811-.1-67.968,11.486-22.138,12.723-39.581,34.164-50.442,62-9.874,25.307-13.608,54.817-10.514,83.094,10.142,92.681,39.659,155.028,85.361,180.3a99.92,99.92,0,0,0,49.1,12.544c19.585,0,40.629-5.195,62.975-15.576h10.67c22.346,10.381,43.39,15.575,62.975,15.576a99.92,99.92,0,0,0,49.1-12.544c45.7-25.27,75.219-87.617,85.361-180.3C466.863,259.581,463.129,230.071,453.255,204.764Z" class="ci-primary"/>
</svg>
