<svg xmlns="http://www.w3.org/2000/svg" viewBox="0 0 512 512">
  <polygon fill="var(--ci-secondary-color, currentColor)" points="370.021 293.322 400.945 324.247 480 280.766 480 232.833 370.021 293.322" class="ci-secondary" opacity="var(--ci-secondary-opacity, 0.25)"/>
  <polygon fill="var(--ci-secondary-color, currentColor)" points="457.195 380.496 480 368.333 480 320.733 426.151 349.453 457.195 380.496" class="ci-secondary" opacity="var(--ci-secondary-opacity, 0.25)"/>
  <path fill="var(--ci-secondary-color, currentColor)" d="M256,401a20.987,20.987,0,0,0,10.12-2.6l65.752-36.163-30.925-30.925L256,356.033,32,232.833v47.933L245.88,398.4A20.987,20.987,0,0,0,256,401Z" class="ci-secondary" opacity="var(--ci-secondary-opacity, 0.25)"/>
  <path fill="var(--ci-secondary-color, currentColor)" d="M256,440.2,32,320.733v47.6l214.117,114.2a21,21,0,0,0,19.766,0l121.488-64.793-31.044-31.044Z" class="ci-secondary" opacity="var(--ci-secondary-opacity, 0.25)"/>
  <path fill="var(--ci-primary-color, currentColor)" d="M487.938,162.108l-224-128a16,16,0,0,0-15.876,0L160.717,84.019,343.809,267.111,487.556,190.1a16,16,0,0,0,.382-28Z" class="ci-primary"/>
  <path fill="var(--ci-primary-color, currentColor)" d="M45.7,16.667H16v29.7l76.586,76.586L24.062,162.108a16,16,0,0,0,.382,28l224,120a16,16,0,0,0,15.112,0l10.537-5.646L466.3,496.667H496v-29.7Z" class="ci-primary"/>
</svg>
