<svg xmlns="http://www.w3.org/2000/svg" viewBox="0 0 512 512">
  <path fill="var(--ci-secondary-color, currentColor)" d="M126.638,170.672H51.986a24.692,24.692,0,0,0-24.242,19.434,487.093,487.093,0,0,0-1.466,206.536l1.5,7.189A24.939,24.939,0,0,0,52.091,423.61h74.547a24.866,24.866,0,0,0,24.837-24.838V195.509A24.865,24.865,0,0,0,126.638,170.672Z" class="ci-secondary" opacity="var(--ci-secondary-opacity, 0.25)"/>
  <path fill="var(--ci-primary-color, currentColor)" d="M478.472,248.221l-17.241-45.976a24,24,0,0,0-22.472-15.573h-136.9V149.686l16.406-36.334A72.116,72.116,0,0,0,281.6,17.669h0a8.2,8.2,0,0,0-10.766,4.1L184.693,210.343v141.5L261.1,396.663a24,24,0,0,0,12.144,3.3H391.36a24,24,0,0,0,20.859-12.132L476.86,274.221A24,24,0,0,0,480,262.352v-5.7A24.012,24.012,0,0,0,478.472,248.221Z" class="ci-primary"/>
</svg>
