<svg xmlns="http://www.w3.org/2000/svg" viewBox="0 0 512 512">
  <rect width="480" height="480" x="16" y="16" fill="var(--ci-secondary-color, currentColor)" class="ci-secondary" opacity="var(--ci-secondary-opacity, 0.25)" rx="32"/>
  <polygon fill="var(--ci-primary-color, currentColor)" points="134 305 129.602 305 123.396 185.479 108.897 119 52 119 52 377 92 377 92 170 96.798 170 101.599 273.015 124.303 377 174 377 174 119 134 119 134 305" class="ci-primary"/>
  <polygon fill="var(--ci-primary-color, currentColor)" points="196 377 277 377 277 337 235 337 235 268 263 268 263 229 235 229 235 159 277 159 277 120 196 120 196 377" class="ci-primary"/>
  <polygon fill="var(--ci-primary-color, currentColor)" points="420 119 420 165.318 413 235.282 413 318 408.402 318 402.366 231.815 395.421 181 354.58 181 347.633 231.826 341.598 318 337 318 337 235.328 330 165.358 330.001 119 291 118.999 290.999 167.202 313.371 376 364.746 376.001 372.975 232 377.074 232 385.36 377 436.623 376.999 458.889 168.774 459 167.736 459 119 420 119" class="ci-primary"/>
</svg>
