<svg xmlns="http://www.w3.org/2000/svg" viewBox="0 0 512 512">
  <path fill="var(--ci-secondary-color, currentColor)" d="M456,35H56A21,21,0,0,0,35,56V456a21,21,0,0,0,21,21H456a21,21,0,0,0,21-21V56A21,21,0,0,0,456,35ZM77,77H405.3L77,405.3Z" class="ci-secondary" opacity="var(--ci-secondary-opacity, 0.25)"/>
  <rect width="112" height="36" x="112" y="134" fill="var(--ci-primary-color, currentColor)" class="ci-primary"/>
  <polygon fill="var(--ci-primary-color, currentColor)" points="370 334 370 288 334 288 334 334 288 334 288 370 334 370 334 416 370 416 370 370 416 370 416 334 370 334" class="ci-primary"/>
</svg>
