<svg xmlns="http://www.w3.org/2000/svg" viewBox="0 0 512 512">
  <path fill="var(--ci-secondary-color, currentColor)" d="M249,384h71V264a48.055,48.055,0,0,1,48-48h56V96a16,16,0,0,0-16-16H32A16,16,0,0,0,16,96V368a16,16,0,0,0,16,16H249Z" class="ci-secondary" opacity="var(--ci-secondary-opacity, 0.25)"/>
  <polygon fill="var(--ci-primary-color, currentColor)" points="249 384 207 384 207 424.122 152 430.857 152 472 304 472 304 430.857 249 424.122 249 384" class="ci-primary"/>
  <rect width="144" height="224" x="352" y="248" fill="var(--ci-primary-color, currentColor)" class="ci-primary" rx="16"/>
</svg>
