<svg xmlns="http://www.w3.org/2000/svg" viewBox="0 0 512 512">
  <path fill="var(--ci-secondary-color, currentColor)" d="M479.6,400.4l-81.084-81.084L345.6,297.457a179.313,179.313,0,0,0,31.087-101.114C376.687,96.9,295.784,16,196.343,16S16,96.9,16,196.343,96.9,376.687,196.343,376.687A179.313,179.313,0,0,0,297.457,345.6l21.861,52.914L400.4,479.6a56,56,0,0,0,79.2-79.2ZM64,196.343C64,123.369,123.369,64,196.343,64s132.344,59.369,132.344,132.343-59.37,132.344-132.344,132.344S64,269.317,64,196.343Z" class="ci-secondary" opacity="var(--ci-secondary-opacity, 0.25)"/>
  <polygon fill="var(--ci-primary-color, currentColor)" points="220 112 172 112 172 172 112 172 112 220 172 220 172 280 220 280 220 220 280 220 280 172 220 172 220 112" class="ci-primary"/>
</svg>
