<svg xmlns="http://www.w3.org/2000/svg" viewBox="0 0 512 512">
  <circle cx="256" cy="256" r="240" fill="var(--ci-secondary-color, currentColor)" class="ci-secondary" opacity="var(--ci-secondary-opacity, 0.25)"/>
  <path fill="var(--ci-primary-color, currentColor)" d="M280.028,88V17.191q-11.841-1.176-24-1.191-12.151,0-24,1.191V88Z" class="ci-primary"/>
  <path fill="var(--ci-primary-color, currentColor)" d="M232,424v70.806q11.856,1.179,24.029,1.194,12.137,0,23.971-1.189V424Z" class="ci-primary"/>
  <path fill="var(--ci-primary-color, currentColor)" d="M494.926,233H423.972v48h70.765a242.914,242.914,0,0,0,1.292-25C496.029,248.24,495.646,240.571,494.926,233Z" class="ci-primary"/>
  <path fill="var(--ci-primary-color, currentColor)" d="M88,233H17.131c-.72,7.571-1.1,15.24-1.1,23a242.633,242.633,0,0,0,1.292,25H88Z" class="ci-primary"/>
  <path fill="var(--ci-primary-color, currentColor)" d="M289.521,222.15,175.2,164.891a8,8,0,0,0-10.739,10.729l57.181,114.412,114.272,57.039a8,8,0,0,0,10.728-10.736Z" class="ci-primary"/>
</svg>
