<svg xmlns="http://www.w3.org/2000/svg" viewBox="0 0 512 512">
  <path fill="var(--ci-secondary-color, currentColor)" d="M344,24H40A16,16,0,0,0,24,40V344H64V64H344Z" class="ci-secondary" opacity="var(--ci-secondary-opacity, 0.25)"/>
  <path fill="var(--ci-secondary-color, currentColor)" d="M112,96a16,16,0,0,0-16,16V416h40V136H416V96Z" class="ci-secondary" opacity="var(--ci-secondary-opacity, 0.25)"/>
  <path fill="var(--ci-primary-color, currentColor)" d="M487.963,183.273A15.986,15.986,0,0,0,472,168H184a16,16,0,0,0-16,16V472a16.016,16.016,0,0,0,16,16H472a16,16,0,0,0,16-16V184C488,183.755,487.974,183.516,487.963,183.273ZM356.749,440c-30.4,0-55.047-22.82-55.047-50.969,0-1.794.3-111.3.3-111.3L248,288V240.669l90.242-17.164L338,341.1a58.892,58.892,0,0,1,18.749-3.037c30.4,0,55.046,22.82,55.046,50.969S387.15,440,356.749,440Z" class="ci-primary"/>
</svg>
