<svg xmlns="http://www.w3.org/2000/svg" viewBox="0 0 512 512">
  <path fill="var(--ci-secondary-color, currentColor)" d="M373.444,79.739,336.1,109.856a92.463,92.463,0,0,1,.124,116.133l37.411,30.038a140.36,140.36,0,0,0-.189-176.288Z" class="ci-secondary" opacity="var(--ci-secondary-opacity, 0.25)"/>
  <path fill="var(--ci-secondary-color, currentColor)" d="M438.375,27.375,400.934,57.569a175.613,175.613,0,0,1,.236,220.568l37.5,30.113a224.056,224.056,0,0,0-.3-280.875Z" class="ci-secondary" opacity="var(--ci-secondary-opacity, 0.25)"/>
  <path fill="var(--ci-primary-color, currentColor)" d="M354.189,373.162l-99.862-63.1,38.417-60.369A72,72,0,0,0,304,211.033V120a104,104,0,0,0-208,0v91.033a72,72,0,0,0,11.256,38.655l38.417,60.369-99.862,63.1A64,64,0,0,0,16,427.265v69.306L384,496V427.265A64,64,0,0,0,354.189,373.162Z" class="ci-primary"/>
</svg>
