<svg xmlns="http://www.w3.org/2000/svg" viewBox="0 0 512 512">
  <circle cx="200" cy="312" r="184" fill="var(--ci-secondary-color, currentColor)" class="ci-secondary" opacity="var(--ci-secondary-opacity, 0.25)"/>
  <polygon fill="var(--ci-primary-color, currentColor)" points="437 75 437 16 395 16 395 75 336 75 336 117 395 117 395 176 437 176 437 117 496 117 496 75 437 75" class="ci-primary"/>
  <rect width="40" height="40" x="248" y="256" fill="var(--ci-primary-color, currentColor)" class="ci-primary"/>
  <rect width="40" height="40" x="112" y="256" fill="var(--ci-primary-color, currentColor)" class="ci-primary"/>
  <path fill="var(--ci-primary-color, currentColor)" d="M203.438,382h-6.875a61.686,61.686,0,0,1-57.155-38H100.613l4.958,12.4A97.533,97.533,0,0,0,196.563,418h6.875a97.533,97.533,0,0,0,90.991-61.6l4.958-12.4h-38.8A61.685,61.685,0,0,1,203.438,382Z" class="ci-primary"/>
</svg>
