<svg xmlns="http://www.w3.org/2000/svg" viewBox="0 0 512 512">
  <circle cx="256.029" cy="256" r="240" fill="var(--ci-secondary-color, currentColor)" class="ci-secondary" opacity="var(--ci-secondary-opacity, 0.25)"/>
  <path fill="var(--ci-primary-color, currentColor)" d="M228.753,401.291l-33.844-58.018L168.45,375.024A147.7,147.7,0,0,1,108.182,256h-36c0,99.75,79.865,181.2,179.009,183.755l-1.917-3.285Z" class="ci-primary"/>
  <path fill="var(--ci-primary-color, currentColor)" d="M289.521,222.15,175.2,164.891a8,8,0,0,0-10.739,10.729l57.181,114.412,114.272,57.039a8,8,0,0,0,10.728-10.736Z" class="ci-primary"/>
  <path fill="var(--ci-primary-color, currentColor)" d="M260.809,72.245l1.917,3.285,20.521,35.179,33.844,58.018,26.459-31.751A147.7,147.7,0,0,1,403.818,256h36C439.818,156.25,359.953,74.8,260.809,72.245Z" class="ci-primary"/>
</svg>
