<svg xmlns="http://www.w3.org/2000/svg" viewBox="0 0 512 512">
  <path fill="var(--ci-secondary-color, currentColor)" d="M315,153.795A63.866,63.866,0,0,0,293.278,150H218.722a63.986,63.986,0,0,0-63.944,66.664L160,342H352l5.222-125.336A64.016,64.016,0,0,0,315,153.795Z" class="ci-secondary" opacity="var(--ci-secondary-opacity, 0.25)"/>
  <path fill="var(--ci-primary-color, currentColor)" d="M229,150h54l15.418-27.715A29.509,29.509,0,0,0,303,106.492V64.211a47,47,0,1,0-94,0V106.5a29.472,29.472,0,0,0,4.576,15.772Z" class="ci-primary"/>
  <polygon fill="var(--ci-primary-color, currentColor)" points="197 342 216 496 296 496 315 342 197 342" class="ci-primary"/>
</svg>
