<svg xmlns="http://www.w3.org/2000/svg" viewBox="0 0 512 512">
  <rect width="122.405" height="48" x="138.626" y="67.275" fill="var(--ci-secondary-color, currentColor)" class="ci-secondary" opacity="var(--ci-secondary-opacity, 0.25)" transform="rotate(-45 199.828 91.275)"/>
  <path fill="var(--ci-primary-color, currentColor)" d="M166.19,461.019h-.07A152.267,152.267,0,0,1,57.708,416.026c-59.655-59.763-59.611-156.961.1-216.67l81.775-81.775,33.941,33.941L91.747,233.3a105.277,105.277,0,0,0,74.4,179.72h.048a104.574,104.574,0,0,0,74.441-30.835L435.41,187.4a63.469,63.469,0,0,0-89.759-89.758L153.9,289.393a21.767,21.767,0,0,0,30.783,30.782L349.819,155.042l33.942,33.941L218.628,354.116a69.767,69.767,0,0,1-98.665-98.665L311.71,63.7A111.47,111.47,0,0,1,469.352,221.346L274.572,416.124A152.28,152.28,0,0,1,166.19,461.019Z" class="ci-primary"/>
</svg>
