<svg xmlns="http://www.w3.org/2000/svg" viewBox="0 0 512 512">
  <rect width="480" height="480" x="16" y="16" fill="var(--ci-secondary-color, currentColor)" class="ci-secondary" opacity="var(--ci-secondary-opacity, 0.25)" rx="32"/>
  <path fill="var(--ci-primary-color, currentColor)" d="M140.9,120H53V377h87.9A33.1,33.1,0,0,0,174,343.9V153.1A33.1,33.1,0,0,0,140.9,120ZM135,337H92V158h43Z" class="ci-primary"/>
  <path fill="var(--ci-primary-color, currentColor)" d="M459,234.2V152.1A33.1,33.1,0,0,0,425.9,119H338V377h39V267h14.981L413,319.4V377h39V312.044l-18.83-45.729C447.987,262.724,459,249.69,459,234.2ZM420,229H377V159h43Z" class="ci-primary"/>
  <polygon fill="var(--ci-primary-color, currentColor)" points="284 164.873 256 322.23 228 164.873 228 119 189 119 189 168.423 226.119 377 285.881 377 323 168.423 323 119 284 119 284 164.873" class="ci-primary"/>
</svg>
