<svg xmlns="http://www.w3.org/2000/svg" viewBox="0 0 512 512">
  <path fill="var(--ci-secondary-color, currentColor)" d="M456,31.981,56,31.96a24,24,0,0,0-24,24l-.021,400a24,24,0,0,0,24,24l400,.021a24,24,0,0,0,24-24l.021-400A24,24,0,0,0,456,31.981Z" class="ci-secondary" opacity="var(--ci-secondary-opacity, 0.25)"/>
  <polygon fill="var(--ci-primary-color, currentColor)" points="368.029 101.029 213.059 256 368.029 410.971 401.971 377.029 280.941 256 401.971 134.971 368.029 101.029" class="ci-primary"/>
  <polygon fill="var(--ci-primary-color, currentColor)" points="281.971 134.971 248.029 101.029 93.059 256 248.029 410.971 281.971 377.029 160.941 256 281.971 134.971" class="ci-primary"/>
</svg>
