<svg xmlns="http://www.w3.org/2000/svg" viewBox="0 0 512 512">
  <polygon fill="var(--ci-secondary-color, currentColor)" points="498 54.065 498 16 42 16 42 54.24 76.739 92 464.412 92 498 54.065" class="ci-secondary" opacity="var(--ci-secondary-opacity, 0.25)"/>
  <circle cx="144" cy="282" r="100" fill="var(--ci-secondary-color, currentColor)" class="ci-secondary" opacity="var(--ci-secondary-opacity, 0.25)"/>
  <path fill="var(--ci-primary-color, currentColor)" d="M76.739,92l57.386,62.375Q139.013,154,144,154a128,128,0,0,1,82,226.28V496h40l56-74.667V252.84L464.412,92Z" class="ci-primary"/>
  <polygon fill="var(--ci-primary-color, currentColor)" points="181.272 219.272 144 256.544 106.728 219.272 81.272 244.728 118.544 282 81.272 319.272 106.728 344.728 144 307.456 181.272 344.728 206.728 319.272 169.456 282 206.728 244.728 181.272 219.272" class="ci-primary"/>
</svg>
