<svg xmlns="http://www.w3.org/2000/svg" viewBox="0 0 512 512">
  <circle cx="256" cy="256" r="239.4" fill="var(--ci-secondary-color, currentColor)" class="ci-secondary" opacity="var(--ci-secondary-opacity, 0.25)"/>
  <path fill="var(--ci-primary-color, currentColor)" d="M265.852,108.339l41.627,80.892,89.8,14.593a8,8,0,0,1,4.4,13.53L337.6,281.941l13.869,89.91a8,8,0,0,1-11.509,8.362l-81.224-40.974-81.224,40.974a8,8,0,0,1-11.51-8.362l13.87-89.91-64.069-64.587a8,8,0,0,1,4.4-13.53L210,189.231l41.627-80.892A8,8,0,0,1,265.852,108.339Z" class="ci-primary"/>
</svg>
