<svg xmlns="http://www.w3.org/2000/svg" viewBox="0 0 512 512">
  <path fill="var(--ci-secondary-color, currentColor)" d="M495.8,394.638a56.629,56.629,0,0,0-99.681-31.825c-.662.782-1.3,1.582-1.91,2.392L345.3,348.9a170.667,170.667,0,0,0,51.891-38.363c30.1-32.665,47.348-76.163,50.341-126.537H415.458c-4.664,69.192-39.8,119.633-95.458,140.869V374.2l62.894,20.964a57.524,57.524,0,0,0,.044,8.939A56.64,56.64,0,0,0,439.274,456q2.4,0,4.828-.2a56.628,56.628,0,0,0,51.7-61.163Z" class="ci-secondary" opacity="var(--ci-secondary-opacity, 0.25)"/>
  <path fill="var(--ci-secondary-color, currentColor)" d="M96.542,184H64.471c2.993,50.374,20.242,93.872,50.341,126.537A170.667,170.667,0,0,0,166.7,348.9L117.8,365.2a57.122,57.122,0,0,0-8.608-9.083,56.63,56.63,0,0,0-79.807,6.693h0A56.635,56.635,0,0,0,72.535,456q2.4,0,4.827-.2a56.609,56.609,0,0,0,51.731-60.633L192,374.2v-49.33C136.344,303.633,101.206,253.192,96.542,184Z" class="ci-secondary" opacity="var(--ci-secondary-opacity, 0.25)"/>
  <rect width="128" height="128" x="368" y="56" fill="var(--ci-primary-color, currentColor)" class="ci-primary"/>
  <rect width="128" height="128" x="16" y="56" fill="var(--ci-primary-color, currentColor)" class="ci-primary"/>
  <polygon fill="var(--ci-primary-color, currentColor)" points="192 374.199 192 416 320 416 320 374.199 320 288 192 288 192 374.199" class="ci-primary"/>
</svg>
