<svg xmlns="http://www.w3.org/2000/svg" viewBox="0 0 512 512">
  <rect width="288" height="64" x="184" y="64" fill="var(--ci-secondary-color, currentColor)" class="ci-secondary" opacity="var(--ci-secondary-opacity, 0.25)"/>
  <rect width="288" height="64" x="184" y="224" fill="var(--ci-secondary-color, currentColor)" class="ci-secondary" opacity="var(--ci-secondary-opacity, 0.25)"/>
  <rect width="288" height="64" x="184" y="384" fill="var(--ci-secondary-color, currentColor)" class="ci-secondary" opacity="var(--ci-secondary-opacity, 0.25)"/>
  <polygon fill="var(--ci-primary-color, currentColor)" points="83 160 125 160 125 27 48 27 48 69 83 69 83 160" class="ci-primary"/>
  <polygon fill="var(--ci-primary-color, currentColor)" points="103.944 275 141 231.769 141 179 48 179 48 221 94.913 221 51 272.231 51 317 144 317 144 275 103.944 275" class="ci-primary"/>
  <polygon fill="var(--ci-primary-color, currentColor)" points="56 381 99 381 99 395 56 395 56 437 99 437 99 451 56 451 56 493 141 493 141 437 141 424 141 339 56 339 56 381" class="ci-primary"/>
</svg>
