<svg xmlns="http://www.w3.org/2000/svg" viewBox="0 0 512 512">
  <path fill="var(--ci-secondary-color, currentColor)" d="M350.1,32A106.994,106.994,0,0,0,280,58.168V416c8-32,48-64,104-64H496V32Z" class="ci-secondary" opacity="var(--ci-secondary-opacity, 0.25)"/>
  <path fill="var(--ci-secondary-color, currentColor)" d="M16,32V352H139.648A98.631,98.631,0,0,1,232,416V58.168A106.994,106.994,0,0,0,161.9,32Z" class="ci-secondary" opacity="var(--ci-secondary-opacity, 0.25)"/>
  <path fill="var(--ci-primary-color, currentColor)" d="M404.926,392a116.246,116.246,0,0,0-99.51,56H206.584a116.246,116.246,0,0,0-99.51-56H16v48h91.074a68.317,68.317,0,0,1,62.866,41.454L176.174,496H335.826l6.234-14.546A68.317,68.317,0,0,1,404.926,440H496V392Z" class="ci-primary"/>
  <polygon fill="var(--ci-primary-color, currentColor)" points="103.745 192 136 224 152 224 152 72 56 72 56 224 72 224 103.745 192" class="ci-primary"/>
</svg>
