<svg xmlns="http://www.w3.org/2000/svg" viewBox="0 0 512 512">
  <polygon fill="var(--ci-secondary-color, currentColor)" points="216 40 88 40 88 168 136 168 136 119.678 256.478 233.463 424.971 64.971 391.029 31.029 255.522 166.537 172.365 88 216 88 216 40" class="ci-secondary" opacity="var(--ci-secondary-opacity, 0.25)"/>
  <path fill="var(--ci-primary-color, currentColor)" d="M477.075,366.919l-14.782-14.782c-113.932-113.932-298.654-113.932-412.586,0L34.925,366.919a8.634,8.634,0,0,0-2.308,8.046L57.44,448,178.3,430.734l8.633-60.431h0a97.671,97.671,0,0,1,138.128,0h0l8.633,60.431L454.56,448l24.823-73.035A8.634,8.634,0,0,0,477.075,366.919Z" class="ci-primary"/>
</svg>
