<svg xmlns="http://www.w3.org/2000/svg" viewBox="0 0 512 512">
  <path fill="var(--ci-secondary-color, currentColor)" d="M408,80H32A16,16,0,0,0,16,96V368a16,16,0,0,0,16,16H320V264a48.055,48.055,0,0,1,48-48h56V96A16,16,0,0,0,408,80Z" class="ci-secondary" opacity="var(--ci-secondary-opacity, 0.25)"/>
  <path fill="var(--ci-primary-color, currentColor)" d="M480,248H368a16,16,0,0,0-16,16V456a16,16,0,0,0,16,16H480a16,16,0,0,0,16-16V264A16,16,0,0,0,480,248Z" class="ci-primary"/>
  <polygon fill="var(--ci-primary-color, currentColor)" points="249 384 207 384 207 424.122 152 430.857 152 472 304 472 304 430.857 249 424.122 249 384" class="ci-primary"/>
  <path fill="var(--ci-primary-color, currentColor)" d="M189.283,288.3l43.8,22.094,11.509-8.363-7.478-48.48c.12-.372.222-.683.343-1.055L272,217.668c-2.011-6.188-2.385-7.342-4.4-13.53l-48.419-7.869-.9-.652L195.842,152H181.615l-22.446,43.617-.9.652-48.418,7.869-4.4,13.53L140,252.494c.121.372.222.683.342,1.055l-7.478,48.48,11.509,8.363,43.8-22.094Z" class="ci-primary"/>
</svg>
