<svg xmlns="http://www.w3.org/2000/svg" viewBox="0 0 512 512">
  <polygon fill="var(--ci-secondary-color, currentColor)" points="32 480 80 480 432 480 480 480 480 32 32 32 32 480" class="ci-secondary" opacity="var(--ci-secondary-opacity, 0.25)"/>
  <path fill="var(--ci-primary-color, currentColor)" d="M315.875,255.3l-9.032-13.977a69.636,69.636,0,0,0-58.711-31.964H214.89l10.241-47.65a10.049,10.049,0,0,1,8.92-7.654H287.87v-48H233.405l-.988.02A58.04,58.04,0,0,0,178.3,151.161L165.8,209.354H109.88v48h45.6L135.37,350.918a10.049,10.049,0,0,1-8.919,7.653H87v48h40.592l.494-.02A58.038,58.038,0,0,0,182.2,361.459l22.375-104.105h43.558a21.819,21.819,0,0,1,18.4,10.015l14.258,22.066L189.762,378h68.831l48.763-47.446,9.923,15.357a69.636,69.636,0,0,0,58.712,31.965h49.618v-48H375.991a21.817,21.817,0,0,1-18.4-10.016l-15.15-23.445L432.287,209H363.456Z" class="ci-primary"/>
</svg>
