<svg xmlns="http://www.w3.org/2000/svg" viewBox="0 0 512 512">
  <polygon fill="var(--ci-secondary-color, currentColor)" points="45.709 16 16 16 16 45.422 466.578 496 496 496 496 466.457 45.709 16" class="ci-secondary" opacity="var(--ci-secondary-opacity, 0.25)"/>
  <polygon fill="var(--ci-primary-color, currentColor)" points="264 412.353 264 312.888 321.184 350.606 200 229.422 200 240.646 96 307.776 96 379.515 98.021 382.647 200 316.821 200 495.999 255.736 496 380.183 409.605 334.197 363.619 264 412.353" class="ci-primary"/>
  <polygon fill="var(--ci-primary-color, currentColor)" points="253.541 15.974 200 16.038 200 119.184 264 183.099 264 101.458 336.696 152.409 273.875 192.96 316.567 235.597 316.568 235.597 320.202 239.231 415.939 177.434 415.95 129.802 253.541 15.974" class="ci-primary"/>
</svg>
