<svg xmlns="http://www.w3.org/2000/svg" viewBox="0 0 512 512">
  <path fill="var(--ci-primary-color, currentColor)" d="M264.773,155.958H231.589V348.021h33.184a5.3,5.3,0,0,0,5.482-5.083v-181.9A5.3,5.3,0,0,0,264.773,155.958Z" class="ci-primary"/>
  <polygon fill="var(--ci-primary-color, currentColor)" points="369.447 216 369.447 246 413.447 246 413.447 155.957 369.447 155.957 369.447 216" class="ci-primary"/>
  <path fill="var(--ci-primary-color, currentColor)" d="M480,64H32A16,16,0,0,0,16,80V424a16,16,0,0,0,16,16H480a16,16,0,0,0,16-16V80A16,16,0,0,0,480,64ZM170,384H134V269.989H90V384H54V120H90V233.989h44V120h36Zm136.255-41.062a41.331,41.331,0,0,1-41.482,41.083H195.589V119.957h69.184a41.332,41.332,0,0,1,41.482,41.084ZM449.447,248c0,16.361-11.161,30.056-25.974,33.28l25.974,41.558V384h-36V333.162L381.471,282H369.447V384h-36V119.957H416.78c18.013,0,32.667,15.252,32.667,34Z" class="ci-primary"/>
</svg>
