<svg xmlns="http://www.w3.org/2000/svg" viewBox="0 0 512 512">
  <path fill="var(--ci-primary-color, currentColor)" d="M429.618,262.142,381.578,94H296v36h58.422l38.836,135.926A122.475,122.475,0,0,0,306.827,350H258V222H160C85.7,222,24.193,277.784,15.148,349.667H216v2.666A33.667,33.667,0,0,0,249.667,386h88.364L338,384a85.969,85.969,0,0,1,158-46.958V285.475A121.257,121.257,0,0,0,429.618,262.142Z" class="ci-primary"/>
  <circle cx="428" cy="388" r="52" fill="var(--ci-primary-color, currentColor)" class="ci-primary"/>
  <rect width="88" height="36" x="170" y="149.667" fill="var(--ci-primary-color, currentColor)" class="ci-primary"/>
  <path fill="var(--ci-primary-color, currentColor)" d="M167.941,385.667H64.059c0,.111,0,.222-.008.333-.026.665-.051,1.329-.051,2a52,52,0,0,0,104,0c0-.671-.025-1.335-.051-2C167.945,385.889,167.946,385.778,167.941,385.667Z" class="ci-primary"/>
</svg>
