<svg xmlns="http://www.w3.org/2000/svg" viewBox="0 0 512 512">
  <path fill="var(--ci-primary-color, currentColor)" d="M390.877,360.818,254.06,224h-.084l-60.5-60.5.055-.028-45.986-45.986-.046.037L45.976,16H16V45.422L121.326,150.748A95.981,95.981,0,0,0,208,288h50.578l60.312,60.312A31.8,31.8,0,0,1,304,352H136v64h96v56h64V416h8a95.557,95.557,0,0,0,60.808-21.77L466.577,496H496V466.024L390.85,360.875Z" class="ci-primary"/>
  <path fill="var(--ci-primary-color, currentColor)" d="M316.567,235.6h0l83.419,83.42a96.1,96.1,0,0,0-95-95Z" class="ci-primary"/>
  <path fill="var(--ci-primary-color, currentColor)" d="M232,96H208a95.729,95.729,0,0,0-27.122,3.907L240.971,160h127.97V96H296V40H232Z" class="ci-primary"/>
</svg>
