<svg xmlns="http://www.w3.org/2000/svg" viewBox="0 0 512 512">
  <path fill="var(--ci-primary-color, currentColor)" d="M424.783,310.012l-12.5-15.642-12.5,15.642c-8.354,10.454-50.027,64.208-50.027,95.883,0,36.451,28.049,66.105,62.526,66.105s62.527-29.654,62.527-66.105C474.811,374.22,433.138,320.466,424.783,310.012Z" class="ci-primary"/>
  <path fill="var(--ci-primary-color, currentColor)" d="M119.68,45.084,93.268,117.648,31.951,92.563l-15.9,38.874,62.843,25.708L42.806,256.289l-20.6,56.6a52.991,52.991,0,0,0,31.667,67.93L238.6,448.065a53,53,0,0,0,67.929-31.682l97.472-267.815ZM90.522,248,117.8,173.06l43.933,17.973a36.009,36.009,0,1,0,12.99-40.065l-42.547-17.4,12.609-34.647,205.394,74.756L323.123,248Z" class="ci-primary"/>
</svg>
