<svg xmlns="http://www.w3.org/2000/svg" viewBox="0 0 512 512">
  <path fill="var(--ci-primary-color, currentColor)" d="M445,119.034V96.689a9.229,9.229,0,0,0-4.337-7.825L366.7,52.426l-78.3,104.4,39.15,52.2h0a104.288,104.288,0,0,1-5.139,32.416l62.127,62.127A310.41,310.41,0,0,0,445,119.034Z" class="ci-primary"/>
  <path fill="var(--ci-primary-color, currentColor)" d="M496,466.024,361.43,331.455l.04-.044L304.5,274.445l-.037.046L45.976,16H16V45.422L271.923,301.345a103.939,103.939,0,0,1-48.772,12.077h0l-52.2-39.149-104.4,78.3,36.439,73.962a9.227,9.227,0,0,0,7.825,4.337h22.345a310.541,310.541,0,0,0,197.649-70.638L466.578,496H496Z" class="ci-primary"/>
</svg>
