<svg xmlns="http://www.w3.org/2000/svg" viewBox="0 0 512 512">
  <polygon fill="var(--ci-primary-color, currentColor)" points="259.558 37.432 259.516 37.473 259.475 37.432 259.516 37.473 259.558 37.432" class="ci-primary"/>
  <rect width="154.179" x="71.081" y="148.818" fill="var(--ci-primary-color, currentColor)" class="ci-primary" transform="rotate(-45 148.17 148.818)"/>
  <polygon fill="var(--ci-primary-color, currentColor)" points="425.372 203.329 316.352 94.308 316.393 94.267 259.558 37.432 259.516 37.473 259.475 37.432 202.64 94.267 202.681 94.308 202.681 94.308 93.66 203.329 93.66 203.329 150.495 260.164 259.516 151.143 368.537 260.164 425.372 203.329 425.372 203.329 425.372 203.329" class="ci-primary"/>
  <polygon fill="var(--ci-primary-color, currentColor)" points="316.393 315.475 259.558 258.64 259.516 258.681 259.475 258.64 202.64 315.475 202.681 315.516 93.66 424.537 150.495 481.373 259.516 372.352 368.537 481.373 425.372 424.537 316.352 315.516 316.393 315.475" class="ci-primary"/>
</svg>
