<svg xmlns="http://www.w3.org/2000/svg" viewBox="0 0 512 512">
  <path fill="var(--ci-primary-color, currentColor)" d="M316.568,235.6,476.826,395.855a122.48,122.48,0,0,0,19.1-66.236c0-58.437-40.284-104.227-96-112.166V216c0-79.4-64.6-144-144-144a143.148,143.148,0,0,0-79.095,23.73L316.568,235.6Z" class="ci-primary"/>
  <path fill="var(--ci-primary-color, currentColor)" d="M452.89,422.915l.061-.05L149.424,119.183l-.126.14L45.975,16H16V45.422l109.53,109.53A143.143,143.143,0,0,0,111.929,216v2.492A122.27,122.27,0,0,0,49.135,251.2a109.4,109.4,0,0,0-33.206,78.42c0,31.119,12.789,60.762,36.01,83.469C74.629,435.275,105.268,448,136,448H382.76a111.115,111.115,0,0,0,31.349-4.47L466.579,496H496V466.025Z" class="ci-primary"/>
</svg>
