<svg xmlns="http://www.w3.org/2000/svg" viewBox="0 0 512 512">
  <path fill="var(--ci-primary-color, currentColor)" d="M302.435,194.435v65.246a98.446,98.446,0,0,1-15.417,52.941L273,334.648l38.566,24.37A111.937,111.937,0,0,1,408,304h48.369l-73.128-46.211,33.406-52.495a62.61,62.61,0,0,0,9.788-33.613V106.435a90.441,90.441,0,0,0-179.346-16.59A127.783,127.783,0,0,1,265.4,105.032,125.608,125.608,0,0,1,302.435,194.435Z" class="ci-primary"/>
  <path fill="var(--ci-primary-color, currentColor)" d="M296,416h0a112.578,112.578,0,0,1,2.067-21.486L223.241,347.23l33.406-52.495a62.61,62.61,0,0,0,9.788-33.613V195.876A90.435,90.435,0,0,0,176,105.441h0a90.435,90.435,0,0,0-90.435,90.435v65.246a62.6,62.6,0,0,0,9.789,33.613l33.4,52.5L41.923,402.1A55.653,55.653,0,0,0,16,449.149V496l313.129-.486A111.651,111.651,0,0,1,296,416Z" class="ci-primary"/>
  <polygon fill="var(--ci-primary-color, currentColor)" points="452.059 343.41 413.168 382.301 374.277 343.41 344.578 373.109 383.469 412 344.578 450.891 374.277 480.59 413.168 441.699 452.059 480.59 481.757 450.891 442.866 412 481.757 373.109 452.059 343.41" class="ci-primary"/>
</svg>
