<svg xmlns="http://www.w3.org/2000/svg" viewBox="0 0 512 512">
  <path fill="var(--ci-primary-color, currentColor)" d="M160,136a16,16,0,0,0-16-16H120V16H72V120H48a16,16,0,0,0-16,16V238H160Z" class="ci-primary"/>
  <path fill="var(--ci-primary-color, currentColor)" d="M32,376a16,16,0,0,0,16,16H72V496h48V392h24a16,16,0,0,0,16-16V274H32Z" class="ci-primary"/>
  <path fill="var(--ci-primary-color, currentColor)" d="M192,376a16,16,0,0,0,16,16h24V496h48V392h24a16,16,0,0,0,16-16V274H192Z" class="ci-primary"/>
  <path fill="var(--ci-primary-color, currentColor)" d="M320,136a16,16,0,0,0-16-16H280V16H232V120H208a16,16,0,0,0-16,16V238H320Z" class="ci-primary"/>
  <path fill="var(--ci-primary-color, currentColor)" d="M480,136a16,16,0,0,0-16-16H440V16H392V120H368a16,16,0,0,0-16,16V238H480Z" class="ci-primary"/>
  <path fill="var(--ci-primary-color, currentColor)" d="M440,496V392h24a16,16,0,0,0,16-16V274H352V376a16,16,0,0,0,16,16h24V496Z" class="ci-primary"/>
</svg>
