<svg xmlns="http://www.w3.org/2000/svg" viewBox="0 0 512 512">
  <polygon fill="var(--ci-primary-color, currentColor)" points="208 291 208 333 320 333 320 291 285 291 285 168 243 168 243 203 208 203 208 245 243 245 243 291 208 291" class="ci-primary"/>
  <path fill="var(--ci-primary-color, currentColor)" d="M448,210.4v29.581a120.136,120.136,0,0,1-120,120H120v-64L88,323.056,54.189,351.665,16,383.979l104,88v-64H328c92.636,0,168-75.365,168-168v-72h-.824Z" class="ci-primary"/>
  <path fill="var(--ci-primary-color, currentColor)" d="M64,293.58V264A120.136,120.136,0,0,1,184,144H392v64l32-27.077,33.811-28.609L496,120,392,32V96H184C91.364,96,16,171.364,16,264v72h.824Z" class="ci-primary"/>
</svg>
