<svg xmlns="http://www.w3.org/2000/svg" viewBox="0 0 512 512">
  <path fill="var(--ci-primary-color, currentColor)" d="M408.735,127.262A215.075,215.075,0,0,0,324,74.866v69.218A152.166,152.166,0,0,1,408,280c0,83.813-68.187,152-152,152S104,363.811,104,280a152.166,152.166,0,0,1,84-135.914V74.866a216.118,216.118,0,1,0,220.735,52.4Z" class="ci-primary"/>
  <polygon fill="var(--ci-primary-color, currentColor)" points="288 131.398 288 66.337 288 15.998 224 15.998 224 66.337 224 131.398 224 287.998 288 287.998 288 131.398" class="ci-primary"/>
</svg>
