<svg xmlns="http://www.w3.org/2000/svg" viewBox="0 0 512 512">
  <path fill="var(--ci-primary-color, currentColor)" d="M213.257,26.158a16,16,0,0,0-22.628,0L24.334,192.453a16,16,0,0,0,0,22.627L295.586,486.332a16,16,0,0,0,22.628,0l166.3-166.295a16,16,0,0,0,0-22.627Z" class="ci-primary"/>
  <path fill="var(--ci-primary-color, currentColor)" d="M52.182,310.937h-36c0,98.9,78.516,179.8,176.489,183.658l-53.762-96.386L112.45,429.96A147.7,147.7,0,0,1,52.182,310.937Z" class="ci-primary"/>
  <path fill="var(--ci-primary-color, currentColor)" d="M373.091,113.791,399.55,82.04a147.7,147.7,0,0,1,60.268,119.023h36c0-98.9-78.516-179.795-176.489-183.658Z" class="ci-primary"/>
</svg>
