<svg xmlns="http://www.w3.org/2000/svg" viewBox="0 0 512 512">
  <path fill="var(--ci-primary-color, currentColor)" d="M440.117,334.947l16.293-61.1V240a168,168,0,0,0-168-168H262.974V248.615H149.03l-17.95-74.044A56.847,56.847,0,0,0,75.685,131H16v42H75.685a14.96,14.96,0,0,1,14.577,11.466l35.884,148.02q4.863-.479,9.854-.486a100.178,100.178,0,0,1,94.75,68h90.5a100.032,100.032,0,0,1,118.867-65.053Z" class="ci-primary"/>
  <path fill="var(--ci-primary-color, currentColor)" d="M194.971,407.088q-.608-1.436-1.282-2.835-1.349-2.8-2.955-5.439t-3.449-5.106q-1.842-2.465-3.911-4.74t-4.342-4.342q-2.273-2.065-4.74-3.911t-5.106-3.449q-2.639-1.6-5.439-2.955-1.4-.673-2.835-1.282a63.592,63.592,0,0,0-15.165-4.292,64.822,64.822,0,0,0-19.494,0,63.592,63.592,0,0,0-15.165,4.292q-1.435.608-2.835,1.282-2.8,1.349-5.439,2.955t-5.106,3.449q-2.465,1.842-4.74,3.911t-4.342,4.342q-2.066,2.272-3.911,4.74t-3.449,5.106q-1.6,2.638-2.955,5.439-.674,1.4-1.282,2.835a63.592,63.592,0,0,0-4.292,15.165A64.577,64.577,0,0,0,72,432a63.756,63.756,0,0,0,6.311,27.747q1.348,2.8,2.955,5.439a64.312,64.312,0,0,0,11.7,14.188q2.272,2.065,4.74,3.911t5.106,3.449q2.638,1.6,5.439,2.955,1.4.673,2.835,1.282a63.592,63.592,0,0,0,15.165,4.292,64.822,64.822,0,0,0,19.494,0,63.592,63.592,0,0,0,15.165-4.292q1.435-.608,2.835-1.282,2.8-1.349,5.439-2.955t5.106-3.449q2.465-1.842,4.74-3.911a64.312,64.312,0,0,0,11.7-14.188q1.6-2.638,2.955-5.439A63.756,63.756,0,0,0,200,432a64.577,64.577,0,0,0-.737-9.747A63.592,63.592,0,0,0,194.971,407.088Z" class="ci-primary"/>
  <path fill="var(--ci-primary-color, currentColor)" d="M479.263,422.253a63.592,63.592,0,0,0-4.292-15.165q-.608-1.436-1.282-2.835-1.349-2.8-2.955-5.439t-3.449-5.106q-1.842-2.465-3.911-4.74t-4.342-4.342q-2.272-2.065-4.74-3.911t-5.106-3.449q-2.638-1.6-5.439-2.955-1.4-.673-2.835-1.282a63.592,63.592,0,0,0-15.165-4.292,64.822,64.822,0,0,0-19.494,0,63.592,63.592,0,0,0-15.165,4.292q-1.436.608-2.835,1.282-2.8,1.349-5.439,2.955t-5.106,3.449q-2.465,1.842-4.74,3.911t-4.342,4.342q-2.065,2.272-3.911,4.74t-3.449,5.106q-1.6,2.638-2.955,5.439-.673,1.4-1.282,2.835a63.592,63.592,0,0,0-4.292,15.165A64.577,64.577,0,0,0,352,432a63.756,63.756,0,0,0,6.311,27.747q1.349,2.8,2.955,5.439a64.312,64.312,0,0,0,11.7,14.188q2.272,2.065,4.74,3.911t5.106,3.449q2.638,1.6,5.439,2.955,1.4.673,2.835,1.282a63.592,63.592,0,0,0,15.165,4.292,64.822,64.822,0,0,0,19.494,0,63.592,63.592,0,0,0,15.165-4.292q1.436-.608,2.835-1.282,2.8-1.349,5.439-2.955t5.106-3.449q2.465-1.842,4.74-3.911a64.312,64.312,0,0,0,11.7-14.188q1.6-2.638,2.955-5.439A63.756,63.756,0,0,0,480,432,64.577,64.577,0,0,0,479.263,422.253Z" class="ci-primary"/>
</svg>
