<svg xmlns="http://www.w3.org/2000/svg" viewBox="0 0 512 512">
  <path fill="var(--ci-primary-color, currentColor)" d="M369.688,325.628A120.153,120.153,0,0,0,254.6,240h0a120.154,120.154,0,0,0-113.988,82.158l-24.534,73.6C102.266,437.2,133.112,480,176.8,480H329.982a64,64,0,0,0,61.3-82.39Z" class="ci-primary"/>
  <ellipse cx="77.871" cy="227.425" fill="var(--ci-primary-color, currentColor)" class="ci-primary" rx="58.233" ry="71.671" transform="rotate(-30 77.871 227.426)"/>
  <ellipse cx="434.129" cy="227.425" fill="var(--ci-primary-color, currentColor)" class="ci-primary" rx="71.671" ry="58.233" transform="rotate(-60 434.128 227.425)"/>
  <ellipse cx="183.136" cy="119.131" fill="var(--ci-primary-color, currentColor)" class="ci-primary" rx="58.233" ry="71.671" transform="rotate(-12.264 183.133 119.13)"/>
  <ellipse cx="328.864" cy="119.131" fill="var(--ci-primary-color, currentColor)" class="ci-primary" rx="71.671" ry="58.233" transform="rotate(-77.736 328.864 119.131)"/>
</svg>
