<svg xmlns="http://www.w3.org/2000/svg" viewBox="0 0 512 512">
  <path fill="var(--ci-primary-color, currentColor)" d="M475.663,135.259,401.7,98.82l-78.3,104.4,39.15,52.2h0a104.4,104.4,0,0,1-104.4,104.4h0l-52.2-39.15-104.4,78.3,36.439,73.962a9.227,9.227,0,0,0,7.825,4.337h22.344C340.386,477.265,480,337.651,480,165.428V143.084A9.227,9.227,0,0,0,475.663,135.259Z" class="ci-primary"/>
  <path fill="var(--ci-primary-color, currentColor)" d="M225.17,266.777A42.825,42.825,0,0,1,267.947,224V176a90.881,90.881,0,0,0-90.777,90.777Z" class="ci-primary"/>
  <path fill="var(--ci-primary-color, currentColor)" d="M267.947,146.777v-48c-92.635,0-168,75.365-168,168h48A120.136,120.136,0,0,1,267.947,146.777Z" class="ci-primary"/>
  <path fill="var(--ci-primary-color, currentColor)" d="M267.947,66.777v-48a248,248,0,0,0-248,248h48C67.947,156.5,157.667,66.777,267.947,66.777Z" class="ci-primary"/>
</svg>
