<svg xmlns="http://www.w3.org/2000/svg" viewBox="0 0 512 512">
  <path fill="var(--ci-primary-color, currentColor)" d="M480,145.819a9.227,9.227,0,0,0-4.337-7.825L401.7,101.555l-78.3,104.4,39.15,52.2h0a104.4,104.4,0,0,1-104.4,104.4h0l-52.2-39.15-104.4,78.3,36.439,73.962A9.227,9.227,0,0,0,145.819,480h22.344C340.386,480,480,340.386,480,168.163Z" class="ci-primary"/>
  <path fill="var(--ci-primary-color, currentColor)" d="M90.405,168.552,56,193.323v51.754l51-36.72V309h52l78-58.5V212.508l-71.875-46L237,114.757V77.5L159,19H107V129.308L56,96.667v49.866ZM149,64l42.424,31.818L149,126.363Zm0,142.053,41.689,26.68L149,264Z" class="ci-primary"/>
</svg>
