<svg xmlns="http://www.w3.org/2000/svg" viewBox="0 0 512 512">
  <path fill="var(--ci-primary-color, currentColor)" d="M256,102.6c-83.813,0-152,68.187-152,152,0,.465.015.931.019,1.4h48c-.006-.466-.019-.932-.019-1.4a104,104,0,0,1,208,0c0,.465-.013.931-.019,1.4h48c0-.466.02-.932.02-1.4C408,170.79,339.813,102.6,256,102.6Z" class="ci-primary"/>
  <path fill="var(--ci-primary-color, currentColor)" d="M256,64.571c105.678,0,191.683,85.822,191.993,191.429h48A240,240,0,0,0,86.294,86.866,238.413,238.413,0,0,0,16.007,256h48C64.317,150.393,150.322,64.571,256,64.571Z" class="ci-primary"/>
  <path fill="var(--ci-primary-color, currentColor)" d="M256,184a72.008,72.008,0,0,0-24,139.887v58.172l-113.8,113.8.471.47h66.941L256,425.941l70.392,70.392h62.941l2.471-2.47L280,382.059V323.887A72,72,0,0,0,256,184Z" class="ci-primary"/>
</svg>
