<svg xmlns="http://www.w3.org/2000/svg" viewBox="0 0 512 512">
  <polygon fill="var(--ci-primary-color, currentColor)" points="423 329.456 423 279 274 279 274 321 370.259 321 269 414.544 269 465 426 465 426 423 321.741 423 423 329.456" class="ci-primary"/>
  <polygon fill="var(--ci-primary-color, currentColor)" points="97.529 40 97.196 40 97.196 40.333 16.089 121.44 16.089 128 97.196 128 97.196 496 145.196 496 145.196 128 226 128 226 120.471 121.529 16 97.529 40" class="ci-primary"/>
  <path fill="var(--ci-primary-color, currentColor)" d="M318.469,193h63.062L393.2,228h44.271L377.136,47H322.864L262.531,228H306.8ZM350,98.408,367.531,151H332.469Z" class="ci-primary"/>
</svg>
