<svg xmlns="http://www.w3.org/2000/svg" viewBox="0 0 512 512">
  <polygon fill="var(--ci-primary-color, currentColor)" points="255.672 194 231.828 262 280.173 262 256.329 194 255.672 194" class="ci-primary"/>
  <path fill="var(--ci-primary-color, currentColor)" d="M415.025,318.981,499,256l-83.87-62.9-2.148-5.011L427.827,84.173,324.043,99l-5.062-2.024L256,13,193.1,96.87l-5.011,2.148L84.173,84.173,99,187.957l-2.024,5.062L13,256l83.87,62.9,2.148,5.011L84.173,427.827,187.957,413l5.062,2.024L256,499l62.9-83.87,5.011-2.148,103.913,14.845L413,324.043ZM292.8,298H219.205L205.88,336H167.732l62.415-178h51.707L344.27,336H306.121Z" class="ci-primary"/>
</svg>
