<svg xmlns="http://www.w3.org/2000/svg" viewBox="0 0 512 512">
  <path fill="var(--ci-primary-color, currentColor)" d="M321.4,113.4a8,8,0,0,0-11.314,0h0a65.54,65.54,0,0,0,0,92.686L352,248v8H112a24,24,0,0,0-24,24h0a24,24,0,0,0,24,24H288v16H72a24,24,0,0,0-24,24h0a24,24,0,0,0,24,24H288v16H112a24,24,0,0,0-24,24h0a24,24,0,0,0,24,24H288v16H176a24,24,0,0,0-24,24h0a24,24,0,0,0,24,24H352l144-32V288Z" class="ci-primary"/>
  <path fill="var(--ci-primary-color, currentColor)" d="M274.949,158.762a81.3,81.3,0,0,1,17.864-50.018L207.1,23.029a24,24,0,1,0-33.942,33.942Z" class="ci-primary"/>
  <path fill="var(--ci-primary-color, currentColor)" d="M456,70.26a8,8,0,0,0-8-8A65.539,65.539,0,0,0,382.461,127.8v24.034L456,225.373Z" class="ci-primary"/>
  <path fill="var(--ci-primary-color, currentColor)" d="M175.167,240H243.05L116.589,113.539a24,24,0,0,0-33.942,0h0a24,24,0,0,0,0,33.941Z" class="ci-primary"/>
  <path fill="var(--ci-primary-color, currentColor)" d="M265.677,240h55.7l-22.6-22.6a81.024,81.024,0,0,1-19.659-31.846L133.559,40A24,24,0,0,0,99.618,73.941Z" class="ci-primary"/>
  <path fill="var(--ci-primary-color, currentColor)" d="M84.658,240H152.54l-48.52-48.52a24,24,0,1,0-33.941,33.941Z" class="ci-primary"/>
</svg>
