<svg xmlns="http://www.w3.org/2000/svg" viewBox="0 0 512 512">
  <path fill="var(--ci-primary-color, currentColor)" d="M336,192h0l75.665,33.825-32.528,73.727,58.6,58.6c.223-.434.46-.859.68-1.3q.644-1.284,1.263-2.585L496,224s-64-72-96-107.2c-26.9-29.6-43.12-40-62.013-40h0C296,76.8,248,144,248,144l-12.207,12.207,62.5,62.5A122.628,122.628,0,0,0,336,192Z" class="ci-primary"/>
  <path fill="var(--ci-primary-color, currentColor)" d="M16,16V45.012l87.261,87.261L16,232,72.321,354.269q.619,1.3,1.263,2.585C96.857,403.24,144.878,432,196.775,432h118.45a139.46,139.46,0,0,0,69.333-18.429L466.987,496H496V465.615L46.384,16ZM288.5,317.51A791.992,791.992,0,0,0,144,324.8h0L99.938,232.268,167.492,196.5Z" class="ci-primary"/>
</svg>
