<svg xmlns="http://www.w3.org/2000/svg" viewBox="0 0 512 512">
  <path fill="var(--ci-primary-color, currentColor)" d="M440.062,410,296,265.941,262.059,232h-.083l-40-40h.083L201.89,171.831l-.048.035L167.679,137.7l.047-.037L102,71.938l-.045.038L45.976,16H16V45.422l56.23,56.23A239.018,239.018,0,0,0,16,256c0,132.548,107.452,240,240,240a239.018,239.018,0,0,0,154.348-56.23L466.578,496H496V466.024l-55.976-55.976ZM162.578,192l40,40H88V192h38.321a147.87,147.87,0,0,1,12.99-23.267ZM261.6,352H312v48H261.6a148.208,148.208,0,0,1-135.279-88H88V272H242.578L280,309.422V312H181.651A99.908,99.908,0,0,0,261.6,352Z" class="ci-primary"/>
  <path fill="var(--ci-primary-color, currentColor)" d="M256,16A238.882,238.882,0,0,0,131.655,50.684l67.265,67.265A147.125,147.125,0,0,1,261.6,104H312v48H261.6a99.838,99.838,0,0,0-25.366,3.263L316.568,235.6h0L461.316,380.345A238.879,238.879,0,0,0,496,256C496,123.452,388.548,16,256,16Z" class="ci-primary"/>
</svg>
