<svg xmlns="http://www.w3.org/2000/svg" viewBox="0 0 512 512">
  <path fill="var(--ci-primary-color, currentColor)" d="M312,496a118.813,118.813,0,0,1-10.429-156.089l-47.244-29.854,38.417-60.368A72.006,72.006,0,0,0,304,211.034V120A104,104,0,0,0,200,16h0A104,104,0,0,0,96,120v91.034a72.006,72.006,0,0,0,11.256,38.655l38.417,60.368-99.862,63.1A64,64,0,0,0,16,427.265v69.306l296.115-.459L312,496Z" class="ci-primary"/>
  <polygon fill="var(--ci-primary-color, currentColor)" points="417 391 417 336 375 336 375 391 320 391 320 433 375 433 375 488 417 488 417 433 472 433 472 391 417 391" class="ci-primary"/>
</svg>
