<svg xmlns="http://www.w3.org/2000/svg" viewBox="0 0 512 512">
  <path fill="var(--ci-primary-color, currentColor)" d="M436,188h48A227.655,227.655,0,0,0,402.936,13.655l-30.95,36.69A179.752,179.752,0,0,1,436,188Z" class="ci-primary"/>
  <path fill="var(--ci-primary-color, currentColor)" d="M140.014,50.345l-30.95-36.69A227.655,227.655,0,0,0,28,188H76A179.752,179.752,0,0,1,140.014,50.345Z" class="ci-primary"/>
  <path fill="var(--ci-primary-color, currentColor)" d="M392,264V176A136,136,0,0,0,256,40h0A136,136,0,0,0,120,176v88L74.4,348.19A8,8,0,0,0,81.432,360H430.568a8,8,0,0,0,7.035-11.81Z" class="ci-primary"/>
  <path fill="var(--ci-primary-color, currentColor)" d="M256,464a72,72,0,0,0,72-72H184A72,72,0,0,0,256,464Z" class="ci-primary"/>
</svg>
