<svg xmlns="http://www.w3.org/2000/svg" viewBox="0 0 512 512">
  <path fill="var(--ci-primary-color, currentColor)" d="M384,72H316a187.143,187.143,0,0,0-119.8,43.226l45.535,45.535A123.359,123.359,0,0,1,316,136h68Z" class="ci-primary"/>
  <polygon fill="var(--ci-primary-color, currentColor)" points="316.568 235.597 316.568 235.597 320.971 240 344 240 344 184 264.971 184 316.568 235.597" class="ci-primary"/>
  <path fill="var(--ci-primary-color, currentColor)" d="M344,313.941,310.059,280h-.083l-40-40h.083l-56-56-43.272-43.272-.037.046L45.976,16H16V45.422L147.424,176.846q-1.752,3.536-3.359,7.154H104v56H210.578l40,40H104v56h40.065C173.313,401.91,239.37,448,316,448h68V413.422L466.578,496H496V466.024l-152-152ZM354.578,384H316a123.855,123.855,0,0,1-97.91-48h88.488Z" class="ci-primary"/>
</svg>
