<svg xmlns="http://www.w3.org/2000/svg" viewBox="0 0 512 512">
  <path fill="var(--ci-primary-color, currentColor)" d="M357,173V480H472a24.028,24.028,0,0,0,24-24V173H357Z" class="ci-primary"/>
  <path fill="var(--ci-primary-color, currentColor)" d="M472,32H40A24.028,24.028,0,0,0,16,56v75H496V56A24.028,24.028,0,0,0,472,32Z" class="ci-primary"/>
  <polygon fill="var(--ci-primary-color, currentColor)" points="189 448 189 480 315 480 315 448 315 173 189 173 189 448" class="ci-primary"/>
  <path fill="var(--ci-primary-color, currentColor)" d="M16,173V456a24.028,24.028,0,0,0,24,24H147V173H16Z" class="ci-primary"/>
</svg>
