<svg xmlns="http://www.w3.org/2000/svg" viewBox="0 0 512 512">
  <path fill="var(--ci-primary-color, currentColor)" d="M398.222,16H113.778C103.959,16,96,23.675,96,33.143V478.857C96,488.325,103.959,496,113.778,496H398.222c9.819,0,17.778-7.675,17.778-17.143V33.143C416,23.675,408.041,16,398.222,16ZM256,80a56,56,0,1,1-56,56A56,56,0,0,1,256,80Zm0,352a96,96,0,1,1,96-96A96,96,0,0,1,256,432Z" class="ci-primary"/>
  <circle cx="256" cy="336" r="64" fill="var(--ci-primary-color, currentColor)" class="ci-primary"/>
</svg>
