<svg xmlns="http://www.w3.org/2000/svg" viewBox="0 0 512 512">
  <polygon fill="var(--ci-primary-color, currentColor)" points="424 117 424 75 360 75 360 16 152 16 152 75 88 75 88 117 152 117 152 155 88 155 88 197 152 197 152 235 88 235 88 277 152 277 152 315 88 315 88 357 152 357 152 395 88 395 88 437 152 437 152 496 360 496 360 437 424 437 424 395 360 395 360 357 424 357 424 315 360 315 360 277 424 277 424 235 360 235 360 197 424 197 424 155 360 155 360 117 424 117" class="ci-primary"/>
</svg>
