<svg xmlns="http://www.w3.org/2000/svg" viewBox="0 0 512 512">
  <path fill="var(--ci-primary-color, currentColor)" d="M256,16C123.452,16,16,123.452,16,256S123.452,496,256,496,496,388.548,496,256,388.548,16,256,16ZM142.381,170.81,113.6,149.189A179.583,179.583,0,0,1,175.122,97.4,176.117,176.117,0,0,1,256,78v36A140.941,140.941,0,0,0,142.381,170.81ZM256,344a88,88,0,1,1,88-88A88,88,0,0,1,256,344Z" class="ci-primary"/>
  <rect width="48" height="48" x="232" y="232" fill="var(--ci-primary-color, currentColor)" class="ci-primary"/>
</svg>
