<svg xmlns="http://www.w3.org/2000/svg" viewBox="0 0 512 512">
  <path fill="var(--ci-primary-color, currentColor)" d="M471.851,392.656,406.835,322l-61.449-25.387a171.336,171.336,0,0,0,14.28-170.751L392,112,345.517,90.871,304,72l-22.646,83.033L280,160l35.516-15.221A123.609,123.609,0,0,1,135.1,301.289l-34.365,34.365a171.28,171.28,0,0,0,201.33,4.277l25.122,60.808,64.755,70.379.461.48a56,56,0,0,0,79.449-78.942Z" class="ci-primary"/>
  <path fill="var(--ci-primary-color, currentColor)" d="M113.679,226.709,87.067,238.114A123.644,123.644,0,0,1,254.512,85.876l35.623-35.624A170.6,170.6,0,0,0,204.343,27.23c-94.652,0-171.657,77.005-171.657,171.658a170.841,170.841,0,0,0,10.158,58.179L8,272l40.259,20.129L88,312l32-88Z" class="ci-primary"/>
</svg>
