<svg xmlns="http://www.w3.org/2000/svg" viewBox="0 0 511.974 512">
  <path fill="var(--ci-primary-color, currentColor)" d="M256,16C123.452,16,16,123.452,16,256S123.452,496,256,496,496,388.548,496,256,388.548,16,256,16Zm8,64h48v48H264ZM336.529,383.07A66.225,66.225,0,0,1,279.246,416q-1.182,0-2.367-.042a66.328,66.328,0,0,1-61.288-85l30.537-103.829a16.442,16.442,0,0,0-30.961-10.942l-9.96,24-44.334-18.4,9.96-24a64.443,64.443,0,0,1,121.345,42.884L261.641,344.5a18.329,18.329,0,0,0,33.419,14.4l12.2-20.941,41.47,24.17Z" class="ci-primary"/>
</svg>
