<svg xmlns="http://www.w3.org/2000/svg" viewBox="0 0 512 512">
  <polygon fill="var(--ci-primary-color, currentColor)" points="264 101.458 336.696 152.409 273.875 192.96 316.567 235.597 316.568 235.597 320.202 239.231 415.939 177.434 415.95 129.802 253.541 15.974 200 16.038 200 119.184 264 183.099 264 101.458" class="ci-primary"/>
  <path fill="var(--ci-primary-color, currentColor)" d="M496,466.457,45.709,16H16V45.422L61.578,91,96,125.422l104,104v11.224L96,307.776v71.739l2.021,3.132L200,316.821V496h55.736l124.447-86.395L466.578,496H496Zm-232-54.1V312.888l57.184,37.718L334.2,363.619Z" class="ci-primary"/>
</svg>
