<svg xmlns="http://www.w3.org/2000/svg" viewBox="0 0 512 512">
  <path fill="var(--ci-primary-color, currentColor)" d="M395.835,319.137,425.8,349.105a172.418,172.418,0,0,0,2.094-26.8,170.518,170.518,0,0,0-33.263-101.637L269.475,25.174a16,16,0,0,0-26.95,0l-54.9,85.752,23.165,23.165Z" class="ci-primary"/>
  <path fill="var(--ci-primary-color, currentColor)" d="M45.7,16.667H16v29.7L145.834,176.2l-28.469,44.466A170.525,170.525,0,0,0,84.1,322.3c0,94.785,77.112,171.9,171.9,171.9a171.753,171.753,0,0,0,138.132-69.7l72.17,72.17H496v-29.7Z" class="ci-primary"/>
</svg>
