<svg xmlns="http://www.w3.org/2000/svg" viewBox="0 0 512 512">
  <path fill="var(--ci-primary-color, currentColor)" d="M248.088,64c.273,0,.549,0,.822,0,63.909.45,116.21,52.812,116.587,116.724a117.572,117.572,0,0,1-28.169,77.016l34.008,34.007A165.6,165.6,0,0,0,413.5,180.443C412.965,90.406,339.283,16.639,249.248,16c-.391,0-.779,0-1.169,0-40.6,0-79.341,14.905-110.271,42.222l34.031,34.032C193.587,73.953,220.272,64,248.088,64Z" class="ci-primary"/>
  <path fill="var(--ci-primary-color, currentColor)" d="M199.079,119.494l30.461,30.461a36.052,36.052,0,0,1,15.415-3.781c10.892-.2,20.827,3.572,28,10.615A33.346,33.346,0,0,1,283,181.167h42a75.511,75.511,0,0,0-22.617-54.345c-15.28-15.006-35.935-23.036-58.192-22.641A77.955,77.955,0,0,0,199.079,119.494Z" class="ci-primary"/>
  <path fill="var(--ci-primary-color, currentColor)" d="M46.385,16H16V45.012l76.437,76.437A163.907,163.907,0,0,0,80.06,184h48a115.8,115.8,0,0,1,2.589-24.339l35.871,35.871V280.7L180.8,294.978A113.834,113.834,0,0,1,214.36,376h42A155.559,155.559,0,0,0,210.5,265.28L208.52,263.3v-25.77l107.06,107.06v44.9A58.573,58.573,0,0,1,257.073,448H205.5v48h51.573a106.631,106.631,0,0,0,106.46-103.454L466.988,496H496V465.615Z" class="ci-primary"/>
</svg>
