<svg xmlns="http://www.w3.org/2000/svg" viewBox="0 0 512 512">
  <path fill="var(--ci-primary-color, currentColor)" d="M156.98,433.384a76.867,76.867,0,0,1-54.353-131.22L186.293,218.5H95.784L57.373,256.909A140.869,140.869,0,0,0,247,464.873V375.2l-35.667,35.667A76.367,76.367,0,0,1,156.98,433.384Z" class="ci-primary"/>
  <path fill="var(--ci-primary-color, currentColor)" d="M454.627,58.871A140.408,140.408,0,0,0,265,50.673v89.771l36.319-36.319A76.406,76.406,0,0,1,409.373,212.179l-83.346,83.346.973.973h88.563l39.064-39.064C509.372,202.69,509.372,113.615,454.627,58.871Z" class="ci-primary"/>
  <polygon fill="var(--ci-primary-color, currentColor)" points="363 332.498 283 332.498 283 388.498 283 429.713 283 497.498 325 497.498 325 374.498 448 374.498 448 332.498 379.563 332.498 363 332.498" class="ci-primary"/>
  <polygon fill="var(--ci-primary-color, currentColor)" points="167.785 182.498 229 182.498 229 118.498 229 85.934 229 17.498 187 17.498 187 140.498 64 140.498 64 182.498 131.784 182.498 167.785 182.498" class="ci-primary"/>
</svg>
