<svg xmlns="http://www.w3.org/2000/svg" viewBox="0 0 512 512">
  <path fill="var(--ci-primary-color, currentColor)" d="M256,16q-3.106,0-6.194.078-6.177.158-12.272.622a239.978,239.978,0,0,0-24.018,3.049q-5.91,1.055-11.717,2.4-8.709,2.01-17.168,4.644Q179,28.544,173.48,30.563q-2.757,1.01-5.482,2.084-10.9,4.3-21.258,9.609a239.86,239.86,0,0,0-24.927,14.732q-4.787,3.236-9.409,6.692-9.24,6.911-17.775,14.668A241.46,241.46,0,0,0,70.8,103.338q-3.668,4.445-7.124,9.066-6.912,9.242-12.934,19.147a238.77,238.77,0,0,0-23.956,53.08q-2.629,8.456-4.644,17.168-1.341,5.806-2.4,11.717A239.978,239.978,0,0,0,16.7,237.534q-.463,6.095-.622,12.271Q16,252.894,16,256c0,132.548,107.452,240,240,240S496,388.548,496,256,388.548,16,256,16ZM391.765,391.765A190.746,190.746,0,0,1,256,448V64A192,192,0,0,1,391.765,391.765Z" class="ci-primary"/>
</svg>
