<svg xmlns="http://www.w3.org/2000/svg" viewBox="0 0 512 512">
  <path fill="var(--ci-primary-color, currentColor)" d="M448,101a29.032,29.032,0,0,0,29-29V16H435V59H264a29.032,29.032,0,0,0-29,29v56h42V101Z" class="ci-primary"/>
  <path fill="var(--ci-primary-color, currentColor)" d="M235,184V144H203.171a72.626,72.626,0,0,0-72.626,72.625V251H235Z" class="ci-primary"/>
  <path fill="var(--ci-primary-color, currentColor)" d="M130.545,376.572A119.429,119.429,0,0,0,249.974,496h12.052A119.429,119.429,0,0,0,381.455,376.572V293H130.545Z" class="ci-primary"/>
  <path fill="var(--ci-primary-color, currentColor)" d="M277,251H381.455V216.625A72.626,72.626,0,0,0,308.829,144H277V251Z" class="ci-primary"/>
</svg>
