<svg xmlns="http://www.w3.org/2000/svg" viewBox="0 0 512 512">
  <path fill="var(--ci-primary-color, currentColor)" d="M469.453,392.6V63.547a21,21,0,0,0-21-21H120.113l41.914,42h8.822v8.84l42,42.086V84.547h86.3v86.3h-51l41.914,42h9.084v9.1l42,42.085V212.849h86.3v86.3h-51.26l41.915,42h9.345v9.364Zm-128.3-221.752v-86.3h86.3v86.3Z" class="ci-primary"/>
  <path fill="var(--ci-primary-color, currentColor)" d="M16,16.256V46.365L42.547,72.912V448.453a21,21,0,0,0,21,21h375.54L466.3,496.667H496v-29.7L45.289,16.256Zm154.849,282.9h-86.3v-86.3h86.3Zm-86.3,42h86.3v86.3h-86.3Zm128.3,0h86.3v86.3h-86.3Zm184.238,86.3H341.151V371.517Zm-128.3-128.3H212.849V243.214Zm-128.3-128.3H84.547V114.912Z" class="ci-primary"/>
</svg>
