<svg xmlns="http://www.w3.org/2000/svg" viewBox="0 0 512 512">
  <path fill="var(--ci-primary-color, currentColor)" d="M424,226H402v39.79h22a6.007,6.007,0,0,0,6-6V232A6.006,6.006,0,0,0,424,226Z" class="ci-primary"/>
  <path fill="var(--ci-primary-color, currentColor)" d="M496,126.532H16a16,16,0,0,0-16,16v256a16,16,0,0,0,16,16H496a16,16,0,0,0,16-16v-256A16,16,0,0,0,496,126.532ZM146,352H110V290H82v62H46V192H82v62h28V192h36ZM344,227.894H314V352H278V227.894H234V352H198V227.894H168v-36H344Zm122,31.9a42.048,42.048,0,0,1-42,42H402V352H366V190h58a42.047,42.047,0,0,1,42,42Z" class="ci-primary"/>
</svg>
