<svg xmlns="http://www.w3.org/2000/svg" viewBox="0 0 512 512">
  <path fill="var(--ci-primary-color, currentColor)" d="M480,88H314.441l72-72H318.559L256.25,78.309,193.941,16H126.059l72,72H168.775L316.568,235.6h0L487.23,406.26A15.986,15.986,0,0,0,496,392V104A16,16,0,0,0,480,88Z" class="ci-primary"/>
  <rect width="192" height="64" x="160" y="432" fill="var(--ci-primary-color, currentColor)" class="ci-primary"/>
  <path fill="var(--ci-primary-color, currentColor)" d="M16,16V45.422L58.578,88H32a16,16,0,0,0-16,16V392a16,16,0,0,0,16,16H378.578l88,88H496V466.457L45.709,16Z" class="ci-primary"/>
</svg>
