<svg xmlns="http://www.w3.org/2000/svg" viewBox="0 0 512 512">
  <path fill="var(--ci-primary-color, currentColor)" d="M408.873,350.472C452.634,316.89,480,269.074,480,216,480,114.38,379.712,32,256,32S32,114.38,32,216,132.288,400,256,400a274.016,274.016,0,0,0,33.348-2.032l22.106,19.159A257.353,257.353,0,0,0,480,480V464h0a299.274,299.274,0,0,1-70.593-112.012ZM272,332H236V296h36Zm37.906-110.119a72.521,72.521,0,0,1-37.239,23.2V272h-36V236.818a26.056,26.056,0,0,1,22.716-25.783A36.67,36.67,0,1,0,218,174.667H182a72.666,72.666,0,0,1,75.48-72.613,72.667,72.667,0,0,1,52.426,119.827Z" class="ci-primary"/>
</svg>
