<svg xmlns="http://www.w3.org/2000/svg" viewBox="0 0 512 512">
  <polygon fill="var(--ci-primary-color, currentColor)" points="418.6 195 383.6 195 383.6 48 341.6 48 341.6 72 306.6 72 306.6 112 341.6 112 341.6 195 306.6 195 306.6 237 418.6 237 418.6 195" class="ci-primary"/>
  <path fill="var(--ci-primary-color, currentColor)" d="M423.6,327.6A60.669,60.669,0,0,0,363,267h-4.4A60.669,60.669,0,0,0,298,327.6V332a60.669,60.669,0,0,0,60.6,60.6H363a60.379,60.379,0,0,0,17.059-2.461A39.862,39.862,0,0,1,341.8,419H322.6v42h19.2a81.892,81.892,0,0,0,81.8-81.8V333.6h-.04c.013-.533.04-1.063.04-1.6Zm-42,4.4A18.621,18.621,0,0,1,363,350.6h-4.4A18.621,18.621,0,0,1,340,332v-4.4A18.621,18.621,0,0,1,358.6,309H363a18.621,18.621,0,0,1,18.6,18.6Z" class="ci-primary"/>
  <polygon fill="var(--ci-primary-color, currentColor)" points="113.529 40 113.196 40 113.196 40.333 32.089 121.44 32.089 128 113.196 128 113.196 496 161.196 496 161.196 128 242 128 242 120.471 137.529 16 113.529 40" class="ci-primary"/>
</svg>
