<svg xmlns="http://www.w3.org/2000/svg" viewBox="0 0 512 512">
  <polygon fill="var(--ci-primary-color, currentColor)" points="88.033 35.467 88 35.444 88 35.514 88.033 35.467" class="ci-primary"/>
  <path fill="var(--ci-primary-color, currentColor)" d="M293.436,157.148V144.229a335.689,335.689,0,0,0-210,45.611l-32.2-45.993A389.849,389.849,0,0,1,256,86.128q18.627,0,37,1.739V39.7q-18.428-1.552-37-1.574A439.844,439.844,0,0,0,8,114.7v51.09L228.012,480h55.976l142.54-203.569A119.994,119.994,0,0,1,293.436,157.148Z" class="ci-primary"/>
  <path fill="var(--ci-primary-color, currentColor)" d="M471.936,104V75.527a60.319,60.319,0,0,0-60.25-60.25q-1.558,0-3.1.079a59.815,59.815,0,0,0-20.334,4.664q-2.7,1.145-5.265,2.54a60.634,60.634,0,0,0-25.6,26.87q-.636,1.317-1.208,2.668-1.144,2.7-2.029,5.533a60.044,60.044,0,0,0-2.713,17.9V104h-22v53.148a84.044,84.044,0,0,0,100.907,82.291q4.1-.842,8.044-2.073a82.86,82.86,0,0,0,23.823-11.894h0a83.641,83.641,0,0,0,23.047-24.8q2.107-3.463,3.883-7.139a83.5,83.5,0,0,0,8.3-36.385V104Zm-36-2h-48.5V75.527a24.122,24.122,0,0,1,4.147-13.548,24.433,24.433,0,0,1,2.963-3.591q.824-.824,1.723-1.566a24.286,24.286,0,0,1,7.087-4.071q1.115-.408,2.276-.709T408,51.557a24.263,24.263,0,0,1,27.938,23.97Z" class="ci-primary"/>
</svg>
