<svg xmlns="http://www.w3.org/2000/svg" viewBox="0 0 512 512">
  <path fill="var(--ci-primary-color, currentColor)" d="M472,40H40A24.028,24.028,0,0,0,16,64V448a24.028,24.028,0,0,0,24,24H472a24.028,24.028,0,0,0,24-24V64A24.028,24.028,0,0,0,472,40ZM220.325,370.468,194.87,395.924,168,369.054l-26.87,26.87-25.455-25.456,26.869-26.87-26.869-26.87,25.455-25.456L168,318.142l26.87-26.87,25.455,25.456L193.456,343.6ZM224,186H186v38H150V186H112V150h38V112h36v38h38ZM400,393.6H288v-36H400Zm0-64H288v-36H400ZM400,186H288V150H400Z" class="ci-primary"/>
</svg>
