<svg xmlns="http://www.w3.org/2000/svg" viewBox="0 0 512 512">
  <path fill="var(--ci-primary-color, currentColor)" d="M77,496H435a61,61,0,0,0,61-61V77a61,61,0,0,0-61-61H77A61,61,0,0,0,16,77V435A61,61,0,0,0,77,496ZM408,72h32v32H408Zm0,56h32v32H408Zm0,56h32v32H408Zm0,56h32v32H408Zm0,56h32v32H408Zm0,56h32v32H408Zm0,56h32v32H408ZM352,72h32v32H352Zm0,168h32v32H352Zm0,168h32v32H352ZM296,72h32v32H296Zm0,168h32v32H296Zm0,168h32v32H296ZM240,88V72h32v32H240Zm0,40h32v32H240Zm0,56h32v32H240Zm0,56h32v32H240Zm0,56h32v32H240Zm0,56h32v32H240Zm0,72V408h32v32H240ZM184,72h32v32H184Zm0,168h32v32H184Zm0,168h32v32H184ZM128,72h32v32H128Zm0,168h32v32H128Zm0,168h32v32H128ZM72,424V72h32V440H72Z" class="ci-primary"/>
</svg>
