<svg xmlns="http://www.w3.org/2000/svg" viewBox="0 0 512 512">
  <path fill="var(--ci-primary-color, currentColor)" d="M256,16C123.452,16,16,123.452,16,256S123.452,496,256,496,496,388.548,496,256,388.548,16,256,16ZM118.547,232.042,138.588,209.5l-22.546-20.042,23.916-26.906,22.547,20.041,20.042-22.546,26.906,23.916-20.041,22.547,22.546,20.042-23.916,26.906L165.5,233.412l-20.042,22.546ZM344,354H168V318H344Zm20.042-100.547L341.5,233.412l-20.042,22.546-26.906-23.916L314.588,209.5l-22.546-20.042,23.916-26.906,22.547,20.041,20.042-22.546,26.906,23.916-20.041,22.547,22.546,20.042Z" class="ci-primary"/>
</svg>
