<svg xmlns="http://www.w3.org/2000/svg" viewBox="0 0 512 512">
  <rect width="480" height="84" x="16" y="21" fill="var(--ci-primary-color, currentColor)" class="ci-primary"/>
  <rect width="224" height="64" x="16" y="162" fill="var(--ci-primary-color, currentColor)" class="ci-primary"/>
  <rect width="224" height="64" x="272" y="162" fill="var(--ci-primary-color, currentColor)" class="ci-primary"/>
  <rect width="136" height="60" x="16" y="290" fill="var(--ci-primary-color, currentColor)" class="ci-primary"/>
  <rect width="128" height="60" x="192" y="290" fill="var(--ci-primary-color, currentColor)" class="ci-primary"/>
  <rect width="136" height="60" x="360" y="290" fill="var(--ci-primary-color, currentColor)" class="ci-primary"/>
  <path fill="var(--ci-primary-color, currentColor)" d="M58.885,410.229a42.886,42.886,0,1,0,42.886,42.886A42.934,42.934,0,0,0,58.885,410.229Z" class="ci-primary"/>
  <path fill="var(--ci-primary-color, currentColor)" d="M192.3,410.229a42.886,42.886,0,1,0,42.886,42.886A42.934,42.934,0,0,0,192.3,410.229Z" class="ci-primary"/>
  <path fill="var(--ci-primary-color, currentColor)" d="M325.705,410.229a42.886,42.886,0,1,0,42.885,42.886A42.935,42.935,0,0,0,325.705,410.229Z" class="ci-primary"/>
  <path fill="var(--ci-primary-color, currentColor)" d="M459.115,410.229A42.886,42.886,0,1,0,502,453.115,42.935,42.935,0,0,0,459.115,410.229Z" class="ci-primary"/>
</svg>
