<svg xmlns="http://www.w3.org/2000/svg" viewBox="0 0 512 512">
  <polygon fill="var(--ci-primary-color, currentColor)" points="193.999 416 193.999 448 317.999 448 317.999 416 317.999 274 193.999 274 193.999 416" class="ci-primary"/>
  <polygon fill="var(--ci-primary-color, currentColor)" points="353.999 274 353.999 416 353.999 448 496 448 496 274 464 274 353.999 274" class="ci-primary"/>
  <polygon fill="var(--ci-primary-color, currentColor)" points="193.999 96 193.999 238 317.999 238 317.999 96 317.999 64 193.999 64 193.999 96" class="ci-primary"/>
  <polygon fill="var(--ci-primary-color, currentColor)" points="16 238 48 238 157.999 238 157.999 96 157.999 64 16 64 16 238" class="ci-primary"/>
  <polygon fill="var(--ci-primary-color, currentColor)" points="16 274 16 448 157.999 448 157.999 416 157.999 274 48 274 16 274" class="ci-primary"/>
  <polygon fill="var(--ci-primary-color, currentColor)" points="353.999 64 353.999 96 353.999 238 464 238 496 238 496 64 353.999 64" class="ci-primary"/>
</svg>
