<svg xmlns="http://www.w3.org/2000/svg" viewBox="0 0 512 512">
  <polygon fill="var(--ci-primary-color, currentColor)" points="457.481 177.312 423.54 143.37 367.83 199.08 312.12 143.37 278.179 177.312 333.889 233.021 278.179 288.731 312.12 322.673 367.83 266.963 423.54 322.673 457.481 288.731 401.771 233.021 457.481 177.312" class="ci-primary"/>
  <path fill="var(--ci-primary-color, currentColor)" d="M120,88H392V56a40.045,40.045,0,0,0-40-40H112A40.045,40.045,0,0,0,72,56V456a40.045,40.045,0,0,0,40,40H352a40.045,40.045,0,0,0,40-40V368H120Zm94,326h36v36H214Z" class="ci-primary"/>
</svg>
