<svg xmlns="http://www.w3.org/2000/svg" viewBox="0 0 512 512">
  <polygon fill="var(--ci-primary-color, currentColor)" points="112 399.5 167.943 399.5 167.943 463.5 231.943 463.5 231.943 399.5 312 399.5 312 343.5 112 343.5 112 399.5" class="ci-primary"/>
  <path fill="var(--ci-primary-color, currentColor)" d="M306.82,64H112v64h55.943V243.6H112v59.9H313.251c49.765,0,94.866-30.682,111.741-77.5A118.3,118.3,0,0,0,432,185.8C432,118.639,375.845,64,306.82,64Zm0,179.6H231.943V128H306.82c33.735,0,61.18,25.929,61.18,57.8S340.555,243.6,306.82,243.6Z" class="ci-primary"/>
</svg>
