<svg xmlns="http://www.w3.org/2000/svg" viewBox="0 0 512 512">
  <polygon fill="var(--ci-primary-color, currentColor)" points="193.305 112 181.877 32 77.552 32 88.98 112 193.305 112" class="ci-primary"/>
  <polygon fill="var(--ci-primary-color, currentColor)" points="337.305 112 325.877 32 221.552 32 232.98 112 337.305 112" class="ci-primary"/>
  <path fill="var(--ci-primary-color, currentColor)" d="M16,248V448H443.727L496,282.466V248ZM72,360V318h42v42Zm88,0V318h42v42Zm88,0V318h42v42Zm130,0H336V318h42Z" class="ci-primary"/>
  <path fill="var(--ci-primary-color, currentColor)" d="M426.244,216l-15.1-50.085-.283-.852A32.1,32.1,0,0,0,380.793,144H48v72Z" class="ci-primary"/>
</svg>
