<svg xmlns="http://www.w3.org/2000/svg" viewBox="0 0 512 512">
  <polygon fill="var(--ci-primary-color, currentColor)" points="40.033 35.467 40 35.444 40 35.514 40.033 35.467" class="ci-primary"/>
  <path fill="var(--ci-primary-color, currentColor)" d="M293.436,157.148V105.936H293V39.7q-18.428-1.552-37-1.574A439.844,439.844,0,0,0,8,114.7v51.09L228.012,480h55.976l142.54-203.569A119.994,119.994,0,0,1,293.436,157.148Z" class="ci-primary"/>
  <path fill="var(--ci-primary-color, currentColor)" d="M471.936,104V75.527a60.045,60.045,0,0,0-2.714-17.9q-.88-2.829-2.029-5.533-.571-1.351-1.208-2.668a60.664,60.664,0,0,0-25.6-26.87q-2.562-1.393-5.266-2.54a59.815,59.815,0,0,0-20.334-4.664q-1.538-.078-3.1-.079t-3.1.079a59.815,59.815,0,0,0-20.334,4.664q-2.7,1.145-5.265,2.54a60.634,60.634,0,0,0-25.6,26.87q-.636,1.317-1.208,2.668-1.144,2.7-2.029,5.533a60.044,60.044,0,0,0-2.713,17.9V104h-22v53.148a84,84,0,0,0,168,0V104Zm-36-2h-48.5V75.527a24.122,24.122,0,0,1,4.147-13.548,24.433,24.433,0,0,1,2.963-3.591q.824-.824,1.723-1.566a24.286,24.286,0,0,1,7.087-4.071q1.115-.408,2.276-.709T408,51.557a24.428,24.428,0,0,1,7.376,0q1.2.184,2.365.485t2.276.709a24.286,24.286,0,0,1,7.087,4.071q.9.741,1.723,1.566a24.432,24.432,0,0,1,4.716,6.635,24.115,24.115,0,0,1,2.395,10.5Z" class="ci-primary"/>
</svg>
