<svg xmlns="http://www.w3.org/2000/svg" viewBox="0 0 512 512">
  <circle cx="100" cy="100" r="76" fill="var(--ci-primary-color, currentColor)" class="ci-primary"/>
  <path fill="var(--ci-primary-color, currentColor)" d="M476.71,36.71h0a61.222,61.222,0,0,0-87.954,1.419l-37.4,39.889q-39.348,41.972-75.8,86.522L168,296l.258.258L71.484,399.484,66,394a19.8,19.8,0,0,0-28,28l52,52a19.8,19.8,0,0,0,28-28l-5.484-5.484,103.226-96.774L216,344l89.8-69.388A1706.434,1706.434,0,0,0,469.033,130.967l7.677-7.677A61.222,61.222,0,0,0,476.71,36.71Z" class="ci-primary"/>
</svg>
