<svg xmlns="http://www.w3.org/2000/svg" viewBox="0 0 512 512">
  <path fill="var(--ci-primary-color, currentColor)" d="M423.861,158.2,340.115,241.95l-7.219,7.22-9.935,2.354L257.615,267.01l-.749.177-.756.145a37.1,37.1,0,0,1-43.447-43.419l.147-.767.18-.761,15.486-65.346,2.354-9.935,7.22-7.219,97.334-97.334a171.828,171.828,0,0,0-217.941,254L242.878,476.333a16,16,0,0,0,26.244,0L394.557,296.551a172.058,172.058,0,0,0,29.3-138.347Z" class="ci-primary"/>
  <path fill="var(--ci-primary-color, currentColor)" d="M429.526,101.561a36.175,36.175,0,0,0,0-48.455q-.621-.687-1.283-1.349h0q-.661-.663-1.349-1.283a36.046,36.046,0,0,0-9-5.959q-1.6-.745-3.265-1.325c-.667-.233-1.341-.439-2.019-.632-.154-.044-.307-.087-.461-.129-.676-.183-1.356-.351-2.041-.494-.051-.011-.1-.019-.155-.03-.662-.135-1.326-.249-1.992-.347-.119-.017-.236-.036-.355-.052-.714-.1-1.43-.177-2.148-.232l-.151-.009q-1.07-.078-2.14-.092l-.156,0q-1.13-.011-2.258.049c-.05,0-.1.007-.148.01-.657.038-1.313.1-1.968.17-.161.018-.322.036-.483.056-.7.088-1.409.191-2.11.321-.255.047-.511.1-.766.153a36.106,36.106,0,0,0-3.5.914c-.779.246-1.553.516-2.318.816-.205.08-.411.16-.615.244a36.051,36.051,0,0,0-11.754,7.854L365.931,62.915l-26.7,26.7-75.722,75.723-9.578,40.415-5.908,24.93a1.128,1.128,0,0,0-.017.27c0,.029.009.057.013.086a1.159,1.159,0,0,0,.032.168c.01.032.024.061.037.092a1.019,1.019,0,0,0,.063.138c.018.031.039.059.059.087a1.217,1.217,0,0,0,.09.114,1.052,1.052,0,0,0,.076.073,1.094,1.094,0,0,0,.112.089.923.923,0,0,0,.091.056,1.135,1.135,0,0,0,.132.061.86.86,0,0,0,.1.035.88.88,0,0,0,.148.028c.035,0,.071.011.107.013.013,0,.025,0,.038,0a1.2,1.2,0,0,0,.212-.02l65.345-15.486,96.152-96.151,17.432-17.432Q428.906,102.248,429.526,101.561Z" class="ci-primary"/>
</svg>
