<svg xmlns="http://www.w3.org/2000/svg" viewBox="0 0 512 512">
  <path fill="var(--ci-primary-color, currentColor)" d="M256,104C132.288,104,32,204.288,32,328v72H174a81.935,81.935,0,0,1,100.384-79.9l61.388-127.893,32.456,15.578-61.407,127.93A81.874,81.874,0,0,1,338,400H480V328C480,204.288,379.712,104,256,104ZM120,352H80V312h40Zm48-112H128V200h40Zm112-48H240V152h40ZM432,352H392V312h40Z" class="ci-primary"/>
  <circle cx="256" cy="400" r="46" fill="var(--ci-primary-color, currentColor)" class="ci-primary"/>
</svg>
