<svg xmlns="http://www.w3.org/2000/svg" viewBox="0 0 512 512">
  <path fill="var(--ci-primary-color, currentColor)" d="M423.584,88.416A237,237,0,0,0,19,256V360H61V256C61,148.477,148.477,61,256,61s195,87.477,195,195V360h42V256A235.445,235.445,0,0,0,423.584,88.416Z" class="ci-primary"/>
  <path fill="var(--ci-primary-color, currentColor)" d="M388.635,248V186.768A42.817,42.817,0,0,0,345.867,144H175.4a42.815,42.815,0,0,0-42.766,42.768V248Z" class="ci-primary"/>
  <path fill="var(--ci-primary-color, currentColor)" d="M388.635,280h-256v87.83L24.184,496H79.2l81.231-96h192.28l80.433,96h54.792l-99.3-118.522ZM302,318h42v42H302Zm-126,0h42v42H176Z" class="ci-primary"/>
</svg>
