<svg xmlns="http://www.w3.org/2000/svg" viewBox="0 0 512 512">
  <path fill="var(--ci-primary-color, currentColor)" d="M408.873,350.472C452.634,316.89,480,269.074,480,216,480,114.379,379.712,32,256,32S32,114.379,32,216,132.288,400,256,400a274.016,274.016,0,0,0,33.348-2.032l22.106,19.159A257.347,257.347,0,0,0,480,480V464a299.274,299.274,0,0,1-70.593-112.012ZM304,152h40v40H304Zm-136,0h40v40H168ZM350.429,252.4A97.533,97.533,0,0,1,259.438,314h-6.875a97.533,97.533,0,0,1-90.992-61.6L156.613,240h38.795a61.686,61.686,0,0,0,57.155,38h6.875a61.685,61.685,0,0,0,57.154-38h38.8Z" class="ci-primary"/>
</svg>
