<svg xmlns="http://www.w3.org/2000/svg" viewBox="0 0 512 512">
  <path fill="var(--ci-primary-color, currentColor)" d="M383.759,152.238a127.995,127.995,0,0,0-255.534.251C75.935,156.1,32,196.605,32,249.619h0A97.763,97.763,0,0,0,43.85,296H469.626A107.8,107.8,0,0,0,480,249.619h0C480,194.434,438.753,152.814,383.759,152.238Z" class="ci-primary"/>
  <polygon fill="var(--ci-primary-color, currentColor)" points="158.395 400 126.395 496 170.667 496 202.667 400 224 336 179.728 336 158.395 400" class="ci-primary"/>
  <polygon fill="var(--ci-primary-color, currentColor)" points="352 400 320 496 364.272 496 396.272 400 417.605 336 373.333 336 352 400" class="ci-primary"/>
  <polygon fill="var(--ci-primary-color, currentColor)" points="275.728 336 254.395 400 238.395 448 282.667 448 298.667 400 320 336 275.728 336" class="ci-primary"/>
  <polygon fill="var(--ci-primary-color, currentColor)" points="82.926 336 61.592 400 45.592 448 89.864 448 105.864 400 127.197 336 82.926 336" class="ci-primary"/>
</svg>
