<svg xmlns="http://www.w3.org/2000/svg" viewBox="0 0 512 512">
  <path fill="var(--ci-primary-color, currentColor)" d="M407.938,400V264H104.062V400h29.124l-60,96h49.527l60-96H329.287l60,96h49.527l-60-96ZM312,310.116A24,24,0,1,1,304,328,23.9,23.9,0,0,1,312,310.116Zm-144,0A24,24,0,1,1,160,328,23.9,23.9,0,0,1,168,310.116Z" class="ci-primary"/>
  <path fill="var(--ci-primary-color, currentColor)" d="M115.125,58h55.484l22.8,38H152.558a48.55,48.55,0,0,0-48.5,48.5V232H407.938V144.5a48.55,48.55,0,0,0-48.5-48.5H318.591l22.8-38h55.484L415.9,96.05l32.2-16.1L426.313,36.376A25.858,25.858,0,0,0,403.056,22H108.944A25.855,25.855,0,0,0,85.689,36.373L63.9,79.95l32.2,16.1Zm184.284,0-21.6,36H234.191l-21.6-36Z" class="ci-primary"/>
</svg>
