<svg xmlns="http://www.w3.org/2000/svg" viewBox="0 0 512 512">
  <path fill="var(--ci-primary-color, currentColor)" d="M143.4,331.91a17.42,17.42,0,0,0,3.293-.314l89.86-21.279,190.2-190.2a62.923,62.923,0,1,0-88.986-88.987l-190.2,190.2-21.134,89.185-.145.674A17.436,17.436,0,0,0,143.4,331.91Z" class="ci-primary"/>
  <path fill="var(--ci-primary-color, currentColor)" d="M467,360H46a29.032,29.032,0,0,0-29,29v75.093a29.033,29.033,0,0,0,29,29H467a29.033,29.033,0,0,0,29-29V389A29.032,29.032,0,0,0,467,360Zm-13,91.093H59V402H454Z" class="ci-primary"/>
</svg>
