<svg xmlns="http://www.w3.org/2000/svg" viewBox="0 0 512 512">
  <path fill="var(--ci-primary-color, currentColor)" d="M234.153,341h0l-52.2-39.15-104.4,78.3,36.439,73.962a9.227,9.227,0,0,0,7.825,4.337h22.344C316.386,458.445,456,318.831,456,146.608V124.264a9.227,9.227,0,0,0-4.337-7.825L377.7,80,299.4,184.4l39.15,52.2h0A104.4,104.4,0,0,1,234.153,341Z" class="ci-primary"/>
  <polygon fill="var(--ci-primary-color, currentColor)" points="200 56 48 56 48 200 96 200 96 135.678 199.521 233.448 232.479 198.552 132.365 104 200 104 200 56" class="ci-primary"/>
</svg>
