<svg xmlns="http://www.w3.org/2000/svg" viewBox="0 0 512 512">
  <path fill="var(--ci-primary-color, currentColor)" d="M393.3,161.33,334.532,76.437a48.091,48.091,0,0,0-38.775-20.672l-111.527-1.6-.23,0c-57.579,0-101.757,9.631-130.21,56.634C28.542,152.5,17.091,222.17,16.075,341.982L96,342c41.586,0,64.64-34.019,72.381-65.95L192.6,160h36.775L203.514,283.94l-.062.261c-6.283,26.176-18.724,48.74-35.981,65.252A101.491,101.491,0,0,1,96,378l-44.8-.01L22.722,496H312V389.493l98.616-16.887c22.36-2.749,38.857-9.955,50.426-22.023,9.89-10.318,15.909-23.5,19.519-42.752L496,225.487V178.446Z" class="ci-primary"/>
</svg>
