<svg xmlns="http://www.w3.org/2000/svg" viewBox="0 0 512 512">
  <path fill="var(--ci-primary-color, currentColor)" d="M472,16H40A24.028,24.028,0,0,0,16,40V472a24.028,24.028,0,0,0,24,24H472a24.028,24.028,0,0,0,24-24V40A24.028,24.028,0,0,0,472,16ZM369.137,369.137l-63.1-9.014-11.987,5.138L256,416l-38.242-50.989-12.108-4.843-62.787,8.969,9.014-63.1-5.138-11.987L96,256l50.989-38.242,4.843-12.108-8.969-62.787,63.1,9.014,11.987-5.138L256,96l38.242,50.989,12.108,4.843,62.787-8.969-9.014,63.1,5.138,11.986L416,256l-50.989,38.242-4.843,12.108Z" class="ci-primary"/>
</svg>
