<svg xmlns="http://www.w3.org/2000/svg" viewBox="0 0 512 512">
  <polygon fill="var(--ci-primary-color, currentColor)" points="304 282.954 208 378.954 208 400 186.954 400 168 400 168 418.954 168 432 344 432 344 400 304 400 304 282.954" class="ci-primary"/>
  <path fill="var(--ci-primary-color, currentColor)" d="M450.3,32l-56,56H72v80h64V120h72V274.3L32,450.3l-16,16V496H45.7l16-16L208,333.7h0l96-96h0l72-72h0l32-32h0L421.7,120h0l2.3-2.3h0l56-56,16-16V16H466.3ZM304,178.3V120h58.3Z" class="ci-primary"/>
</svg>
