<svg xmlns="http://www.w3.org/2000/svg" viewBox="0 0 512 512">
  <path fill="var(--ci-primary-color, currentColor)" d="M91.794,227,19.149,380.362v28.431l5.559,6.031A118.721,118.721,0,0,0,111.81,453h.4a118.723,118.723,0,0,0,87.237-38.766l6-6.6V380.362L132.8,227ZM81.9,346l30.4-64.176L142.7,346Z" class="ci-primary"/>
  <path fill="var(--ci-primary-color, currentColor)" d="M420.8,107H379.794L307.149,260.362v28.431l5.559,6.031A118.721,118.721,0,0,0,399.81,333h.4a118.723,118.723,0,0,0,87.237-38.766l6-6.6V260.362ZM369.9,226l30.4-64.176L430.7,226Z" class="ci-primary"/>
  <path fill="var(--ci-primary-color, currentColor)" d="M277,182.555A66.1,66.1,0,0,0,322,120c0-1.651-.082-3.283-.2-4.905L416,74.342V29.509l-.338-.782L305.481,76.393A65.958,65.958,0,0,0,190,120c0,1.482.067,2.947.163,4.4L96,162.8v45.357l110.19-44.928A66.175,66.175,0,0,0,235,182.555V477H376V435H277ZM256,144a24,24,0,1,1,24-24A24,24,0,0,1,256,144Z" class="ci-primary"/>
</svg>
