<svg xmlns="http://www.w3.org/2000/svg" viewBox="0 0 512 512">
  <path fill="var(--ci-primary-color, currentColor)" d="M360,107a84.8,84.8,0,0,0-63.927,29.073l29.8,29.8a42.935,42.935,0,0,1,68.246,0l29.8-29.8A84.8,84.8,0,0,0,360,107Z" class="ci-primary"/>
  <path fill="var(--ci-primary-color, currentColor)" d="M360,85a106.753,106.753,0,0,1,79.517,35.483l29.71-29.71a148.753,148.753,0,0,0-218.454,0l29.71,29.71A106.753,106.753,0,0,1,360,85Z" class="ci-primary"/>
  <path fill="var(--ci-primary-color, currentColor)" d="M368,192H336v88H24a8,8,0,0,0-8,8V432a8,8,0,0,0,8,8H488a8,8,0,0,0,8-8V288a8,8,0,0,0-8-8H384V192ZM116,378H80V342h36Zm72,0H152V342h36Zm72,0H224V342h36Z" class="ci-primary"/>
</svg>
