<svg xmlns="http://www.w3.org/2000/svg" viewBox="0 0 512 512">
  <path fill="var(--ci-primary-color, currentColor)" d="M428.64,144.013h41.879a242.019,242.019,0,0,0-43.211-58.6,239.569,239.569,0,0,0-125.119-66.4L282.827,52.393l-53.143,91.62Z" class="ci-primary"/>
  <path fill="var(--ci-primary-color, currentColor)" d="M367.666,287.616,269.09,460.948l-20.606,36.233c2.727.09,5.458.152,8.2.152a239.721,239.721,0,0,0,170.624-70.674q6.657-6.657,12.72-13.735l-19.356-33.519Z" class="ci-primary"/>
  <path fill="var(--ci-primary-color, currentColor)" d="M146.061,224.405,246.65,50.984l20.881-36c-3.6-.158-7.218-.25-10.847-.25A239.718,239.718,0,0,0,86.061,85.411q-6.42,6.42-12.294,13.227L93.056,132.2Z" class="ci-primary"/>
  <path fill="var(--ci-primary-color, currentColor)" d="M67.7,336.217H173.422L73.774,162.862,52.938,126.614a242.358,242.358,0,0,0-23.961,209.6Z" class="ci-primary"/>
  <path fill="var(--ci-primary-color, currentColor)" d="M445.742,176.013H340.17l99.7,172.643L460.8,384.9a242.393,242.393,0,0,0,23.651-208.883Z" class="ci-primary"/>
  <path fill="var(--ci-primary-color, currentColor)" d="M42.932,368.217a242.051,242.051,0,0,0,43.129,58.442,239.534,239.534,0,0,0,127.683,66.876l19.1-33.593,52.165-91.725H42.932Z" class="ci-primary"/>
</svg>
