<svg xmlns="http://www.w3.org/2000/svg" viewBox="0 0 512 512">
  <path fill="var(--ci-primary-color, currentColor)" d="M152,216A104,104,0,1,0,48,112,104.118,104.118,0,0,0,152,216Zm0-144a40,40,0,1,1-40,40A40.045,40.045,0,0,1,152,72Z" class="ci-primary"/>
  <path fill="var(--ci-primary-color, currentColor)" d="M368,296A104,104,0,1,0,472,400,104.118,104.118,0,0,0,368,296Zm0,144a40,40,0,1,1,40-40A40.045,40.045,0,0,1,368,440Z" class="ci-primary"/>
  <polygon fill="var(--ci-primary-color, currentColor)" points="384.639 16 47.247 496 126.296 496 462.784 16 384.639 16" class="ci-primary"/>
</svg>
