<svg xmlns="http://www.w3.org/2000/svg" viewBox="0 0 512 512">
  <polygon fill="var(--ci-primary-color, currentColor)" points="312 121 291.296 121 246.904 166.026 312 231.035 312 121" class="ci-primary"/>
  <polygon fill="var(--ci-primary-color, currentColor)" points="480 121 456.723 121 328.584 247.613 480 399.029 480 121" class="ci-primary"/>
  <polygon fill="var(--ci-primary-color, currentColor)" points="152 32 112.701 32 152 71.247 152 32" class="ci-primary"/>
  <path fill="var(--ci-primary-color, currentColor)" d="M45.709,16H16V45.422l16,16V480H450.577l16,16H496V466.457ZM172,432H132V392h40Zm0-80H132V312h40Zm-5.916-104H152V181.422l40.145,40.145ZM252,432H212V392h40Zm0-80H212V312h40Zm80,80H292V392h40Z" class="ci-primary"/>
</svg>
