<svg xmlns="http://www.w3.org/2000/svg" viewBox="0 0 512 512">
  <polygon fill="var(--ci-primary-color, currentColor)" points="220.842 139.998 376 139.998 376 15.998 136 15.998 136 55.268 220.842 139.998" class="ci-primary"/>
  <polygon fill="var(--ci-primary-color, currentColor)" points="480 383.998 480 175.998 256.889 175.998 316.567 235.597 316.568 235.597 332.969 251.998 352 251.998 381.273 251.998 387.243 280.655 393.984 313.014 464.968 383.998 480 383.998" class="ci-primary"/>
  <polygon fill="var(--ci-primary-color, currentColor)" points="496 466.457 45.709 16 16 16 16 45.422 110.576 139.998 146.576 175.998 32 175.998 32 383.998 103.227 383.998 124.757 280.655 130.727 251.998 160 251.998 222.576 251.998 258.576 287.998 160 287.998 120 479.998 392 479.998 376.585 406.008 423.035 452.458 466.578 496 496 496 496 466.457" class="ci-primary"/>
</svg>
