<svg xmlns="http://www.w3.org/2000/svg" viewBox="0 0 512 512">
  <polygon fill="var(--ci-primary-color, currentColor)" points="32 117 32 299 153.333 208 32 117" class="ci-primary"/>
  <path fill="var(--ci-primary-color, currentColor)" d="M292,258a60,60,0,0,1-72,0l-36.667-27.5L32,344v40H252.232A140.008,140.008,0,0,1,480,283.1V117Z" class="ci-primary"/>
  <path fill="var(--ci-primary-color, currentColor)" d="M241.6,229.2A23.984,23.984,0,0,0,256,234c.633,0,1.267-.025,1.9-.075a23.953,23.953,0,0,0,12.5-4.725L480,72V32H32V72Z" class="ci-primary"/>
  <path fill="var(--ci-primary-color, currentColor)" d="M492.726,417.991a103.918,103.918,0,0,0,3.139-20.639Q496,394.693,496,392t-.135-5.352a103.918,103.918,0,0,0-3.139-20.639q-.321-1.247-.671-2.48c-.41-1.444-.856-2.872-1.326-4.289-.333-1.006-.677-2.007-1.04-3q-.436-1.194-.9-2.375c-.766-1.942-1.6-3.852-2.472-5.734q-1.07-2.3-2.246-4.53-1.244-2.359-2.6-4.646-.5-.847-1.021-1.683a104.539,104.539,0,0,0-34.517-34.217q-1.072-.651-2.161-1.277-2.178-1.252-4.421-2.4-3.363-1.722-6.864-3.2a103.141,103.141,0,0,0-17-5.51,104.906,104.906,0,0,0-46.974,0q-2.515.581-4.984,1.282t-4.885,1.519q-2.416.819-4.778,1.75a103.627,103.627,0,0,0-15.794,7.842q-4.288,2.607-8.3,5.605-1,.749-1.983,1.521a104.282,104.282,0,0,0-32.578,43.684q-.466,1.181-.9,2.375-.876,2.389-1.635,4.833t-1.4,4.935a103.918,103.918,0,0,0-3.139,20.639Q288,389.308,288,392t.135,5.352a103.918,103.918,0,0,0,3.139,20.639q.642,2.493,1.4,4.935t1.635,4.833q.436,1.194.9,2.375a104.282,104.282,0,0,0,32.578,43.684q.983.773,1.983,1.521,4,2.994,8.3,5.605a103.627,103.627,0,0,0,15.794,7.842q2.361.931,4.778,1.75t4.885,1.519q2.467.7,4.984,1.282a104.906,104.906,0,0,0,46.974,0c1.45-.335,2.887-.706,4.313-1.1q2.81-.777,5.556-1.7c1.3-.442,2.594-.915,3.875-1.407,1.091-.418,2.177-.848,3.251-1.3q3.5-1.481,6.864-3.2,2.243-1.149,4.421-2.4,1.089-.626,2.161-1.277,3.507-2.132,6.823-4.53,1.755-1.266,3.457-2.6,2.076-1.63,4.063-3.365,1.711-1.491,3.357-3.053,1.871-1.779,3.654-3.646,1.722-1.806,3.357-3.694,2.262-2.61,4.345-5.372c.254-.335.5-.672.754-1.01q2.488-3.374,4.707-6.951.518-.835,1.021-1.683,1.359-2.286,2.6-4.646,1.176-2.234,2.246-4.53c.877-1.882,1.706-3.792,2.472-5.734q.466-1.181.9-2.375c.363-.992.707-1.993,1.04-3,.47-1.417.916-2.845,1.326-4.289Q492.4,419.238,492.726,417.991ZM336,374H450.286v36H336Z" class="ci-primary"/>
</svg>
