<svg xmlns="http://www.w3.org/2000/svg" viewBox="0 0 512 512">
  <polygon fill="var(--ci-primary-color, currentColor)" points="400 296 400 240 320.971 240 376.971 296 400 296" class="ci-primary"/>
  <polygon fill="var(--ci-primary-color, currentColor)" points="376 346.024 376 345.941 366.059 336 365.976 336 325.976 296 326.059 296 291.992 261.932 246.402 216.342 246.365 216.389 45.976 16 16 16 16 45.422 210.578 240 136 240 136 296 266.578 296 306.578 336 136 336 136 392 224 392 224 472 288 472 288 392 362.578 392 466.578 496 496 496 496 466.024 376 346.024" class="ci-primary"/>
  <polygon fill="var(--ci-primary-color, currentColor)" points="425.2 91.722 374.8 52.278 268.753 187.782 314.343 233.372 425.2 91.722" class="ci-primary"/>
</svg>
