<svg xmlns="http://www.w3.org/2000/svg" viewBox="0 0 512 512">
  <path fill="var(--ci-primary-color, currentColor)" d="M366.606,336.612l-37.455-37.437L45.841,16H16V45.422L97.982,127.4a171.989,171.989,0,0,0,19.461,169.147L242.878,476.333a16,16,0,0,0,26.244,0L342.188,371.61,466.577,496H496V465.945Z" class="ci-primary"/>
  <path fill="var(--ci-primary-color, currentColor)" d="M256,141.012a56,56,0,0,1,49.031,83.058L316.568,235.6h0l70.988,70.988,7-10.034A171.808,171.808,0,0,0,144.807,63.983L228.9,148.005A55.726,55.726,0,0,1,256,141.012Z" class="ci-primary"/>
</svg>
