<svg xmlns="http://www.w3.org/2000/svg" viewBox="0 0 512 512">
  <path fill="var(--ci-primary-color, currentColor)" d="M45.975,16H16V45.422L66.543,95.965a248,248,0,0,0,14.094,335.4h0l34.008-34.008A199.628,199.628,0,0,1,100.7,130.125l28.461,28.462a159.7,159.7,0,0,0,13.751,210.5L176,336h1.7a111.784,111.784,0,0,1-14.2-143.077l34.986,34.986a64.012,64.012,0,0,0,85.6,85.6L466.578,496H496V466.024Z" class="ci-primary"/>
  <path fill="var(--ci-primary-color, currentColor)" d="M256,56c110.28,0,200,89.72,200,200a198.764,198.764,0,0,1-24.037,94.993l35.2,35.2A248.113,248.113,0,0,0,125.918,44.765L161.1,79.985A198.767,198.767,0,0,1,256,56Z" class="ci-primary"/>
  <path fill="var(--ci-primary-color, currentColor)" d="M402.122,321.151A159.074,159.074,0,0,0,416,256c0-88.224-71.776-160-160-160a159.072,159.072,0,0,0-65.068,13.842l37.548,37.583A112.03,112.03,0,0,1,364.558,283.587Z" class="ci-primary"/>
</svg>
