<svg xmlns="http://www.w3.org/2000/svg" viewBox="0 0 512 512">
  <path fill="var(--ci-primary-color, currentColor)" d="M432.162,67.838A259,259,0,0,0,319.186,1.365l-15.82,45.524A213.179,213.179,0,0,1,455.423,206.041L502.4,195.828A258.69,258.69,0,0,0,432.162,67.838Z" class="ci-primary"/>
  <path fill="var(--ci-primary-color, currentColor)" d="M266.165,87.1A152.914,152.914,0,0,0,111.086,240h48A104.914,104.914,0,0,1,265.5,135.1c56.653.786,103.044,47.532,103.413,104.2a103.938,103.938,0,0,1-32.6,76.708,33.586,33.586,0,0,0-10.365,24.237V400.7a62.461,62.461,0,0,1-62.391,62.391h-10.3v48h10.3A110.516,110.516,0,0,0,373.943,400.7V346.266a153.567,153.567,0,0,0,42.968-107.279A153.328,153.328,0,0,0,266.165,87.1Z" class="ci-primary"/>
  <path fill="var(--ci-primary-color, currentColor)" d="M292.343,239.086h48a76.03,76.03,0,1,0-152.059,0h48a28.03,28.03,0,1,1,56.059,0Z" class="ci-primary"/>
  <rect width="48" height="48" x="216" y="280" fill="var(--ci-primary-color, currentColor)" class="ci-primary"/>
  <rect width="48" height="48" x="88" y="408" fill="var(--ci-primary-color, currentColor)" class="ci-primary"/>
  <rect width="48" height="158.392" x="152" y="288.804" fill="var(--ci-primary-color, currentColor)" class="ci-primary" transform="rotate(-45 176 368)"/>
</svg>
