<svg xmlns="http://www.w3.org/2000/svg" viewBox="0 0 512 512">
  <path fill="var(--ci-primary-color, currentColor)" d="M165.789,68.048A225.123,225.123,0,0,1,188,25.755,239.824,239.824,0,0,0,17.069,239H134.215C135.834,174.648,146.9,114.462,165.789,68.048Z" class="ci-primary"/>
  <path fill="var(--ci-primary-color, currentColor)" d="M134.291,275h-117A239.835,239.835,0,0,0,188,485.245a225.123,225.123,0,0,1-22.212-42.293C147.19,397.259,136.173,338.222,134.291,275Z" class="ci-primary"/>
  <path fill="var(--ci-primary-color, currentColor)" d="M346.211,442.952A225.123,225.123,0,0,1,324,485.245,239.835,239.835,0,0,0,494.708,275h-117C375.827,338.222,364.81,397.259,346.211,442.952Z" class="ci-primary"/>
  <path fill="var(--ci-primary-color, currentColor)" d="M377.785,239H494.931A239.824,239.824,0,0,0,324,25.755a225.123,225.123,0,0,1,22.212,42.293C365.1,114.462,376.166,174.648,377.785,239Z" class="ci-primary"/>
  <path fill="var(--ci-primary-color, currentColor)" d="M341.776,239c-1.577-59.719-11.7-115.1-28.909-157.38C296.652,41.783,275.393,18,256,18s-40.652,23.783-56.867,63.62C181.922,123.9,171.8,179.281,170.224,239Z" class="ci-primary"/>
  <path fill="var(--ci-primary-color, currentColor)" d="M170.308,275c1.832,58.573,11.9,112.806,28.825,154.38C215.348,469.217,236.607,493,256,493s40.652-23.783,56.867-63.62C329.79,387.806,339.86,333.573,341.692,275Z" class="ci-primary"/>
</svg>
