<svg xmlns="http://www.w3.org/2000/svg" viewBox="0 0 511.974 512">
  <path fill="var(--ci-primary-color, currentColor)" d="M435.886,232a72.007,72.007,0,0,0-135.774,0H16v48H300.112a72.007,72.007,0,0,0,135.774,0H496V232Z" class="ci-primary"/>
  <path fill="var(--ci-primary-color, currentColor)" d="M160,184a72.018,72.018,0,0,0,67.887-48H496V88H227.887A72.007,72.007,0,0,0,92.113,88H16v48H92.113A72.018,72.018,0,0,0,160,184Z" class="ci-primary"/>
  <path fill="var(--ci-primary-color, currentColor)" d="M160,328a72.018,72.018,0,0,0-67.887,48H16v48H92.113a72.007,72.007,0,0,0,135.774,0H496V376H227.887A72.018,72.018,0,0,0,160,328Z" class="ci-primary"/>
</svg>
