<svg xmlns="http://www.w3.org/2000/svg" viewBox="0 0 512 512">
  <polygon fill="var(--ci-primary-color, currentColor)" points="416 278.392 496 215.196 416 152 416 195 320 195 320 237 416 237 416 278.392" class="ci-primary"/>
  <polygon fill="var(--ci-primary-color, currentColor)" points="336 289.608 256 352.804 336 416 336 373 432 373 432 331 336 331 336 289.608" class="ci-primary"/>
  <path fill="var(--ci-primary-color, currentColor)" d="M264,195H220.356l-28.328-50.99-72.784-24.262-73.153,26.6A29.087,29.087,0,0,0,27,173.6V232H69V182.709l37.067-13.479L17.37,440H61.487l48.422-150.646,37.091,68V440h42V354.04a29.076,29.076,0,0,0-3.541-13.887l-37.185-68.172,24.719-75.752,14.363,25.854A29.017,29.017,0,0,0,212.707,237H264Z" class="ci-primary"/>
  <circle cx="180" cy="76" r="36" fill="var(--ci-primary-color, currentColor)" class="ci-primary"/>
</svg>
