<svg xmlns="http://www.w3.org/2000/svg" viewBox="0 0 512 512">
  <path fill="var(--ci-primary-color, currentColor)" d="M294,152H242.421v88H294a44,44,0,0,0,0-88Z" class="ci-primary"/>
  <path fill="var(--ci-primary-color, currentColor)" d="M254,16C121.452,16,14,123.452,14,256S121.452,496,254,496,494,388.548,494,256,386.548,16,254,16Zm52,344H242.421v48h-48V360H146V320H306Zm79.985-162.3c-.834,45.884-39.052,82.3-84.944,82.3H146V240h48.421V152H146V104H292.825c50.667,0,92.7,40.47,93.171,91.135Q386.008,196.419,385.985,197.7Z" class="ci-primary"/>
</svg>
