<svg xmlns="http://www.w3.org/2000/svg" viewBox="0 0 512 512">
  <path fill="var(--ci-primary-color, currentColor)" d="M416,292c0,86.019-69.981,156-156,156S104,378.019,104,292c0-76.462,55.3-140.248,128-153.478V200h8l88-88L240,24h-8V89.93C132.716,103.62,56,189.012,56,292c0,112.486,91.514,204,204,204s204-91.514,204-204Z" class="ci-primary"/>
  <path fill="var(--ci-primary-color, currentColor)" d="M260,228.392a64.058,64.058,0,1,0,59.491,40.45l93.48-93.48-33.942-33.941-92.673,92.673A63.6,63.6,0,0,0,260,228.392Z" class="ci-primary"/>
</svg>
