<svg xmlns="http://www.w3.org/2000/svg" viewBox="0 0 512 512">
  <path fill="var(--ci-primary-color, currentColor)" d="M16.67,274a239.191,239.191,0,0,0,68.3,150.349c31.711-28,54.937-84.828,58.577-150.349Z" class="ci-primary"/>
  <path fill="var(--ci-primary-color, currentColor)" d="M142.1,101.975c21.918,37.106,35.009,84.863,37.5,136.025H238V16.67A238.754,238.754,0,0,0,112.257,63.793,174.388,174.388,0,0,1,142.1,101.975Z" class="ci-primary"/>
  <path fill="var(--ci-primary-color, currentColor)" d="M84.969,87.651A239.191,239.191,0,0,0,16.67,238H143.546C139.906,172.479,116.68,115.648,84.969,87.651Z" class="ci-primary"/>
  <path fill="var(--ci-primary-color, currentColor)" d="M427.031,424.349A239.191,239.191,0,0,0,495.33,274H368.454C372.094,339.521,395.32,396.352,427.031,424.349Z" class="ci-primary"/>
  <path fill="var(--ci-primary-color, currentColor)" d="M495.33,238a239.191,239.191,0,0,0-68.3-150.349c-31.711,28-54.937,84.828-58.577,150.349Z" class="ci-primary"/>
  <path fill="var(--ci-primary-color, currentColor)" d="M369.9,410.025C347.982,372.919,334.891,325.162,332.4,274H274V495.33a238.754,238.754,0,0,0,125.743-47.123A174.388,174.388,0,0,1,369.9,410.025Z" class="ci-primary"/>
  <path fill="var(--ci-primary-color, currentColor)" d="M369.9,101.975a174.388,174.388,0,0,1,29.843-38.182A238.754,238.754,0,0,0,274,16.67V238h58.4C334.891,186.838,347.982,139.081,369.9,101.975Z" class="ci-primary"/>
  <path fill="var(--ci-primary-color, currentColor)" d="M142.1,410.025a174.388,174.388,0,0,1-29.843,38.182A238.754,238.754,0,0,0,238,495.33V274H179.6C177.109,325.162,164.018,372.919,142.1,410.025Z" class="ci-primary"/>
</svg>
