<svg xmlns="http://www.w3.org/2000/svg" viewBox="0 0 512 512">
  <path fill="var(--ci-primary-color, currentColor)" d="M431.244,154.823,414.123,97.877,357.177,80.756,313.877,40,256,53.646,198.123,40l-43.3,40.756L97.877,97.877,80.756,154.823,40,198.123,53.646,256,40,313.877l40.756,43.3,17.121,56.946,56.946,17.121L198.123,472,256,458.354,313.877,472l43.3-40.756,56.946-17.121,17.121-56.946L472,313.877,458.354,256,472,198.123ZM256,392a40,40,0,1,1,40-40A40,40,0,0,1,256,392Zm40-208-30,80H246l-30-80V128h80Z" class="ci-primary"/>
</svg>
