<svg xmlns="http://www.w3.org/2000/svg" viewBox="0 0 512 512">
  <path fill="var(--ci-primary-color, currentColor)" d="M456.125,311.875,400.25,256l19.188-19.189L475.2,181.047a34,34,0,0,0,0-48.083L379.036,36.8a34.039,34.039,0,0,0-48.083,0L275.189,92.562,256,111.75,216.125,71.875,192.36,48.111a50,50,0,0,0-70.711,0L48.11,121.65h0a50,50,0,0,0,0,70.711l31.765,31.765L111.75,256,92.562,275.189,36.8,330.953a34,34,0,0,0,0,48.083L132.963,475.2h0a34.038,34.038,0,0,0,48.083,0l55.764-55.765L256,400.25l63.64,63.639c.079.079.162.152.241.23a49.988,49.988,0,0,0,70.47-.23l73.538-73.538a50,50,0,0,0,0-70.711Zm-244.64-41.36-18-18,18-18,18,18Zm-74.279-39.971-63.64-63.639a14,14,0,0,1,0-19.8L147.1,73.566a14,14,0,0,1,19.8,0l63.64,63.64Zm119.279,84.971-18-18,18-18,18,18Zm0-90-18-18,18-18,18,18Zm45,9,18,18-18,18-18-18ZM438.434,364.9,364.9,438.434a14,14,0,0,1-19.8,0l-63.64-63.64,93.338-93.338,63.64,63.639a14,14,0,0,1,0,19.8Z" class="ci-primary"/>
</svg>
