<svg xmlns="http://www.w3.org/2000/svg" viewBox="0 0 512 512">
  <path fill="var(--ci-primary-color, currentColor)" d="M277,182.555A66.289,66.289,0,0,0,318.555,141H416V99H318.555a65.979,65.979,0,0,0-125.11,0H96v42h97.445A66.289,66.289,0,0,0,235,182.555V435H128v42H384V435H277ZM256,144a24,24,0,1,1,24-24A24,24,0,0,1,256,144Z" class="ci-primary"/>
  <path fill="var(--ci-primary-color, currentColor)" d="M199.148,358.233l6-6.6V324.362L132.5,171H91.5L18.851,324.362v28.431l5.558,6.031A118.721,118.721,0,0,0,111.511,397h.4A118.721,118.721,0,0,0,199.148,358.233ZM81.6,290,112,225.824,142.4,290Z" class="ci-primary"/>
  <path fill="var(--ci-primary-color, currentColor)" d="M420.5,171H379.5L306.851,324.362v28.431l5.558,6.031A118.721,118.721,0,0,0,399.511,397h.4a118.721,118.721,0,0,0,87.236-38.766l6-6.6V324.362ZM369.6,290,400,225.824,430.4,290Z" class="ci-primary"/>
</svg>
