<svg xmlns="http://www.w3.org/2000/svg" viewBox="0 0 512 512">
  <path fill="var(--ci-primary-color, currentColor)" d="M480,64H32A16,16,0,0,0,16,80V432a16,16,0,0,0,16,16H480a16,16,0,0,0,16-16V80A16,16,0,0,0,480,64ZM210.36,344l-12.667-38H130.307L117.64,344H79.693l59.333-178h49.948l59.333,178ZM426,261.759a82.76,82.76,0,0,1-82.667,82.666H278V166h65.333A82.76,82.76,0,0,1,426,248.667Z" class="ci-primary"/>
  <polygon fill="var(--ci-primary-color, currentColor)" points="142.307 270 185.693 270 164 204.921 142.307 270" class="ci-primary"/>
  <path fill="var(--ci-primary-color, currentColor)" d="M343.333,202H314V308.425h29.333A46.719,46.719,0,0,0,390,261.759V248.667A46.72,46.72,0,0,0,343.333,202Z" class="ci-primary"/>
</svg>
