<svg xmlns="http://www.w3.org/2000/svg" viewBox="0 0 512 512">
  <path fill="var(--ci-primary-color, currentColor)" d="M430.81,400.751,45.975,16H16V45.422L53.808,83.229,18.16,108.393l27.68,39.214,42.41-29.936,21.976,21.977A207.355,207.355,0,0,0,48,288c0,114.875,93.125,208,208,208a207.356,207.356,0,0,0,148.352-62.226L466.579,496H496V465.941Z" class="ci-primary"/>
  <path fill="var(--ci-primary-color, currentColor)" d="M316.568,235.6h0L448.316,367.345A207.375,207.375,0,0,0,464,288c0-114.875-93.125-208-208-208a207.375,207.375,0,0,0-79.345,15.684Z" class="ci-primary"/>
  <polygon fill="var(--ci-primary-color, currentColor)" points="181.84 51.607 154.16 12.393 118.521 37.55 152.963 71.992 181.84 51.607" class="ci-primary"/>
  <rect width="48" height="166.469" x="388" y="-3.235" fill="var(--ci-primary-color, currentColor)" class="ci-primary" transform="rotate(-54.782 412.003 80)"/>
</svg>
