<svg xmlns="http://www.w3.org/2000/svg" viewBox="0 0 512 512">
  <path fill="var(--ci-primary-color, currentColor)" d="M420,336c28.719,0,52-25.072,52-56s-52-96-52-96-52,65.072-52,96S391.281,336,420,336Z" class="ci-primary"/>
  <path fill="var(--ci-primary-color, currentColor)" d="M467,360H46a29.032,29.032,0,0,0-29,29v75.093a29.033,29.033,0,0,0,29,29H467a29.033,29.033,0,0,0,29-29V389A29.032,29.032,0,0,0,467,360Zm-13,91.093H59V402H454Z" class="ci-primary"/>
  <path fill="var(--ci-primary-color, currentColor)" d="M40.665,226.748a55.265,55.265,0,0,0,39.8,67.158l158.509,40.519a55.529,55.529,0,0,0,13.771,1.744,55.255,55.255,0,0,0,53.376-41.547l54.2-211.987L94.866,14.773,82.989,61.222,22.136,44.271,10.864,84.729l61.718,17.193ZM125.153,65.866l184.079,47.058L296.045,164.5H99.933Z" class="ci-primary"/>
</svg>
