<svg xmlns="http://www.w3.org/2000/svg" viewBox="0 0 512 512">
  <polygon fill="var(--ci-primary-color, currentColor)" points="296.27 16 96.68 16 296.27 215.326 296.27 16" class="ci-primary"/>
  <path fill="var(--ci-primary-color, currentColor)" d="M328,160v87.029l66,66V296h36v36H412.971L496,415.029V160Zm102,92H394V216h36Z" class="ci-primary"/>
  <path fill="var(--ci-primary-color, currentColor)" d="M16.27,16H16l.27,480h122V424h36v72h122V325.692L328,357.422V496H496V466.457L45.709,16Zm164,193.692L202.578,232H180.27Zm0,70.308h36v36h-36Zm-84-84h36v36h-36Zm0,84h36v36h-36Z" class="ci-primary"/>
</svg>
