<svg xmlns="http://www.w3.org/2000/svg" viewBox="0 0 512 512">
  <path fill="var(--ci-primary-color, currentColor)" d="M192.146,213.6c-2.795-.2-5.594-.328-8.378-.328a116.261,116.261,0,0,0-110.746,80.3L18.238,461.117a27.137,27.137,0,0,0,25.719,35.56,27.27,27.27,0,0,0,8.481-1.359L219.98,440.534a116.261,116.261,0,0,0,80.3-110.745h0c0-2.781-.112-5.575-.316-8.366Z" class="ci-primary"/>
  <path fill="var(--ci-primary-color, currentColor)" d="M482.64,31.021a48.043,48.043,0,0,0-64.862-3.555L220.447,190.992,321.415,291.96,485.078,94.826A47.75,47.75,0,0,0,482.64,31.021Z" class="ci-primary"/>
</svg>
