<svg xmlns="http://www.w3.org/2000/svg" viewBox="0 0 512 512">
  <path fill="var(--ci-primary-color, currentColor)" d="M189.206,219.794A626.829,626.829,0,0,0,38.838,461.66h0A9,9,0,0,0,41,470.916l.087.087a9,9,0,0,0,9.255,2.159h0A626.829,626.829,0,0,0,292.206,322.794l92.566-92.566-103-103Z" class="ci-primary"/>
  <path fill="var(--ci-primary-color, currentColor)" d="M458.668,53.332a72.831,72.831,0,0,0-103,0l-48.44,48.44,103,103,48.44-48.44A72.831,72.831,0,0,0,458.668,53.332Z" class="ci-primary"/>
</svg>
