<svg xmlns="http://www.w3.org/2000/svg" viewBox="0 0 512 512">
  <path fill="var(--ci-primary-color, currentColor)" d="M448.453,42.547H63.547a21,21,0,0,0-21,21V448.453a21,21,0,0,0,21,21H448.453a21,21,0,0,0,21-21V63.547A21,21,0,0,0,448.453,42.547Zm-21,128.3h-86.3v-86.3h86.3Zm0,128.3h-86.3v-86.3h86.3Zm-342.906-86.3h86.3v86.3h-86.3Zm128.3,0h86.3v86.3h-86.3Zm86.3-42h-86.3v-86.3h86.3Zm-214.6-86.3h86.3v86.3h-86.3Zm0,256.6h86.3v86.3h-86.3Zm128.3,0h86.3v86.3h-86.3Zm214.6,86.3h-86.3v-86.3h86.3Z" class="ci-primary"/>
</svg>
