<svg xmlns="http://www.w3.org/2000/svg" viewBox="0 0 512 512">
  <path fill="var(--ci-primary-color, currentColor)" d="M412.717,65.012c-35.578-20.985-82.545-32.541-132.246-32.541H239.529c-49.7,0-96.667,11.556-132.246,32.541C69.054,87.56,48,118.453,48,152v16H472V152C472,118.453,450.946,87.56,412.717,65.012Z" class="ci-primary"/>
  <rect width="424" height="42" x="48" y="296" fill="var(--ci-primary-color, currentColor)" class="ci-primary"/>
  <path fill="var(--ci-primary-color, currentColor)" d="M387.2,200c-25.905,0-40.019,6.657-51.36,12.007C326,216.647,318.891,220,302.394,220s-23.6-3.353-33.441-7.993C257.613,206.658,243.5,200,217.6,200s-40.017,6.658-51.358,12.007C156.4,216.647,149.292,220,132.8,220s-23.6-3.353-33.44-7.993C88.018,206.658,73.9,200,48,200v42c16.5,0,23.6,3.353,33.44,7.993C92.78,255.342,106.894,262,132.8,262s40.017-6.658,51.358-12.007C193.993,245.353,201.1,242,217.6,242s23.6,3.353,33.44,7.993C262.375,255.342,276.49,262,302.394,262s40.019-6.657,51.36-12.007C363.592,245.353,370.7,242,387.2,242s23.605,3.353,33.443,7.993C431.981,255.343,446.1,262,472,262V220c-16.5,0-23.6-3.353-33.443-7.993C427.216,206.657,413.1,200,387.2,200Z" class="ci-primary"/>
  <path fill="var(--ci-primary-color, currentColor)" d="M48,456a24.028,24.028,0,0,0,24,24H448a24.028,24.028,0,0,0,24-24V376H48Z" class="ci-primary"/>
</svg>
