<svg xmlns="http://www.w3.org/2000/svg" viewBox="0 0 512 512">
  <path fill="var(--ci-primary-color, currentColor)" d="M496,77a61,61,0,0,0-61-61H77A61,61,0,0,0,16,77V435a61,61,0,0,0,61,61H435a61,61,0,0,0,61-61ZM104,440H72V408h32Zm0-56H72V352h32Zm0-56H72V296h32Zm0-56H72V240h32Zm0-56H72V184h32Zm0-56H72V128h32Zm0-56H72V72h32Zm56,336H128V408h32Zm0-168H128V240h32Zm0-168H128V72h32Zm56,336H184V408h32Zm0-168H184V240h32Zm0-168H184V72h32Zm56,320v16H240V408h32Zm0-40H240V352h32Zm0-56H240V296h32Zm0-56H240V240h32Zm0-56H240V184h32Zm0-56H240V128h32Zm0-72v16H240V72h32Zm56,352H296V408h32Zm0-168H296V240h32Zm0-168H296V72h32Zm56,336H352V408h32Zm0-168H352V240h32Zm0-168H352V72h32Zm56,336H408V408h32Zm0-56H408V352h32Zm0-56H408V296h32Zm0-56H408V240h32Zm0-56H408V184h32Zm0-56H408V128h32Zm0-56H408V72h32Z" class="ci-primary"/>
</svg>
