<svg xmlns="http://www.w3.org/2000/svg" viewBox="0 0 512 512">
  <path fill="var(--ci-primary-color, currentColor)" d="M208,64C102.131,64,16,150.131,16,256s86.131,192,192,192,192-86.131,192-192S313.869,64,208,64Zm0,336c-79.4,0-144-64.6-144-144s64.6-144,144-144,144,64.6,144,144S287.4,400,208,400Z" class="ci-primary"/>
  <circle cx="208" cy="256" r="88" fill="var(--ci-primary-color, currentColor)" class="ci-primary"/>
  <path fill="var(--ci-primary-color, currentColor)" d="M479.7,161.646a278.925,278.925,0,0,0-45.12-80.657l-37.451,30.022a232.063,232.063,0,0,1,5.584,282.724l38.6,28.53A280.467,280.467,0,0,0,479.7,161.646Z" class="ci-primary"/>
</svg>
