<svg xmlns="http://www.w3.org/2000/svg" viewBox="0 0 512 512">
  <polygon fill="var(--ci-primary-color, currentColor)" points="288.279 55.475 288.279 55.509 288.313 55.509 288.279 55.475" class="ci-primary"/>
  <polygon fill="var(--ci-primary-color, currentColor)" points="341.953 7.509 288.279 7.509 288.279 10.22 435.314 157.255 457.941 179.883 435.314 202.51 294.441 343.383 349.498 343.383 513.662 179.219 341.953 7.509" class="ci-primary"/>
  <path fill="var(--ci-primary-color, currentColor)" d="M242.918,16.173H200.557v88H152A136.27,136.27,0,0,0,28.025,184.2,114.157,114.157,0,0,0,16,235.506V496.173H68.146l49.606-177.756a85.4,85.4,0,0,1,81.993-62.244h.812v87.21h42.57l163.5-163.5Z" class="ci-primary"/>
</svg>
