<svg xmlns="http://www.w3.org/2000/svg" viewBox="0 0 512 512">
  <path fill="var(--ci-primary-color, currentColor)" d="M136,496H376a40.045,40.045,0,0,0,40-40V368H144V88H416V56a40.045,40.045,0,0,0-40-40H136A40.045,40.045,0,0,0,96,56V456A40.045,40.045,0,0,0,136,496Zm138-82v36H238V414Z" class="ci-primary"/>
  <path fill="var(--ci-primary-color, currentColor)" d="M357.661,170.339,336,192v7.968a25.327,25.327,0,0,1,0,48.064V256l21.661,21.661a61.294,61.294,0,0,0,0-107.322Z" class="ci-primary"/>
  <path fill="var(--ci-primary-color, currentColor)" d="M401.391,126.609l-25.8,25.8a85.918,85.918,0,0,1,0,143.178l25.8,25.8A122.7,122.7,0,0,0,440,272.35a121.886,121.886,0,0,0,0-96.7A122.7,122.7,0,0,0,401.391,126.609Z" class="ci-primary"/>
  <polygon fill="var(--ci-primary-color, currentColor)" points="304 326.372 304 312 304 136 304 121.628 233.042 170.286 176 170.286 176 277.714 233.042 277.714 304 326.372" class="ci-primary"/>
</svg>
