<svg xmlns="http://www.w3.org/2000/svg" viewBox="0 0 512 512">
  <path fill="var(--ci-primary-color, currentColor)" d="M461.231,202.245a24,24,0,0,0-22.472-15.573h-136.9V149.686l16.407-36.334A72.118,72.118,0,0,0,281.6,17.669a8.2,8.2,0,0,0-10.767,4.1L184.693,210.342v141.5L261.1,396.663a24,24,0,0,0,12.144,3.3H391.359a24,24,0,0,0,20.86-12.132L476.86,274.221A24,24,0,0,0,480,262.352v-5.7a24.008,24.008,0,0,0-1.528-8.427Z" class="ci-primary"/>
  <path fill="var(--ci-primary-color, currentColor)" d="M126.637,170.672H51.987a24.693,24.693,0,0,0-24.243,19.434A487.084,487.084,0,0,0,26.278,396.64l1.5,7.192A24.941,24.941,0,0,0,52.09,423.61h74.547a24.86,24.86,0,0,0,24.838-24.838V195.51a24.86,24.86,0,0,0-24.838-24.838Z" class="ci-primary"/>
</svg>
