<svg xmlns="http://www.w3.org/2000/svg" viewBox="0 0 512 512">
  <rect width="480" height="48" x="16" y="448" fill="var(--ci-primary-color, currentColor)" class="ci-primary"/>
  <path fill="var(--ci-primary-color, currentColor)" d="M475.146,324.264c-11.932-21.145-29.839-38.4-50.422-48.584l-.845-.419-67.733-24.092-77.208-189.3A47.82,47.82,0,0,0,234.492,32H174.7l29.211,171.32-53.831-15.867-2.175-48.215A48.063,48.063,0,0,0,117.6,96.76L73.7,79.41,20.836,252.527,439.488,394.736a50.623,50.623,0,0,0,17.09,3.284c14.552,0,23.7-8.3,27.792-17.88C490.479,365.843,487.116,345.477,475.146,324.264Z" class="ci-primary"/>
</svg>
