<svg xmlns="http://www.w3.org/2000/svg" viewBox="0 0 512 512">
  <path fill="var(--ci-primary-color, currentColor)" d="M343.837,466.445h22.344a9.227,9.227,0,0,0,7.825-4.337l36.439-73.962-104.4-78.3L253.847,349h0a104.4,104.4,0,0,1-104.4-104.4h0l39.15-52.2L110.3,88,36.337,124.439A9.227,9.227,0,0,0,32,132.264v22.345C32,326.831,171.614,466.445,343.837,466.445Z" class="ci-primary"/>
  <polygon fill="var(--ci-primary-color, currentColor)" points="354.445 240 458.445 144 354.445 48 330.445 48 330.445 88 266.445 88 266.445 192 330.445 192 330.445 240 354.445 240" class="ci-primary"/>
</svg>
