<svg xmlns="http://www.w3.org/2000/svg" viewBox="0 0 512 512">
  <path fill="var(--ci-primary-color, currentColor)" d="M383.759,152.238a127.995,127.995,0,0,0-255.534.251C75.935,156.1,32,196.605,32,249.619h0A97.763,97.763,0,0,0,43.85,296H469.626A107.8,107.8,0,0,0,480,249.619h0C480,194.434,438.753,152.814,383.759,152.238Z" class="ci-primary"/>
  <circle cx="96" cy="344" r="24" fill="var(--ci-primary-color, currentColor)" class="ci-primary"/>
  <path fill="var(--ci-primary-color, currentColor)" d="M152,384a23.995,23.995,0,1,0,22.629,16A24.006,24.006,0,0,0,152,384Z" class="ci-primary"/>
  <path fill="var(--ci-primary-color, currentColor)" d="M256,384a23.995,23.995,0,1,0,22.629,16A24.006,24.006,0,0,0,256,384Z" class="ci-primary"/>
  <path fill="var(--ci-primary-color, currentColor)" d="M360,384a23.995,23.995,0,1,0,22.629,16A24.006,24.006,0,0,0,360,384Z" class="ci-primary"/>
  <circle cx="202.667" cy="344" r="24" fill="var(--ci-primary-color, currentColor)" class="ci-primary"/>
  <circle cx="202.667" cy="472" r="24" fill="var(--ci-primary-color, currentColor)" class="ci-primary"/>
  <circle cx="309.333" cy="344" r="24" fill="var(--ci-primary-color, currentColor)" class="ci-primary"/>
  <circle cx="309.333" cy="472" r="24" fill="var(--ci-primary-color, currentColor)" class="ci-primary"/>
  <circle cx="416" cy="344" r="24" fill="var(--ci-primary-color, currentColor)" class="ci-primary"/>
</svg>
