<svg xmlns="http://www.w3.org/2000/svg" viewBox="0 0 512 512">
  <path fill="var(--ci-primary-color, currentColor)" d="M219.657,255.657l-2,2-.059-.06a50.424,50.424,0,0,1-69.255-73.254L248.686,84H130.627a16,16,0,0,0-11.313,4.686L48,160H16V320H64l76,76a28.284,28.284,0,0,0,40,0l28-28,20,20a28.284,28.284,0,0,0,40,0l24-24a28.284,28.284,0,0,0,40,0l26.343-26.343L248,227.314Z" class="ci-primary"/>
  <path fill="var(--ci-primary-color, currentColor)" d="M438,154,372.686,88.686A16,16,0,0,0,361.373,84H271.314L159.657,195.657a34.426,34.426,0,0,0,48.686,48.686l78-78,11.314,11.314L259.314,216l120,120h38.059a16,16,0,0,0,11.313-4.686L464,296h32V154Z" class="ci-primary"/>
</svg>
