<svg xmlns="http://www.w3.org/2000/svg" viewBox="0 0 512 512">
  <circle cx="87.491" cy="264.31" r="63.989" fill="var(--ci-primary-color, currentColor)" class="ci-primary"/>
  <circle cx="86.491" cy="424.327" r="63.989" fill="var(--ci-primary-color, currentColor)" class="ci-primary"/>
  <circle cx="272" cy="104" r="48" fill="var(--ci-primary-color, currentColor)" class="ci-primary"/>
  <circle cx="424" cy="104" r="32" fill="var(--ci-primary-color, currentColor)" class="ci-primary"/>
  <circle cx="424" cy="264" r="32" fill="var(--ci-primary-color, currentColor)" class="ci-primary"/>
  <circle cx="272" cy="424" r="48" fill="var(--ci-primary-color, currentColor)" class="ci-primary"/>
  <path fill="var(--ci-primary-color, currentColor)" d="M16,16.667v29.7L35.977,66.342a63.983,63.983,0,0,0,89.465,89.465l99.38,99.38a47.971,47.971,0,0,0,55.991,55.991L392.04,422.406Q392,423.2,392,424a32,32,0,0,0,32,32q.8,0,1.594-.04L466.3,496.667H496v-29.7L45.7,16.667Z" class="ci-primary"/>
</svg>
