<svg xmlns="http://www.w3.org/2000/svg" viewBox="0 0 512 512">
  <path fill="var(--ci-primary-color, currentColor)" d="M325.833,32.651q4.267-1.583,8.582-2.822Q330.1,31.069,325.833,32.651Z" class="ci-primary"/>
  <path fill="var(--ci-primary-color, currentColor)" d="M452.415,218.977c-10.862-27.839-28.305-49.279-50.442-62a97.989,97.989,0,0,0-11.373-5.593,155.284,155.284,0,0,1-19.946,26.962c-.739.8-1.482,1.6-2.239,2.386a155.127,155.127,0,0,1-51,35.233A156.466,156.466,0,0,1,288,225.291V188.23c.325-.09,40-12.23,54.427-32.415,1.227-1.717,2.879-3.08,4.254-4.67q2.5-2.886,4.793-5.915.436-.576.867-1.157l.065-.09q1.8-2.437,3.474-4.958,1.607-2.421,3.092-4.913,1.571-2.632,3-5.34.654-1.236,1.279-2.486c1.074-2.148,2.092-4.324,3.036-6.532q1.132-2.649,2.139-5.349,2.01-5.4,3.5-10.981c.305-1.141.587-2.289.858-3.44.391-1.659.753-3.326,1.074-5q1.086-5.679,1.626-11.469.133-1.446.233-2.9.2-2.9.255-5.821.029-1.458.022-2.921-.015-2.923-.174-5.858-.079-1.467-.195-2.935-.232-2.936-.611-5.874a119.438,119.438,0,0,0-3.629-17.57q-.52-1.821-1.1-3.634-1.743-5.439-4.038-10.8l-.012-.026q-2.887.03-5.785.2a119.346,119.346,0,0,0-26.038,4.454q-4.311,1.24-8.582,2.822-1.422.528-2.839,1.094t-2.827,1.17a121.649,121.649,0,0,0-11.039,5.409q-1.33.736-2.636,1.505-3.262,1.92-6.368,4.019t-6.046,4.369q-2.352,1.814-4.6,3.732T285.1,57.883q-2.136,2.016-4.164,4.125-2.532,2.636-4.89,5.41t-4.533,5.674c-.757,1.008-1.491,2.032-2.215,3.063q-.909,1.294-1.783,2.612-1.841,2.774-3.526,5.637t-3.205,5.813q-.66,1.281-1.289,2.578c-.71,1.464-1.384,2.944-2.035,4.435q-.414.951-.812,1.909a120.913,120.913,0,0,0-4.21,11.806q-.186.626-.367,1.253-.629,2.187-1.174,4.4c-.1.4-.2.807-.292,1.211a120.184,120.184,0,0,0-2.7,16.471q-.4,4.293-.486,8.628-.03,1.5-.024,3.011.007,1.461.051,2.927c.031,1.051.5,18.1.557,19.155,0,0-52.87-21.245-60.845-22.512-24.943-3.962-47.811-.1-67.968,11.486-22.138,12.723-39.581,34.164-50.442,62-9.874,25.307-13.608,54.817-10.514,83.094,10.142,92.681,39.659,155.028,85.361,180.3a99.92,99.92,0,0,0,49.1,12.544c19.585,0,40.629-5.195,62.975-15.576h9.83c42.394,19.693,80.085,20.719,112.071,3.033,45.7-25.271,75.221-87.618,85.363-180.3C466.023,273.794,462.289,244.284,452.415,218.977Z" class="ci-primary"/>
</svg>
