<svg xmlns="http://www.w3.org/2000/svg" viewBox="0 0 512 512">
  <path fill="var(--ci-primary-color, currentColor)" d="M480,64H32A16,16,0,0,0,16,80V432a16,16,0,0,0,16,16H480a16,16,0,0,0,16-16V80A16,16,0,0,0,480,64ZM186,256a34.038,34.038,0,0,1-34,34H106v54H70V160h93.481A34.056,34.056,0,0,1,186,192Zm72,88H222V160h36Zm176,0H387.206L338,227.137V344H302V160h46.793L398,276.867V160h36Z" class="ci-primary"/>
  <rect width="43.999" height="59.999" x="106.001" y="194" fill="var(--ci-primary-color, currentColor)" class="ci-primary"/>
</svg>
