<svg xmlns="http://www.w3.org/2000/svg" viewBox="0 0 512 512">
  <polygon fill="var(--ci-primary-color, currentColor)" points="424 160 424 88 352 88 352 136 376 136 376 160 376 208 424 208 447.986 208 447.986 304 424 304 376 304 376 352 376 376 64 376 64 136 136 136 136 88 16 88 16 424 424 424 424 352 495.986 352 495.986 160 424 160" class="ci-primary"/>
  <path fill="var(--ci-primary-color, currentColor)" d="M283,136a43.049,43.049,0,0,1-43,43H208a37.042,37.042,0,0,0-37,37v56h42V221h27a84.627,84.627,0,0,0,56-21.135A85.513,85.513,0,0,0,314.973,176,85.044,85.044,0,0,0,240,51H168V93h72A43.049,43.049,0,0,1,283,136Z" class="ci-primary"/>
  <polygon fill="var(--ci-primary-color, currentColor)" points="171 302.4 171 319.2 171 336 204.6 336 213 336 213 319.2 213 294 171 294 171 302.4" class="ci-primary"/>
</svg>
