<svg xmlns="http://www.w3.org/2000/svg" viewBox="0 0 512 512">
  <path fill="var(--ci-primary-color, currentColor)" d="M144.569,170.319H421.8V120a24.028,24.028,0,0,0-24-24H241.962L224.823,54.784A23.935,23.935,0,0,0,202.663,40H40A24.028,24.028,0,0,0,16,64V472H40.8L48,435.419,91.585,213.894A54.116,54.116,0,0,1,144.569,170.319Z" class="ci-primary"/>
  <path fill="var(--ci-primary-color, currentColor)" d="M483.779,211.445a13.805,13.805,0,0,0-10.829-5.126H144.569a18.039,18.039,0,0,0-17.662,14.526L77.887,470h359.3l49.489-246.93A13.8,13.8,0,0,0,483.779,211.445Z" class="ci-primary"/>
</svg>
