<svg xmlns="http://www.w3.org/2000/svg" viewBox="0 0 512 512">
  <path fill="var(--ci-primary-color, currentColor)" d="M472,320H453V256a29.033,29.033,0,0,0-29-29H277V168h27a24,24,0,0,0,24-24V72a24,24,0,0,0-24-24H208a24,24,0,0,0-24,24v72a24,24,0,0,0,24,24h27v59H88a29.033,29.033,0,0,0-29,29v64H40a24,24,0,0,0-24,24v72a24,24,0,0,0,24,24h80a24,24,0,0,0,24-24V344a24,24,0,0,0-24-24H101V269H235v51H216a24,24,0,0,0-24,24v72a24,24,0,0,0,24,24h80a24,24,0,0,0,24-24V344a24,24,0,0,0-24-24H277V269H411v51H392a24,24,0,0,0-24,24v72a24,24,0,0,0,24,24h80a24,24,0,0,0,24-24V344A24,24,0,0,0,472,320Z" class="ci-primary"/>
</svg>
