<svg xmlns="http://www.w3.org/2000/svg" viewBox="0 0 512 512">
  <polygon fill="var(--ci-primary-color, currentColor)" points="108.863 113.27 252.038 256.445 108.863 113.27 108.863 113.27" class="ci-primary"/>
  <polygon fill="var(--ci-primary-color, currentColor)" points="326.679 331.086 326.733 331.14 401.374 256.499 401.374 256.499 326.733 331.14 326.679 331.086" class="ci-primary"/>
  <polygon fill="var(--ci-primary-color, currentColor)" points="108.863 399.621 108.863 399.621 183.504 474.262 326.679 331.086 183.504 474.261 108.863 399.621" class="ci-primary"/>
  <polygon fill="var(--ci-primary-color, currentColor)" points="401.374 256.391 401.374 256.391 401.32 256.445 401.374 256.391" class="ci-primary"/>
  <polygon fill="var(--ci-primary-color, currentColor)" points="326.733 181.75 326.679 181.804 183.504 38.628 108.863 113.269 108.863 113.27 252.038 256.445 108.863 399.621 108.863 399.621 183.504 474.261 326.679 331.086 326.733 331.14 401.374 256.499 401.374 256.499 401.32 256.445 401.374 256.391 401.374 256.391 326.733 181.75" class="ci-primary"/>
</svg>
