<svg xmlns="http://www.w3.org/2000/svg" viewBox="0 0 512 512">
  <path fill="var(--ci-primary-color, currentColor)" d="M392.417,218.007a156.9,156.9,0,0,0,0-155.9L350.75,85.912a108.979,108.979,0,0,1,0,108.285Z" class="ci-primary"/>
  <path fill="var(--ci-primary-color, currentColor)" d="M161.25,194.2a108.979,108.979,0,0,1,0-108.285L119.583,62.1a156.9,156.9,0,0,0,0,155.905Z" class="ci-primary"/>
  <path fill="var(--ci-primary-color, currentColor)" d="M469.6,18,427.805,41.88a197.605,197.605,0,0,1,0,196.349L469.6,262.111A246.64,246.64,0,0,0,469.6,18Z" class="ci-primary"/>
  <path fill="var(--ci-primary-color, currentColor)" d="M42.4,18a246.64,246.64,0,0,0,0,244.113L84.2,238.229a197.605,197.605,0,0,1,0-196.349Z" class="ci-primary"/>
  <path fill="var(--ci-primary-color, currentColor)" d="M324,148a68,68,0,1,0-121.674,41.676L100.217,496h50.6l42.594-127.781H323.479L369.622,496h50.559l.42-.151L309.924,189.358A67.636,67.636,0,0,0,324,148ZM209.408,320.219,244.479,215a67.127,67.127,0,0,0,23.634-.106l38.032,105.321Z" class="ci-primary"/>
</svg>
