<svg xmlns="http://www.w3.org/2000/svg" viewBox="0 0 512 512">
  <path fill="var(--ci-primary-color, currentColor)" d="M371.738,208l-35.092-45.118L248.38,133.46,157.7,157.643A40.047,40.047,0,0,0,128,196.292V280h48V202.439l66.213-17.657L229.87,222.607l-52.4,146.719L88.072,337.4,71.928,382.6l96.93,34.618a40,40,0,0,0,51.125-24.215l30.285-84.8L312,369.941V496h48V366.627a39.738,39.738,0,0,0-11.716-28.284L287.632,277.69l22.9-70.193,25.714,33.061A39.744,39.744,0,0,0,367.825,256H448V208Z" class="ci-primary"/>
  <circle cx="309.912" cy="80" r="48" fill="var(--ci-primary-color, currentColor)" class="ci-primary"/>
</svg>
