<svg xmlns="http://www.w3.org/2000/svg" viewBox="0 0 512 512">
  <path fill="var(--ci-primary-color, currentColor)" d="M208,245.1V148a68,68,0,0,1,136,0v97.1A132.051,132.051,0,0,0,408,132C408,59.215,348.785,0,276,0S144,59.215,144,132A132.051,132.051,0,0,0,208,245.1Z" class="ci-primary"/>
  <path fill="var(--ci-primary-color, currentColor)" d="M450.141,310.373,312,272V148a36,36,0,0,0-36-36h0a36,36,0,0,0-36,36V344H192l-23.295-28.472a74.41,74.41,0,0,0-106.589-8.88C56,312,61.174,316.871,64,320L222.194,496H456V318.081A8,8,0,0,0,450.141,310.373Z" class="ci-primary"/>
</svg>
