<svg xmlns="http://www.w3.org/2000/svg" viewBox="0 0 512 512">
  <path fill="var(--ci-primary-color, currentColor)" d="M435,16H77A61,61,0,0,0,16,77V435a61,61,0,0,0,61,61H435a61,61,0,0,0,61-61V77A61,61,0,0,0,435,16ZM352,72h32v32H352Zm-56,0h32v32H296ZM240,88V72h32v32H240Zm0,40h32v32H240Zm0,56h32v32H240ZM184,72h32v32H184Zm-56,0h32v32H128ZM72,72h32v32H72Zm0,56h32v32H72Zm0,56h32v32H72Zm32,256H72V408h32Zm0-56H72V352h32Zm0-56H72V296h32Zm56,112H128V408h32Zm56,0H184V408h32Zm56-16v16H240V408h32Zm0-40H240V352h32Zm0-56H240V296h32Zm56,112H296V408h32Zm56,0H352V408h32Zm56,0H408V408h32Zm0-56H408V352h32Zm0-56H408V296h32Zm0-56H72V240H440Zm0-56H408V184h32Zm0-56H408V128h32Zm0-56H408V72h32Z" class="ci-primary"/>
</svg>
