<svg xmlns="http://www.w3.org/2000/svg" viewBox="0 0 512 512">
  <path fill="var(--ci-primary-color, currentColor)" d="M144,252V496H456V252Zm88,196H192V408h40Zm0-80H192V328h40Zm80,80H272V408h40Zm0-80H272V328h40Zm80,80H352V408h40Zm0-80H352V328h40Z" class="ci-primary"/>
  <polygon fill="var(--ci-primary-color, currentColor)" points="392 16 378 16 378 94 456 94 456 80 392 16" class="ci-primary"/>
  <polygon fill="var(--ci-primary-color, currentColor)" points="342 16 144 16 144 216 456 216 456 130 342 130 342 16" class="ci-primary"/>
  <path fill="var(--ci-primary-color, currentColor)" d="M16,192V480a16,16,0,0,0,16,16h76V176H32A16,16,0,0,0,16,192Z" class="ci-primary"/>
</svg>
