<svg xmlns="http://www.w3.org/2000/svg" viewBox="0 0 512 512">
  <path fill="var(--ci-primary-color, currentColor)" d="M316.568,235.6l73.626,73.626L480,320l8-48L304,187.077V96a89.437,89.437,0,0,0-32.18-68.706h0a24.711,24.711,0,0,0-31.64,0h0A89.437,89.437,0,0,0,208,96v31.029L316.568,235.6Z" class="ci-primary"/>
  <polygon fill="var(--ci-primary-color, currentColor)" points="496 466.024 332.245 302.269 332.34 302.281 208 177.941 208 178.024 45.976 16 16 16 16 45.422 173.553 202.975 24 272 32 320 208 298.88 208 304 217.772 416.383 144 448 144 488 368 488 368 448 294.228 416.383 301.646 331.068 466.578 496 496 496 496 466.024" class="ci-primary"/>
</svg>
