<svg xmlns="http://www.w3.org/2000/svg" viewBox="0 0 512 512">
  <path fill="var(--ci-primary-color, currentColor)" d="M368,16H256.321v.741A239.291,239.291,0,0,0,17.386,256.035h32c0-114.183,92.8-207.1,206.935-207.294V90.5Z" class="ci-primary"/>
  <path fill="var(--ci-primary-color, currentColor)" d="M255.987,495.367c132.4-.36,240-107.581,240-239.332h-32c0,114.106-93.244,206.972-208,207.332V432L144.308,496H255.987Z" class="ci-primary"/>
  <path fill="var(--ci-primary-color, currentColor)" d="M208,368H312v40h48V368h40V320H360V222.628l-48,48V320H217.372L312,225.372l48-48,36.686-36.686-35.313-35.313L322.745,144H192V104H144v40H104v48h40V368ZM192,192h82.745L192,274.745Z" class="ci-primary"/>
</svg>
