<svg xmlns="http://www.w3.org/2000/svg" viewBox="0 0 512 512">
  <polygon fill="var(--ci-primary-color, currentColor)" points="240 456 240 416 160 440 160 480 368 480 368 440 288 416 288 456 240 456" class="ci-primary"/>
  <path fill="var(--ci-primary-color, currentColor)" d="M240,304h48v18.07L464,129.308V72H64v57.308L240,322.07ZM407.5,120l-58.435,64H376L260,292,152,184h26.934L120.5,120Z" class="ci-primary"/>
  <polygon fill="var(--ci-primary-color, currentColor)" points="240 304 240 322.07 240 416 240 456 288 456 288 416 288 322.07 288 304 240 304" class="ci-primary"/>
  <polygon fill="var(--ci-primary-color, currentColor)" points="152 184 260 292 376 184 349.066 184 178.934 184 152 184" class="ci-primary"/>
</svg>
