<svg xmlns="http://www.w3.org/2000/svg" viewBox="0 0 512 512">
  <path fill="var(--ci-primary-color, currentColor)" d="M368,184h47.458c-4.664,69.192-39.8,119.633-95.458,140.869V288H192v36.869C136.344,303.633,101.206,253.192,96.542,184H144V56H16V184H64.471c2.993,50.374,20.242,93.872,50.341,126.537A170.667,170.667,0,0,0,166.7,348.9L117.8,365.2a57.122,57.122,0,0,0-8.608-9.083,56.63,56.63,0,0,0-79.807,6.693h0A56.635,56.635,0,0,0,72.535,456q2.4,0,4.827-.2a56.609,56.609,0,0,0,51.731-60.633L192,374.2V416H320V374.2l62.894,20.964a57.524,57.524,0,0,0,.044,8.939A56.64,56.64,0,0,0,439.274,456q2.4,0,4.828-.2a56.63,56.63,0,1,0-47.982-92.988c-.662.782-1.3,1.582-1.91,2.392L345.3,348.9a170.667,170.667,0,0,0,51.891-38.363c30.1-32.665,47.348-76.163,50.341-126.537H496V56H368Z" class="ci-primary"/>
</svg>
