<svg xmlns="http://www.w3.org/2000/svg" viewBox="0 0 512 512">
  <path fill="var(--ci-primary-color, currentColor)" d="M480,84V56a24,24,0,0,0-24-24H56A24,24,0,0,0,32,56V84Z" class="ci-primary"/>
  <path fill="var(--ci-primary-color, currentColor)" d="M32,120V456a24,24,0,0,0,24,24H456a24,24,0,0,0,24-24V120ZM270,408H96V372.129a33.143,33.143,0,0,1,15.08-27.788l38.34-24.921-16.134-43.992V225.714a49.714,49.714,0,0,1,99.428,0v49.714l-17.658,43,39.864,25.912A33.143,33.143,0,0,1,270,372.129ZM432,274H296V238H432Zm0-64H296V174H432Z" class="ci-primary"/>
</svg>
