<svg xmlns="http://www.w3.org/2000/svg" viewBox="0 0 512 512">
  <path fill="var(--ci-primary-color, currentColor)" d="M480,80H32A16,16,0,0,0,16,96v64A264,264,0,0,1,280,424H480a16,16,0,0,0,16-16V96A16,16,0,0,0,480,80ZM432,265.889l-64,32-64-32V230.111l64,32,64-32ZM456,188l-88,44-88-44V172l88-44,88,44Z" class="ci-primary"/>
  <path fill="var(--ci-primary-color, currentColor)" d="M16,360v64H80A64,64,0,0,0,16,360Z" class="ci-primary"/>
  <path fill="var(--ci-primary-color, currentColor)" d="M16.254,280.635v48a95.219,95.219,0,0,1,95.111,95.111h48C159.365,344.834,95.166,280.635,16.254,280.635Z" class="ci-primary"/>
  <path fill="var(--ci-primary-color, currentColor)" d="M16.394,197.508v48c98.2,0,178.1,79.9,178.1,178.1h48A224.617,224.617,0,0,0,176.27,263.731,224.622,224.622,0,0,0,16.394,197.508Z" class="ci-primary"/>
</svg>
