<svg xmlns="http://www.w3.org/2000/svg" viewBox="0 0 512 512">
  <path fill="var(--ci-primary-color, currentColor)" d="M380.4,262.258q.567-1.129,1.111-2.273L424,170.759V156.69S366.248,77.342,346.621,51.172C325.517,23.034,308.705,16,292.092,16h0C255.172,16,224,62.459,224,62.459h-8S184.828,16,147.908,16h0c-16.613,0-33.425,7.034-54.529,35.172C73.752,77.342,16,156.69,16,156.69v14.069l42.489,89.226q.544,1.144,1.111,2.273c20.464,40.787,62.69,66.077,108.323,66.077H272.077C317.71,328.335,359.936,303.045,380.4,262.258Zm-61.917-28.189h0a696.377,696.377,0,0,0-196.966,0h0L88,166.459,149.655,117.3h0S177.793,149.133,220,149.133,290.345,117.3,290.345,117.3h0L352,166.459Z" class="ci-primary"/>
  <path fill="var(--ci-primary-color, currentColor)" d="M321.231,359.422v48a102.94,102.94,0,0,0,96.256-66.769l-44.963-16.816A54.855,54.855,0,0,1,321.231,359.422Z" class="ci-primary"/>
  <path fill="var(--ci-primary-color, currentColor)" d="M454.952,354.664a143,143,0,0,1-133.721,92.758v48c81.689,0,151.54-51.617,178.679-123.944Z" class="ci-primary"/>
</svg>
