<svg xmlns="http://www.w3.org/2000/svg" viewBox="0 0 512 512">
  <polygon fill="var(--ci-primary-color, currentColor)" points="87.53 309.36 87.53 309.36 30.695 252.525 87.53 309.36" class="ci-primary"/>
  <polygon fill="var(--ci-primary-color, currentColor)" points="87.53 195.607 30.695 252.442 87.53 195.607 87.53 195.607" class="ci-primary"/>
  <polygon fill="var(--ci-primary-color, currentColor)" points="253.427 143.463 196.592 86.627 87.571 195.648 87.53 195.607 87.53 195.607 30.695 252.442 30.736 252.484 30.695 252.525 87.53 309.36 87.53 309.36 87.571 309.319 196.592 418.34 253.427 361.504 144.406 252.484 253.427 143.463" class="ci-primary"/>
  <polygon fill="var(--ci-primary-color, currentColor)" points="474.636 143.463 417.801 86.627 308.78 195.648 308.738 195.607 251.903 252.442 251.944 252.484 251.903 252.525 308.738 309.36 308.78 309.319 417.801 418.34 474.636 361.504 365.615 252.484 474.636 143.463" class="ci-primary"/>
</svg>
