<svg xmlns="http://www.w3.org/2000/svg" viewBox="0 0 512 512">
  <path fill="var(--ci-primary-color, currentColor)" d="M49.3,464.651c50.375,27.263,111.732,33.387,173.186,19.537L29.767,291.465C15.916,352.92,22.04,414.276,49.3,464.651Z" class="ci-primary"/>
  <path fill="var(--ci-primary-color, currentColor)" d="M466.973,46.981c-49.426-26.75-109.426-33.158-169.716-20.307L488.362,211.409C499.743,152.907,492.941,94.962,466.973,46.981Z" class="ci-primary"/>
  <path fill="var(--ci-primary-color, currentColor)" d="M125.029,122.707C87.983,159.752,60.742,202.205,43.7,246L267.953,470.254c43.8-17.041,86.249-44.283,123.3-81.328,39.331-39.332,67.621-84.758,84.374-131.417L250.975,40.351C206.242,57.315,162.822,84.914,125.029,122.707ZM288,198.544l27.272-27.272,25.456,25.456L313.456,224l27.272,27.272-25.456,25.456L288,249.456,265.456,272l27.272,27.272-25.456,25.456L240,297.456l-27.272,27.272-25.456-25.456L214.544,272l-27.272-27.272,25.456-25.456L240,246.544,262.544,224l-27.272-27.272,25.456-25.456Z" class="ci-primary"/>
</svg>
