<svg xmlns="http://www.w3.org/2000/svg" viewBox="0 0 512 512">
  <path fill="var(--ci-primary-color, currentColor)" d="M289.874,151.667h21.871L254.136,83.084a31.931,31.931,0,0,0-24.5-11.417H114.367a31.931,31.931,0,0,0-24.5,11.417L32.256,151.667H289.874Z" class="ci-primary"/>
  <path fill="var(--ci-primary-color, currentColor)" d="M237.024,183.667H24v124H64v40h48v-40h56V284.78a52.088,52.088,0,0,1,12.183-33.446l40.041-47.667ZM80,261.667v-42h42v42Z" class="ci-primary"/>
  <path fill="var(--ci-primary-color, currentColor)" d="M200,296.667v127h40v40h48v-40H408v40h48v-40h40v-127Zm56,81v-42h42v42Zm184,0H398v-42h42Z" class="ci-primary"/>
  <path fill="var(--ci-primary-color, currentColor)" d="M265.864,199.084l-55.089,65.583h274.45l-55.089-65.583a31.931,31.931,0,0,0-24.5-11.417H290.367A31.931,31.931,0,0,0,265.864,199.084Z" class="ci-primary"/>
</svg>
