<svg xmlns="http://www.w3.org/2000/svg" viewBox="0 0 512 512">
  <polygon fill="var(--ci-primary-color, currentColor)" points="100.023 417.229 129.879 446.771 244.034 331.402 215.022 301.009 100.023 417.229" class="ci-primary"/>
  <path fill="var(--ci-primary-color, currentColor)" d="M358.146,270.6q3.671,0,7.372-.293c26.742-2.118,52.054-15.35,73.2-38.263,20.68-22.408,35.154-51.963,39.71-81.086,5.232-33.456-2.838-61.988-22.726-80.343S406.73,46.5,373.8,54.4c-28.665,6.874-56.967,23.667-77.648,46.076-21.145,22.913-32.306,49.2-32.277,76.029a91.937,91.937,0,0,0,18.992,55.942l-12.279,12.41L64.617,35.359l-14.6,19.91A143.651,143.651,0,0,0,64.28,241.794l80.058,80.057,72.133-72.133,19,19.329,170.6,173.517,5.9,6,29.949-29.445L300.037,274.805l14.9-15.054A91.611,91.611,0,0,0,358.146,270.6Z" class="ci-primary"/>
</svg>
