<svg xmlns="http://www.w3.org/2000/svg" viewBox="0 0 512 512">
  <path fill="var(--ci-primary-color, currentColor)" d="M282.766,81.905l42.772,72.632L279.67,185.161l3.2,4.79L393.707,212.04,416,100.173,413.214,96l-47.692,31.841L324.127,57.548a72,72,0,0,0-124.083,0l-24.068,40.87L191.587,166.5l49.818-84.6h0a24,24,0,0,1,41.361,0Z" class="ci-primary"/>
  <path fill="var(--ci-primary-color, currentColor)" d="M85.564,370.363a23.566,23.566,0,0,1,.157-24.088l42.506-72.18L176.512,304l3.032-4.9L153.681,189.085l-111.039,26.1L40,219.454l47.408,29.361-43.049,73.1A72,72,0,0,0,106.4,430.453h49.341l48-48H106.4A23.566,23.566,0,0,1,85.564,370.363Z" class="ci-primary"/>
  <path fill="var(--ci-primary-color, currentColor)" d="M479.812,321.917l-31.906-54.179L386.184,257.52l52.266,88.754a24,24,0,0,1-20.68,36.179h-84.4l-.659-55.074-5.759.069L248,408.313,329.615,488l5.018-.06-.687-57.487H417.77a72,72,0,0,0,62.042-108.536Z" class="ci-primary"/>
</svg>
