<svg xmlns="http://www.w3.org/2000/svg" viewBox="0 0 512 512">
  <path fill="var(--ci-primary-color, currentColor)" d="M24.062,162.108a16,16,0,0,0,.382,28l224,120a16,16,0,0,0,15.112,0l10.537-5.646,26.854,26.854L256,356.033,32,232.833v47.933L245.88,398.4a21,21,0,0,0,20.24,0l65.752-36.163,24.455,24.455L256,440.2,32,320.733v47.6l214.117,114.2a21,21,0,0,0,19.766,0l121.488-64.793L466.3,496.667H496v-29.7L45.7,16.667H16v29.7l76.586,76.586Z" class="ci-primary"/>
  <path fill="var(--ci-primary-color, currentColor)" d="M487.556,190.1a16,16,0,0,0,.382-28l-224-128a16,16,0,0,0-15.876,0L160.717,84.019,343.809,267.111Z" class="ci-primary"/>
  <polygon fill="var(--ci-primary-color, currentColor)" points="480 232.833 370.021 293.322 400.945 324.247 480 280.766 480 232.833" class="ci-primary"/>
  <polygon fill="var(--ci-primary-color, currentColor)" points="480 368.333 480 320.733 426.151 349.453 457.195 380.496 480 368.333" class="ci-primary"/>
</svg>
