<svg xmlns="http://www.w3.org/2000/svg" viewBox="0 0 512 512">
  <path fill="var(--ci-primary-color, currentColor)" d="M317.956,229.747a255.89,255.89,0,0,0-188.483,25.839L51.232,143.847A389.849,389.849,0,0,1,256,86.128q18.625,0,37,1.739V39.7q-18.428-1.552-37-1.574A439.835,439.835,0,0,0,8,114.7V165.79L228.012,480h55.976l142.54-203.569a119.865,119.865,0,0,1-108.572-46.684Z" class="ci-primary"/>
  <path fill="var(--ci-primary-color, currentColor)" d="M471.936,104V75.527a60.25,60.25,0,0,0-120.5,0V104h-22v53.148a84,84,0,0,0,168,0V104Zm-36-2h-48.5V75.527a24.25,24.25,0,1,1,48.5,0Z" class="ci-primary"/>
</svg>
