<svg xmlns="http://www.w3.org/2000/svg" viewBox="0 0 512 512">
  <path fill="var(--ci-primary-color, currentColor)" d="M472,472a24,24,0,0,0,24-24V128a24,24,0,0,0-24-24H258.667L237.9,54.154A23,23,0,0,0,216.667,40H39A23,23,0,0,0,16,63V448a24,24,0,0,0,24,24ZM159.588,263.73l59.184-9.618,1.1-.8L247.305,200H264.7l27.436,53.315,1.1.8,59.184,9.618,5.374,16.539-42.228,42.569-.418,1.289,9.141,59.26-14.069,10.221L256.678,366.6h-1.356l-53.534,27.006-14.069-10.221,9.141-59.26-.418-1.289-42.228-42.569Z" class="ci-primary"/>
</svg>
