<svg xmlns="http://www.w3.org/2000/svg" viewBox="0 0 512 512">
  <path fill="var(--ci-primary-color, currentColor)" d="M440.023,410.049l.025-.03L326.926,296.951l-26.671-26.658L242.214,212.28,101.894,72.025,45.841,16H16V45.422l56.23,56.23A238.912,238.912,0,0,0,17.1,233H88.058v48H17.292C28.98,393.924,118.964,483.6,232.029,494.811V424h48v70.806A238.917,238.917,0,0,0,410.348,439.77L466.579,496H496V466.025ZM176.118,347.071a8,8,0,0,1-10.728-10.736L212.578,242l57.948,57.947Z" class="ci-primary"/>
  <path fill="var(--ci-primary-color, currentColor)" d="M336.832,164.891a8,8,0,0,1,10.739,10.729l-30.318,60.662L461.316,380.345A238.489,238.489,0,0,0,494.708,281H424.029V233H494.9C484.071,119.147,393.717,28.483,280,17.191V88H232V17.191A238.517,238.517,0,0,0,131.555,50.743L276.2,195.26Z" class="ci-primary"/>
</svg>
