<svg xmlns="http://www.w3.org/2000/svg" viewBox="0 0 512 512">
  <path fill="var(--ci-primary-color, currentColor)" d="M132,150.667A102.4,102.4,0,0,1,234.286,252.952V319.5H280V272H408v47.5h56V56.205A24.131,24.131,0,0,0,440,32H72A24.131,24.131,0,0,0,48,56.205V194.66A102.24,102.24,0,0,1,132,150.667Z" class="ci-primary"/>
  <path fill="var(--ci-primary-color, currentColor)" d="M227.893,411.121l-53.152-34.549,23.545-57.334V252.952a66.286,66.286,0,0,0-132.572,0v66.286l21.513,58.655-51.12,33.228A44.19,44.19,0,0,0,16,448.172V496H248V448.172A44.19,44.19,0,0,0,227.893,411.121Z" class="ci-primary"/>
  <polygon fill="var(--ci-primary-color, currentColor)" points="233.5 355 233.5 365.689 282.702 397 496 397 496 355 233.5 355" class="ci-primary"/>
</svg>
