<svg xmlns="http://www.w3.org/2000/svg" viewBox="0 0 512 512">
  <path fill="var(--ci-primary-color, currentColor)" d="M391.971,345.374l-21.765-33.683L493.943,191.3H402.167l-67.388,65.567-13.552-20.973A95.621,95.621,0,0,0,240.608,192H192.471l14.657-68.194A15.459,15.459,0,0,1,220.925,112H296V48H220.079l-1.317.027a79.45,79.45,0,0,0-74.073,61.723L127.012,192H47.894v64h65.363L84.844,388.2a15.463,15.463,0,0,1-13.8,11.8H16v64H72.552l.658-.027a79.45,79.45,0,0,0,74.073-61.723L178.716,256h61.892a31.864,31.864,0,0,1,26.864,14.626l20.522,31.759L163,424h91.775l68.645-66.789,14.8,22.9A95.621,95.621,0,0,0,418.835,424H480V360H418.835A31.865,31.865,0,0,1,391.971,345.374Z" class="ci-primary"/>
</svg>
