<svg xmlns="http://www.w3.org/2000/svg" viewBox="0 0 512 512">
  <path fill="var(--ci-primary-color, currentColor)" d="M165.789,68.048A225.124,225.124,0,0,1,188,25.755,239.823,239.823,0,0,0,17.069,239H134.215C135.834,174.648,146.9,114.462,165.789,68.048Z" class="ci-primary"/>
  <path fill="var(--ci-primary-color, currentColor)" d="M346.211,442.952A225.124,225.124,0,0,1,324,485.245,239.834,239.834,0,0,0,494.708,275h-117C375.827,338.222,364.81,397.259,346.211,442.952Z" class="ci-primary"/>
  <path fill="var(--ci-primary-color, currentColor)" d="M324.336,239A119.555,119.555,0,0,1,292,157.148V72h-.277V42.428C280.152,26.722,267.735,18,256,18c-19.393,0-40.651,23.783-56.867,63.62C181.922,123.9,171.8,179.281,170.224,239Z" class="ci-primary"/>
  <path fill="var(--ci-primary-color, currentColor)" d="M134.291,275h-117A239.834,239.834,0,0,0,188,485.245a225.124,225.124,0,0,1-22.213-42.293C147.19,397.259,136.173,338.222,134.291,275Z" class="ci-primary"/>
  <path fill="var(--ci-primary-color, currentColor)" d="M170.308,275c1.833,58.573,11.9,112.806,28.825,154.38C215.349,469.217,236.607,493,256,493s40.651-23.783,56.867-63.62c16.922-41.574,26.992-95.807,28.825-154.38Z" class="ci-primary"/>
  <path fill="var(--ci-primary-color, currentColor)" d="M470.5,104h0V75.527c0-.831-.029-1.655-.063-2.477-.008-.206,0-.414-.016-.618-.007-.145-.024-.287-.032-.432-.052-.883-.128-1.759-.216-2.631-.033-.323-.073-.644-.111-.965q-.094-.8-.208-1.588c-.059-.4-.119-.808-.186-1.21s-.147-.827-.224-1.238c-.244-1.307-.515-2.6-.844-3.88a59.686,59.686,0,0,0-2.842-8.39c-.133-.313-.282-.617-.42-.928-.159-.357-.319-.715-.484-1.069q-.294-.626-.6-1.246c-.188-.378-.382-.752-.578-1.126-.155-.3-.3-.6-.46-.9-.075-.138-.159-.271-.236-.409q-.5-.909-1.034-1.8c-.212-.352-.432-.7-.651-1.046-.241-.384-.484-.766-.733-1.143-.125-.189-.24-.384-.367-.571-.1-.153-.216-.3-.321-.451-.286-.415-.58-.825-.876-1.232-.2-.279-.4-.562-.608-.838q-.713-.945-1.462-1.858c-.069-.086-.134-.176-.2-.261-.11-.133-.231-.257-.342-.389Q455.512,35.8,454.6,34.8c-.117-.127-.23-.259-.347-.385-.695-.743-1.414-1.462-2.145-2.17-.186-.18-.373-.361-.562-.539q-1.1-1.039-2.253-2.025c-.169-.144-.342-.284-.512-.426-.765-.638-1.543-1.262-2.34-1.862-.055-.042-.107-.089-.163-.13-.019-.015-.039-.027-.058-.042q-1.022-.761-2.076-1.477c-.222-.151-.446-.3-.669-.445q-.788-.522-1.591-1.021c-.139-.086-.274-.18-.414-.266-.092-.056-.188-.106-.28-.161-.694-.417-1.395-.823-2.106-1.212-.054-.03-.106-.062-.16-.091-.491-.267-.993-.514-1.493-.765-.278-.141-.551-.29-.832-.427-.084-.041-.165-.088-.249-.128-.146-.071-.3-.132-.444-.2q-.885-.419-1.785-.808c-.148-.064-.291-.136-.44-.2-.09-.039-.184-.071-.275-.109-.812-.34-1.63-.667-2.459-.972s-1.672-.585-2.518-.853c-.094-.03-.186-.066-.28-.095-.156-.049-.316-.087-.472-.135q-.948-.287-1.909-.543c-.255-.068-.509-.138-.765-.2-.868-.22-1.741-.426-2.624-.607a60.542,60.542,0,0,0-24.254,0c-.883.181-1.756.387-2.624.607-.256.064-.51.134-.766.2q-.96.257-1.907.543c-.157.048-.317.086-.473.135-.094.029-.186.065-.28.095-.846.268-1.688.549-2.518.853s-1.656.636-2.472.977c-.086.036-.176.067-.262.1-.171.072-.336.154-.505.228q-.848.369-1.682.762c-.159.075-.323.141-.482.218-.123.059-.241.126-.364.187l-.069.035q-.816.4-1.617.829c-.127.068-.255.135-.383.2-.1.053-.2.1-.305.16-.6.332-1.2.68-1.791,1.031-.119.071-.241.136-.359.207h0c-.076.046-.156.087-.232.133-.238.145-.466.3-.7.45-.412.258-.821.519-1.226.787q-.544.361-1.081.733c-.333.231-.661.467-.989.7-.269.194-.545.378-.811.577-.1.072-.188.153-.285.227-.715.541-1.414,1.1-2.1,1.674-.341.284-.678.574-1.013.865-.472.409-.934.828-1.392,1.251q-.761.7-1.5,1.431-.57.564-1.126,1.14c-.369.385-.736.771-1.094,1.165-.474.52-.936,1.05-1.392,1.587-.178.21-.37.409-.546.622-.771.934-1.5,1.9-2.214,2.882-.05.069-.1.136-.152.2h0v0h0l0,0,0,.005h0l0,0c-.368.509-.741,1.015-1.093,1.537-.787,1.164-1.52,2.366-2.226,3.586-.052.089-.1.178-.154.268-.213.372-.436.737-.641,1.113-.733,1.347-1.4,2.732-2.03,4.138-.048.107-.1.214-.146.322-.119.27-.25.534-.365.806a59.686,59.686,0,0,0-2.842,8.39c-.055.213-.1.431-.149.645s-.1.444-.155.666q-.308,1.318-.556,2.658c-.077.415-.157.829-.226,1.246-.063.385-.118.773-.174,1.161-.076.53-.147,1.062-.209,1.6-.036.311-.074.622-.106.934-.087.864-.163,1.731-.214,2.605-.008.145-.025.287-.032.432-.011.2-.008.414-.016.619-.034.823-.063,1.646-.063,2.476V104H328v53.148h0a83.459,83.459,0,0,0,11.422,42.21,84.518,84.518,0,0,0,38.211,34.408A83.575,83.575,0,0,0,430.806,239,84.033,84.033,0,0,0,496,157.149h0V104Zm-36-8.175V102H386V75.527A24.191,24.191,0,0,1,392.722,58.8,24.229,24.229,0,0,1,434.241,72a24.422,24.422,0,0,1,.259,3.527Z" class="ci-primary"/>
</svg>
