<svg xmlns="http://www.w3.org/2000/svg" viewBox="0 0 512 512">
  <path fill="var(--ci-primary-color, currentColor)" d="M440,336a32,32,0,0,0-32,32v24H392V352a32,32,0,0,0-64,0v40H312V336a32,32,0,0,0-64,0v56H232V248a32,32,0,0,0-64,0V448H152V408a64,64,0,0,0-64-64,8,8,0,0,0-8,8V496H472V368A32,32,0,0,0,440,336Z" class="ci-primary"/>
  <circle cx="64" cy="192" r="32" fill="var(--ci-primary-color, currentColor)" class="ci-primary"/>
  <circle cx="320" cy="192" r="32" fill="var(--ci-primary-color, currentColor)" class="ci-primary"/>
  <circle cx="184" cy="64" r="32" fill="var(--ci-primary-color, currentColor)" class="ci-primary"/>
  <circle cx="448" cy="192" r="32" fill="var(--ci-primary-color, currentColor)" class="ci-primary"/>
  <circle cx="448" cy="64" r="32" fill="var(--ci-primary-color, currentColor)" class="ci-primary"/>
  <circle cx="320" cy="64" r="32" fill="var(--ci-primary-color, currentColor)" class="ci-primary"/>
</svg>
