<svg xmlns="http://www.w3.org/2000/svg" viewBox="0 0 512 512">
  <path fill="var(--ci-primary-color, currentColor)" d="M240,16C167.272,78.073,24,96,24,96c0,154.473,43.2,348.509,232,400C444.8,444.509,488,250.473,488,96c0,0-143.272-17.927-216-80ZM422.075,148.884c-2.667,35.686-8.089,68.971-16.115,99.116H256V429.032c-58.19-20.344-100.406-60.18-128.729-121.317A366.623,366.623,0,0,1,106.04,248H256V83.843c34.965,23.17,80.027,42.35,134.442,57.182C401.6,144.065,412.253,146.671,422.075,148.884Z" class="ci-primary"/>
</svg>
