<svg xmlns="http://www.w3.org/2000/svg" viewBox="0 0 512 512">
  <circle cx="120" cy="264" r="32" fill="var(--ci-primary-color, currentColor)" class="ci-primary"/>
  <circle cx="256" cy="384" r="32" fill="var(--ci-primary-color, currentColor)" class="ci-primary"/>
  <circle cx="392" cy="264" r="32" fill="var(--ci-primary-color, currentColor)" class="ci-primary"/>
  <path fill="var(--ci-primary-color, currentColor)" d="M425.706,86.294A238.187,238.187,0,0,0,280,17.179V16H232V128h48V65.5C374.583,77.344,448,158.258,448,256c0,105.869-86.131,192-192,192S64,361.869,64,256a191.581,191.581,0,0,1,50.657-129.957L229.478,270.908,267.1,241.092,120.612,56.28,101.705,72.165a240,240,0,1,0,324,14.129Z" class="ci-primary"/>
</svg>
