<svg xmlns="http://www.w3.org/2000/svg" viewBox="0 0 512 512">
  <path fill="var(--ci-primary-color, currentColor)" d="M304,392V216a48.055,48.055,0,0,1,48-48h88V125.1c0-8.759-6.328-15.859-14.133-15.859H30.133c-7.8,0-14.133,7.1-14.133,15.859V424.141C16,432.9,22.328,440,30.133,440H151.2l-5.126-51.258a83.919,83.919,0,0,1,0-145.484L152,184h72l5.926,59.258a83.919,83.919,0,0,1,0,145.484L224.8,440H304V392Z" class="ci-primary"/>
  <path fill="var(--ci-primary-color, currentColor)" d="M352,200a16,16,0,0,0-16,16V424a16,16,0,0,0,16,16H464a16,16,0,0,0,16-16V216a16,16,0,0,0-16-16H352Z" class="ci-primary"/>
  <circle cx="188" cy="316" r="52" fill="var(--ci-primary-color, currentColor)" class="ci-primary"/>
</svg>
