<svg xmlns="http://www.w3.org/2000/svg" viewBox="0 0 512 512">
  <path fill="var(--ci-primary-color, currentColor)" d="M480,64H32A16,16,0,0,0,16,80V432a16,16,0,0,0,16,16H480a16,16,0,0,0,16-16V80A16,16,0,0,0,480,64ZM334.667,345.58c-25.774,0-46.667-19.346-46.667-43.21a40.521,40.521,0,0,1,.319-4.989V206.218l-108,21.967V298.66a50.321,50.321,0,0,1,10.348-1.08c25.773,0,46.666,19.346,46.666,43.21S216.44,384,190.667,384,144,364.654,144,340.79a40.521,40.521,0,0,1,.319-4.989V235.507l-.319.065V171.8L324.157,136v26.21h.162v98.03a50.39,50.39,0,0,1,10.348-1.08c25.773,0,46.666,19.346,46.666,43.21S360.44,345.58,334.667,345.58Z" class="ci-primary"/>
</svg>
