<svg xmlns="http://www.w3.org/2000/svg" viewBox="0 0 512 512">
  <path fill="var(--ci-primary-color, currentColor)" d="M464,16H48A32,32,0,0,0,16,48V464a32,32,0,0,0,32,32H464a32,32,0,0,0,32-32V48A32,32,0,0,0,464,16ZM240,376H192V280H128v96H80V136h48v96h64V136h48Zm200-57.231C440,350.326,413.084,376,380,376H280V136H380c33.084,0,60,25.674,60,57.231Z" class="ci-primary"/>
  <path fill="var(--ci-primary-color, currentColor)" d="M380,184H328V328h52c6.5,0,12-4.227,12-9.231V193.231C392,188.227,386.505,184,380,184Z" class="ci-primary"/>
</svg>
