<svg xmlns="http://www.w3.org/2000/svg" viewBox="0 0 512 512">
  <rect width="480" height="32" x="16" y="16" fill="var(--ci-primary-color, currentColor)" class="ci-primary"/>
  <rect width="480" height="32" x="16" y="464" fill="var(--ci-primary-color, currentColor)" class="ci-primary"/>
  <circle cx="87.371" cy="160.097" r="73.37" fill="var(--ci-primary-color, currentColor)" class="ci-primary" transform="rotate(-22.5 87.37 160.098)"/>
  <path fill="var(--ci-primary-color, currentColor)" d="M274.311,233.467A61.467,61.467,0,1,0,212.843,172,61.536,61.536,0,0,0,274.311,233.467Z" class="ci-primary"/>
  <path fill="var(--ci-primary-color, currentColor)" d="M435.516,233.467a47.637,47.637,0,1,0-47.637-47.636A47.69,47.69,0,0,0,435.516,233.467Z" class="ci-primary"/>
  <circle cx="87.371" cy="355.979" r="73.37" fill="var(--ci-primary-color, currentColor)" class="ci-primary" transform="rotate(-10.901 87.37 355.97)"/>
  <path fill="var(--ci-primary-color, currentColor)" d="M274.311,405.543a61.468,61.468,0,1,0-61.468-61.467A61.536,61.536,0,0,0,274.311,405.543Z" class="ci-primary"/>
  <path fill="var(--ci-primary-color, currentColor)" d="M435.516,377.882a47.637,47.637,0,1,0-47.637-47.637A47.691,47.691,0,0,0,435.516,377.882Z" class="ci-primary"/>
</svg>
