<svg xmlns="http://www.w3.org/2000/svg" viewBox="0 0 512 512">
  <path fill="var(--ci-primary-color, currentColor)" d="M307,181.781v-3.36a26.718,26.718,0,0,0-26.687-26.687H245v56.734h35.313A26.717,26.717,0,0,0,307,181.781Z" class="ci-primary"/>
  <path fill="var(--ci-primary-color, currentColor)" d="M256,16C159.171,16,80.4,94.776,80.4,191.605a174.2,174.2,0,0,0,33.987,103.84L235.659,484.872a24.155,24.155,0,0,0,40.683,0L397.618,295.445a174.2,174.2,0,0,0,33.987-103.84C431.605,94.776,352.829,16,256,16ZM245,312H203V109.734h77.313A68.765,68.765,0,0,1,349,178.421v3.36a68.765,68.765,0,0,1-68.687,68.687H245Z" class="ci-primary"/>
</svg>
