<svg xmlns="http://www.w3.org/2000/svg" viewBox="0 0 512 512">
  <path fill="var(--ci-primary-color, currentColor)" d="M503.832,232a214.581,214.581,0,0,0-19.614-81.743A235.02,235.02,0,0,0,430.806,76.49C383.691,32.324,321.611,8,256,8A248,248,0,0,0,80.638,431.362a248,248,0,0,0,348.927,1.78L395.97,398.858A198.87,198.87,0,0,1,256,456C145.72,456,56,366.28,56,256S145.72,56,256,56c108.411,0,200,84.262,200,184v36c0,24.262-21.533,44-48,44s-48-19.738-48-44V152H312v18.244a108,108,0,1,0,20.143,162.073A97.4,97.4,0,0,0,408,368c52.935,0,96-41.271,96-92V232ZM252,320a60,60,0,1,1,60-60A60.068,60.068,0,0,1,252,320Z" class="ci-primary"/>
</svg>
