<svg xmlns="http://www.w3.org/2000/svg" viewBox="0 0 512 512">
  <path fill="var(--ci-primary-color, currentColor)" d="M397.222,139.1l-.218-.223a198.666,198.666,0,0,0-49-35.931q-3.31-1.718-6.669-3.3a200.488,200.488,0,0,0-163.57-3.174h0l37.3,37.3A133.912,133.912,0,0,1,260,126c73.888,0,134,60.112,134,134a133.912,133.912,0,0,1-7.766,44.937l39.152,39.152L496,270.683V241.79Z" class="ci-primary"/>
  <path fill="var(--ci-primary-color, currentColor)" d="M260,162a98.023,98.023,0,0,0-15.472,1.231l112.241,112.24A97.988,97.988,0,0,0,260,162Z" class="ci-primary"/>
  <path fill="var(--ci-primary-color, currentColor)" d="M16,16V45.012l96.481,96.481-24.962,25.95h0l-30.7,31.917h0L31.854,225.309,16,241.79v28.893l98.778,102.689.218.222a198.5,198.5,0,0,0,122.6,57.462L54.485,247.941l24.962-25.95,207.5,207.5a199.274,199.274,0,0,0,48.583-14.038L110.149,190.073l24.962-25.95L466.988,496H496V465.615L46.385,16Z" class="ci-primary"/>
</svg>
