<svg xmlns="http://www.w3.org/2000/svg" viewBox="0 0 512 512">
  <path fill="var(--ci-primary-color, currentColor)" d="M344,24H40A16,16,0,0,0,24,40V344H64V64H344Z" class="ci-primary"/>
  <path fill="var(--ci-primary-color, currentColor)" d="M416,111.238V96H112a16,16,0,0,0-16,16V416h40V136H416Z" class="ci-primary"/>
  <path fill="var(--ci-primary-color, currentColor)" d="M487.963,183.273A15.986,15.986,0,0,0,472,168H184a16,16,0,0,0-16,16V472a16.016,16.016,0,0,0,16,16H472a16,16,0,0,0,16-16V184C488,183.755,487.974,183.516,487.963,183.273ZM288,408h-8V248h8l112,80Z" class="ci-primary"/>
</svg>
