<svg xmlns="http://www.w3.org/2000/svg" viewBox="0 0 512 512">
  <path fill="var(--ci-primary-color, currentColor)" d="M256.6,17.236c-132.217,0-239.4,107.182-239.4,239.4s107.182,239.4,239.4,239.4S496,388.852,496,256.635,388.817,17.236,256.6,17.236ZM398.933,220.262l-64.069,64.586,13.87,89.911a8,8,0,0,1-11.51,8.362L256,342.146l-81.224,40.975a8,8,0,0,1-11.51-8.362l13.87-89.911-64.069-64.586a8,8,0,0,1,4.4-13.531l89.795-14.593,41.628-80.891a8,8,0,0,1,14.226,0l41.628,80.891,89.8,14.593A8,8,0,0,1,398.933,220.262Z" class="ci-primary"/>
</svg>
