<svg xmlns="http://www.w3.org/2000/svg" viewBox="0 0 512 512">
  <path fill="var(--ci-primary-color, currentColor)" d="M16,231.2V376H40.4a79.97,79.97,0,0,1,148.836-32A79.383,79.383,0,0,1,199.6,376h96.8a80.01,80.01,0,0,1,159.2,0H496V231.2Z" class="ci-primary"/>
  <path fill="var(--ci-primary-color, currentColor)" d="M491.662,180.758l-49.778-71.111A32.029,32.029,0,0,0,415.669,96H48a32.036,32.036,0,0,0-32,32v71.2H496v-4.675A23.886,23.886,0,0,0,491.662,180.758Z" class="ci-primary"/>
  <circle cx="120" cy="384" r="48" fill="var(--ci-primary-color, currentColor)" class="ci-primary"/>
  <circle cx="376" cy="384" r="48" fill="var(--ci-primary-color, currentColor)" class="ci-primary"/>
</svg>
