<svg xmlns="http://www.w3.org/2000/svg" viewBox="0 0 512 512">
  <path fill="var(--ci-primary-color, currentColor)" d="M316.568,235.6h0L416,335.029V72a32.036,32.036,0,0,0-32-32H230.627A31.791,31.791,0,0,0,208,49.373L169.172,88.2Z" class="ci-primary"/>
  <path fill="var(--ci-primary-color, currentColor)" d="M496,466.024l-80-80v-.083l-80-80v.083L261.976,232h.083L143.716,113.657l-.041.041L45.977,16H16V45.422L113.975,143.4,97.373,160A31.791,31.791,0,0,0,88,182.627V448a32.036,32.036,0,0,0,32,32H384a32.036,32.036,0,0,0,32-32v-2.577L466.577,496H496ZM336,400H224V253.422l112,112Z" class="ci-primary"/>
</svg>
