<svg xmlns="http://www.w3.org/2000/svg" viewBox="0 0 512 512">
  <path fill="var(--ci-primary-color, currentColor)" d="M480,120H380.914L357.091,58.242A16,16,0,0,0,342.164,48H177.317A100.044,100.044,0,0,1,88,183.914V184H16V456a16,16,0,0,0,16,16H480a16,16,0,0,0,16-16V136A16,16,0,0,0,480,120ZM256,386A104,104,0,1,1,360,282,104,104,0,0,1,256,386Z" class="ci-primary"/>
  <polygon fill="var(--ci-primary-color, currentColor)" points="66 152 102 152 102 102 152 102 152 66 102 66 102 16 66 16 66 66 16 66 16 102 66 102 66 152" class="ci-primary"/>
</svg>
