<svg xmlns="http://www.w3.org/2000/svg" viewBox="0 0 512 512">
  <path fill="var(--ci-primary-color, currentColor)" d="M494.926,233C484.1,119.147,393.746,28.482,280.028,17.191V88h-48V17.191C118.312,28.483,27.958,119.147,17.131,233H88v48H17.321C29.007,393.905,118.962,483.569,232,494.806V424h48v70.811C393.064,483.6,483.048,393.924,494.737,281H423.972V233ZM335.911,347.071,221.639,290.032,164.458,175.62A8,8,0,0,1,175.2,164.891L289.521,222.15l57.118,114.185A8,8,0,0,1,335.911,347.071Z" class="ci-primary"/>
</svg>
