<svg xmlns="http://www.w3.org/2000/svg" viewBox="0 0 512 512">
  <path fill="var(--ci-primary-color, currentColor)" d="M64,448V168H24V472a16,16,0,0,0,16,16H344V448Z" class="ci-primary"/>
  <path fill="var(--ci-primary-color, currentColor)" d="M136,376V96H96V400a16,16,0,0,0,16,16H416V376Z" class="ci-primary"/>
  <path fill="var(--ci-primary-color, currentColor)" d="M168,40V328a16,16,0,0,0,16,16H472a15.986,15.986,0,0,0,15.963-15.273c.011-.243.037-.482.037-.727V40a16,16,0,0,0-16-16H184a16.016,16.016,0,0,0-16,16ZM448,64V240H432l-40.34-48L352,240H336V64Z" class="ci-primary"/>
</svg>
