<svg xmlns="http://www.w3.org/2000/svg" viewBox="0 0 512 512">
  <path fill="var(--ci-primary-color, currentColor)" d="M397.557,125.142A24,24,0,0,0,376.7,113.01H258.58a24,24,0,0,0-12.144,3.3l-61.743,36.22V337.656L254.834,491.2a8.2,8.2,0,0,0,10.767,4.1A72.118,72.118,0,0,0,302.27,399.62l-10.992-24.34V326.3H424.1a24,24,0,0,0,22.472-15.573l17.241-45.976a24.008,24.008,0,0,0,1.528-8.427v-5.7a24,24,0,0,0-3.14-11.869Z" class="ci-primary"/>
  <path fill="var(--ci-primary-color, currentColor)" d="M127.475,145.011H51.427a24.085,24.085,0,0,0-23.51,19.175l-1.5,7.311A503.569,503.569,0,0,0,27.9,382.165a24.147,24.147,0,0,0,23.439,18.846h76.141a24.024,24.024,0,0,0,24-24v-208a24.023,24.023,0,0,0-24-24Z" class="ci-primary"/>
</svg>
