<svg xmlns="http://www.w3.org/2000/svg" viewBox="0 0 512 512">
  <polygon fill="var(--ci-primary-color, currentColor)" points="64 112 16 112 16 496 496 496 496 448 64 448 64 112" class="ci-primary"/>
  <path fill="var(--ci-primary-color, currentColor)" d="M215.278,337.22,272,393.941l45.91-45.909a226.332,226.332,0,0,0-22.286-45.6L272,326.059,216.722,270.78,103.783,374.309l32.434,35.382Z" class="ci-primary"/>
  <path fill="var(--ci-primary-color, currentColor)" d="M372.871,416H416a302.754,302.754,0,0,0-31.331-134.727l49.106-49.106,56.9,56.9L496,283.744V136H346.885l-4.639,4.638,57.587,57.587-40.681,40.681A307.792,307.792,0,0,0,326.96,201.04,302.01,302.01,0,0,0,112,112v43.129A268.962,268.962,0,0,1,372.871,416Z" class="ci-primary"/>
</svg>
