<svg xmlns="http://www.w3.org/2000/svg" viewBox="0 0 512 512">
  <path fill="var(--ci-primary-color, currentColor)" d="M169.65,235.105l-70.921,14.45a23.872,23.872,0,0,0-17.65,15L22.251,419.65a24.036,24.036,0,0,0,5.47,25.482l6.846,6.846,68.705-68.706,25.456,25.456-68.706,68.7,5.638,5.638a24.025,24.025,0,0,0,25.483,5.47L246.3,429.688a23.919,23.919,0,0,0,14.938-17.322l15.352-70.322ZM176,376H136V336h40Z" class="ci-primary"/>
  <path fill="var(--ci-primary-color, currentColor)" d="M470.107,41.893a88.4,88.4,0,0,0-130.924,6.529L201.8,216.341l93.863,93.864L463.578,172.817a88.4,88.4,0,0,0,6.529-130.924Z" class="ci-primary"/>
</svg>
