<svg xmlns="http://www.w3.org/2000/svg" viewBox="0 0 512 512">
  <path fill="var(--ci-primary-color, currentColor)" d="M364.564,256.267l-7.219,7.219-9.935,2.355-73.988,17.533-.765.181-.772.148A37.251,37.251,0,0,1,228.3,240.1l.147-.763.179-.756,17.533-73.988,2.355-9.934,7.219-7.22L371.169,32H56A24,24,0,0,0,32,56V328a24,24,0,0,0,24,24H388.767l69.522,128H480V140.831Z" class="ci-primary"/>
  <path fill="var(--ci-primary-color, currentColor)" d="M281.189,172.892,263.656,246.88a1.274,1.274,0,0,0-.02.306c0,.032.01.062.015.094a1.343,1.343,0,0,0,.036.193c.011.036.028.069.042.1a1.091,1.091,0,0,0,.072.155c.02.035.043.066.066.1a1.385,1.385,0,0,0,.1.128,1.128,1.128,0,0,0,.087.083,1.223,1.223,0,0,0,.127.1c.033.023.068.044.1.064a1.32,1.32,0,0,0,.148.068c.038.015.076.029.116.041a1.33,1.33,0,0,0,.167.032c.041.005.08.012.122.013.015,0,.028,0,.043,0a1.242,1.242,0,0,0,.24-.023L323.9,234.416l15.212-3.6h0L467.714,102.205a40.768,40.768,0,0,0,11.6-23.314A40.948,40.948,0,0,0,409.8,44.286L377.644,76.437Z" class="ci-primary"/>
</svg>
