<svg xmlns="http://www.w3.org/2000/svg" viewBox="0 0 512 512">
  <path fill="var(--ci-primary-color, currentColor)" d="M310.663,427.038a36.97,36.97,0,0,0-20.647-23.907q-1.367-.6-2.787-1.1a36.614,36.614,0,0,0-5.883-1.511,37.148,37.148,0,0,0-6.219-.522,36.688,36.688,0,0,0-20.288,6.088q-1.062.7-2.071,1.472a36.936,36.936,0,0,0-3.714,3.24q-.626.625-1.221,1.28a36.922,36.922,0,0,0-9.52,22.733q-.058,1.023-.059,2.06h0a37.072,37.072,0,0,0,.66,6.98,36.74,36.74,0,0,0,6.666,15.081,36.638,36.638,0,0,0,7.188,7.252q1.248.954,2.581,1.8a36.482,36.482,0,0,0,3.793,2.124c.825.4,1.672.756,2.531,1.093.817.321,1.644.623,2.49.886a36.963,36.963,0,0,0,32.129-5.017,37.118,37.118,0,0,0,10.019-10.512q.652-1.032,1.239-2.111a36.8,36.8,0,0,0,2.213-4.9q.62-1.695,1.076-3.463c.276-1.073.5-2.167.678-3.276a36.836,36.836,0,0,0-.854-15.774Z" class="ci-primary"/>
  <path fill="var(--ci-primary-color, currentColor)" d="M475.525,318.5H160v-32H472V243.777a47.736,47.736,0,0,0-26.534-42.932L424,190.111V96H336v88H258.6L229.536,96.821A47.938,47.938,0,0,0,184,64H16v82.832l40,16v50.334l-40,16V432H86.446a68.826,68.826,0,0,1,125.145-34.5q1.9,2.715,3.536,5.614,1.69-2.994,3.665-5.794a68.908,68.908,0,0,1,116.335,5.794A68.881,68.881,0,0,1,462.775,424H496V373.1Z" class="ci-primary"/>
  <path fill="var(--ci-primary-color, currentColor)" d="M429.2,422.757c-.237-.571-.493-1.132-.757-1.689a36.851,36.851,0,0,0-2.029-3.7q-.483-.772-1-1.52a36.856,36.856,0,0,0-50.57-9.756q-1.062.7-2.071,1.472a36.936,36.936,0,0,0-3.714,3.24q-.625.625-1.221,1.28a36.767,36.767,0,0,0-9.579,24.793h0a37.072,37.072,0,0,0,.66,6.98,36.74,36.74,0,0,0,6.666,15.081,36.638,36.638,0,0,0,7.188,7.252q1.248.954,2.581,1.8a36.482,36.482,0,0,0,3.793,2.124c.825.4,1.672.756,2.531,1.093.817.321,1.644.623,2.49.886a36.963,36.963,0,0,0,32.129-5.017,37.118,37.118,0,0,0,10.019-10.512q.652-1.032,1.239-2.111a36.8,36.8,0,0,0,2.213-4.9q.62-1.695,1.076-3.463c.276-1.073.5-2.167.678-3.276a36.909,36.909,0,0,0-1.807-18.75Q429.467,423.4,429.2,422.757Z" class="ci-primary"/>
  <path fill="var(--ci-primary-color, currentColor)" d="M189.055,422.436q-.513-1.2-1.108-2.363-.372-.726-.775-1.432a36.919,36.919,0,0,0-40.372-17.7q-1.338.309-2.638.714-1.731.538-3.387,1.24t-3.223,1.552q-.785.426-1.545.888a36.9,36.9,0,0,0,1.545,63.957,36.923,36.923,0,0,0,30.665,2.051,36.964,36.964,0,0,0,3.948-1.775q.721-.378,1.426-.786a36.761,36.761,0,0,0,11.084-9.851q1.06-1.419,1.987-2.941t1.7-3.134a36.944,36.944,0,0,0,.691-30.423Z" class="ci-primary"/>
</svg>
