<svg xmlns="http://www.w3.org/2000/svg" viewBox="0 0 512 512">
  <path fill="var(--ci-primary-color, currentColor)" d="M412.167,206.657,442.9,181.546a64.7,64.7,0,0,0,14.749-17.229c14.133-24.484,10.6-55.538-10.6-76.738S394.8,62.845,370.31,76.979a64.73,64.73,0,0,0-17.228,14.748L327.97,122.46,266.029,53.638a8,8,0,0,0-11.313,0l-65.605,65.6,33.172,27.105a64.714,64.714,0,0,1,14.748,17.228c14.134,24.485,10.6,55.539-10.6,76.739s-52.254,24.733-76.738,10.6a64.684,64.684,0,0,1-17.228-14.749L105.36,202.993,34.1,274.255a8,8,0,0,0,0,11.314L209.461,460.931a64,64,0,0,0,90.51,0L480.99,279.912a8,8,0,0,0,0-11.314Z" class="ci-primary"/>
</svg>
