<svg xmlns="http://www.w3.org/2000/svg" viewBox="0 0 512 512">
  <path fill="var(--ci-primary-color, currentColor)" d="M136,448H382.76A109.747,109.747,0,0,0,463.9,412.546c20.656-22.207,32.031-51.657,32.031-82.927,0-58.437-40.284-104.227-96-112.166V216c0-79.4-64.6-144-144-144s-144,64.6-144,144v2.492A122.266,122.266,0,0,0,49.136,251.2a109.4,109.4,0,0,0-33.206,78.42c0,31.119,12.788,60.762,36.009,83.469C74.629,435.275,105.268,448,136,448Zm30.653-183.042,50.739,49.426,95.646-97.119,29.924,29.47L218.005,373.616l-80.658-78.574Z" class="ci-primary"/>
</svg>
