<svg xmlns="http://www.w3.org/2000/svg" viewBox="0 0 512 512">
  <path fill="var(--ci-primary-color, currentColor)" d="M189.206,219.794A626.829,626.829,0,0,0,38.838,461.66h0A9,9,0,0,0,41,470.916l.087.087a9,9,0,0,0,9.255,2.159h0A626.829,626.829,0,0,0,292.206,322.794l52.928-52.928-103-103Z" class="ci-primary"/>
  <path fill="var(--ci-primary-color, currentColor)" d="M458.668,53.332a72.831,72.831,0,0,0-103,0l-5.962,5.962L325.564,35.153a55.464,55.464,0,0,0-78.345,0L113.15,169.223l29.7,29.7L276.917,64.853a13.411,13.411,0,0,1,18.948,0l24.141,24.141-52.417,52.417,103,103,88.079-88.079A72.831,72.831,0,0,0,458.668,53.332Z" class="ci-primary"/>
</svg>
