<svg xmlns="http://www.w3.org/2000/svg" viewBox="0 0 512 512">
  <path fill="var(--ci-primary-color, currentColor)" d="M32,264V399.455a32.036,32.036,0,0,0,32,32V478a18.021,18.021,0,0,0,18,18h68a18.021,18.021,0,0,0,18-18V431.455H344V478a18.021,18.021,0,0,0,18,18h68a18.021,18.021,0,0,0,18-18V431.455a32.036,32.036,0,0,0,32-32V264Zm328,39.455a32,32,0,1,1-32,32A32,32,0,0,1,360,303.455Zm-216,0a32,32,0,1,1-32,32A32,32,0,0,1,144,303.455Z" class="ci-primary"/>
  <path fill="var(--ci-primary-color, currentColor)" d="M406.7,119.6A48.148,48.148,0,0,0,361.586,88H150.414A48.148,48.148,0,0,0,105.3,119.6L64.429,232H447.571Z" class="ci-primary"/>
</svg>
