<svg xmlns="http://www.w3.org/2000/svg" viewBox="0 0 512 512">
  <path fill="var(--ci-primary-color, currentColor)" d="M490.141,275.681c-35.387-20.486-56.683-19.64-68.037-13.7-18.226,9.531-34.168,31.984-51.047,55.755-17.719,24.955-36.041,50.759-61.264,68.7-20.428,14.533-42.372,21.755-66.4,21.756a142.628,142.628,0,0,1-38.038-5.5c-32.994-9.119-58.856-34.706-59.941-35.791s-26.673-26.949-35.793-59.942c-10.872-39.335-5.545-73.871,16.281-105.581,17.928-26.046,43.838-45.655,68.894-64.618C250.5,94.6,276.444,71.252,242.115,16l-.517.014C115.882,23.723,16.308,128.123,16.308,255.779,16.308,388.449,123.859,496,256.53,496c125.076,0,227.809-95.6,239.162-217.706C495.692,278.294,491.469,276.449,490.141,275.681Z" class="ci-primary"/>
  <path fill="var(--ci-primary-color, currentColor)" d="M150.139,295.757c6.1,22.068,24.81,41.227,25,41.415.148.146,19.29,18.883,41.415,25,26.94,7.445,48.827,4.273,68.871-9.988,19.431-13.823,35.661-36.68,51.357-58.786,19.01-26.773,38.668-54.459,65.842-68.669,27.843-14.561,58.325-12.886,92.738,5.2-11.691-109.24-96.6-196.571-204.689-211.952l-.276-.03c12.538,29.826,12.227,57.055-.84,82.585-14.393,28.123-42.352,49.284-69.392,69.748C166.285,211.054,134.687,239.847,150.139,295.757Z" class="ci-primary"/>
  <path fill="var(--ci-primary-color, currentColor)" d="M494.614,230.174l0,0,.024.212C494.626,230.314,494.621,230.244,494.614,230.174Z" class="ci-primary"/>
</svg>
