<svg xmlns="http://www.w3.org/2000/svg" viewBox="0 0 512 512">
  <path fill="var(--ci-primary-color, currentColor)" d="M218.532,356.62l21.788-46.3c-8.581-9-17.3-18.726-25.988-29.2q14.016-19.326,26.305-39.533A551.931,551.931,0,0,0,298.225,112H344V64H208V16H160V64H16v48H69.763a551.729,551.729,0,0,0,63.146,138.624c10.015-12.715,20.283-26.893,30.354-42.494A502.886,502.886,0,0,1,120.043,112H247.931c-29.823,90.561-81.262,157.549-121.1,199.188-41.177,43.038-78.047,67.882-88.268,74.417-1.763,1.127-2.739,1.714-2.8,1.75L48,408l12.21,20.662c1.911-1.13,47.421-28.293,100.084-83.021q12.251-12.732,23.68-26.076C195.626,333.14,207.26,345.487,218.532,356.62Z" class="ci-primary"/>
  <path fill="var(--ci-primary-color, currentColor)" d="M375.417,192H328.583L204.24,464l-3.657,8H253.36l3.657-8,29.257-64H417.726l32.914,72h52.777ZM352,352H308.217L352,256.226,395.783,352Z" class="ci-primary"/>
</svg>
