<svg xmlns="http://www.w3.org/2000/svg" viewBox="0 0 512 512">
  <path fill="var(--ci-primary-color, currentColor)" d="M277.206,412h0a118.263,118.263,0,0,1,24.373-72.084l-47.252-29.859,38.417-60.368A72.006,72.006,0,0,0,304,211.034V120A104,104,0,0,0,200,16h0A104,104,0,0,0,96,120v91.034a72.006,72.006,0,0,0,11.256,38.655l38.417,60.368-99.862,63.1A64,64,0,0,0,16,427.265v69.306l296.114-.459A118.423,118.423,0,0,1,277.206,412Z" class="ci-primary"/>
  <polygon fill="var(--ci-primary-color, currentColor)" points="434.891 343.41 396 382.301 357.109 343.41 327.411 373.109 366.301 412 327.411 450.891 357.109 480.59 396 441.699 434.891 480.59 464.589 450.891 425.699 412 464.589 373.109 434.891 343.41" class="ci-primary"/>
</svg>
