<svg xmlns="http://www.w3.org/2000/svg" viewBox="0 0 512 512">
  <path fill="var(--ci-primary-color, currentColor)" d="M108,248a84.1,84.1,0,0,0,84-84V110.851H166.5V82.379a60.25,60.25,0,0,0-120.5,0v28.472H24V164A84.1,84.1,0,0,0,108,248ZM82,82.379a24.25,24.25,0,1,1,48.5,0v26.472H82Z" class="ci-primary"/>
  <path fill="var(--ci-primary-color, currentColor)" d="M299.4,184.4l39.15,52.2h0A104.4,104.4,0,0,1,234.153,341h0l-52.2-39.15-104.4,78.3,36.439,73.962a9.227,9.227,0,0,0,7.825,4.337h22.344C316.386,458.445,456,318.831,456,146.609V124.264a9.227,9.227,0,0,0-4.337-7.825L377.7,80Z" class="ci-primary"/>
</svg>
