<svg xmlns="http://www.w3.org/2000/svg" viewBox="0 0 512 512">
  <path fill="var(--ci-primary-color, currentColor)" d="M248,96a32,32,0,0,0-32-32H48A32,32,0,0,0,16,96v82.038H248Z" class="ci-primary"/>
  <path fill="var(--ci-primary-color, currentColor)" d="M440.806,85.123,425.926,16H382.963l16.784,77.961c.385,1.792.755,3.586,1.121,5.382A69.015,69.015,0,1,0,411,213.9V428a23,23,0,0,1-46,0V332a65.074,65.074,0,0,0-65-65H248V214.038H16V496H248V309h52a23.026,23.026,0,0,1,23,23v96a65,65,0,0,0,130,0V199.706A545.459,545.459,0,0,0,440.806,85.123ZM368,187a27,27,0,1,1,27-27A27.03,27.03,0,0,1,368,187Z" class="ci-primary"/>
</svg>
