<svg xmlns="http://www.w3.org/2000/svg" viewBox="0 0 512 512">
  <path fill="var(--ci-primary-color, currentColor)" d="M438.3,281.293c-23.8-10.2-46.367-43.735-63.541-94.427h0a54.1,54.1,0,0,0-51.305-36.706L280,150.625V21.552l-18.263,2.609c-40.711,5.816-72.6,26.217-94.79,60.638-15.363,23.835-23.093,50.2-26.98,70.748-26.331,11.325-48.705,32.77-66.585,63.849-14.744,25.626-26.52,57.97-35,96.133A638.394,638.394,0,0,0,24,440v56H272V428.468a265.353,265.353,0,0,1,67.52-7.03,94.97,94.97,0,0,0,94.418-70.61l17.088-64.081Z" class="ci-primary"/>
</svg>
