<svg xmlns="http://www.w3.org/2000/svg" viewBox="0 0 512 512">
  <path fill="var(--ci-primary-color, currentColor)" d="M48,392H16v64a24.028,24.028,0,0,0,24,24H472a24.028,24.028,0,0,0,24-24V392H48Z" class="ci-primary"/>
  <path fill="var(--ci-primary-color, currentColor)" d="M472,137.548H381.237A79.945,79.945,0,0,0,256,40.489a79.943,79.943,0,0,0-125.237,97.059H40a24.028,24.028,0,0,0-24,24V328H496V161.548A24.028,24.028,0,0,0,472,137.548Zm-272-72a32.036,32.036,0,0,1,32,32v32H200a32,32,0,0,1,0-64ZM224.746,227.5H171.67l23.643-50.1c1.552.09,53.005.148,53.005.148Zm62.3,0-23.572-49.952s51.524-.05,53.012-.133L340.126,227.5ZM312,129.548H280v-32a32,32,0,1,1,32,32Z" class="ci-primary"/>
</svg>
