<svg xmlns="http://www.w3.org/2000/svg" viewBox="0 0 512 512">
  <path fill="var(--ci-primary-color, currentColor)" d="M471.861,354.251C462.074,349.685,449.893,344,427.425,344s-34.649,5.685-44.437,10.251C375.57,357.713,370.669,360,358.849,360s-16.719-2.287-24.137-5.748C324.925,349.685,312.745,344,290.277,344s-34.647,5.685-44.434,10.252c-7.418,3.461-12.318,5.748-24.136,5.748s-16.717-2.287-24.134-5.748C187.786,349.685,175.606,344,153.14,344s-34.647,5.685-44.434,10.252C101.288,357.713,96.388,360,84.57,360s-16.718-2.287-24.135-5.748C50.647,349.685,38.467,344,16,344v48c11.818,0,16.718,2.287,24.136,5.748C49.923,402.315,62.1,408,84.57,408s34.647-5.685,44.434-10.252c7.418-3.461,12.318-5.748,24.136-5.748s16.717,2.287,24.133,5.748C187.061,402.315,199.24,408,221.707,408s34.647-5.685,44.435-10.252c7.417-3.461,12.317-5.748,24.135-5.748s16.719,2.287,24.137,5.748C324.2,402.315,336.382,408,358.849,408s34.65-5.685,44.437-10.251c7.419-3.462,12.319-5.749,24.139-5.749s16.721,2.287,24.138,5.749C461.351,402.315,473.532,408,496,408V360C484.18,360,479.279,357.713,471.861,354.251Z" class="ci-primary"/>
  <path fill="var(--ci-primary-color, currentColor)" d="M427.425,432c-22.468,0-34.649,5.685-44.437,10.251C375.57,445.713,370.669,448,358.849,448s-16.719-2.287-24.137-5.748C324.925,437.685,312.745,432,290.277,432s-34.647,5.685-44.434,10.252c-7.418,3.461-12.318,5.748-24.136,5.748s-16.717-2.287-24.134-5.748C187.786,437.685,175.606,432,153.14,432s-34.647,5.685-44.434,10.252C101.288,445.713,96.388,448,84.57,448s-16.718-2.287-24.135-5.748C50.647,437.685,38.467,432,16,432v48c11.818,0,16.718,2.287,24.136,5.748C49.923,490.315,62.1,496,84.57,496s34.647-5.685,44.434-10.252c7.418-3.461,12.318-5.748,24.136-5.748s16.717,2.287,24.133,5.748C187.061,490.315,199.24,496,221.707,496s34.647-5.685,44.435-10.252c7.417-3.461,12.317-5.748,24.135-5.748s16.719,2.287,24.137,5.748C324.2,490.315,336.382,496,358.849,496s34.65-5.685,44.437-10.251c7.419-3.462,12.319-5.749,24.139-5.749s16.721,2.287,24.138,5.749C461.351,490.315,473.532,496,496,496V448c-11.82,0-16.721-2.287-24.139-5.749C462.074,437.685,449.893,432,427.425,432Z" class="ci-primary"/>
  <path fill="var(--ci-primary-color, currentColor)" d="M256,280H384v40h48V115.878a39.835,39.835,0,0,1,7.038-22.661L492.125,16h-58.25L399.484,66.024A87.63,87.63,0,0,0,384,115.878V136H256V115.878a39.835,39.835,0,0,1,7.038-22.661L316.125,16h-58.25L223.484,66.024A87.63,87.63,0,0,0,208,115.878V320h48Zm0-96H384v48H256Z" class="ci-primary"/>
</svg>
