<svg xmlns="http://www.w3.org/2000/svg" viewBox="0 0 512 512">
  <path fill="var(--ci-primary-color, currentColor)" d="M160,368H64V88H288V216h48V56a40.045,40.045,0,0,0-40-40H56A40.045,40.045,0,0,0,16,56V456a40.045,40.045,0,0,0,40,40H160Z" class="ci-primary"/>
  <path fill="var(--ci-primary-color, currentColor)" d="M357.135,410.545a23.976,23.976,0,0,1-26.393-.154L192,317.9V496H496V320.283Z" class="ci-primary"/>
  <polygon fill="var(--ci-primary-color, currentColor)" points="344.111 380.845 495.28 282.585 496 283.692 496 256 192 256 192 279.437 344.111 380.845" class="ci-primary"/>
</svg>
