<svg xmlns="http://www.w3.org/2000/svg" viewBox="0 0 512 512">
  <path fill="var(--ci-primary-color, currentColor)" d="M161.9,32H16V352H139.648A98.631,98.631,0,0,1,232,416V58.168A106.994,106.994,0,0,0,161.9,32ZM152,224H136l-32.255-32L72,224H56V72h96Z" class="ci-primary"/>
  <path fill="var(--ci-primary-color, currentColor)" d="M280,58.168V416c8-32,48-64,104-64H496V32H350.1A106.994,106.994,0,0,0,280,58.168Z" class="ci-primary"/>
  <path fill="var(--ci-primary-color, currentColor)" d="M305.416,448H206.584a116.246,116.246,0,0,0-99.51-56H16v48h91.074a68.317,68.317,0,0,1,62.866,41.454L176.174,496H335.826l6.234-14.546A68.317,68.317,0,0,1,404.926,440H496V392H404.926A116.246,116.246,0,0,0,305.416,448Z" class="ci-primary"/>
</svg>
