<svg xmlns="http://www.w3.org/2000/svg" viewBox="0 0 512 512">
  <path fill="var(--ci-primary-color, currentColor)" d="M418.857,333.143A162.926,162.926,0,0,0,263.194,448H248.806A162.926,162.926,0,0,0,93.143,333.143H16A162.858,162.858,0,0,0,178.857,496H333.143A162.858,162.858,0,0,0,496,333.143H418.857Z" class="ci-primary"/>
  <path fill="var(--ci-primary-color, currentColor)" d="M169.227,262.773a87.36,87.36,0,0,0,24.547,47.453l4.687,4.686h6.627A87.354,87.354,0,0,0,256,298.716a87.356,87.356,0,0,0,50.912,16.2h6.627l4.687-4.686a87.36,87.36,0,0,0,24.547-47.453,87.36,87.36,0,0,0,47.453-24.547l4.686-4.687v-6.627A87.354,87.354,0,0,0,378.716,176a87.356,87.356,0,0,0,16.2-50.912v-6.627l-4.686-4.687a87.36,87.36,0,0,0-47.453-24.547,87.36,87.36,0,0,0-24.547-47.453l-4.687-4.686h-6.627A87.356,87.356,0,0,0,256,53.284a87.354,87.354,0,0,0-50.912-16.2h-6.627l-4.687,4.686a87.36,87.36,0,0,0-24.547,47.453,87.36,87.36,0,0,0-47.453,24.547l-4.686,4.687v6.627A87.356,87.356,0,0,0,133.284,176a87.354,87.354,0,0,0-16.2,50.912v6.627l4.686,4.687A87.36,87.36,0,0,0,169.227,262.773ZM256,128a48,48,0,1,1-48,48A48,48,0,0,1,256,128Z" class="ci-primary"/>
</svg>
