<svg xmlns="http://www.w3.org/2000/svg" viewBox="0 0 512 512">
  <path fill="var(--ci-primary-color, currentColor)" d="M372.372,33.957a21.964,21.964,0,0,0-26.4-15.1L213.9,51.873l-46-30.665a17.928,17.928,0,0,0-9.942-3.01h0a17.924,17.924,0,0,0-17.193,12.859L113.013,140.071H399.292Z" class="ci-primary"/>
  <polygon fill="var(--ci-primary-color, currentColor)" points="419.198 176.071 93.056 176.071 16 238.817 16 263.614 496.093 263.614 496.093 238.817 419.198 176.071" class="ci-primary"/>
  <path fill="var(--ci-primary-color, currentColor)" d="M370.864,305.667A84.928,84.928,0,0,0,306,335.694a90.975,90.975,0,0,0-102.761.267,82.543,82.543,0,1,0,19.108,38.287,48.824,48.824,0,0,1,65,.058,85.137,85.137,0,1,0,83.525-68.639Z" class="ci-primary"/>
</svg>
