<svg xmlns="http://www.w3.org/2000/svg" viewBox="0 0 512 512">
  <path fill="var(--ci-primary-color, currentColor)" d="M429.241,82.759A245,245,0,1,0,82.759,429.241,245,245,0,1,0,429.241,82.759ZM369.457,284.6a117.237,117.237,0,0,0,0-57.208l66.068-66.068a202.638,202.638,0,0,1,0,189.344ZM181,256a75,75,0,1,1,75,75A75.085,75.085,0,0,1,181,256ZM350.672,76.475,284.6,142.543a117.237,117.237,0,0,0-57.208,0L161.328,76.475a202.638,202.638,0,0,1,189.344,0Zm-274.2,84.853L142.543,227.4a117.237,117.237,0,0,0,0,57.208L76.475,350.672a202.638,202.638,0,0,1,0-189.344Zm84.853,274.2L227.4,369.457a117.237,117.237,0,0,0,57.208,0l66.068,66.068a202.638,202.638,0,0,1-189.344,0Z" class="ci-primary"/>
</svg>
