<svg xmlns="http://www.w3.org/2000/svg" viewBox="0 0 512 512">
  <path fill="var(--ci-primary-color, currentColor)" d="M368,112H288v64h80a80,80,0,0,1,0,160H288v64h80c79.4,0,144-64.6,144-144S447.4,112,368,112Z" class="ci-primary"/>
  <path fill="var(--ci-primary-color, currentColor)" d="M64,256a80.091,80.091,0,0,1,80-80h80V112H144C64.6,112,0,176.6,0,256S64.6,400,144,400h80V336H144A80.091,80.091,0,0,1,64,256Z" class="ci-primary"/>
  <polygon fill="var(--ci-primary-color, currentColor)" points="372 280.652 372 232.652 288 232.652 224 232.652 140 232.652 140 280.652 224 280.652 288 280.652 372 280.652" class="ci-primary"/>
</svg>
