<svg xmlns="http://www.w3.org/2000/svg" viewBox="0 0 512 512">
  <path fill="var(--ci-primary-color, currentColor)" d="M26.09,248.4,279.153,486.126a23.813,23.813,0,0,0,16.409,6.509q.448,0,.9-.017a23.821,23.821,0,0,0,16.786-7.734L486.58,296.479a23.942,23.942,0,0,0-.692-33.218L248,25.373A31.791,31.791,0,0,0,225.373,16H64A48.055,48.055,0,0,0,16,64V225.078A32.118,32.118,0,0,0,26.09,248.4ZM280.5,253.133l9.728,9.728,9.226-9.226a44.838,44.838,0,0,1,63.411,63.411L290.23,389.683l-73.139-73.139A44.838,44.838,0,0,1,280.5,253.133ZM136,100a36,36,0,1,1-36,36A36,36,0,0,1,136,100Z" class="ci-primary"/>
</svg>
