<svg xmlns="http://www.w3.org/2000/svg" viewBox="0 0 512 512">
  <path fill="var(--ci-primary-color, currentColor)" d="M96,472.205A23.715,23.715,0,0,0,119.579,496H392.421A23.715,23.715,0,0,0,416,472.205V168H96Zm83.272-195.477,25.456-25.456L256,302.545l51.272-51.273,25.456,25.456L281.455,328l51.273,51.272-25.456,25.456L256,353.455l-51.272,51.273-25.456-25.456L230.545,328Z" class="ci-primary"/>
  <path fill="var(--ci-primary-color, currentColor)" d="M333,91V48c0-16.262-11.684-29-26.6-29H205.6C190.684,19,179,31.738,179,48V91H64v42H448V91ZM221,61h70V91H221Z" class="ci-primary"/>
</svg>
