<svg xmlns="http://www.w3.org/2000/svg" viewBox="0 0 512 512">
  <path fill="var(--ci-primary-color, currentColor)" d="M425.706,86.294A240,240,0,0,0,86.294,425.706,240,240,0,0,0,425.706,86.294ZM422.226,352H336l-31.711,89.847a192.565,192.565,0,0,1-87.857,2.044L184,352H89.774a190.7,190.7,0,0,1-25.623-88.732L136,208l-22.886-80.1a192.723,192.723,0,0,1,74.4-51.263L256,128l68.485-51.364a192.723,192.723,0,0,1,74.4,51.263L376,208l71.849,55.268A190.7,190.7,0,0,1,422.226,352Z" class="ci-primary"/>
  <polygon fill="var(--ci-primary-color, currentColor)" points="169.854 230.589 202.759 331.86 309.241 331.86 342.146 230.589 256 168 169.854 230.589" class="ci-primary"/>
</svg>
