<svg xmlns="http://www.w3.org/2000/svg" viewBox="0 0 512 512">
  <path fill="var(--ci-primary-color, currentColor)" d="M337.987,76.8h0c-41.987,0-66.9,64-66.9,64H240.917s-24.917-64-66.9-64h0c-18.893,0-38.013,8-62.013,40C89.679,146.558,16,232,16,232L72.321,354.269q.619,1.3,1.263,2.585C96.857,403.24,144.878,432,196.775,432h118.45c51.9,0,99.918-28.76,123.191-75.146q.644-1.284,1.263-2.585L496,224s-73.679-77.442-96-107.2C376,84.8,356.88,76.8,337.987,76.8ZM368,324.8h0a791.944,791.944,0,0,0-224,0h0L99.938,232.268,176,192h0s32,36.2,80,36.2S336,192,336,192h0l75.665,33.825Z" class="ci-primary"/>
</svg>
