<svg xmlns="http://www.w3.org/2000/svg" viewBox="0 0 512 512">
  <polygon fill="var(--ci-primary-color, currentColor)" points="369.941 416 368.971 415.029 368 416 369.941 416" class="ci-primary"/>
  <path fill="var(--ci-primary-color, currentColor)" d="M488,30.667H200a8,8,0,0,0-8,8v432a8,8,0,0,0,8,8H488a8,8,0,0,0,8-8v-432A8,8,0,0,0,488,30.667ZM432,368H258V332.129a33.143,33.143,0,0,1,15.08-27.788l38.34-24.921-16.134-43.992V185.714a49.714,49.714,0,1,1,99.428,0v49.714l-17.658,43,39.864,25.912A33.143,33.143,0,0,1,432,332.129Z" class="ci-primary"/>
  <path fill="var(--ci-primary-color, currentColor)" d="M104,80V432a8,8,0,0,0,8,8h48V72H112A8,8,0,0,0,104,80Z" class="ci-primary"/>
  <path fill="var(--ci-primary-color, currentColor)" d="M16,128V384a16,16,0,0,0,16,16H72V112H32A16,16,0,0,0,16,128Z" class="ci-primary"/>
</svg>
