<svg xmlns="http://www.w3.org/2000/svg" viewBox="0 0 512 512">
  <path fill="var(--ci-primary-color, currentColor)" d="M380.634,120V58.768A42.816,42.816,0,0,0,337.867,16H167.4a42.817,42.817,0,0,0-42.768,42.768V120Z" class="ci-primary"/>
  <path fill="var(--ci-primary-color, currentColor)" d="M455.336,454l-22.909-36H464V382H409.518l-22.91-36H416V310H363.7l-24.182-38h41.117V152h-256V272h47.849L148.3,310H96v36h29.392l-22.91,36H48v36H79.573L56.664,454H16v36H496V454ZM294,190h42v42H294Zm-126,0h42v42H168Zm128.846,82,24.182,38H190.972l24.182-38ZM168.063,346H343.937l22.909,36H145.154ZM99.336,454l22.909-36h267.51l22.909,36Z" class="ci-primary"/>
</svg>
