<svg xmlns="http://www.w3.org/2000/svg" viewBox="0 0 512 512">
  <path fill="var(--ci-primary-color, currentColor)" d="M400.186,370.176l-45.709-45.687,0,.007-25.321-25.321L187.464,157.555l-45.708-45.686L45.841,16H16V45.422L112.077,141.5A183.169,183.169,0,0,0,73.565,232H16v64H76.392A184.529,184.529,0,0,0,224,437.209V496h64V437.209a183.28,183.28,0,0,0,82.5-37.286L466.577,496H496V466.024l-95.83-95.83ZM256,376a119.938,119.938,0,0,1-98.245-188.823L324.823,354.245A119.326,119.326,0,0,1,256,376Z" class="ci-primary"/>
  <path fill="var(--ci-primary-color, currentColor)" d="M438.435,232C428.018,152.383,366.509,88.616,288,74.791V16H224V74.791a182.571,182.571,0,0,0-51.226,17.135l49.074,49.033A120.011,120.011,0,0,1,371.06,290.089l49.055,49.055A182.615,182.615,0,0,0,435.608,296H496V232Z" class="ci-primary"/>
</svg>
