<svg xmlns="http://www.w3.org/2000/svg" viewBox="0 0 512 512">
  <path fill="var(--ci-primary-color, currentColor)" d="M435,16H77A61,61,0,0,0,16,77V435a61,61,0,0,0,61,61H435a61,61,0,0,0,61-61V77A61,61,0,0,0,435,16ZM352,72h32v32H352Zm-56,0h32v32H296ZM184,72h32v32H184Zm-56,0h32v32H128ZM72,72h32v32H72Zm0,56h32v32H72Zm0,56h32v32H72Zm32,256H72V408h32Zm0-56H72V352h32Zm0-56H72V296h32Zm56,112H128V408h32Zm56,0H184V408h32Zm112,0H296V408h32Zm56,0H352V408h32Zm56,0H408V408h32Zm0-56H408V352h32Zm0-56H408V296h32Zm0-56H272V440H240V272H72V240H240V72h32V240H440Zm0-56H408V184h32Zm0-56H408V128h32Zm0-56H408V72h32Z" class="ci-primary"/>
</svg>
