<svg xmlns="http://www.w3.org/2000/svg" viewBox="0 0 512 512">
  <circle cx="256" cy="256" r="64" fill="var(--ci-primary-color, currentColor)" class="ci-primary"/>
  <path fill="var(--ci-primary-color, currentColor)" d="M431.363,80.637A248,248,0,0,0,80.637,431.362h0l34.008-34.008A199.378,199.378,0,0,1,56,256C56,145.72,145.72,56,256,56s200,89.72,200,200a199.378,199.378,0,0,1-58.645,141.355l34.008,34.008h0a248,248,0,0,0,0-350.725Z" class="ci-primary"/>
  <path fill="var(--ci-primary-color, currentColor)" d="M256,96C167.776,96,96,167.776,96,256a159.5,159.5,0,0,0,46.916,113.084L176,336h1.7A112,112,0,1,1,334.3,336H336l33.084,33.084A159.5,159.5,0,0,0,416,256C416,167.776,344.224,96,256,96Z" class="ci-primary"/>
</svg>
