<svg xmlns="http://www.w3.org/2000/svg" viewBox="0 0 512 512">
  <polygon fill="var(--ci-primary-color, currentColor)" points="413.143 16 396.536 109 469.658 109 483.292 16 413.143 16" class="ci-primary"/>
  <path fill="var(--ci-primary-color, currentColor)" d="M376,224h-220.7a32,32,0,0,0-31.6,26.954l-7.934,49.683A108.011,108.011,0,0,1,212,408q0,4.024-.291,8H314.05A128,128,0,0,0,440.807,305.791L464.38,145H390.107Z" class="ci-primary"/>
  <path fill="var(--ci-primary-color, currentColor)" d="M104,336a71.782,71.782,0,0,0-25.681,4.734q-2.31.882-4.541,1.917c-1.387.643-2.76,1.312-4.1,2.039-1.387.753-2.735,1.566-4.064,2.406a72.33,72.33,0,0,0-12.412,9.881c-.038.038-.079.073-.117.111a72.033,72.033,0,0,0-16.719,26.156c-.493,1.347-.933,2.718-1.347,4.1q-.809,2.7-1.408,5.491c-.3,1.387-.568,2.784-.784,4.2a72.754,72.754,0,0,0,.633,25.475q.718,3.516,1.774,6.9a72.031,72.031,0,0,0,137.526,0q1.052-3.382,1.774-6.9A72.012,72.012,0,0,0,104,336Z" class="ci-primary"/>
</svg>
