<svg xmlns="http://www.w3.org/2000/svg" viewBox="0 0 512 512">
  <path fill="var(--ci-primary-color, currentColor)" d="M393.429,56a38.043,38.043,0,0,0-38-38H124.791a76.939,76.939,0,0,1,12.066,41.429v395.5a39.114,39.114,0,0,0,37.393,39.028A38.042,38.042,0,0,0,210.571,456V393.429H393.429Z" class="ci-primary"/>
  <path fill="var(--ci-primary-color, currentColor)" d="M429.429,429.429H246.571V456a73.546,73.546,0,0,1-10.521,38H456a38.043,38.043,0,0,0,38-38V429.429Z" class="ci-primary"/>
  <path fill="var(--ci-primary-color, currentColor)" d="M75.616,21.3A41.423,41.423,0,0,0,18,59.429V110h82.857V59.429A41.49,41.49,0,0,0,75.616,21.3Z" class="ci-primary"/>
</svg>
