<svg xmlns="http://www.w3.org/2000/svg" viewBox="0 0 512 512">
  <path fill="var(--ci-primary-color, currentColor)" d="M368,88V287.029l48,48V56a40.045,40.045,0,0,0-40-40H96.971l72,72Z" class="ci-primary"/>
  <path fill="var(--ci-primary-color, currentColor)" d="M416,386.025v-.084l-48-48v.084l-224-224v-.085l-48-48v.085L45.975,16H16V45.422l80,80V456a40.045,40.045,0,0,0,40,40H376a40.045,40.045,0,0,0,40-40V445.421L466.579,496H496V466.025ZM274,450H238V414h36ZM144,368V173.422L338.578,368Z" class="ci-primary"/>
</svg>
