<svg xmlns="http://www.w3.org/2000/svg" viewBox="0 0 512 512">
  <path fill="var(--ci-primary-color, currentColor)" d="M435,16H77A61,61,0,0,0,16,77V435a61,61,0,0,0,61,61H435a61,61,0,0,0,61-61V77A61,61,0,0,0,435,16ZM352,72h32v32H352Zm0,168h32v32H352ZM296,72h32v32H296Zm0,168h32v32H296ZM240,88V72h32v32H240Zm0,40h32v32H240Zm0,56h32v32H240Zm0,56h32v32H240Zm0,56h32v32H240Zm0,56h32v32H240ZM184,72h32v32H184Zm0,168h32v32H184ZM128,72h32v32H128Zm0,168h32v32H128ZM72,72h32v32H72Zm0,56h32v32H72Zm0,56h32v32H72Zm0,56h32v32H72Zm0,56h32v32H72Zm0,56h32v32H72Zm368,88H72V408H440Zm0-56H408V352h32Zm0-56H408V296h32Zm0-56H408V240h32Zm0-56H408V184h32Zm0-56H408V128h32Zm0-56H408V72h32Z" class="ci-primary"/>
</svg>
