<svg xmlns="http://www.w3.org/2000/svg" viewBox="0 0 512 512">
  <polygon fill="var(--ci-primary-color, currentColor)" points="32 117 32 299 153.333 208 32 117" class="ci-primary"/>
  <path fill="var(--ci-primary-color, currentColor)" d="M292,258a60,60,0,0,1-72,0l-36.667-27.5L32,344v40H252.232A140.008,140.008,0,0,1,480,283.1V117Z" class="ci-primary"/>
  <path fill="var(--ci-primary-color, currentColor)" d="M241.6,229.2a24,24,0,0,0,28.8,0L480,72V32H32V72Z" class="ci-primary"/>
  <path fill="var(--ci-primary-color, currentColor)" d="M493.337,368.513q-.581-2.515-1.282-4.984t-1.519-4.885q-.819-2.416-1.75-4.778a103.627,103.627,0,0,0-7.842-15.794q-2.607-4.288-5.605-8.3-.749-1-1.521-1.983a104.282,104.282,0,0,0-43.684-32.578q-1.181-.466-2.375-.9-2.389-.876-4.833-1.635t-4.935-1.4a103.918,103.918,0,0,0-20.639-3.139Q394.693,288,392,288t-5.352.135a103.918,103.918,0,0,0-20.639,3.139q-2.493.642-4.935,1.4t-4.833,1.635q-1.194.436-2.375.9a104.282,104.282,0,0,0-43.684,32.578q-.773.983-1.521,1.983-2.994,4-5.605,8.3a103.627,103.627,0,0,0-7.842,15.794q-.931,2.361-1.75,4.778t-1.519,4.885q-.7,2.467-1.282,4.984a104.906,104.906,0,0,0,0,46.974q.581,2.515,1.282,4.984t1.519,4.885q.819,2.416,1.75,4.778a103.627,103.627,0,0,0,7.842,15.794q2.607,4.288,5.605,8.3.749,1,1.521,1.983a104.282,104.282,0,0,0,43.684,32.578q1.181.466,2.375.9,2.389.876,4.833,1.635t4.935,1.4a103.918,103.918,0,0,0,20.639,3.139Q389.308,496,392,496t5.352-.135a103.918,103.918,0,0,0,20.639-3.139q2.493-.642,4.935-1.4t4.833-1.635q1.194-.436,2.375-.9a104.282,104.282,0,0,0,43.684-32.578q.773-.983,1.521-1.983,2.994-4,5.605-8.3a103.627,103.627,0,0,0,7.842-15.794q.931-2.361,1.75-4.778t1.519-4.885q.7-2.467,1.282-4.984a104.906,104.906,0,0,0,0-46.974ZM450.286,410H411.143v39.143h-36V410H336V374h39.143V334.857h36V374h39.143Z" class="ci-primary"/>
</svg>
