<svg xmlns="http://www.w3.org/2000/svg" viewBox="0 0 512 512">
  <path fill="var(--ci-primary-color, currentColor)" d="M168.191,461.018h-.071A152.264,152.264,0,0,1,59.708,416.026C.052,356.263.1,259.066,59.805,199.357l168.33-168.33,33.942,33.941L93.747,233.3a105.277,105.277,0,0,0,74.4,179.72h.048a104.581,104.581,0,0,0,74.442-30.835L437.41,187.4a63.469,63.469,0,0,0-89.759-89.759L155.9,289.393a21.767,21.767,0,0,0,30.783,30.782L351.82,155.043l33.941,33.941L220.628,354.117a69.767,69.767,0,0,1-98.665-98.665L313.71,63.7A111.469,111.469,0,0,1,471.352,221.345L276.573,416.125A152.277,152.277,0,0,1,168.191,461.018Z" class="ci-primary"/>
</svg>
