<svg xmlns="http://www.w3.org/2000/svg" viewBox="0 0 512 512">
  <path fill="var(--ci-primary-color, currentColor)" d="M389.053,126.3A302.909,302.909,0,0,0,280.012,18.15L272,13.516l-8.012,4.634A301.084,301.084,0,0,0,113.4,279.042c0,3.445.06,6.944.177,10.4,1.592,46.856,19.511,86.283,51.82,114.018,21.557,18.506,48.429,30.728,77.607,35.605V496h42V440.976c.333-.025.667-.048,1-.074V140.8h0a236.837,236.837,0,0,1,36,125.525V434.166a155.875,155.875,0,0,0,56.607-30.707c32.309-27.735,50.228-67.162,51.82-114.017.117-3.456.177-6.955.177-10.4A300.948,300.948,0,0,0,389.053,126.3Z" class="ci-primary"/>
</svg>
