<svg xmlns="http://www.w3.org/2000/svg" viewBox="0 0 512 512">
  <path fill="var(--ci-primary-color, currentColor)" d="M64,168H24V472a16,16,0,0,0,16,16H344V448H64Z" class="ci-primary"/>
  <path fill="var(--ci-primary-color, currentColor)" d="M136,96H96V400a16,16,0,0,0,16,16H416V376H136Z" class="ci-primary"/>
  <path fill="var(--ci-primary-color, currentColor)" d="M472,24H184a16.016,16.016,0,0,0-16,16V328a16,16,0,0,0,16,16H472a15.986,15.986,0,0,0,15.963-15.273c.011-.243.037-.482.037-.727V40A16,16,0,0,0,472,24Z" class="ci-primary"/>
</svg>
