<svg xmlns="http://www.w3.org/2000/svg" viewBox="0 0 512 512">
  <polygon fill="var(--ci-primary-color, currentColor)" points="183.196 16 135.196 16 135.196 384 56 384 56 391.529 135.196 470.725 135.196 472 136.471 472 160.471 496 265.911 390.56 265.911 384 183.196 384 183.196 16" class="ci-primary"/>
  <polygon fill="var(--ci-primary-color, currentColor)" points="424 195 389 195 389 48 347 48 347 72 312 72 312 112 347 112 347 195 312 195 312 237 424 237 424 195" class="ci-primary"/>
  <path fill="var(--ci-primary-color, currentColor)" d="M429,327.6A60.669,60.669,0,0,0,368.4,267H364a60.669,60.669,0,0,0-60.6,60.6V332A60.669,60.669,0,0,0,364,392.6h4.4a60.379,60.379,0,0,0,17.059-2.461A39.862,39.862,0,0,1,347.2,419H328v42h19.2A81.892,81.892,0,0,0,429,379.2V333.6h-.041c.014-.533.041-1.063.041-1.6Zm-60.6,23H364A18.621,18.621,0,0,1,345.4,332v-4.4A18.621,18.621,0,0,1,364,309h4.4A18.621,18.621,0,0,1,387,327.6V332A18.621,18.621,0,0,1,368.4,350.6Z" class="ci-primary"/>
</svg>
