<svg xmlns="http://www.w3.org/2000/svg" viewBox="0 0 512 512">
  <path fill="var(--ci-primary-color, currentColor)" d="M107.685,196h53.782A112.9,112.9,0,0,1,196,161.467V107.685A160.9,160.9,0,0,0,107.685,196Z" class="ci-primary"/>
  <path fill="var(--ci-primary-color, currentColor)" d="M316,350.533v53.782A160.9,160.9,0,0,0,404.315,316H350.533A112.9,112.9,0,0,1,316,350.533Z" class="ci-primary"/>
  <path fill="var(--ci-primary-color, currentColor)" d="M316,107.685v53.782A112.9,112.9,0,0,1,350.533,196h53.782A160.9,160.9,0,0,0,316,107.685Z" class="ci-primary"/>
  <path fill="var(--ci-primary-color, currentColor)" d="M161.467,316H107.685A160.9,160.9,0,0,0,196,404.315V350.533A112.9,112.9,0,0,1,161.467,316Z" class="ci-primary"/>
  <polygon fill="var(--ci-primary-color, currentColor)" points="232 97.8 232 146.597 232 192 280 192 280 146.597 280 97.8 280 16 232 16 232 97.8" class="ci-primary"/>
  <polygon fill="var(--ci-primary-color, currentColor)" points="232 365.403 232 414.2 232 496 280 496 280 414.2 280 365.403 280 320 232 320 232 365.403" class="ci-primary"/>
  <polygon fill="var(--ci-primary-color, currentColor)" points="365.403 232 320 232 320 280 365.403 280 414.2 280 496 280 496 232 414.2 232 365.403 232" class="ci-primary"/>
  <polygon fill="var(--ci-primary-color, currentColor)" points="192 280 192 232 146.597 232 97.8 232 16 232 16 280 97.8 280 146.597 280 192 280" class="ci-primary"/>
</svg>
