<svg xmlns="http://www.w3.org/2000/svg" viewBox="0 0 512 512">
  <path fill="var(--ci-primary-color, currentColor)" d="M200.006,302.226l5.994-6.6V268.362L133.355,115H92.346L19.7,268.362v28.431l5.558,6.031A118.723,118.723,0,0,0,112.362,341h.4A118.731,118.731,0,0,0,200.006,302.226ZM82.451,234l30.4-64.176L143.25,234Z" class="ci-primary"/>
  <path fill="var(--ci-primary-color, currentColor)" d="M420.355,225H379.346L306.7,378.362v28.431l5.558,6.031A118.723,118.723,0,0,0,399.362,451h.4a118.731,118.731,0,0,0,87.244-38.773l5.994-6.6V378.362Zm-50.9,119,30.4-64.176L430.25,344Z" class="ci-primary"/>
  <path fill="var(--ci-primary-color, currentColor)" d="M415.552,160.8,321.389,122.4c.1-1.457.163-2.922.163-4.4A65.958,65.958,0,0,0,206.071,74.393L95.89,26.727l-.338.782V72.342l94.2,40.753c-.119,1.622-.2,3.254-.2,4.905a66.1,66.1,0,0,0,45,62.555V433h-99v42h141V180.555a66.175,66.175,0,0,0,28.81-19.328l110.19,44.928Zm-160-18.8a24,24,0,1,1,24-24A24,24,0,0,1,255.552,142Z" class="ci-primary"/>
</svg>
