<svg xmlns="http://www.w3.org/2000/svg" viewBox="0 0 512 512">
  <path fill="var(--ci-primary-color, currentColor)" d="M71.326,166h81.348l9.708-76.854A50.782,50.782,0,0,0,112,32h0A50.782,50.782,0,0,0,61.618,89.146Z" class="ci-primary"/>
  <path fill="var(--ci-primary-color, currentColor)" d="M128,312a199.433,199.433,0,0,1,31.722-108.146c-.265-.62-.545-1.235-.814-1.854H65.092A307.081,307.081,0,0,0,53.625,416.192L73.6,480h76.8l15.787-50.431A199.292,199.292,0,0,1,128,312Z" class="ci-primary"/>
  <path fill="var(--ci-primary-color, currentColor)" d="M494.65,290.6q-.534-4.2-1.274-8.342-.369-2.069-.789-4.119-.84-4.1-1.876-8.128-.518-2.013-1.084-4.006-1.7-5.979-3.821-11.772-1.413-3.859-3.008-7.629a167.482,167.482,0,0,0-9.056-18.23q-2.024-3.517-4.209-6.927t-4.528-6.7q-3.513-4.941-7.368-9.611-2.568-3.111-5.28-6.095t-5.563-5.835q-2.85-2.85-5.835-5.563t-6.1-5.28q-4.668-3.852-9.611-7.368-3.294-2.341-6.7-4.528t-6.927-4.209a167.482,167.482,0,0,0-18.23-9.056q-3.768-1.593-7.629-3.008-5.79-2.119-11.772-3.821-1.993-.565-4.006-1.084-4.026-1.035-8.128-1.876-2.05-.42-4.119-.789-4.137-.739-8.342-1.274a170.242,170.242,0,0,0-42.794,0q-4.2.534-8.342,1.274-2.069.369-4.119.789-4.1.84-8.128,1.876-2.013.517-4.006,1.084-5.979,1.7-11.772,3.821-3.859,1.413-7.629,3.008a167.482,167.482,0,0,0-18.23,9.056q-3.517,2.023-6.927,4.209t-6.7,4.528q-4.941,3.513-9.611,7.368-3.111,2.568-6.095,5.28t-5.835,5.563q-2.85,2.85-5.563,5.835t-5.28,6.095q-3.852,4.668-7.368,9.611-2.341,3.294-4.528,6.7t-4.209,6.927a167.352,167.352,0,0,0-8.34,16.593c-.237.546-.483,1.088-.716,1.637q-1.593,3.768-3.008,7.629-2.119,5.79-3.821,11.772-.565,1.993-1.084,4.006-1.035,4.026-1.876,8.128-.42,2.05-.789,4.119-.739,4.137-1.274,8.342a170.242,170.242,0,0,0,0,42.794q.534,4.2,1.274,8.342.369,2.069.789,4.119.84,4.1,1.876,8.128.517,2.013,1.084,4.006,1.7,5.979,3.821,11.772,1.413,3.859,3.008,7.629,2.165,5.118,4.662,10.053h0q2.091,4.153,4.394,8.177,2.023,3.518,4.209,6.927t4.528,6.7q3.513,4.941,7.368,9.611,2.568,3.111,5.28,6.1t5.563,5.835q2.85,2.85,5.835,5.563t6.095,5.28q4.668,3.852,9.611,7.368,3.294,2.341,6.7,4.528t6.927,4.209a167.482,167.482,0,0,0,18.23,9.056q3.768,1.593,7.629,3.008,5.79,2.12,11.772,3.821,1.993.565,4.006,1.084,4.026,1.035,8.128,1.876,2.05.42,4.119.789,4.137.74,8.342,1.274a170.242,170.242,0,0,0,42.794,0q4.2-.534,8.342-1.274,2.069-.369,4.119-.789,4.1-.84,8.128-1.876,2.013-.518,4.006-1.084,5.979-1.7,11.772-3.821,3.859-1.413,7.629-3.008a167.482,167.482,0,0,0,18.23-9.056q3.518-2.024,6.927-4.209t6.7-4.528q4.941-3.513,9.611-7.368,3.111-2.568,6.1-5.28t5.835-5.563q2.85-2.85,5.563-5.835t5.28-6.1q3.852-4.668,7.368-9.611,2.341-3.294,4.528-6.7t4.209-6.927a167.482,167.482,0,0,0,9.056-18.23q1.593-3.768,3.008-7.629,2.12-5.79,3.821-11.772.565-1.993,1.084-4.006,1.035-4.026,1.876-8.128.42-2.05.789-4.119.74-4.137,1.274-8.342a170.242,170.242,0,0,0,0-42.794ZM328,320a24,24,0,1,1,24-24A24,24,0,0,1,328,320Zm8-80a24,24,0,1,1,24-24A24,24,0,0,1,336,240Zm72,48a24,24,0,1,1,24-24A24,24,0,0,1,408,288Z" class="ci-primary"/>
</svg>
