<svg xmlns="http://www.w3.org/2000/svg" viewBox="0 0 512 512">
  <path fill="var(--ci-primary-color, currentColor)" d="M225.942,37q-.538,1.472-.935,3.006a31.932,31.932,0,0,0-.965,6.35Q224,47.172,224,48V216H152L256,336,360,216H288V48q0-.828-.042-1.647a31.932,31.932,0,0,0-.965-6.35q-.4-1.535-.935-3.006a32.013,32.013,0,0,0-60.116,0Z" class="ci-primary"/>
  <path fill="var(--ci-primary-color, currentColor)" d="M320,48v96H447.373V312h-79.53l-51.765,72H186.667l-43.138-72H64V144H192V48a63.586,63.586,0,0,1,8.61-32H16V496H495.373V16H311.39A63.586,63.586,0,0,1,320,48Z" class="ci-primary"/>
</svg>
