<svg xmlns="http://www.w3.org/2000/svg" viewBox="0 0 512 512">
  <polygon fill="var(--ci-primary-color, currentColor)" points="480 166 480 160 352 32 346 32 346 166 480 166" class="ci-primary"/>
  <polygon fill="var(--ci-primary-color, currentColor)" points="480 202 310 202 310 32 88 32 88 252 480 252 480 202" class="ci-primary"/>
  <path fill="var(--ci-primary-color, currentColor)" d="M32,288V480H480V288ZM188,391.833A52.226,52.226,0,0,1,135.833,444H92V324h43.833A52.226,52.226,0,0,1,188,376.167ZM308,396a48,48,0,0,1-96,0V372a48,48,0,0,1,96,0Zm72,48a48.054,48.054,0,0,1-48-48V372a48.008,48.008,0,0,1,92.849-17.14l-22.308,8.924A23.995,23.995,0,0,0,356,372v24a23.995,23.995,0,0,0,46.541,8.216l22.308,8.924A47.935,47.935,0,0,1,380,444Z" class="ci-primary"/>
  <path fill="var(--ci-primary-color, currentColor)" d="M260,348a24.028,24.028,0,0,0-24,24v24a24,24,0,0,0,48,0V372A24.028,24.028,0,0,0,260,348Z" class="ci-primary"/>
  <path fill="var(--ci-primary-color, currentColor)" d="M135.833,348H116v72h19.833A28.2,28.2,0,0,0,164,391.833V376.167A28.2,28.2,0,0,0,135.833,348Z" class="ci-primary"/>
</svg>
