<svg xmlns="http://www.w3.org/2000/svg" viewBox="0 0 512 512">
  <path fill="var(--ci-primary-color, currentColor)" d="M200,390v36H112v38a16,16,0,0,0,16,16H384a16,16,0,0,0,16-16V426H312V390h88V122H112V390Zm74,36H238V390h36ZM259.149,158.06A81.309,81.309,0,0,1,274,318.594V360H238V311.263a27.322,27.322,0,0,1,23.821-27.035A45.3,45.3,0,1,0,210.7,239.3h-36a81.3,81.3,0,0,1,84.447-81.238Z" class="ci-primary"/>
  <path fill="var(--ci-primary-color, currentColor)" d="M400,48a16,16,0,0,0-16-16H128a16,16,0,0,0-16,16V86H400Z" class="ci-primary"/>
</svg>
