<svg xmlns="http://www.w3.org/2000/svg" viewBox="0 0 512 512">
  <path fill="var(--ci-primary-color, currentColor)" d="M34.925,334.919a8.634,8.634,0,0,0-2.308,8.046L57.44,416,178.3,398.734l8.633-60.431h0a97.671,97.671,0,0,1,138.128,0h0l8.633,60.431L454.56,416l24.823-73.035a8.634,8.634,0,0,0-2.308-8.046l-14.782-14.782c-113.932-113.932-298.654-113.932-412.586,0Z" class="ci-primary"/>
  <rect width="48" height="90.51" x="72" y="106.745" fill="var(--ci-primary-color, currentColor)" class="ci-primary" transform="rotate(-45 96 152)"/>
  <rect width="90.51" height="48" x="370.745" y="128" fill="var(--ci-primary-color, currentColor)" class="ci-primary" transform="rotate(-45 416 152)"/>
  <rect width="48" height="88" x="232" y="56" fill="var(--ci-primary-color, currentColor)" class="ci-primary"/>
</svg>
