<svg xmlns="http://www.w3.org/2000/svg" viewBox="0 0 512 512">
  <path fill="var(--ci-primary-color, currentColor)" d="M321.983,266.4,413.3,474.929h26.2L343.042,254.662l18.144-16.494L255.517,121.932H163.273l-35.044,22.757A68.337,68.337,0,0,0,97,202.2V274h48V202.2a20.506,20.506,0,0,1,9.37-17.258l14.63-9.5v78.273l35.912,71.122L280.7,474.929h43.766L241.714,296.7v-118.6Z" class="ci-primary"/>
  <polygon fill="var(--ci-primary-color, currentColor)" points="93.18 474.929 144.877 474.929 195.999 347.124 167.153 289.996 93.18 474.929" class="ci-primary"/>
  <path fill="var(--ci-primary-color, currentColor)" d="M187.685,96.861A38.087,38.087,0,1,0,169,64.088,37.9,37.9,0,0,0,187.685,96.861Z" class="ci-primary"/>
</svg>
