<svg xmlns="http://www.w3.org/2000/svg" viewBox="0 0 512 512">
  <polygon fill="var(--ci-primary-color, currentColor)" points="480 202 310 202 310 32 88 32 88 252 480 252 480 202" class="ci-primary"/>
  <polygon fill="var(--ci-primary-color, currentColor)" points="480 166 480 160 352 32 346 32 346 166 480 166" class="ci-primary"/>
  <path fill="var(--ci-primary-color, currentColor)" d="M32,288V480H480V288ZM177.774,447.467l-27.24-40.06-27.241,40.06H94.271l41.752-61.4L93.137,323H122.16l28.374,41.727L178.908,323H207.93l-42.885,63.067,41.752,61.4ZM318,447H242V323h24V423h52Zm74,0H344V423h48a12,12,0,0,0,0-24H376a36,36,0,0,1,0-72h40v24H376a12,12,0,0,0,0,24h16a36,36,0,0,1,0,72Z" class="ci-primary"/>
</svg>
