<svg xmlns="http://www.w3.org/2000/svg" viewBox="0 0 512 512">
  <path fill="var(--ci-primary-color, currentColor)" d="M112,140.113V16H64V140.113a72.007,72.007,0,0,0,0,135.774V496h48V275.887a72.007,72.007,0,0,0,0-135.774Z" class="ci-primary"/>
  <path fill="var(--ci-primary-color, currentColor)" d="M280,284.113V16H232V284.113a72.007,72.007,0,0,0,0,135.774V496h48V419.887a72.007,72.007,0,0,0,0-135.774Z" class="ci-primary"/>
  <path fill="var(--ci-primary-color, currentColor)" d="M448,76.113V16H400V76.113a72.007,72.007,0,0,0,0,135.774V496h48V211.887a72.007,72.007,0,0,0,0-135.774Z" class="ci-primary"/>
</svg>
