<svg xmlns="http://www.w3.org/2000/svg" viewBox="0 0 512 512">
  <path fill="var(--ci-primary-color, currentColor)" d="M230.628,349.372a68,68,0,0,1-48.084-116.083L295.833,120H16V496H392V216.167L278.711,329.456A67.554,67.554,0,0,1,230.628,349.372Z" class="ci-primary"/>
  <path fill="var(--ci-primary-color, currentColor)" d="M288,16V80h98.745l-40,40L208,258.744q-.585.586-1.135,1.194a32.2,32.2,0,0,0-2.966,3.826q-.44.666-.841,1.348-.805,1.363-1.465,2.786-.328.709-.622,1.432-.587,1.445-1.026,2.931t-.732,3a32.206,32.206,0,0,0-.586,6.112c0,.546.017,1.092.044,1.638.051.988.144,1.975.286,2.956q.221,1.522.586,3.025t.879,2.968q.256.732.549,1.455a31.749,31.749,0,0,0,3.844,6.879A32.29,32.29,0,0,0,208,304q.587.587,1.194,1.135a31.8,31.8,0,0,0,14.9,7.559c.225.047.451.094.677.136q1.226.227,2.462.357c.182.019.364.039.546.055q1.368.121,2.741.128l.107,0a32.12,32.12,0,0,0,7.377-.862c.08-.019.161-.033.242-.053a31.87,31.87,0,0,0,7.247-2.738l.016-.008a31.917,31.917,0,0,0,6.552-4.576q.608-.549,1.194-1.135L392,165.255l40-40V224h64V16Z" class="ci-primary"/>
</svg>
