<svg xmlns="http://www.w3.org/2000/svg" viewBox="0 0 512 512">
  <polygon fill="var(--ci-primary-color, currentColor)" points="321.941 416 320.971 415.029 320 416 321.941 416" class="ci-primary"/>
  <path fill="var(--ci-primary-color, currentColor)" d="M320,192H192a16,16,0,0,0-16,16V480a16,16,0,0,0,16,16H320a16,16,0,0,0,16-16V208A16,16,0,0,0,320,192ZM256,296a24,24,0,1,1,24-24A24,24,0,0,1,256,296Z" class="ci-primary"/>
  <path fill="var(--ci-primary-color, currentColor)" d="M154.224,138.224,188.15,172.15a95.844,95.844,0,0,1,135.7,0l33.926-33.926a143.772,143.772,0,0,0-203.552,0Z" class="ci-primary"/>
  <path fill="var(--ci-primary-color, currentColor)" d="M256,16A222.535,222.535,0,0,0,97.608,81.608l34,34a175.721,175.721,0,0,1,248.786,0l34-34A222.535,222.535,0,0,0,256,16Z" class="ci-primary"/>
</svg>
