<svg xmlns="http://www.w3.org/2000/svg" viewBox="0 0 512 512">
  <path fill="var(--ci-primary-color, currentColor)" d="M438.94,408.965l.039-.046L350.059,320l-40-40h-.083l-40-40h.083l-27.638-27.638v.083l-48-48v-.084L182.059,152h-.083L146,116.024v-.084L101.081,71.021l-.046.039L45.976,16H16V45.422l55.146,55.146A239.03,239.03,0,0,0,14,256c0,132.548,107.452,240,240,240a239.03,239.03,0,0,0,155.432-57.146L466.578,496H496V466.024ZM146,240h48.421V223.843L210.578,240l40,40H146ZM306,360H242.421v48h-48V360H146V320H290.578L306,335.422Z" class="ci-primary"/>
  <path fill="var(--ci-primary-color, currentColor)" d="M294,104a91.964,91.964,0,0,1,55.949,164.979l110.11,110.109A238.869,238.869,0,0,0,494,256C494,123.452,386.548,16,254,16A238.871,238.871,0,0,0,130.912,49.941L184.971,104Z" class="ci-primary"/>
  <path fill="var(--ci-primary-color, currentColor)" d="M242.421,152v9.45L315.4,234.427A43.988,43.988,0,0,0,294,152Z" class="ci-primary"/>
</svg>
