<svg xmlns="http://www.w3.org/2000/svg" viewBox="0 0 512 512">
  <path fill="var(--ci-primary-color, currentColor)" d="M415.593,496A80.408,80.408,0,0,0,496,415.593V298.857a120,120,0,0,0-120-120H280V112H448a32.036,32.036,0,0,0,32-32V16H432V64H264a32.036,32.036,0,0,0-32,32v82.857H136a120,120,0,0,0-120,120V415.593A80.408,80.408,0,0,0,96.407,496h1.932a80.408,80.408,0,0,0,61.771-28.932l61.6-82.5h68.572l61.574,80.047A80.408,80.408,0,0,0,415.593,496ZM192,325H157v35H115V325H80V283h35V248h42v35h35Zm149,0H299V283h42Zm56,56H355V339h42Zm0-112H355V227h42Zm14,14h42v42H411Z" class="ci-primary"/>
</svg>
