<svg xmlns="http://www.w3.org/2000/svg" viewBox="0 0 512 512">
  <path fill="var(--ci-primary-color, currentColor)" d="M472,128H40a24.028,24.028,0,0,0-24,24V392a24.028,24.028,0,0,0,24,24H472a24.028,24.028,0,0,0,24-24V152A24.028,24.028,0,0,0,472,128ZM344,176h40v40H344Zm-72,0h40v40H272Zm4,76v40H236V252Zm-76-76h40v40H200ZM56,176H96v40H56Zm56,192H72V328h40Zm16-76H88V252h40Zm0-116h40v40H128Zm72,76v40H160V252ZM304,366H144V330H304Zm8-114h40v40H312Zm64,116H336V328h40Zm8-116h40v40H384Zm64,116H408V328h40Zm8-152H416V176h40Z" class="ci-primary"/>
</svg>
