<svg xmlns="http://www.w3.org/2000/svg" viewBox="0 0 512 512">
  <path fill="var(--ci-primary-color, currentColor)" d="M434.492,165.816a27.139,27.139,0,0,0-32.324,20.692L380.1,287.1,373,280l-4.2-5.6,30.387-138.5a27.139,27.139,0,0,0-53.016-11.632L319.021,248H302.6L268.757,77.007a29.571,29.571,0,0,0-34.749-23.265h0a29.57,29.57,0,0,0-23.265,34.749L242.316,248H227.578L200.333,110.358A28.793,28.793,0,0,0,166.5,87.7h0a28.793,28.793,0,0,0-22.655,33.836L189,336H157l-27.393-24.653a86.075,86.075,0,0,0-109.228-4.881h0a8,8,0,0,0-.857,12.056L181,480H397l31.619-142.285a16.022,16.022,0,0,0,.381-3.471V317.482L455.184,198.14A27.139,27.139,0,0,0,434.492,165.816Z" class="ci-primary"/>
</svg>
