<svg xmlns="http://www.w3.org/2000/svg" viewBox="0 0 512 512">
  <path fill="var(--ci-primary-color, currentColor)" d="M419.119,122.048c-3.716-1.62-7.447-3.2-11.208-4.71-3.048-1.223-6.116-2.4-9.193-3.544q-6.292-2.35-12.653-4.5a407.942,407.942,0,0,0-260.13,0q-6.365,2.14-12.653,4.5c-3.077,1.148-6.145,2.321-9.193,3.544-3.761,1.508-7.492,3.09-11.208,4.71a407.939,407.939,0,0,0-70.9,39.738l50.393,71.968a320.154,320.154,0,0,1,367.252,0l50.393-71.968A407.939,407.939,0,0,0,419.119,122.048Z" class="ci-primary"/>
  <path fill="var(--ci-primary-color, currentColor)" d="M93.022,263.244l46.214,66a203.57,203.57,0,0,1,233.528,0l46.214-66a284.142,284.142,0,0,0-325.956,0Z" class="ci-primary"/>
  <path fill="var(--ci-primary-color, currentColor)" d="M323,342.413q-3.18-1.388-6.414-2.642-3.554-1.377-7.162-2.6a167.5,167.5,0,0,0-21.035-5.579q-.507-.1-1.016-.2-6.029-1.149-12.144-1.86a167.474,167.474,0,0,0-38.448,0q-6.113.706-12.144,1.86-.508.1-1.016.2a167.5,167.5,0,0,0-21.035,5.579q-3.61,1.215-7.162,2.6-3.232,1.254-6.414,2.642c-1.4.61-2.793,1.232-4.176,1.881a167.535,167.535,0,0,0-24.944,14.44L256,496l96.115-137.266a167.535,167.535,0,0,0-24.944-14.44C325.788,343.645,324.394,343.023,323,342.413Z" class="ci-primary"/>
</svg>
