<svg xmlns="http://www.w3.org/2000/svg" viewBox="0 0 512 512">
  <path fill="var(--ci-primary-color, currentColor)" d="M399.93,217.453V216c0-79.4-64.6-144-144-144s-144,64.6-144,144v2.491A122.283,122.283,0,0,0,49.136,251.2a109.4,109.4,0,0,0-33.206,78.42c0,31.119,12.788,60.762,36.009,83.469C74.629,435.275,105.268,448,136,448H382.76A109.747,109.747,0,0,0,463.9,412.546c20.656-22.207,32.031-51.657,32.031-82.927C495.93,271.182,455.646,225.392,399.93,217.453ZM160,368a32,32,0,1,1,32-32A32,32,0,0,1,160,368Zm104,0a32,32,0,1,1,32-32A32,32,0,0,1,264,368Zm104,0a32,32,0,1,1,32-32A32,32,0,0,1,368,368Z" class="ci-primary"/>
</svg>
