<svg xmlns="http://www.w3.org/2000/svg" viewBox="0 0 512 512">
  <path fill="var(--ci-primary-color, currentColor)" d="M136.934,168.106A84.314,84.314,0,0,0,128,205.991v3.978h0V414.545h20.458L187.959,273a86.2,86.2,0,0,1,83.027-63.029h58.657v89.407h16.669L488,158.55,346.312,16H329.643v91.681H230.288A102.307,102.307,0,0,0,136.934,168.106Z" class="ci-primary"/>
  <polygon fill="var(--ci-primary-color, currentColor)" points="451 283 451 451 61 451 61 61 264 61 264 19 19 19 19 493 493 493 493 241 451 283" class="ci-primary"/>
</svg>
