<svg xmlns="http://www.w3.org/2000/svg" viewBox="0 0 512 512">
  <path fill="var(--ci-primary-color, currentColor)" d="M324.117,240A128.115,128.115,0,0,1,275.35,48,129.89,129.89,0,0,1,309.6,16H96A48.055,48.055,0,0,0,48,64V240H324.117Z" class="ci-primary"/>
  <path fill="var(--ci-primary-color, currentColor)" d="M48,272V399.455a32.036,32.036,0,0,0,32,32H96V478a18.021,18.021,0,0,0,18,18h68a18.021,18.021,0,0,0,18-18V431.455H312V478a18.021,18.021,0,0,0,18,18h68a18.021,18.021,0,0,0,18-18V431.455h16a32.036,32.036,0,0,0,32-32V272Zm312,40a32,32,0,1,1-32,32A32,32,0,0,1,360,312Zm-216,0a32,32,0,1,1-32,32A32,32,0,0,1,144,312Z" class="ci-primary"/>
  <path fill="var(--ci-primary-color, currentColor)" d="M306,67.2q-1.365,1.738-2.649,3.542t-2.479,3.671q-1.8,2.8-3.39,5.734T294.5,86.139q-1.382,3.056-2.545,6.228t-2.092,6.447a92.511,92.511,0,0,0,2.092,56.819q.774,2.113,1.647,4.178.437,1.03.9,2.05,1.382,3.057,2.977,5.992a91.98,91.98,0,0,0,6.191,9.855Q304.8,179.279,306,180.8q1.367,1.737,2.812,3.407,2.169,2.5,4.512,4.847t4.847,4.512q1.668,1.444,3.407,2.812t3.542,2.648a91.689,91.689,0,0,0,23.751,12.14q3.205,1.085,6.515,1.938,1.1.283,2.215.54,2.226.514,4.491.919a93.056,93.056,0,0,0,30.3.377q2.284-.35,4.531-.809c2.468-.5,4.9-1.115,7.291-1.813,1.235-.361,2.462-.741,3.675-1.152q1.068-.361,2.126-.749a91.372,91.372,0,0,0,12.22-5.521q.977-.531,1.94-1.085a91.975,91.975,0,0,0,8.768-5.735q.448-.332.893-.667,1.386-1.048,2.732-2.148,1.021-.834,2.021-1.695.889-.771,1.759-1.566,1.578-1.439,3.088-2.946A92.512,92.512,0,0,0,453.789,176.7q.858-1.224,1.677-2.479,2.421-3.709,4.486-7.657.35-.667.689-1.343A92.06,92.06,0,0,0,424.169,44.189q-.963-.553-1.94-1.085a91.372,91.372,0,0,0-12.22-5.521q-1.058-.387-2.126-.749a91.272,91.272,0,0,0-10.966-2.965q-2.245-.459-4.531-.809a93.056,93.056,0,0,0-30.3.377q-2.265.405-4.491.919-1.113.256-2.215.54-2.205.569-4.366,1.24a91.773,91.773,0,0,0-29.442,15.486q-1.739,1.367-3.407,2.812-.835.723-1.652,1.466-1.633,1.485-3.195,3.046-2.341,2.341-4.512,4.847Q307.364,65.463,306,67.2ZM362.073,72h32v45.477l37.581,20.473-15.308,28.1-54.273-29.565Z" class="ci-primary"/>
</svg>
