<svg xmlns="http://www.w3.org/2000/svg" viewBox="0 0 512 512">
  <path fill="var(--ci-primary-color, currentColor)" d="M419.724,91.846A233.11,233.11,0,0,0,90.056,421.513,233.11,233.11,0,0,0,419.724,91.846ZM254.89,87.569a168.143,168.143,0,0,1,95.016,29.289L115.068,351.7A168.143,168.143,0,0,1,85.78,256.679C85.78,163.432,161.642,87.569,254.89,87.569Zm0,338.221A168.154,168.154,0,0,1,160.4,396.869L395.079,162.194A168.141,168.141,0,0,1,424,256.679C424,349.927,348.138,425.79,254.89,425.79Z" class="ci-primary"/>
</svg>
