<svg xmlns="http://www.w3.org/2000/svg" viewBox="0 0 512 512">
  <path fill="var(--ci-primary-color, currentColor)" d="M367.688,143.75C346.266,67.261,275.93,11,192.7,11,92.508,11,11,92.508,11,192.7c0,83.93,57.208,154.739,134.674,175.513A181.756,181.756,0,0,0,320.7,501c100.188,0,181.7-81.508,181.7-181.7A182.085,182.085,0,0,0,367.688,143.75ZM192.7,332.391C115.667,332.391,53,269.724,53,192.7S115.667,53,192.7,53s139.7,62.667,139.7,139.7S269.725,332.391,192.7,332.391Z" class="ci-primary"/>
  <path fill="var(--ci-primary-color, currentColor)" d="M281.263,163.482l-5.137-20.361A181.936,181.936,0,0,0,143.166,280.46l20.519,4.471L184.2,289.4a138.139,138.139,0,0,1,18.508-44.782A141.743,141.743,0,0,1,242.226,203.8a138.289,138.289,0,0,1,44.173-19.96l-5.136-20.361Z" class="ci-primary"/>
</svg>
