<svg xmlns="http://www.w3.org/2000/svg" viewBox="0 0 512 512">
  <path fill="var(--ci-primary-color, currentColor)" d="M440.062,410,363.579,333.52l-.021.062L337.976,308h.083L292,261.941v.083L261.976,232h.084l-55.471-55.47-.071.012-36.106-36.106.051-.033L102,71.938l-.045.038L45.976,16H16V45.422l56.23,56.23A239.018,239.018,0,0,0,16,256c0,132.548,107.452,240,240,240a239.023,239.023,0,0,0,154.348-56.229L466.577,496H496V466.024l-55.976-55.976ZM136,204a75.528,75.528,0,0,1,6.93-31.648l43.9,43.9a28.18,28.18,0,0,0,12.922,12.923L250.578,280H212A76.086,76.086,0,0,1,136,204ZM292,384H279.681v48h-48V384H160V336H292a27.818,27.818,0,0,0,11.911-2.667l34.661,34.661A75.6,75.6,0,0,1,292,384Z" class="ci-primary"/>
  <path fill="var(--ci-primary-color, currentColor)" d="M212,128h19.681V80h48v48H344v48H256.971l59.6,59.6h0L461.316,380.345A238.882,238.882,0,0,0,496,256C496,123.452,388.548,16,256,16A238.879,238.879,0,0,0,131.655,50.684l77.391,77.391C210.027,128.037,211.009,128,212,128Z" class="ci-primary"/>
</svg>
