<svg xmlns="http://www.w3.org/2000/svg" viewBox="0 0 512 512">
  <path fill="var(--ci-primary-color, currentColor)" d="M466,278H82V118A49.273,49.273,0,0,1,96.527,82.929l.4-.4A49.684,49.684,0,0,1,153.1,72.688a79.1,79.1,0,0,0,12.789,94.89l9.536,9.537-20.157,20.157,25.456,25.456,152-152L307.272,45.272,287.115,65.429l-9.537-9.536a79.105,79.105,0,0,0-99.139-10.21A85.618,85.618,0,0,0,71.473,57.071l-.4.4A85.04,85.04,0,0,0,46,118V278H16v36H46v28.7a25.941,25.941,0,0,0,1.334,8.221l29.767,89.3A25.966,25.966,0,0,0,101.766,458H112l-11.083,38h37.5L149.5,458H354.608l11.4,38h37.585l-11.4-38h18.041A25.966,25.966,0,0,0,434.9,440.222l29.766-89.295A25.957,25.957,0,0,0,466,342.7V314h30V278Z" class="ci-primary"/>
</svg>
