<svg xmlns="http://www.w3.org/2000/svg" viewBox="0 0 512 512">
  <polygon fill="var(--ci-primary-color, currentColor)" points="273.941 416 272.971 415.029 272 416 273.941 416" class="ci-primary"/>
  <polygon fill="var(--ci-primary-color, currentColor)" points="479.5 416 479.029 415.529 478.559 416 479.5 416" class="ci-primary"/>
  <rect width="48" height="48" x="112" y="448" fill="var(--ci-primary-color, currentColor)" class="ci-primary"/>
  <rect width="48" height="48" x="232" y="448" fill="var(--ci-primary-color, currentColor)" class="ci-primary"/>
  <rect width="48" height="48" x="352" y="448" fill="var(--ci-primary-color, currentColor)" class="ci-primary"/>
  <path fill="var(--ci-primary-color, currentColor)" d="M312,112H200a16,16,0,0,0-16,16V387a16,16,0,0,0,16,16H312a16,16,0,0,0,16-16V128A16,16,0,0,0,312,112ZM256,213a24,24,0,1,1,24-24A24,24,0,0,1,256,213Z" class="ci-primary"/>
  <path fill="var(--ci-primary-color, currentColor)" d="M256,61a95.7,95.7,0,0,1,67.85,28.15l33.926-33.926a143.772,143.772,0,0,0-203.552,0L188.15,89.15A95.7,95.7,0,0,1,256,61Z" class="ci-primary"/>
</svg>
