<svg xmlns="http://www.w3.org/2000/svg" viewBox="0 0 512 512">
  <circle cx="88" cy="96" r="64" fill="var(--ci-primary-color, currentColor)" class="ci-primary"/>
  <circle cx="256" cy="96" r="64" fill="var(--ci-primary-color, currentColor)" class="ci-primary"/>
  <circle cx="424" cy="96" r="64" fill="var(--ci-primary-color, currentColor)" class="ci-primary"/>
  <circle cx="88" cy="256" r="64" fill="var(--ci-primary-color, currentColor)" class="ci-primary"/>
  <circle cx="256" cy="256" r="64" fill="var(--ci-primary-color, currentColor)" class="ci-primary"/>
  <circle cx="424" cy="256" r="64" fill="var(--ci-primary-color, currentColor)" class="ci-primary"/>
  <circle cx="424" cy="416" r="64" fill="var(--ci-primary-color, currentColor)" class="ci-primary"/>
  <path fill="var(--ci-primary-color, currentColor)" d="M64,392h0a32,32,0,0,0-32,32h0a32,32,0,0,0,32,32h0a32,32,0,0,0,32-32h0A32,32,0,0,0,64,392Z" class="ci-primary"/>
  <path fill="var(--ci-primary-color, currentColor)" d="M160,392h0a32,32,0,0,0-32,32h0a32,32,0,0,0,32,32h0a32,32,0,0,0,32-32h0A32,32,0,0,0,160,392Z" class="ci-primary"/>
  <path fill="var(--ci-primary-color, currentColor)" d="M256,392h0a32,32,0,0,0-32,32h0a32,32,0,0,0,32,32h0a32,32,0,0,0,32-32h0A32,32,0,0,0,256,392Z" class="ci-primary"/>
</svg>
