<svg xmlns="http://www.w3.org/2000/svg" viewBox="0 0 512 512">
  <path fill="var(--ci-primary-color, currentColor)" d="M477.54,373.983l-40.948-40.947,23.471-23.471a8,8,0,0,0,0-11.314L424.772,262.96a8,8,0,0,0-11.314,0l-58.93,58.931L191.413,158.775l58.93-58.93a8,8,0,0,0,0-11.314l-35.291-35.29a8,8,0,0,0-11.313,0L180.268,76.712,139.32,35.764a8,8,0,0,0-11.313,0L34.46,129.31a8,8,0,0,0,0,11.314l40.948,40.947L51.937,205.042a8,8,0,0,0,0,11.314l35.291,35.291a8,8,0,0,0,11.314,0l58.93-58.93L320.587,355.832l-58.93,58.93a8,8,0,0,0,0,11.314l35.291,35.29a8,8,0,0,0,11.313,0l23.471-23.47,40.948,40.947a8,8,0,0,0,11.313,0L477.54,385.3A8,8,0,0,0,477.54,373.983Z" class="ci-primary"/>
</svg>
