<svg xmlns="http://www.w3.org/2000/svg" viewBox="0 0 512 512">
  <path fill="var(--ci-primary-color, currentColor)" d="M234.593,284.375A196.891,196.891,0,0,1,256,309.709a195.85,195.85,0,0,1,103.918-74.585A218.253,218.253,0,0,0,269.749,63.789L252.286,51.143,236.263,63.6a218.262,218.262,0,0,0-84.252,171.5,195.427,195.427,0,0,1,82.582,49.272Z" class="ci-primary"/>
  <path fill="var(--ci-primary-color, currentColor)" d="M96,262.968H32v49.548a161.934,161.934,0,0,0,.826,16.359A159.626,159.626,0,0,0,36.1,348.65q.894,3.87,1.973,7.668t2.337,7.515q2.078,6.141,4.641,12.048,1.063,2.462,2.207,4.881a159.914,159.914,0,0,0,16.531,27.485q3.456,4.62,7.23,8.977,2.515,2.9,5.165,5.682c1.33,1.395,2.693,2.758,4.072,4.1s2.752,2.655,4.167,3.941q4.261,3.873,8.8,7.439,3.022,2.376,6.16,4.607,1.569,1.114,3.164,2.194,3.192,2.156,6.492,4.161,4.948,3.008,10.126,5.66c1.934.991,3.9,1.934,5.873,2.847,1.551.716,3.111,1.416,4.688,2.083q7.178,3.037,14.7,5.381,3.757,1.168,7.592,2.156a159.415,159.415,0,0,0,23.628,4.211,161.949,161.949,0,0,0,16.359.826h28V422.968a194.81,194.81,0,0,1,15.417-76.3c.178-.421.368-.836.549-1.256A159.946,159.946,0,0,0,96,262.968Z" class="ci-primary"/>
  <path fill="var(--ci-primary-color, currentColor)" d="M416,262.968a160.015,160.015,0,0,0-145.269,92.874q-.615,1.332-1.208,2.676A159.427,159.427,0,0,0,256,422.968v49.548h64a161.949,161.949,0,0,0,16.359-.826,159.626,159.626,0,0,0,19.775-3.271q3.87-.894,7.668-1.973t7.515-2.337a159.718,159.718,0,0,0,50.458-28.129q4.445-3.669,8.615-7.645,2.779-2.649,5.429-5.429,3.974-4.167,7.645-8.615a159.746,159.746,0,0,0,28.129-50.458q1.258-3.719,2.337-7.515t1.973-7.668a159.626,159.626,0,0,0,3.271-19.775A161.934,161.934,0,0,0,480,312.516V262.968Z" class="ci-primary"/>
</svg>
