<svg xmlns="http://www.w3.org/2000/svg" viewBox="0 0 512 512">
  <path fill="var(--ci-primary-color, currentColor)" d="M336.222,225.989l37.411,30.038a140.36,140.36,0,0,0-.189-176.288L336.1,109.856a92.463,92.463,0,0,1,.124,116.133Z" class="ci-primary"/>
  <path fill="var(--ci-primary-color, currentColor)" d="M401.17,278.137l37.5,30.113a224.056,224.056,0,0,0-.3-280.875L400.934,57.569a175.613,175.613,0,0,1,.236,220.568Z" class="ci-primary"/>
  <path fill="var(--ci-primary-color, currentColor)" d="M304,211.033V120A104,104,0,0,0,200,16h0a103.664,103.664,0,0,0-73.175,30.1l176.3,176.065A71.943,71.943,0,0,0,304,211.033Z" class="ci-primary"/>
  <path fill="var(--ci-primary-color, currentColor)" d="M45.709,16H16V45.422l80,80v85.611a72,72,0,0,0,11.256,38.655l38.417,60.369-99.862,63.1A64,64,0,0,0,16,427.265v69.306L384,496V427.265a63.967,63.967,0,0,0-1.992-15.835L466.578,496H496V466.457Z" class="ci-primary"/>
</svg>
