<svg xmlns="http://www.w3.org/2000/svg" viewBox="0 0 512 512">
  <polygon fill="var(--ci-primary-color, currentColor)" points="279.532 198.526 313.458 232.484 344.971 200.971 311.029 167.029 279.532 198.526" class="ci-primary"/>
  <path fill="var(--ci-primary-color, currentColor)" d="M322.8,101.907A62.646,62.646,0,1,1,411.4,190.5l-69.962,69.963,45.254,45.255,69.963-69.963a126.646,126.646,0,0,0,0-179.1h0a126.646,126.646,0,0,0-179.1,0l-69.91,69.91,45.233,45.276Z" class="ci-primary"/>
  <path fill="var(--ci-primary-color, currentColor)" d="M361.192,331.216l.079-.078-45.244-45.267-.09.091-27.979-27.979.1-.1-33.933-33.951-.106.107-26.675-26.675.113-.113-45.243-45.267-.125.125L45.976,16H16V45.422L152.389,181.811,56.652,277.547a126.645,126.645,0,0,0,0,179.1h0a126.645,126.645,0,0,0,179.1,0l95.737-95.737L466.578,496H496V466.025ZM190.5,411.4A62.646,62.646,0,1,1,101.907,322.8l95.737-95.737,26.674,26.675-57.289,57.289,33.942,33.942,57.289-57.289,27.978,27.978Z" class="ci-primary"/>
</svg>
