<svg xmlns="http://www.w3.org/2000/svg" viewBox="0 0 512 512">
  <path fill="var(--ci-primary-color, currentColor)" d="M493.135,115.025l-92.922-94.12a33.751,33.751,0,0,0-24.2-10.115h-.025a33.754,33.754,0,0,0-24.206,10.149L86.108,290.831a34.092,34.092,0,0,0,.188,47.893l13.29,13.29L16,436.582V480H123.632l51.97-51.97L186.667,439.1a34,34,0,0,0,48.875-.819l258.231-276.14A33.908,33.908,0,0,0,493.135,115.025ZM210.661,412.178,175.6,377.118,137.36,415.36l-25.029-25.029,38.019-38.466-37.194-37.193,58.159-59.082,96,96Z" class="ci-primary"/>
</svg>
