<svg xmlns="http://www.w3.org/2000/svg" viewBox="0 0 512 512">
  <path fill="var(--ci-primary-color, currentColor)" d="M408.873,350.472C452.634,316.89,480,269.074,480,216,480,114.379,379.712,32,256,32S32,114.379,32,216,132.288,400,256,400a274.016,274.016,0,0,0,33.348-2.032l22.106,19.159A257.347,257.347,0,0,0,480,480V464a299.274,299.274,0,0,1-70.593-112.012ZM334.85,265.15l-29.7,29.7L256,245.7,206.85,294.85l-29.7-29.7L226.3,216,177.15,166.85l29.7-29.7L256,186.3l49.15-49.151,29.7,29.7L285.7,216Z" class="ci-primary"/>
</svg>
