<svg xmlns="http://www.w3.org/2000/svg" viewBox="0 0 512 512">
  <circle cx="425.912" cy="70.088" r="38.088" fill="var(--ci-primary-color, currentColor)" class="ci-primary"/>
  <path fill="var(--ci-primary-color, currentColor)" d="M200.992,455.574A112.192,112.192,0,0,1,110.22,277.36L76.005,243.145A159.479,159.479,0,0,0,40.737,343.319c0,88.365,71.89,160.255,160.255,160.255a159.478,159.478,0,0,0,100.175-35.268l-34.215-34.215A111.648,111.648,0,0,1,200.992,455.574Z" class="ci-primary"/>
  <path fill="var(--ci-primary-color, currentColor)" d="M411.559,223.271H329.3l82.986-82.987L297.681,22.57a28.106,28.106,0,0,0-39.348-.749l-74.872,71.2L216.539,127.8,277.1,70.219l45.469,46.649-73.551,73.551A160.087,160.087,0,0,0,101.53,217.758L135.777,252a112.2,112.2,0,0,1,156.53,156.531l34.246,34.246a159.959,159.959,0,0,0,17.555-171.51h47.451V403.642h48V251.271A28.031,28.031,0,0,0,411.559,223.271Z" class="ci-primary"/>
</svg>
