<svg xmlns="http://www.w3.org/2000/svg" viewBox="0 0 512 512">
  <path fill="var(--ci-primary-color, currentColor)" d="M16,248V392H56v48h48V392h64V317.114a52.078,52.078,0,0,1,12.184-33.447L210.145,248Zm46,48h42v42H62Z" class="ci-primary"/>
  <path fill="var(--ci-primary-color, currentColor)" d="M237.024,216l4.338-5.164A63.829,63.829,0,0,1,288,188.065c.788-.029,1.575-.065,2.367-.065H320V96a48.054,48.054,0,0,0-48-48H64A48.054,48.054,0,0,0,16,96V216Z" class="ci-primary"/>
  <path fill="var(--ci-primary-color, currentColor)" d="M200,332V456h40v40h48V456H408v40h48V456h40V332Zm56,78V368h42v42Zm184,0H398V368h42Z" class="ci-primary"/>
  <path fill="var(--ci-primary-color, currentColor)" d="M265.864,231.418,208.256,300H487.744l-57.608-68.582A31.932,31.932,0,0,0,405.633,220H290.367A31.932,31.932,0,0,0,265.864,231.418Z" class="ci-primary"/>
</svg>
