<svg xmlns="http://www.w3.org/2000/svg" viewBox="0 0 512 512">
  <path fill="var(--ci-primary-color, currentColor)" d="M312,496h0a118.813,118.813,0,0,1-10.429-156.089L251.63,308.352,271.647,272h39.824a32,32,0,0,0,29.412-44.606s-31.374-85.437-37.169-115.119C293.372,59.3,254.839,16,200,16h0c-54.676,0-93.28,43.045-103.679,95.794-5.872,29.787-37.2,115.6-37.2,115.6A32,32,0,0,0,88.529,272h39.824l20.017,36.352L45.811,373.162A64,64,0,0,0,16,427.264v69.307l296.115-.459Z" class="ci-primary"/>
  <polygon fill="var(--ci-primary-color, currentColor)" points="434.891 343.41 396 382.301 357.109 343.41 327.411 373.109 366.301 412 327.411 450.891 357.109 480.59 396 441.699 434.891 480.59 464.589 450.891 425.699 412 464.589 373.109 434.891 343.41" class="ci-primary"/>
</svg>
