<svg xmlns="http://www.w3.org/2000/svg" viewBox="0 0 512 512">
  <path fill="var(--ci-primary-color, currentColor)" d="M376,16H136A40.045,40.045,0,0,0,96,56V88H368V368H96v88a40.045,40.045,0,0,0,40,40H376a40.045,40.045,0,0,0,40-40V56A40.045,40.045,0,0,0,376,16ZM274,450H238V414h36Z" class="ci-primary"/>
  <polygon fill="var(--ci-primary-color, currentColor)" points="104.506 321.423 216 215.797 216 280 264 280 264 136 112 136 112 184 179.77 184 71.494 286.577 104.506 321.423" class="ci-primary"/>
</svg>
