<svg xmlns="http://www.w3.org/2000/svg" viewBox="0 0 512 512">
  <polygon fill="var(--ci-primary-color, currentColor)" points="480 202 310 202 310 32 88 32 88 252 480 252 480 202" class="ci-primary"/>
  <polygon fill="var(--ci-primary-color, currentColor)" points="480 166 480 160 352 32 346 32 346 166 480 166" class="ci-primary"/>
  <path fill="var(--ci-primary-color, currentColor)" d="M32,288V480H480V288Zm296,36h96v24H388V448H364V348H328ZM220,412V324h44.5A43.549,43.549,0,0,1,308,367.5v1A43.549,43.549,0,0,1,264.5,412H244v36H220Zm-116,0V324h44.5A43.549,43.549,0,0,1,192,367.5v1A43.549,43.549,0,0,1,148.5,412H128v36H104Z" class="ci-primary"/>
  <path fill="var(--ci-primary-color, currentColor)" d="M244,388h20.5A19.523,19.523,0,0,0,284,368.5v-1A19.523,19.523,0,0,0,264.5,348H244Z" class="ci-primary"/>
  <path fill="var(--ci-primary-color, currentColor)" d="M128,388h20.5A19.523,19.523,0,0,0,168,368.5v-1A19.523,19.523,0,0,0,148.5,348H128Z" class="ci-primary"/>
</svg>
