<svg xmlns="http://www.w3.org/2000/svg" viewBox="0 0 512 512">
  <path fill="var(--ci-primary-color, currentColor)" d="M447.348,271.833A190.7,190.7,0,0,1,431.9,333.2L392,280H224V216l32-24,44.239,8.848a119.386,119.386,0,0,1-8.239-43.7V72h-.277V18.65A240.277,240.277,0,0,0,56,123.315,238.859,238.859,0,0,0,16,256c0,110.383,74.525,203.346,176,231.356A239.978,239.978,0,0,0,496,256q0-6.5-.347-12.9A120.107,120.107,0,0,1,447.348,271.833ZM252,416l-30.9,28.841A192.184,192.184,0,0,1,87.3,164.168L136,208v64l68,72h48Z" class="ci-primary"/>
  <path fill="var(--ci-primary-color, currentColor)" d="M470.5,104h0V75.527c0-.831-.029-1.655-.063-2.477-.008-.206,0-.414-.016-.618-.007-.145-.024-.287-.032-.432-.052-.883-.128-1.759-.216-2.631-.033-.323-.073-.644-.111-.965q-.094-.8-.208-1.588c-.059-.4-.119-.808-.186-1.21s-.147-.827-.224-1.238c-.244-1.307-.515-2.6-.844-3.88a59.686,59.686,0,0,0-2.842-8.39c-.133-.313-.282-.617-.42-.928-.159-.357-.319-.715-.484-1.069q-.294-.626-.6-1.246c-.188-.378-.382-.752-.578-1.126-.155-.3-.3-.6-.46-.9-.075-.138-.159-.271-.236-.409q-.5-.909-1.034-1.8c-.212-.352-.432-.7-.651-1.046-.241-.384-.484-.766-.733-1.143-.125-.189-.24-.384-.367-.571-.1-.153-.216-.3-.321-.451-.286-.415-.58-.825-.876-1.232-.2-.279-.4-.562-.608-.838q-.713-.945-1.462-1.858c-.069-.086-.134-.176-.2-.261-.11-.133-.231-.257-.342-.389Q455.512,35.8,454.6,34.8c-.117-.127-.23-.259-.347-.385-.695-.743-1.414-1.462-2.145-2.17-.186-.18-.373-.361-.562-.539q-1.1-1.039-2.253-2.025c-.169-.144-.342-.284-.512-.426-.765-.638-1.543-1.262-2.34-1.862-.055-.042-.107-.089-.163-.13-.019-.015-.039-.027-.058-.042q-1.022-.761-2.076-1.477c-.222-.151-.446-.3-.669-.445q-.788-.522-1.591-1.021c-.139-.086-.274-.18-.414-.266-.092-.056-.188-.106-.28-.161-.694-.417-1.395-.823-2.106-1.212-.054-.03-.106-.062-.16-.091-.491-.267-.993-.514-1.493-.765-.278-.141-.551-.29-.832-.427-.084-.041-.165-.088-.249-.128-.146-.071-.3-.132-.444-.2q-.885-.419-1.785-.808c-.148-.064-.291-.136-.44-.2-.09-.039-.184-.071-.275-.109-.812-.34-1.63-.667-2.459-.972s-1.672-.585-2.518-.853c-.094-.03-.186-.066-.28-.095-.156-.049-.316-.087-.472-.135q-.948-.287-1.909-.543c-.255-.068-.509-.138-.765-.2-.868-.22-1.741-.426-2.624-.607a60.542,60.542,0,0,0-24.254,0c-.883.181-1.756.387-2.624.607-.256.064-.51.134-.766.2q-.96.257-1.907.543c-.157.048-.317.086-.473.135-.094.029-.186.065-.28.095-.846.268-1.688.549-2.518.853s-1.656.636-2.472.977c-.086.036-.176.067-.262.1-.171.072-.336.154-.505.228q-.849.369-1.683.762c-.159.075-.322.141-.481.218-.123.059-.242.127-.365.187q-.848.417-1.678.861l-.155.081c-.181.1-.363.187-.542.285-.32.176-.632.365-.948.546-.4.23-.806.453-1.2.691-.076.046-.155.087-.231.133-.239.146-.468.3-.7.453-.41.257-.819.517-1.222.784q-.548.363-1.086.736c-.331.23-.657.464-.983.7-.269.2-.546.379-.812.578-.1.073-.19.155-.288.229q-1.071.813-2.1,1.673c-.343.285-.681.577-1.018.869-.466.405-.923.819-1.377,1.237q-.77.711-1.513,1.448c-.378.373-.752.749-1.119,1.132s-.74.775-1.1,1.171c-.443.487-.875.985-1.3,1.486-.206.242-.426.472-.629.717-.823,1-1.6,2.03-2.36,3.079l-.022.03-.013.019c-.363.5-.73,1-1.076,1.512-.79,1.167-1.524,2.373-2.232,3.6l-.153.266c-.211.369-.433.731-.636,1.105-.735,1.35-1.4,2.74-2.035,4.15-.048.105-.1.209-.143.315-.118.268-.248.53-.363.8a59.686,59.686,0,0,0-2.842,8.39c-.055.214-.1.433-.15.648s-.1.445-.155.667q-.308,1.316-.555,2.652c-.077.416-.157.831-.226,1.25-.063.385-.118.772-.174,1.159-.076.531-.147,1.062-.209,1.6-.036.311-.074.622-.106.935-.087.864-.163,1.73-.214,2.6-.008.145-.025.287-.032.432-.011.2-.008.414-.016.619-.034.823-.063,1.646-.063,2.476V104H328v53.148h0a83.945,83.945,0,0,0,118.7,76.465,84.524,84.524,0,0,0,41.041-40.173A83.487,83.487,0,0,0,496,157.149h0V104Zm-36-8.415V102H386V75.527a24.194,24.194,0,0,1,6.75-16.761A24.23,24.23,0,0,1,434.241,72a24.422,24.422,0,0,1,.259,3.527Z" class="ci-primary"/>
</svg>
