<svg xmlns="http://www.w3.org/2000/svg" viewBox="0 0 512 512">
  <path fill="var(--ci-primary-color, currentColor)" d="M160,432h0a32,32,0,0,0-32,32h0a32,32,0,0,0,32,32h0a32,32,0,0,0,32-32h0A32,32,0,0,0,160,432Z" class="ci-primary"/>
  <path fill="var(--ci-primary-color, currentColor)" d="M256,432h0a32,32,0,0,0-32,32h0a32,32,0,0,0,32,32h0a32,32,0,0,0,32-32h0A32,32,0,0,0,256,432Z" class="ci-primary"/>
  <path fill="var(--ci-primary-color, currentColor)" d="M352,432h0a32,32,0,0,0-32,32h0a32,32,0,0,0,32,32h0a32,32,0,0,0,32-32h0A32,32,0,0,0,352,432Z" class="ci-primary"/>
  <path fill="var(--ci-primary-color, currentColor)" d="M472,16H40A24.028,24.028,0,0,0,16,40V376a24.028,24.028,0,0,0,24,24H472a24.028,24.028,0,0,0,24-24V40A24.028,24.028,0,0,0,472,16ZM120,256,56,208l64-48ZM256,360l-48-64h96ZM208,120l48-64,48,64ZM392,256V160l64,48Z" class="ci-primary"/>
</svg>
