<svg xmlns="http://www.w3.org/2000/svg" viewBox="0 0 512 512">
  <path fill="var(--ci-primary-color, currentColor)" d="M316.568,235.6,437.289,356.318a7.922,7.922,0,0,0,.314-8.128L392,264V176A136,136,0,0,0,256,40h0a135.555,135.555,0,0,0-95.675,39.354L316.568,235.6Z" class="ci-primary"/>
  <path fill="var(--ci-primary-color, currentColor)" d="M256,464a72,72,0,0,0,72-72H184A72,72,0,0,0,256,464Z" class="ci-primary"/>
  <path fill="var(--ci-primary-color, currentColor)" d="M390.059,360,45.976,16H16V45.422L122.185,151.607A136.817,136.817,0,0,0,120,176v88L74.4,348.19A8,8,0,0,0,81.432,360H330.578l136,136H496V465.941Z" class="ci-primary"/>
</svg>
