<svg xmlns="http://www.w3.org/2000/svg" viewBox="0 0 512 512">
  <path fill="var(--ci-primary-color, currentColor)" d="M440.062,410l-98-98-40-40h-.083l-40-40-20.691-20.691.035-.049L102,71.938l-.045.038L45.976,16H16V45.422l56.23,56.23A239.018,239.018,0,0,0,16,256c0,132.548,107.452,240,240,240a239.016,239.016,0,0,0,154.348-56.23L466.578,496H496V466.024l-55.976-55.976ZM176,232h26.578l40,40H176ZM280,352v48H232V352H176V312H282.578l40,40Z" class="ci-primary"/>
  <path fill="var(--ci-primary-color, currentColor)" d="M316.47,106.05l39.06,27.9-58.587,82.022L312.971,232H336v23.029L461.316,380.345A238.879,238.879,0,0,0,496,256C496,123.452,388.548,16,256,16A238.882,238.882,0,0,0,131.655,50.684L262.533,181.562Z" class="ci-primary"/>
</svg>
