<svg xmlns="http://www.w3.org/2000/svg" viewBox="0 0 512 512">
  <path fill="var(--ci-primary-color, currentColor)" d="M16,448a24.028,24.028,0,0,0,24,24H472a24.028,24.028,0,0,0,24-24V384H16Z" class="ci-primary"/>
  <path fill="var(--ci-primary-color, currentColor)" d="M496,112a24.028,24.028,0,0,0-24-24H400V16H336V88H176V16H112V88H40a24.028,24.028,0,0,0-24,24v72H496Z" class="ci-primary"/>
  <polygon fill="var(--ci-primary-color, currentColor)" points="496 232 16 232 0 232 0 336 16 336 496 336 512 336 512 232 496 232" class="ci-primary"/>
</svg>
