<svg xmlns="http://www.w3.org/2000/svg" viewBox="0 0 512 512">
  <polygon fill="var(--ci-primary-color, currentColor)" points="80 328 32 328 32 480 184 480 184 432 80 432 80 328" class="ci-primary"/>
  <polygon fill="var(--ci-primary-color, currentColor)" points="432 432 328 432 328 480 480 480 480 328 432 328 432 432" class="ci-primary"/>
  <polygon fill="var(--ci-primary-color, currentColor)" points="80 80 184 80 184 32 32 32 32 184 80 184 80 80" class="ci-primary"/>
  <polygon fill="var(--ci-primary-color, currentColor)" points="328 32 328 80 432 80 432 184 480 184 480 32 328 32" class="ci-primary"/>
  <rect width="48" height="48" x="336" y="128" fill="var(--ci-primary-color, currentColor)" class="ci-primary"/>
  <polygon fill="var(--ci-primary-color, currentColor)" points="392 392 392 328 392 272.271 341.846 222.118 272.941 289.882 208.12 224.804 120 312.924 120 328 120 392 184 392 328 392 392 392" class="ci-primary"/>
</svg>
