<svg xmlns="http://www.w3.org/2000/svg" viewBox="0 0 512 512">
  <path fill="var(--ci-primary-color, currentColor)" d="M453.369,129.994,379.407,93.555l-78.3,104.4,39.149,52.2h0a104.4,104.4,0,0,1-104.4,104.4h0l-52.2-39.15L79.26,393.7,115.7,467.663A9.229,9.229,0,0,0,123.524,472h22.345c172.223,0,311.837-139.614,311.837-311.837V137.819A9.227,9.227,0,0,0,453.369,129.994Z" class="ci-primary"/>
  <circle cx="255.153" cy="84.116" r="32" fill="var(--ci-primary-color, currentColor)" class="ci-primary" transform="rotate(-65.549 255.15 84.116)"/>
  <circle cx="164.853" cy="163.147" r="32" fill="var(--ci-primary-color, currentColor)" class="ci-primary"/>
  <circle cx="74.553" cy="242.179" r="32" fill="var(--ci-primary-color, currentColor)" class="ci-primary" transform="rotate(-85.396 74.552 242.178)"/>
</svg>
