<svg xmlns="http://www.w3.org/2000/svg" viewBox="0 0 512 512">
  <path fill="var(--ci-primary-color, currentColor)" d="M471.06,101.942c-74.233-49.5-144.491-74.006-214.789-74.914-1.437-.018-2.867-.028-4.3-.028C182.282,27,113.506,48.884,41.883,93.819a36.819,36.819,0,0,0-12.227,50.069L224.241,475.405a36.683,36.683,0,0,0,31.732,18.271h.185a36.677,36.677,0,0,0,31.72-17.964L482.247,151.764A36.956,36.956,0,0,0,471.06,101.942ZM168.953,241.1A27.731,27.731,0,1,1,201.069,263.6,27.731,27.731,0,0,1,168.953,241.1Zm91.524,140.759-48-40L235.523,314.2l48,40Zm-10.8-190.681,64-24,12.64,33.707-64,24Zm62.86,119.9a27.731,27.731,0,1,1,22.507-32.115A27.731,27.731,0,0,1,312.54,311.073Zm101.474-136.1c-50.32-33.556-97.924-49.5-149.814-50.167-.913-.012-1.827-.018-2.737-.018-62.291,0-119.04,27.333-155.9,50.457l-19.132-30.5c40.879-25.649,104.2-55.962,175.036-55.962,1.067,0,2.126.007,3.195.022,59.154.763,112.957,18.625,169.321,56.211Z" class="ci-primary"/>
</svg>
