<svg xmlns="http://www.w3.org/2000/svg" viewBox="0 0 512 512">
  <path fill="var(--ci-primary-color, currentColor)" d="M426.751,160.913c-11.734-29.548-30.876-54.635-55.342-72.54A153.779,153.779,0,0,0,308.06,61.078a171.253,171.253,0,0,0-60.323-.14c-42.733,7.47-83.79,30.87-115.607,65.886-31.848,35.05-52.6,79.863-58.422,126.181-5.917,47.045,3.875,92.869,27.57,129.032,23.975,36.59,60.457,61.06,102.719,68.9a165.547,165.547,0,0,0,30.153,2.743,174.389,174.389,0,0,0,30.05-2.624c26.018-4.523,51.034-14.69,74.351-30.219C392.8,384.716,430.089,324.214,438.292,259,442.608,224.708,438.618,190.791,426.751,160.913Zm-94.151,91c-8.778,50.85-31.736,97.586-61.418,125.025-11.024,10.2-22.475,17.037-33.15,19.785a42.292,42.292,0,0,1-10.562,1.4,33.63,33.63,0,0,1-9.432-1.3c-29-8.358-51.266-61.794-38.338-136.744,6.27-36.311,20.076-71.321,38.874-98.582,16.981-24.625,37.271-41.478,55.635-46.229a42.812,42.812,0,0,1,10.621-1.4,33.883,33.883,0,0,1,9.422,1.3l.025.008c7.287,2.1,13.978,6.855,19.884,14.122C334.314,154.112,341.379,201.1,332.6,251.917Z" class="ci-primary"/>
</svg>
