<svg xmlns="http://www.w3.org/2000/svg" viewBox="0 0 512 512">
  <polygon fill="var(--ci-primary-color, currentColor)" points="437 75 437 16 395 16 395 75 336 75 336 117 395 117 395 176 437 176 437 117 496 117 496 75 437 75" class="ci-primary"/>
  <path fill="var(--ci-primary-color, currentColor)" d="M200,128C98.542,128,16,210.542,16,312S98.542,496,200,496s184-82.542,184-184S301.458,128,200,128Zm48,128h40v40H248Zm-136,0h40v40H112ZM294.429,356.4A97.533,97.533,0,0,1,203.438,418h-6.875a97.533,97.533,0,0,1-90.992-61.6L100.613,344h38.795a61.686,61.686,0,0,0,57.155,38h6.875a61.685,61.685,0,0,0,57.154-38h38.8Z" class="ci-primary"/>
</svg>
