<svg xmlns="http://www.w3.org/2000/svg" viewBox="0 0 512 512">
  <path fill="var(--ci-primary-color, currentColor)" d="M86.983,339.532l151.359-85.55V29.27L67.983,127.626a34.1,34.1,0,0,0-17,29.445V354.929a33.707,33.707,0,0,0,.345,4.757Z" class="ci-primary"/>
  <path fill="var(--ci-primary-color, currentColor)" d="M461.33,359.739a33.7,33.7,0,0,0,.354-4.81V157.071a34.1,34.1,0,0,0-17-29.445L274.342,29.279V254.05l151.342,85.541Z" class="ci-primary"/>
  <path fill="var(--ci-primary-color, currentColor)" d="M74.329,388.038l165,95.264a34.088,34.088,0,0,0,34,0l164.954-95.236L401.905,367.5,256.282,285.194l-145.571,82.28Z" class="ci-primary"/>
</svg>
