<svg xmlns="http://www.w3.org/2000/svg" viewBox="0 0 512 512">
  <path fill="var(--ci-primary-color, currentColor)" d="M316.568,235.6l29.553,29.553A95.8,95.8,0,0,0,352,232V112a96,96,0,0,0-96-96h0a96.042,96.042,0,0,0-91.706,67.525L316.568,235.6Z" class="ci-primary"/>
  <path fill="var(--ci-primary-color, currentColor)" d="M440,232V176H392v56a135.162,135.162,0,0,1-15.684,63.345l35.08,35.08A182.911,182.911,0,0,0,440,232Z" class="ci-primary"/>
  <path fill="var(--ci-primary-color, currentColor)" d="M45.709,16H16V45.422l144,144V232a96,96,0,0,0,96,96h0a95.723,95.723,0,0,0,35.71-6.867l29.938,29.938A135.147,135.147,0,0,1,256,368c-74.99,0-136-61.01-136-136V176H72v56c0,93.325,69.841,170.638,160,182.435V496h48V414.435A182.834,182.834,0,0,0,356.578,386l110,110H496V466.457Z" class="ci-primary"/>
</svg>
