<svg xmlns="http://www.w3.org/2000/svg" viewBox="0 0 512 512">
  <path fill="var(--ci-primary-color, currentColor)" d="M214.773,133.8A75.616,75.616,0,0,1,351.3,178.647h-48a27.644,27.644,0,0,0-53.49-9.812L316.568,235.6h0L437.935,356.964l23.4,23.4h0A238.465,238.465,0,0,0,493.1,293.639q1.288-8.175,2.019-16.527T496,260.26q.036-2.125.037-4.26,0-9.32-.7-18.466-.464-6.094-1.228-12.1-.382-3-.837-5.983-.911-5.958-2.111-11.818a238.2,238.2,0,0,0-13.984-45.051q-2.279-5.383-4.807-10.631t-5.3-10.348q-2.771-5.1-5.779-10.051-6.014-9.9-12.934-19.147a241.257,241.257,0,0,0-18.592-21.99q-5.96-6.252-12.358-12.066t-13.2-11.159q-6.8-5.344-13.987-10.2-4.788-3.234-9.737-6.242-2.475-1.5-4.987-2.949-5.026-2.889-10.2-5.541-10.349-5.3-21.258-9.609-5.45-2.148-11.027-4.037a241.06,241.06,0,0,0-155.9.688q-3.521,1.226-6.99,2.557a238.83,238.83,0,0,0-26.053,11.831q-2.346,1.24-4.66,2.529c-2.606,1.452-5.191,2.937-7.737,4.483l23.4,23.4Z" class="ci-primary"/>
  <path fill="var(--ci-primary-color, currentColor)" d="M440.043,410.068l.039-.046-22.718-22.717L310.059,280h-.084l-48-48h.084L248,217.941v.084l-47.551-47.552c0-.025.007-.049.009-.074L124.731,94.672,102.014,71.954l-.046.039L45.976,16H16V45.422l56.249,56.249A239.976,239.976,0,0,0,98.488,437.045q2.84,2.472,5.759,4.854a240.89,240.89,0,0,0,20.781,15.2q1.737,1.134,3.495,2.237,5.347,3.361,10.882,6.444,2.315,1.29,4.66,2.529a238.83,238.83,0,0,0,26.053,11.831q3.47,1.331,6.99,2.557a239.754,239.754,0,0,0,233.257-42.915L466.578,496H496V466.025ZM344,383.934H160v-48h40V280H160V232h42.578L248,280v55.934h58.512L344,373.422Z" class="ci-primary"/>
</svg>
