<svg xmlns="http://www.w3.org/2000/svg" viewBox="0 0 512 512">
  <polygon fill="var(--ci-primary-color, currentColor)" points="112 399.5 167.943 399.5 167.943 463.5 231.943 463.5 231.943 399.5 312 399.5 312 343.5 112 343.5 112 399.5" class="ci-primary"/>
  <path fill="var(--ci-primary-color, currentColor)" d="M231.943,150.973V128H306.82c33.735,0,61.18,25.929,61.18,57.8,0,26.714-19.287,49.243-45.394,55.837l48.585,48.585C407.6,268.9,432,230.069,432,185.8,432,118.639,375.845,64,306.82,64H144.971l64,64Z" class="ci-primary"/>
  <polygon fill="var(--ci-primary-color, currentColor)" points="45.976 16 16 16 16 45.422 167.943 197.365 167.943 243.597 112 243.597 112 303.5 274.078 303.5 314.078 343.5 466.578 496 496 496 496 466.024 45.976 16" class="ci-primary"/>
</svg>
