<svg xmlns="http://www.w3.org/2000/svg" viewBox="0 0 512 512">
  <path fill="var(--ci-primary-color, currentColor)" d="M48,272V399.455a32.036,32.036,0,0,0,32,32H96V478a18.021,18.021,0,0,0,18,18h68a18.021,18.021,0,0,0,18-18V431.455H312V478a18.021,18.021,0,0,0,18,18h68a18.021,18.021,0,0,0,18-18V431.455h16a32.036,32.036,0,0,0,32-32V272Zm312,40a32,32,0,1,1-32,32A32,32,0,0,1,360,312Zm-216,0a32,32,0,1,1-32,32A32,32,0,0,1,144,312Z" class="ci-primary"/>
  <path fill="var(--ci-primary-color, currentColor)" d="M416,16H96A48.055,48.055,0,0,0,48,64V240H464V64A48.055,48.055,0,0,0,416,16Z" class="ci-primary"/>
</svg>
