<svg xmlns="http://www.w3.org/2000/svg" viewBox="0 0 512 512">
  <path fill="var(--ci-primary-color, currentColor)" d="M480,64H32A16,16,0,0,0,16,80V432a16,16,0,0,0,16,16H480a16,16,0,0,0,16-16V80A16,16,0,0,0,480,64ZM176.229,318.229a61.571,61.571,0,0,0,38.513-13.347l22.3,28.259a97.235,97.235,0,0,1-60.817,21.088,98.229,98.229,0,0,1,0-196.458,97.235,97.235,0,0,1,60.817,21.088l-22.3,28.259a61.571,61.571,0,0,0-38.513-13.347,62.229,62.229,0,0,0,0,124.458Zm182.105,0a61.572,61.572,0,0,0,38.514-13.347l22.3,28.259a97.236,97.236,0,0,1-60.818,21.088,98.229,98.229,0,0,1,0-196.458,97.236,97.236,0,0,1,60.818,21.088l-22.3,28.259a61.572,61.572,0,0,0-38.514-13.347,62.229,62.229,0,0,0,0,124.458Z" class="ci-primary"/>
</svg>
