<svg xmlns="http://www.w3.org/2000/svg" viewBox="0 0 512 512">
  <path fill="var(--ci-primary-color, currentColor)" d="M368,216h56V96a16,16,0,0,0-16-16H32A16,16,0,0,0,16,96V368a16,16,0,0,0,16,16H207v40.122l-55,6.735V472H304V430.857l-55-6.735V384h71V264A48.055,48.055,0,0,1,368,216ZM237.454,252.494c-.121.372-.223.683-.343,1.055l7.478,48.48-11.509,8.363-43.8-22.094h-1.109l-43.8,22.094-11.509-8.363,7.478-48.48c-.12-.372-.221-.683-.342-1.055l-34.547-34.826,4.4-13.53,48.418-7.869.9-.652L181.615,152h14.227l22.446,43.617.9.652,48.419,7.869c2.011,6.188,2.385,7.342,4.4,13.53Z" class="ci-primary"/>
  <rect width="144" height="224" x="352" y="248" fill="var(--ci-primary-color, currentColor)" class="ci-primary" rx="16"/>
</svg>
