<svg xmlns="http://www.w3.org/2000/svg" viewBox="0 0 512 512">
  <rect width="203.647" height="48" x="130.177" y="240" fill="var(--ci-primary-color, currentColor)" class="ci-primary" transform="rotate(-45 232 264)"/>
  <path fill="var(--ci-primary-color, currentColor)" d="M369.011,264.686A99.378,99.378,0,0,0,228.4,124.218l-51.118,51.118,33.941,33.942,51.118-51.119A51.378,51.378,0,1,1,335,230.818l-80.367,81.765c-20.668,21.027-55.34,64.249-55.34,117.461V496h48V430.044c0-26.385,15.153-56.935,41.573-83.815Z" class="ci-primary"/>
  <path fill="var(--ci-primary-color, currentColor)" d="M174.113,246.384l3.165-3.165-33.942-33.941-3.165,3.164c-27.629,27.63-61.689,42.847-95.9,42.847H16v48H44.267C91.3,303.289,137.417,283.079,174.113,246.384Z" class="ci-primary"/>
  <path fill="var(--ci-primary-color, currentColor)" d="M72,335.111H16v48H72a48.055,48.055,0,0,1,48,48v64h48v-64A96.108,96.108,0,0,0,72,335.111Z" class="ci-primary"/>
  <path fill="var(--ci-primary-color, currentColor)" d="M341.7,341.47c-18.235,19.195-32.638,34.356-41.774,57.77C291.344,421.236,288,448.365,288,496h48c0-78.838,7.775-87.023,40.5-121.47l5.889-6.2-33.952-33.952Z" class="ci-primary"/>
  <path fill="var(--ci-primary-color, currentColor)" d="M340.106,17.26V65.811A112.186,112.186,0,0,1,432,176a175.643,175.643,0,0,1-48.5,121.47l-1.992,2.1,33.952,33.952,2.84-2.989A223.447,223.447,0,0,0,480,176C480,94.585,418.875,27.18,340.106,17.26Z" class="ci-primary"/>
  <path fill="var(--ci-primary-color, currentColor)" d="M154.622,155.827l44.508-42.988a173.023,173.023,0,0,1,92.976-46.607V17.744a220.725,220.725,0,0,0-126.322,60.57l-44.867,43.334-.727.733A144.327,144.327,0,0,1,16,167.111v48A192.549,192.549,0,0,0,154.622,155.827Z" class="ci-primary"/>
</svg>
