<svg xmlns="http://www.w3.org/2000/svg" viewBox="0 0 512 512">
  <path fill="var(--ci-primary-color, currentColor)" d="M438.7,259.71,343.991,216V48a32,32,0,0,0-32-32h0a32,32,0,0,0-32,32V224h-24l-40-153.351a32,32,0,0,0-38.725-22.967l-1.737.435a32,32,0,0,0-23.158,39.289L188.635,221.89,215.991,310.8V352h-16V313.2L184.852,264H169.991a42,42,0,0,0-42,42v87.373a16,16,0,0,0,4.687,11.313L191.991,464H409l36.207-53.074a16.006,16.006,0,0,0,2.782-9.017V274.237A16,16,0,0,0,438.7,259.71Z" class="ci-primary"/>
</svg>
