<svg xmlns="http://www.w3.org/2000/svg" viewBox="0 0 512 512">
  <path fill="var(--ci-primary-color, currentColor)" d="M484.057,66.384A84.713,84.713,0,0,0,468,44l-4-4c-.173-.173-.354-.331-.528-.5a84.878,84.878,0,0,0-116.161-2.632Q345.625,38.381,344,40l-60.791,60.791L231.343,48.716,201.585,78.355l51.2,51.4L62.705,319.84a147.665,147.665,0,0,0-43.534,105.1v39.371A28.719,28.719,0,0,0,47.857,493H79.542a147.668,147.668,0,0,0,105.1-43.535l193.67-193.671,54.806,55.025,29.758-29.638-55.918-56.142L468,164h0a85,85,0,0,0,16.057-97.616ZM278.712,296H145.942l130.3-130.3,66.385,66.384Z" class="ci-primary"/>
</svg>
