<svg xmlns="http://www.w3.org/2000/svg" viewBox="0 0 512 512">
  <rect width="224" height="48" x="144" y="424" fill="var(--ci-primary-color, currentColor)" class="ci-primary"/>
  <rect width="48" height="48" x="64" y="424" fill="var(--ci-primary-color, currentColor)" class="ci-primary"/>
  <rect width="48" height="48" x="400" y="424" fill="var(--ci-primary-color, currentColor)" class="ci-primary"/>
  <rect width="48" height="48" x="56" y="264" fill="var(--ci-primary-color, currentColor)" class="ci-primary"/>
  <rect width="48" height="48" x="144" y="264" fill="var(--ci-primary-color, currentColor)" class="ci-primary"/>
  <rect width="48" height="48" x="232" y="264" fill="var(--ci-primary-color, currentColor)" class="ci-primary"/>
  <rect width="48" height="48" x="320" y="264" fill="var(--ci-primary-color, currentColor)" class="ci-primary"/>
  <rect width="48" height="48" x="408" y="264" fill="var(--ci-primary-color, currentColor)" class="ci-primary"/>
  <rect width="48" height="48" x="112" y="344" fill="var(--ci-primary-color, currentColor)" class="ci-primary"/>
  <rect width="48" height="48" x="192" y="344" fill="var(--ci-primary-color, currentColor)" class="ci-primary"/>
  <rect width="48" height="48" x="272" y="344" fill="var(--ci-primary-color, currentColor)" class="ci-primary"/>
  <rect width="48" height="48" x="352" y="344" fill="var(--ci-primary-color, currentColor)" class="ci-primary"/>
  <path fill="var(--ci-primary-color, currentColor)" d="M477.471,132.214l-14.782-14.782C348.757,3.5,164.035,3.5,50.1,117.432L35.321,132.214a8.634,8.634,0,0,0-2.308,8.046L57.836,213.3,178.7,196.029l8.633-60.431h0a97.671,97.671,0,0,1,138.128,0h0l8.633,60.431L454.956,213.3l24.823-73.035A8.634,8.634,0,0,0,477.471,132.214Z" class="ci-primary"/>
</svg>
