<svg xmlns="http://www.w3.org/2000/svg" viewBox="0 0 512 512">
  <path fill="var(--ci-primary-color, currentColor)" d="M262.967,265.268l42.148-42.148a500.487,500.487,0,0,0-54.847-44.062C177.375,128.576,116.185,98.965,81.4,96.775c-.286.27-.574.536-.859.808-1.338,63.485,44.682,143.776,73.751,187.973a388.235,388.235,0,0,0,38.792,49.6l40.184-40.184L394.3,456h59.4Z" class="ci-primary"/>
  <path fill="var(--ci-primary-color, currentColor)" d="M270.764,149.462a536.828,536.828,0,0,1,59.826,48.183L399.431,128.8l-27.785-27.785A208.546,208.546,0,0,0,119.8,68.039c14.493,4.482,30.492,11.011,48.111,19.619C206.112,106.323,244.928,131.57,270.764,149.462Z" class="ci-primary"/>
  <path fill="var(--ci-primary-color, currentColor)" d="M68.016,201.421Q53.821,166.981,48.2,136.927A208.524,208.524,0,0,0,77.019,395.646L104.8,423.431l62.8-62.8a424.567,424.567,0,0,1-43.39-55.291C107.879,280.5,84.868,242.313,68.016,201.421Z" class="ci-primary"/>
</svg>
