<svg xmlns="http://www.w3.org/2000/svg" viewBox="0 0 512 512">
  <polygon fill="var(--ci-primary-color, currentColor)" points="112 312 107.2 312 99.94 171.99 83.317 96 16 96 16 400 64 400 64 160 68.8 160 74.391 279.811 100.683 400 160 400 160 96 112 96 112 312" class="ci-primary"/>
  <polygon fill="var(--ci-primary-color, currentColor)" points="184 400 280 400 280 352 232 352 232 272 264 272 264 224 232 224 232 144 280 144 280 96 184 96 184 400" class="ci-primary"/>
  <polygon fill="var(--ci-primary-color, currentColor)" points="448 96 448 150.719 440 225.383 440 328 435.2 328 427.218 213.964 420.948 168 371.052 168 364.783 213.955 356.8 328 352 328 352 225.387 344 150.719 344 96 296 96 296 153.283 322.434 400 384 400 393.6 232 398.4 232 408 400 469.566 400 496 153.283 496 96 448 96" class="ci-primary"/>
</svg>
