<svg xmlns="http://www.w3.org/2000/svg" viewBox="0 0 512 512">
  <path fill="var(--ci-primary-color, currentColor)" d="M135.831,383.5a16.355,16.355,0,0,0,31.223,9.752l8.445-27.04-27.64,6.206A16.188,16.188,0,0,0,135.831,383.5Z" class="ci-primary"/>
  <path fill="var(--ci-primary-color, currentColor)" d="M223.115,277.291a343.736,343.736,0,0,1-16.838,53.74A395.452,395.452,0,0,1,261.3,318.679,344.338,344.338,0,0,1,223.115,277.291Z" class="ci-primary"/>
  <path fill="var(--ci-primary-color, currentColor)" d="M338.777,362.35a16.355,16.355,0,1,0-7.167-31.915l-27.64,6.206,19.195,20.834A16.188,16.188,0,0,0,338.777,362.35Z" class="ci-primary"/>
  <path fill="var(--ci-primary-color, currentColor)" d="M219.561,196.923a16.371,16.371,0,0,0-15.535-21.242,16.666,16.666,0,0,0-3.66.409,16.355,16.355,0,0,0-8.446,27.039l19.2,20.834Z" class="ci-primary"/>
  <path fill="var(--ci-primary-color, currentColor)" d="M286,32H64V480H456V202H286Zm40.353,275.018a40.355,40.355,0,0,1,17.682,78.749A41.237,41.237,0,0,1,335,386.776a39.892,39.892,0,0,1-29.489-13.039L275.353,341a371.53,371.53,0,0,0-71.863,16.092L189.963,400.4a39.945,39.945,0,0,1-29.68,27.345,41.222,41.222,0,0,1-9.03,1.009A40.371,40.371,0,0,1,142.6,349l32.668-7.335a320.159,320.159,0,0,0,28.387-90.374l-29.386-31.9a40.355,40.355,0,1,1,68.2-15.312l-12.913,41.344a320.524,320.524,0,0,0,63.6,69.047Z" class="ci-primary"/>
  <polygon fill="var(--ci-primary-color, currentColor)" points="456 166 456 160 328 32 322 32 322 166 456 166" class="ci-primary"/>
</svg>
