<svg xmlns="http://www.w3.org/2000/svg" viewBox="0 0 512 512">
  <path fill="var(--ci-primary-color, currentColor)" d="M470.077,312.662l-86.836-54.873,33.406-52.495a62.61,62.61,0,0,0,9.788-33.613V106.435A90.44,90.44,0,0,0,246.861,91.129,127.843,127.843,0,0,1,265.4,106.473a125.608,125.608,0,0,1,37.032,89.4v65.246a98.446,98.446,0,0,1-15.417,52.941L273,336.089l56.306,35.581a91.9,91.9,0,0,1,31.313,33.248c.6,1.084,1.163,2.184,1.715,3.29L496,408V359.708A55.653,55.653,0,0,0,470.077,312.662Z" class="ci-primary"/>
  <path fill="var(--ci-primary-color, currentColor)" d="M310.077,402.1,223.241,347.23l33.406-52.495a62.61,62.61,0,0,0,9.788-33.613V195.876A90.435,90.435,0,0,0,176,105.441h0a90.435,90.435,0,0,0-90.435,90.435v65.246a62.61,62.61,0,0,0,9.788,33.613l33.406,52.5L41.923,402.1A55.653,55.653,0,0,0,16,449.149V496l320-.5V449.149A55.653,55.653,0,0,0,310.077,402.1Z" class="ci-primary"/>
</svg>
