<svg xmlns="http://www.w3.org/2000/svg" viewBox="0 0 512 512">
  <path fill="var(--ci-primary-color, currentColor)" d="M236.417,166.142V124.573l-97.19,56.113a26.071,26.071,0,0,0-13,22.516V313.676l36-20.348L236.417,251.4Z" class="ci-primary"/>
  <path fill="var(--ci-primary-color, currentColor)" d="M268.417,125.057V251.436l73.352,41.46,36,20.348V203.2a26.073,26.073,0,0,0-13-22.517Z" class="ci-primary"/>
  <path fill="var(--ci-primary-color, currentColor)" d="M252,402a25.99,25.99,0,0,0,13-3.473L363.253,341.8l-36.382-20.564-74.491-42.1L177.5,321.452l-36.382,20.564L239,398.526A26,26,0,0,0,252,402Z" class="ci-primary"/>
  <path fill="var(--ci-primary-color, currentColor)" d="M255.987,460.431V416L144.308,496H255.321v.439c133.8,0,242.661-108.264,242.661-241.339h-36C461.982,368.1,369.635,460.072,255.987,460.431Z" class="ci-primary"/>
  <path fill="var(--ci-primary-color, currentColor)" d="M256,52.722V96L368,16H256v.721A239.307,239.307,0,0,0,17.414,256.035h36C53.414,144.168,144.226,53.121,256,52.722Z" class="ci-primary"/>
</svg>
