<svg xmlns="http://www.w3.org/2000/svg" viewBox="0 0 512 512">
  <polygon fill="var(--ci-primary-color, currentColor)" points="96 179.517 37.04 221.631 96 259.426 96 179.517" class="ci-primary"/>
  <polygon fill="var(--ci-primary-color, currentColor)" points="416 179.517 416 260.789 476.308 222.594 416 179.517" class="ci-primary"/>
  <polygon fill="var(--ci-primary-color, currentColor)" points="240.941 307.765 256 299.733 271.059 307.765 309.476 328.254 384 281.056 384 156.659 384 48 128 48 128 156.659 128 279.938 202.987 328.007 240.941 307.765" class="ci-primary"/>
  <polygon fill="var(--ci-primary-color, currentColor)" points="416 298.667 341.943 345.57 416 385.067 496 427.733 496 248 416 298.667" class="ci-primary"/>
  <polygon fill="var(--ci-primary-color, currentColor)" points="170.62 345.269 96 297.436 16 246.154 16 427.733 96 385.067 170.62 345.269" class="ci-primary"/>
  <polygon fill="var(--ci-primary-color, currentColor)" points="310.857 365.257 278.39 347.942 256 336 233.869 347.803 201.502 365.065 96 421.333 16 464 16 496 496 496 496 464 416 421.333 310.857 365.257" class="ci-primary"/>
</svg>
