<svg xmlns="http://www.w3.org/2000/svg" viewBox="0 0 512 512">
  <path fill="var(--ci-primary-color, currentColor)" d="M257.461,301.005h0q-.69-.476-1.406-.948a87.446,87.446,0,0,0-87.608-4.744l-8.4,3.468a96,96,0,0,0,191.934-.953l-26.221,8.828C299.753,315.41,275.485,313.4,257.461,301.005Z" class="ci-primary"/>
  <path fill="var(--ci-primary-color, currentColor)" d="M424,16H88A16,16,0,0,0,72,32V480a16,16,0,0,0,16,16H424a16,16,0,0,0,16-16V32A16,16,0,0,0,424,16ZM224,72h32v32H224ZM120,72h72v32H120ZM256,424A128,128,0,1,1,384,296,128.145,128.145,0,0,1,256,424Z" class="ci-primary"/>
</svg>
