<svg xmlns="http://www.w3.org/2000/svg" viewBox="0 0 512 512">
  <path fill="var(--ci-primary-color, currentColor)" d="M217.915,344.709c-.47-.651-.952-1.291-1.462-1.909a37.113,37.113,0,0,0-5.3-5.233c-.82-.662-1.664-1.3-2.54-1.888a36.9,36.9,0,0,0-41.232,0c-.876.592-1.72,1.226-2.54,1.888a37.089,37.089,0,0,0-2.917,2.615c-.019.019-.037.04-.057.059q-1.22,1.226-2.323,2.559c-.51.618-.992,1.258-1.462,1.909a36.825,36.825,0,0,0,2.621,46.338q1.191,1.309,2.5,2.5a36.832,36.832,0,0,0,49.584,0q1.311-1.19,2.5-2.5a36.894,36.894,0,0,0,5.128-42.368q-.562-1.036-1.192-2.028T217.915,344.709Z" class="ci-primary"/>
  <polygon fill="var(--ci-primary-color, currentColor)" points="133.425 72.709 16 72.709 16 208.709 205.425 208.709 133.425 72.709" class="ci-primary"/>
  <path fill="var(--ci-primary-color, currentColor)" d="M241.633,208.709H461.106c-40.115-57.288-116.582-136-233.768-136h-57.7Z" class="ci-primary"/>
  <path fill="var(--ci-primary-color, currentColor)" d="M25.622,312.709a68.687,68.687,0,0,1,86.5,0,69.366,69.366,0,0,1,16.313,19.034,69.369,69.369,0,0,1,16.314-19.034,68.685,68.685,0,0,1,86.5,0,69.369,69.369,0,0,1,16.314,19.034,69.366,69.366,0,0,1,16.313-19.034,68.879,68.879,0,0,1,108.653,32h61.9a61.568,61.568,0,0,0,54.728-89.768c-2.043-3.971-4.621-8.78-7.739-14.232H16v81.469A69.558,69.558,0,0,1,25.622,312.709Z" class="ci-primary"/>
  <path fill="var(--ci-primary-color, currentColor)" d="M89.489,335.679a36.886,36.886,0,0,0-50.164,8.514q-1.062,1.419-1.987,2.942t-1.7,3.134a36.973,36.973,0,0,0-.738,30.338c.312.738.656,1.459,1.014,2.172.444.884.915,1.753,1.426,2.6q.462.76.959,1.5c.592.876,1.226,1.721,1.889,2.541q.96,1.188,2.018,2.291.61.641,1.251,1.251c.636.605,1.286,1.2,1.963,1.754a37.094,37.094,0,0,0,4.991,3.46q.7.406,1.426.786a36.811,36.811,0,0,0,40.492-4.246q1.335-1.1,2.559-2.323l.06-.057a36.876,36.876,0,0,0-4.012-55.62Q90.225,336.176,89.489,335.679Z" class="ci-primary"/>
  <path fill="var(--ci-primary-color, currentColor)" d="M336.675,344.193a36.886,36.886,0,0,0-50.164-8.514q-.735.5-1.445,1.028a36.86,36.86,0,0,0-4.608,55q.612.641,1.252,1.251c.635.605,1.285,1.2,1.963,1.754a36.82,36.82,0,0,0,40.492,4.246q.721-.378,1.426-.786a37.094,37.094,0,0,0,4.991-3.46q1.334-1.1,2.559-2.323c.019-.019.04-.037.059-.057a36.863,36.863,0,0,0,2.614-2.916c.663-.82,1.3-1.665,1.889-2.541q.5-.735.959-1.5c.511-.842.982-1.711,1.426-2.6.358-.713.7-1.434,1.014-2.172a36.973,36.973,0,0,0-.738-30.338q-.777-1.612-1.7-3.134T336.675,344.193Z" class="ci-primary"/>
  <rect width="480" height="42" x="16" y="419" fill="var(--ci-primary-color, currentColor)" class="ci-primary"/>
</svg>
