<svg xmlns="http://www.w3.org/2000/svg" viewBox="0 0 512 512">
  <path fill="var(--ci-primary-color, currentColor)" d="M256.25,503.5A247.75,247.75,0,0,0,431.436,80.564,247.722,247.722,0,0,0,87.605,74.281L29.324,16,24,21.324V169.068H173.115l4.638-4.638-56.166-56.167A199.942,199.942,0,0,1,256.25,56C366.393,56,456,145.607,456,255.75S366.393,455.5,256.25,455.5,56.5,365.893,56.5,255.75H8.5A247.749,247.749,0,0,0,256.25,503.5Z" class="ci-primary"/>
  <polygon fill="var(--ci-primary-color, currentColor)" points="232.485 103.927 231.927 288 368.485 288 368.485 240 280.073 240 280.485 104.073 232.485 103.927" class="ci-primary"/>
</svg>
