<svg xmlns="http://www.w3.org/2000/svg" viewBox="0 0 512 512">
  <path fill="var(--ci-primary-color, currentColor)" d="M61,72A11.013,11.013,0,0,1,72,61H192V19H72A53.06,53.06,0,0,0,19,72V192H61Z" class="ci-primary"/>
  <path fill="var(--ci-primary-color, currentColor)" d="M61,440V320H19V440a53.06,53.06,0,0,0,53,53H192V451H72A11.013,11.013,0,0,1,61,440Z" class="ci-primary"/>
  <path fill="var(--ci-primary-color, currentColor)" d="M451,440a11.013,11.013,0,0,1-11,11H320v42H440a53.06,53.06,0,0,0,53-53V320H451Z" class="ci-primary"/>
  <path fill="var(--ci-primary-color, currentColor)" d="M440,19H320V61H440a11.013,11.013,0,0,1,11,11V192h42V72A53.06,53.06,0,0,0,440,19Z" class="ci-primary"/>
  <circle cx="256" cy="256" r="80" fill="var(--ci-primary-color, currentColor)" class="ci-primary"/>
</svg>
