<svg xmlns="http://www.w3.org/2000/svg" viewBox="0 0 512 512">
  <path fill="var(--ci-primary-color, currentColor)" d="M430.481,236.925a68.513,68.513,0,0,0-23.941-1.857L368,238.947V152.39a8,8,0,0,0-8.38-7.991l-100.345,4.778,4.409-43.8a68.52,68.52,0,0,0-1.857-23.942c-7.75-28.913-33.646-49.518-65.391-49.518s-57.642,20.605-65.392,49.518a68.52,68.52,0,0,0-1.856,23.942l4.374,43.46L40.38,144.4A8,8,0,0,0,32,152.39V471.61a8,8,0,0,0,8.38,7.991l92.252-4.393-3.444-34.221a68.513,68.513,0,0,1,1.856-23.941c7.75-28.914,33.646-49.519,65.392-49.519s57.641,20.605,65.391,49.519a68.513,68.513,0,0,1,1.857,23.941l-3.411,33.883L359.62,479.6A8,8,0,0,0,368,471.61V365.685l38.54,3.879a68.513,68.513,0,0,0,23.941-1.856C459.4,359.958,480,334.062,480,302.316S459.4,244.675,430.481,236.925Z" class="ci-primary"/>
</svg>
