<svg xmlns="http://www.w3.org/2000/svg" viewBox="0 0 512 512">
  <path fill="var(--ci-primary-color, currentColor)" d="M368,368H120V88H392V56a40.045,40.045,0,0,0-40-40H112A40.045,40.045,0,0,0,72,56V456a40.045,40.045,0,0,0,40,40H352a40.045,40.045,0,0,0,40-40V368ZM250,450H214V414h36Z" class="ci-primary"/>
  <path fill="var(--ci-primary-color, currentColor)" d="M266.872,222.794a17.811,17.811,0,0,1,0,4.263v13.487l28.1,23.255a60.843,60.843,0,0,0,.789-76.753l-28.889,22.912Z" class="ci-primary"/>
  <path fill="var(--ci-primary-color, currentColor)" d="M324.235,288.016l32.342,26.766a140.714,140.714,0,0,0,1.846-177.433l-32.892,26.087a98.8,98.8,0,0,1-1.3,124.58Z" class="ci-primary"/>
  <path fill="var(--ci-primary-color, currentColor)" d="M431.6,88q-2.038-2.72-4.167-5.383L420.645,88l-26.2,20.778A186.62,186.62,0,0,1,392,344.1L420.882,368l3.546,2.935c.807-.972,1.6-1.952,2.391-2.935A229.115,229.115,0,0,0,431.6,88Z" class="ci-primary"/>
</svg>
