<svg xmlns="http://www.w3.org/2000/svg" viewBox="0 0 512 512">
  <path fill="var(--ci-primary-color, currentColor)" d="M32,32V480H480V32ZM336.511,385.192C319.649,401.835,298.4,411,276.676,411h-104V357h104c10.029,0,18.028-6.416,21.9-10.241a20.649,20.649,0,0,0,6.058-16.824,21.9,21.9,0,0,0-9.557-16.187L257.025,288h87.741a75.823,75.823,0,0,1,13.643,36.974A74.64,74.64,0,0,1,336.511,385.192ZM432,256H80V224h88.341c-15.3-18.841-20.606-43.961-13.481-68.687,9.18-31.86,36.4-53.166,69.351-54.279.62-.019,1.194-.038,119.794-.015l-.01,54c-31.254-.007-111.813-.02-118.282,0-13.317.605-17.7,10.846-18.964,15.248-1.048,3.635-3.518,16.138,8.677,24.389L258.8,224H432Z" class="ci-primary"/>
</svg>
