<svg xmlns="http://www.w3.org/2000/svg" viewBox="0 0 512 512">
  <path fill="var(--ci-primary-color, currentColor)" d="M120,96H16V400H120a40.045,40.045,0,0,0,40-40V136A40.045,40.045,0,0,0,120,96Zm-8,256H64V144h48Z" class="ci-primary"/>
  <path fill="var(--ci-primary-color, currentColor)" d="M496,232V136a40.045,40.045,0,0,0-40-40H352V400h48V272h15.751L440,332.622V400h48V323.378l-21.154-52.885A40.064,40.064,0,0,0,496,232Zm-48-8H400V144h48Z" class="ci-primary"/>
  <polygon fill="var(--ci-primary-color, currentColor)" points="288 149.874 256 329.074 224 149.874 224 96 176 96 176 154.126 219.906 400 292.094 400 336 154.126 336 96 288 96 288 149.874" class="ci-primary"/>
</svg>
