<svg xmlns="http://www.w3.org/2000/svg" viewBox="0 0 512 512">
  <path fill="var(--ci-primary-color, currentColor)" d="M425.514,82.055C380.778,39.458,320.673,16,256.271,16,196.248,16,136.415,36.073,92.115,71.071,43.032,109.85,16,164.161,16,224c0,60.1,15.531,98.87,48.876,122.019,28,19.438,68.412,27.731,135.124,27.731h29.75A26.28,26.28,0,0,1,256,400v47.984a32,32,0,0,0,32,32h.032l90.755-.088a32.094,32.094,0,0,0,19.686-6.8c9.725-7.622,34.727-29.4,56.8-66.9C482.3,360.262,496,307.037,496,248,496,184.268,470.968,125.334,425.514,82.055ZM376,360a40,40,0,1,1,40-40A40,40,0,0,1,376,360ZM240,168a40,40,0,1,1,40-40A40,40,0,0,1,240,168ZM128,240a40,40,0,1,1,40-40A40,40,0,0,1,128,240Zm272-56a40,40,0,1,1-40-40A40,40,0,0,1,400,184Z" class="ci-primary"/>
</svg>
