<svg xmlns="http://www.w3.org/2000/svg" viewBox="0 0 512 512">
  <path fill="var(--ci-primary-color, currentColor)" d="M185.613,290.451l50.92-32.733L256,245.2l19.467,12.515,50.92,32.733L465.824,182H466L274.6,45.285a32,32,0,0,0-37.2,0L46,182h.176Z" class="ci-primary"/>
  <polygon fill="var(--ci-primary-color, currentColor)" points="33.824 218 32 218 32 389.203 153.51 311.089 33.824 218" class="ci-primary"/>
  <polygon fill="var(--ci-primary-color, currentColor)" points="478.176 218 358.49 311.089 480 389.203 480 218 478.176 218" class="ci-primary"/>
  <polygon fill="var(--ci-primary-color, currentColor)" points="312.313 324.201 296.261 313.882 256 288 215.739 313.882 199.687 324.201 183.635 334.52 32 432 32 480 480 480 480 432 328.365 334.52 312.313 324.201" class="ci-primary"/>
</svg>
