<svg xmlns="http://www.w3.org/2000/svg" viewBox="0 0 512 512">
  <path fill="var(--ci-primary-color, currentColor)" d="M256.36,376A155.559,155.559,0,0,0,210.5,265.28L208.52,263.3V184c0-20.492,16.344-37.461,36.435-37.826,10.891-.2,20.827,3.572,28,10.615A33.346,33.346,0,0,1,283,181.167h42a75.511,75.511,0,0,0-22.617-54.345c-15.281-15.006-35.944-23.036-58.192-22.641a78.215,78.215,0,0,0-55.177,24.114A79.81,79.81,0,0,0,166.52,184v96.7L180.8,294.978A113.834,113.834,0,0,1,214.36,376Z" class="ci-primary"/>
  <path fill="var(--ci-primary-color, currentColor)" d="M249.248,16c-44.445-.278-86.69,17.2-119.028,49.309S80.06,139.583,80.06,184H80v40h48V184h.06c0-31.531,12.778-61.585,35.982-84.626S217.41,63.75,248.91,64c63.909.45,116.21,52.812,116.587,116.724A117.573,117.573,0,0,1,326.3,269.022a32.26,32.26,0,0,0-10.723,24.039v96.432A58.573,58.573,0,0,1,257.073,448H205.5v48h51.573A106.627,106.627,0,0,0,363.58,389.493V299.868A165.6,165.6,0,0,0,413.5,180.443C412.965,90.406,339.283,16.639,249.248,16Z" class="ci-primary"/>
</svg>
