<svg xmlns="http://www.w3.org/2000/svg" viewBox="0 0 512 512">
  <polygon fill="var(--ci-primary-color, currentColor)" points="431.456 314 394.971 314 462.232 381.261 495.768 414.797 495.768 249.688 462.232 283.224 431.456 314" class="ci-primary"/>
  <path fill="var(--ci-primary-color, currentColor)" d="M495.768,465.793v-.084l-33.536-33.536L344.059,314h-.084l-36-36h.084L175.828,145.768,156.55,126.49l-2.382-2.382-11.877-11.876h-.084L45.975,16H16V45.422l66.81,66.81H41A24.8,24.8,0,0,0,16.232,137v61.776l33.536,33.536L95.456,278H248.578l36,36H80.544L49.768,283.224,16.232,249.688V471.033A24.8,24.8,0,0,0,41,495.8H466.379l.2.2H496V466.025Z" class="ci-primary"/>
  <path fill="var(--ci-primary-color, currentColor)" d="M226.739,145.768,316.568,235.6h0l42.4,42.4h57.573l45.688-45.688,33.536-33.536V137A24.8,24.8,0,0,0,471,112.232H368.394l.049-95.87H154.224l-.03,56.861L196.172,115.2ZM196.2,58.362h130.22l-.028,53.87H196.174Z" class="ci-primary"/>
</svg>
