<svg xmlns="http://www.w3.org/2000/svg" viewBox="0 0 512 512">
  <path fill="var(--ci-primary-color, currentColor)" d="M16,256c0,115.714,82.468,214.957,196.09,235.976l18.91,3.5V349.359l-10.141-3.991a96.045,96.045,0,0,1,0-178.736L231,162.641V16.525l-18.91,3.5C98.468,41.043,16,140.286,16,256Z" class="ci-primary"/>
  <path fill="var(--ci-primary-color, currentColor)" d="M345.368,291.141a96.3,96.3,0,0,1-55.084,54.552L280,349.626V495.577l18.839-3.4a240.214,240.214,0,0,0,193.138-192.27l3.5-18.911H349.359Z" class="ci-primary"/>
  <path fill="var(--ci-primary-color, currentColor)" d="M345.692,221.716,349.626,232H495.577l-3.4-18.838A240.212,240.212,0,0,0,298.839,19.819L280,16.423v145.95l10.284,3.934A96.189,96.189,0,0,1,345.692,221.716Z" class="ci-primary"/>
</svg>
