<svg xmlns="http://www.w3.org/2000/svg" viewBox="0 0 512 512">
  <path fill="var(--ci-primary-color, currentColor)" d="M64,168H24V472a16,16,0,0,0,16,16H344V448H64Z" class="ci-primary"/>
  <path fill="var(--ci-primary-color, currentColor)" d="M136,96H96V400a16,16,0,0,0,16,16H416V376H136Z" class="ci-primary"/>
  <path fill="var(--ci-primary-color, currentColor)" d="M472,24H184a16.016,16.016,0,0,0-16,16V328a16,16,0,0,0,16,16H472a15.986,15.986,0,0,0,15.963-15.273c.011-.243.037-.482.037-.727V40A16,16,0,0,0,472,24ZM350.656,296c-30.4,0-55.047-22.82-55.047-50.969,0-1.794.3-111.3.3-111.3l-54,10.271V96.669l90.242-17.164L331.907,197.1a58.9,58.9,0,0,1,18.749-3.037c30.4,0,55.046,22.82,55.046,50.969S381.057,296,350.656,296Z" class="ci-primary"/>
</svg>
