<svg xmlns="http://www.w3.org/2000/svg" viewBox="0 0 512 512">
  <path fill="var(--ci-primary-color, currentColor)" d="M449.447,322.838V384h-36V333.162L385.22,288H369.447v96h-36V288H306.255v54.938a41.331,41.331,0,0,1-41.482,41.083H195.589V288H170v96H134V288H90v96H54V288H16V424a16,16,0,0,0,16,16H480a16,16,0,0,0,16-16V288H427.673Z" class="ci-primary"/>
  <path fill="var(--ci-primary-color, currentColor)" d="M496,80a16,16,0,0,0-16-16H32A16,16,0,0,0,16,80V224H0v32H512V224H496ZM54,224V120H90V224Zm80,0V120h36V224Zm136.255,0V161.042a5.3,5.3,0,0,0-5.482-5.084H231.589V224h-36V119.957h69.185a41.332,41.332,0,0,1,41.481,41.084V224Zm143.192,0V155.957h-44V224h-36V119.957H416.78c18.012,0,32.667,15.252,32.667,34V224Z" class="ci-primary"/>
  <path fill="var(--ci-primary-color, currentColor)" d="M270.255,342.938V288H231.589v60.021h33.184A5.3,5.3,0,0,0,270.255,342.938Z" class="ci-primary"/>
</svg>
