<svg xmlns="http://www.w3.org/2000/svg" viewBox="0 0 512 512">
  <path fill="var(--ci-primary-color, currentColor)" d="M472,30H152a26.029,26.029,0,0,0-26,26v65h36V66H462V337.143H408v36h64a26.03,26.03,0,0,0,26-26V56A26.029,26.029,0,0,0,472,30Z" class="ci-primary"/>
  <path fill="var(--ci-primary-color, currentColor)" d="M16.248,264.22V458a24.027,24.027,0,0,0,24,24H352a24.028,24.028,0,0,0,24-24V264.22Z" class="ci-primary"/>
  <path fill="var(--ci-primary-color, currentColor)" d="M352,153H40.248a24.027,24.027,0,0,0-24,24v51.22H376V177A24.028,24.028,0,0,0,352,153Z" class="ci-primary"/>
</svg>
