<svg xmlns="http://www.w3.org/2000/svg" viewBox="0 0 512 512">
  <path fill="var(--ci-primary-color, currentColor)" d="M316.568,235.6l8,8A48.057,48.057,0,0,1,368,216h56V96a16,16,0,0,0-16-16H160.765l155.8,155.6Z" class="ci-primary"/>
  <path fill="var(--ci-primary-color, currentColor)" d="M496,415.029V264a16,16,0,0,0-16-16H368a16,16,0,0,0-16,16v7.029Z" class="ci-primary"/>
  <path fill="var(--ci-primary-color, currentColor)" d="M352,381.422V456a16,16,0,0,0,16,16h74.578l24,24H496V466.457L45.709,16H16V45.422L50.578,80H32A16,16,0,0,0,16,96V368a16,16,0,0,0,16,16H207v40.122l-55,6.735V472H304V430.857l-55-6.735V384h71V349.422Z" class="ci-primary"/>
</svg>
