<svg xmlns="http://www.w3.org/2000/svg" viewBox="0 0 512 512">
  <path fill="var(--ci-primary-color, currentColor)" d="M487.938,162.108l-224-128a16,16,0,0,0-15.876,0l-224,128a16,16,0,0,0,.382,28l224,120a16,16,0,0,0,15.112,0l224-120a16,16,0,0,0,.382-28Z" class="ci-primary"/>
  <path fill="var(--ci-primary-color, currentColor)" d="M32,320.733v47.6l214.118,114.2a21,21,0,0,0,19.764,0L480,368.333v-47.6L256,440.2Z" class="ci-primary"/>
  <path fill="var(--ci-primary-color, currentColor)" d="M32,232.833v47.933L245.88,398.4a21,21,0,0,0,20.24,0L480,280.766V232.833l-224,123.2Z" class="ci-primary"/>
</svg>
