<svg xmlns="http://www.w3.org/2000/svg" viewBox="0 0 512 512">
  <path fill="var(--ci-primary-color, currentColor)" d="M456,216a31.978,31.978,0,0,0-27.708,16H416V216a32,32,0,0,0-59.708-16H344v-8a32,32,0,0,0-64,0H264V56a32,32,0,0,0-64,0V312.478H159.593l-32.006-35.525a79.783,79.783,0,0,0-112.677-5.87h0a8,8,0,0,0-.589,11.3L206.783,496,208,494.9V496H455.238l32.023-101.653a16,16,0,0,0,.739-4.808V248A32,32,0,0,0,456,216ZM284,376H260V296h24Zm80,0H340V296h24Zm72,0H412V296h24Z" class="ci-primary"/>
</svg>
