<svg xmlns="http://www.w3.org/2000/svg" viewBox="0 0 512 512">
  <path fill="var(--ci-primary-color, currentColor)" d="M256,498A242,242,0,0,0,427.12,84.88,242,242,0,0,0,84.88,427.12,240.415,240.415,0,0,0,256,498ZM218.946,337.412a30.353,30.353,0,1,1,0-42.925A30.353,30.353,0,0,1,218.946,337.412ZM227.12,413.5a29.637,29.637,0,1,1-29.637-29.637A29.637,29.637,0,0,1,227.12,413.5Zm-8.174-195.987a30.353,30.353,0,1,1,0-42.925A30.353,30.353,0,0,1,218.946,217.513ZM167.846,98.5a29.637,29.637,0,1,1,29.637,29.637A29.637,29.637,0,0,1,167.846,98.5Zm-39.709,98.983A29.637,29.637,0,1,1,98.5,167.846,29.637,29.637,0,0,1,128.137,197.483ZM98.5,284.88a29.637,29.637,0,1,1-29.637,29.637A29.637,29.637,0,0,1,98.5,284.88Zm344.637-87.4A29.637,29.637,0,1,1,413.5,167.846,29.637,29.637,0,0,1,443.137,197.483Zm-150.083-22.9a30.353,30.353,0,1,1,0,42.925A30.353,30.353,0,0,1,293.054,174.588ZM284.88,98.5a29.637,29.637,0,1,1,29.637,29.637A29.637,29.637,0,0,1,284.88,98.5Zm8.174,195.987a30.353,30.353,0,1,1,0,42.925A30.353,30.353,0,0,1,293.054,294.487Zm51.1,119.013a29.637,29.637,0,1,1-29.637-29.637A29.637,29.637,0,0,1,344.154,413.5Zm39.709-98.983A29.637,29.637,0,1,1,413.5,344.154,29.637,29.637,0,0,1,383.863,314.517Z" class="ci-primary"/>
</svg>
