<svg xmlns="http://www.w3.org/2000/svg" viewBox="0 0 512 512">
  <path fill="var(--ci-primary-color, currentColor)" d="M48,272V431.454h67.4L65.81,496h52.964l49.588-64.546H343.638L393.226,496H446.19L396.6,431.454H464V272Zm296,40a32,32,0,1,1-32,32A32,32,0,0,1,344,312Zm-176,0a32,32,0,1,1-32,32A32,32,0,0,1,168,312Z" class="ci-primary"/>
  <path fill="var(--ci-primary-color, currentColor)" d="M416,16H96A48.055,48.055,0,0,0,48,64V240H464V64A48.055,48.055,0,0,0,416,16ZM320,120H192V88H320Z" class="ci-primary"/>
</svg>
