<svg xmlns="http://www.w3.org/2000/svg" viewBox="0 0 512 512">
  <path fill="var(--ci-primary-color, currentColor)" d="M256.029,16c-132.549,0-240,107.452-240,240s107.451,240,240,240,240-107.452,240-240S388.577,16,256.029,16ZM72.182,256h36A147.7,147.7,0,0,0,168.45,375.024l26.459-31.751,33.844,58.018,20.521,35.179,1.917,3.285C152.047,437.2,72.182,355.75,72.182,256Zm263.729,91.071L221.639,290.032,164.458,175.62A8,8,0,0,1,175.2,164.891L289.521,222.15l57.118,114.185A8,8,0,0,1,335.911,347.071ZM403.818,256A147.7,147.7,0,0,0,343.55,136.976l-26.459,31.751-33.844-58.018L262.726,75.53l-1.917-3.285C359.953,74.8,439.818,156.25,439.818,256Z" class="ci-primary"/>
</svg>
