<svg xmlns="http://www.w3.org/2000/svg" viewBox="0 0 512 512">
  <path fill="var(--ci-primary-color, currentColor)" d="M435,16H77A61,61,0,0,0,16,77V435a61,61,0,0,0,61,61H435a61,61,0,0,0,61-61V77A61,61,0,0,0,435,16Zm5,408a16,16,0,0,1-16,16H88a16,16,0,0,1-16-16V88A16,16,0,0,1,88,72H424a16,16,0,0,1,16,16Z" class="ci-primary"/>
  <rect width="136" height="136" x="104" y="104" fill="var(--ci-primary-color, currentColor)" class="ci-primary"/>
  <rect width="136" height="136" x="104" y="272" fill="var(--ci-primary-color, currentColor)" class="ci-primary"/>
  <rect width="136" height="136" x="272" y="104" fill="var(--ci-primary-color, currentColor)" class="ci-primary"/>
  <rect width="136" height="136" x="272" y="272" fill="var(--ci-primary-color, currentColor)" class="ci-primary"/>
</svg>
